<?xml version="1.0" standalone="no"?><!-- Generator: Gravit.io --><svg xmlns="http://www.w3.org/2000/svg" xmlns:xlink="http://www.w3.org/1999/xlink" style="isolation:isolate" viewBox="0 0 1736.678 1736.678" width="1736.678" height="1736.678"><defs><clipPath id="_clipPath_NV8N9TIC0XqkMvvI9XBnrATvQVFTfLrA"><rect width="1736.678" height="1736.678"/></clipPath></defs><g clip-path="url(#_clipPath_NV8N9TIC0XqkMvvI9XBnrATvQVFTfLrA)"><path d=" M 1748.848 868.34 C 1748.848 868.34 1748.848 868.34 1748.848 868.34 L 1748.848 868.34 L 1748.848 868.34 Z  M 1736.68 868.34 C 1736.68 868.34 1736.68 868.34 1736.68 868.34 L 1736.68 868.34 L 1736.68 868.34 Z  M 1736.68 868.34 C 1736.7 927.092 1730.788 985.692 1719.026 1043.257 C 1707.578 1099.109 1690.623 1153.693 1668.396 1206.199 L 1588.299 1353.687 C 1557.118 1399.815 1521.598 1442.86 1482.223 1482.223 C 1442.86 1521.598 1399.815 1557.118 1353.687 1588.299 C 1307.225 1619.703 1257.832 1646.534 1206.199 1668.396 L 1043.257 1719.026 C 985.692 1730.788 927.092 1736.7 868.34 1736.68 C 809.588 1736.7 750.988 1730.788 693.423 1719.026 C 637.571 1707.578 582.987 1690.623 530.481 1668.396 L 382.993 1588.299 C 336.865 1557.118 293.821 1521.598 254.457 1482.223 C 215.082 1442.86 179.562 1399.815 148.381 1353.687 L 68.284 1206.199 L 17.654 1043.247 C 5.892 985.692 -0.03 927.092 0 868.34 C -0.03 809.588 5.892 750.988 17.654 693.423 C 29.102 637.571 46.057 582.987 68.284 530.481 C 90.146 478.847 116.977 429.445 148.381 382.993 C 179.562 336.865 215.082 293.821 254.457 254.457 C 293.821 215.082 336.865 179.562 382.993 148.381 L 530.481 68.284 C 582.987 46.057 637.571 29.102 693.423 17.654 C 750.988 5.892 809.588 -0.03 868.34 0 C 927.092 -0.03 985.692 5.892 1043.257 17.654 C 1099.109 29.102 1153.693 46.057 1206.199 68.284 C 1257.832 90.146 1307.225 116.977 1353.687 148.381 C 1399.815 179.562 1442.86 215.082 1482.223 254.457 C 1521.598 293.821 1557.118 336.865 1588.299 382.993 C 1619.703 429.445 1646.534 478.847 1668.396 530.481 C 1690.623 582.987 1707.578 637.571 1719.026 693.423 C 1730.788 750.988 1736.7 809.588 1736.68 868.34 Z  M 868.34 1736.68 C 868.34 1736.68 868.34 1736.68 868.34 1736.68 L 868.34 1736.68 L 868.34 1736.68 Z  M 1736.68 868.34 C 1736.68 868.34 1736.68 868.34 1736.68 868.34 L 1736.68 868.34 L 1736.68 868.34 Z  M 1724.68 868.34 C 1724.68 868.34 1724.68 868.34 1724.68 868.34 L 1724.68 868.34 L 1724.68 868.34 Z  M 1724.68 868.34 C 1724.7 926.28 1718.87 984.07 1707.27 1040.84 C 1695.98 1095.92 1679.26 1149.75 1657.34 1201.53 L 1578.35 1346.98 C 1547.6 1392.47 1512.57 1434.92 1473.74 1473.74 C 1434.92 1512.57 1392.47 1547.6 1346.98 1578.35 C 1301.16 1609.32 1252.45 1635.78 1201.53 1657.34 L 1040.84 1707.27 C 984.07 1718.87 926.28 1724.7 868.34 1724.68 C 810.4 1724.7 752.61 1718.87 695.84 1707.27 C 640.76 1695.98 586.93 1679.26 535.15 1657.34 L 389.7 1578.35 C 344.21 1547.6 301.76 1512.57 262.94 1473.74 C 224.11 1434.92 189.08 1392.47 158.33 1346.98 L 79.34 1201.53 L 29.41 1040.83 C 17.81 984.07 11.97 926.28 12 868.34 C 11.97 810.4 17.81 752.61 29.41 695.84 C 40.7 640.76 57.42 586.93 79.34 535.15 C 100.9 484.23 127.36 435.51 158.33 389.7 C 189.08 344.21 224.11 301.76 262.94 262.94 C 301.76 224.11 344.21 189.08 389.7 158.33 L 535.15 79.34 C 586.93 57.42 640.76 40.7 695.84 29.41 C 752.61 17.81 810.4 11.97 868.34 12 C 926.28 11.97 984.07 17.81 1040.84 29.41 C 1095.92 40.7 1149.75 57.42 1201.53 79.34 C 1252.45 100.9 1301.16 127.36 1346.98 158.33 C 1392.47 189.08 1434.92 224.11 1473.74 262.94 C 1512.57 301.76 1547.6 344.21 1578.35 389.7 C 1609.32 435.51 1635.78 484.23 1657.34 535.15 C 1679.26 586.93 1695.98 640.76 1707.27 695.84 C 1718.87 752.61 1724.7 810.4 1724.68 868.34 Z  M 868.34 1724.68 C 868.34 1724.68 868.34 1724.68 868.34 1724.68 L 868.34 1724.68 L 868.34 1724.68 Z " fill-rule="evenodd" fill="rgb(0,0,0)"/></g></svg>