<?xml version="1.0" standalone="no"?><!-- Generator: Gravit.io --><svg xmlns="http://www.w3.org/2000/svg" xmlns:xlink="http://www.w3.org/1999/xlink" style="isolation:isolate" viewBox="0 0 1736.678 1736.678" width="1736.678" height="1736.678"><defs><clipPath id="_clipPath_qaaIut980i16KKuyprLjpXWanMMGHUc5"><rect width="1736.678" height="1736.678"/></clipPath></defs><g clip-path="url(#_clipPath_qaaIut980i16KKuyprLjpXWanMMGHUc5)"><clipPath id="_clipPath_dlFN05LxnakohGSbypCrjegXpdXJV798"><path d=" M 6 868.339 C 6 392.401 392.401 6 868.339 6 C 1344.277 6 1730.678 392.401 1730.678 868.339 C 1730.678 1344.277 1344.277 1730.678 868.339 1730.678 C 392.401 1730.678 6 1344.277 6 868.339 Z " fill="rgb(255,255,255)"/></clipPath><g clip-path="url(#_clipPath_dlFN05LxnakohGSbypCrjegXpdXJV798)"><g id="avatars"><g id="face color"><g id="Group"><path d=" M 806.237 389.971 Q 818.2 389.312 830.531 389.154 Q 1057.132 390.725 1158.212 499.04 Q 1203.091 539 1238.04 656.086 Q 1268.652 750.721 1260.571 826.791 L 1260.558 826.792 Q 1221.444 1021.929 1200.676 1082.371 Q 1174.522 1169.086 1144.863 1215.239 Q 1098.483 1271.134 981.328 1360.093 Q 907.105 1406.043 879.229 1407.58 Q 876.555 1407.727 874.308 1407.466 Q 812.472 1401.989 733.183 1349.073 Q 619.707 1274.409 581.202 1221.254 Q 544.458 1160.981 504.005 1045.401 Q 482.652 983.656 459.383 852.498 L 459.377 852.498 Q 452.759 806.622 456.668 760.389 Q 460.694 704.034 473.232 651.947 Q 491.495 573.386 538.694 512.175 Q 634.507 399.435 806.237 389.971 Z " fill="rgb(252,235,224)"/></g></g><g id="face lines"><g id="Group"><path d=" M 806.237 389.971 Q 818.2 389.312 830.531 389.154 Q 1057.132 390.725 1158.212 499.04 Q 1203.091 539 1238.04 656.086 Q 1268.652 750.721 1260.571 826.791 L 1260.558 826.792 Q 1221.444 1021.929 1200.676 1082.371 Q 1174.522 1169.086 1144.863 1215.239 Q 1098.483 1271.134 981.328 1360.093 Q 907.105 1406.043 879.229 1407.58 Q 876.555 1407.727 874.308 1407.466 Q 812.472 1401.989 733.183 1349.073 Q 619.707 1274.409 581.202 1221.254 Q 544.458 1160.981 504.005 1045.401 Q 482.652 983.656 459.383 852.498 L 459.377 852.498 Q 452.759 806.622 456.668 760.389 Q 460.694 704.034 473.232 651.947 Q 491.495 573.386 538.694 512.175 Q 634.507 399.435 806.237 389.971 Z  M 811.173 379.852 Q 810.485 379.89 809.796 379.93 L 787.303 381.617 Q 696.278 389.506 620.436 430.4 Q 568.681 454.904 515.243 527.393 Q 472.396 594.288 457.615 676.362 Q 438.083 788.983 449.516 844.199 L 449.511 844.199 Q 449.084 845.335 448.992 846.904 L 461.34 922.153 Q 474.424 980.184 495.401 1049.529 Q 545.372 1188.924 574.647 1230.705 Q 637.068 1301.458 736.988 1363.042 Q 823.749 1419.611 876.174 1416.721 Q 876.457 1416.706 876.74 1416.688 Q 895.671 1414.773 916.087 1406.928 Q 948.099 1394.758 986.74 1368.474 Q 1067.7 1313.382 1156.086 1216.196 Q 1180.319 1181.738 1225.058 1032.667 Q 1248.202 947.577 1267.18 838.249 L 1267.166 838.25 Q 1270.154 833.266 1270.621 828.772 L 1271.619 770.556 Q 1266.467 723.139 1254.475 678.349 Q 1229.428 588.019 1209.242 553.235 Q 1179.696 502.633 1165.387 492.072 Q 1107.62 434.081 1029.003 407.956 Q 922.252 373.731 811.173 379.852 Z " fill="rgb(0,0,0)"/></g></g><g id="eyes"><g id="Group"><g id="Group"><path d=" M 601.201 919.778 L 601.201 919.778 L 655.565 918.386 L 655.545 918.386 C 673.943 920.994 692.342 923.605 705.066 927.089 C 717.786 930.573 724.867 934.934 731.964 939.305 L 731.898 939.306 C 736.983 958.114 742.016 976.837 736.943 994.652 C 731.86 1012.5 716.623 1029.467 701.32 1046.486 L 701.247 1046.488 L 700.62 1046.565 C 681.037 1048.99 662.157 1048.729 644.816 1049.197 C 630.977 1049.57 614.447 1048.019 604.66 1044.583 C 576.238 1034.604 575.864 1023.284 566.146 1005.022 L 566.136 1005.006 L 538.209 961.651 L 538.209 961.651 L 601.201 919.778 L 601.201 919.778 Z " fill="rgb(255,255,255)"/></g><g id="Group"><path d=" M 623.236 920.933 L 622.028 921.041 Q 613.887 922.646 612.86 922.243 Q 608.428 933.166 606.258 945.699 Q 604.189 959.686 604.693 968.573 L 605.424 978.495 Q 606.586 988.301 609.334 997.165 Q 614.9 1015.129 625.877 1026.549 Q 631.328 1032.143 637.9 1035.406 L 644.714 1037.971 Q 654.125 1039.698 655.085 1039.185 L 662.099 1038.304 Q 668.979 1036.72 675.127 1032.722 Q 687.513 1024.526 695.879 1009.064 Q 704.241 993.602 707.101 974.073 Q 709.938 953.75 705.825 933.86 L 695.877 930.994 Q 701.287 952.109 698.155 973.216 Q 695.38 991.687 687.885 1005.053 Q 680.393 1018.419 670.242 1025.013 Q 665.231 1028.258 659.942 1029.5 Q 653.062 1030.548 652.526 1030.156 Q 629.218 1027.514 617.96 994.885 Q 612.844 979.091 613.814 958.924 Q 615.345 936.865 623.236 920.933 Z " fill="rgb(0,0,0)"/></g><g id="Group"><path d=" M 645.236 918.946 L 623.235 920.932 Q 616.222 935.094 614.232 954.097 Q 612.123 971.056 616.899 991.321 Q 628.844 1029.239 654.332 1030.271 Q 673.818 1029.265 687.886 1005.052 Q 689.53 1002.857 694.283 990.091 Q 695.982 984.879 697.101 979.369 Q 700.386 961.031 698.771 947.232 Q 697.928 938.595 695.999 931.007 L 683.197 926.928 Q 671.781 925.502 645.236 918.946 Z " fill="rgb(182,150,127)"/></g><g id="Group"><path d=" M 686.33 963.291 L 686.33 963.291 C 684.951 987.148 671.166 1007.852 653.612 1006.837 L 653.612 1006.837 C 636.058 1005.822 624.752 983.667 626.132 959.81 L 626.132 959.81 C 627.511 935.953 641.295 915.249 658.849 916.264 L 658.849 916.264 C 676.403 917.279 687.709 939.434 686.33 963.291 L 686.33 963.291 Z  M 681.105 962.989 L 681.105 962.989 C 682.451 939.71 671.354 922.23 658.547 921.489 L 658.547 921.489 C 645.74 920.749 632.702 936.833 631.356 960.112 L 631.356 960.112 C 630.01 983.391 641.107 1000.871 653.914 1001.612 L 653.914 1001.612 C 666.721 1002.353 679.759 986.268 681.105 962.989 Z " fill="rgb(0,0,0)"/></g><g id="Group"><path d=" M 657.284 921.451 C 657.695 921.44 658.108 921.446 658.52 921.469 C 671.302 922.199 682.401 939.671 681.071 962.967 C 679.785 985.513 667.554 1001.317 655.181 1001.651 C 654.77 1001.662 654.357 1001.656 653.945 1001.632 C 641.159 1000.904 630.063 983.429 631.389 960.134 C 632.676 937.588 644.908 921.785 657.284 921.451 Z " fill="rgb(130,94,74)"/></g><g id="Group"><path d=" M 632.564 943.502 C 632.827 943.494 633.092 943.494 633.361 943.503 C 640.316 943.716 645.469 949.083 645.284 955.117 C 645.106 960.918 640.039 965.8 633.467 965.978 C 633.204 965.984 632.938 965.984 632.67 965.976 C 625.716 965.762 620.561 960.396 620.747 954.361 C 620.925 948.559 625.993 943.679 632.564 943.502 Z " fill="rgb(255,255,255)"/></g><g id="Group"><path d=" M 606.629 949.244 L 606.629 949.244 L 606.629 949.244 C 606.758 949.237 606.869 949.336 606.876 949.465 C 606.883 949.595 606.784 949.705 606.655 949.712 L 606.655 949.712 L 606.655 949.712 C 606.525 949.72 606.415 949.621 606.408 949.491 C 606.401 949.362 606.5 949.251 606.629 949.244 Z " fill="rgb(255,255,255)"/></g><g id="Group"><path d=" M 671.277 984.708 C 671.54 984.7 671.805 984.7 672.074 984.709 C 679.029 984.923 684.182 990.289 683.996 996.323 C 683.818 1002.124 678.751 1007.006 672.18 1007.183 C 671.916 1007.19 671.65 1007.19 671.382 1007.182 C 664.429 1006.967 659.273 1001.603 659.459 995.567 C 659.638 989.765 664.706 984.885 671.277 984.708 Z " fill="rgb(255,255,255)"/></g><g id="Group"><path d=" M 609.39 902.759 L 607.964 902.843 Q 583.746 904.146 564.872 916.95 Q 544.544 930.698 516.256 962.713 L 588.622 1040.903 Q 554.107 984.498 544.778 962.984 Q 563.284 944.07 574.52 938.257 Q 603.677 921.76 647.97 923.445 Q 668.252 924.032 690.65 930.127 Q 707.046 934.86 734.507 949.531 L 749.185 945.643 Q 719.297 919.236 695.7 913.036 Q 655.781 901.247 609.39 902.759 Z " fill="rgb(0,0,0)"/></g><g id="Group"><path d=" M 623.454 1046.049 L 663.663 1045.887 L 703.872 1045.725 L 623.454 1046.049 Z " fill="rgb(0,0,0)"/></g><g id="Group"><path d=" M 643.375 1051.292 L 657.602 1004.312 L 671.83 957.333 L 643.375 1051.292 Z " fill="rgb(0,0,0)"/></g><g id="Group"><path d=" M 629.116 1045.016 L 630.28 1045.719 L 631.444 1046.422 L 629.116 1045.016 Z " fill="rgb(0,0,0)"/></g><g id="Group"><path d=" M 691.356 1047.785 L 690.687 1048.601 L 690.019 1049.417 L 691.356 1047.785 Z " fill="rgb(0,0,0)"/></g><g id="Group"><path d=" M 620.353 1048.314 L 621.527 1048.571 Q 628.581 1049.683 643.256 1050.478 Q 650.082 1050.849 655.837 1050.974 Q 658.656 1051.031 661.273 1051.011 L 663.89 1050.969 Q 671.263 1050.792 681.329 1049.805 Q 702.538 1047.717 713.039 1046.287 L 697.868 1044.944 Q 691.352 1044.429 684.438 1044.066 Q 670.005 1043.31 662.82 1043.494 Q 652.783 1043.845 639.957 1045.25 Q 637.063 1045.581 634.622 1045.941 L 632.357 1046.303 Q 629.38 1046.685 627.547 1046.979 Q 624.611 1047.397 622.063 1048.186 Q 621.029 1048.328 620.353 1048.314 Z " fill="rgb(0,0,0)"/></g></g><g id="Group"><g id="Group"><path d=" M 1110.419 891.716 L 1110.419 891.716 L 1056.23 896.306 L 1056.25 896.304 C 1038.25 900.917 1020.25 905.534 1007.986 910.396 C 995.726 915.256 989.167 920.369 982.593 925.493 L 982.659 925.487 C 979.671 944.74 976.725 963.903 983.726 981.053 C 990.739 998.233 1007.748 1013.424 1024.829 1028.658 L 1024.901 1028.652 L 1025.533 1028.66 C 1045.264 1028.919 1064.001 1026.584 1081.289 1025.144 C 1095.085 1023.994 1111.344 1020.636 1120.694 1016.145 C 1147.847 1003.104 1146.976 991.811 1154.628 972.592 L 1154.636 972.574 L 1177.63 926.413 L 1177.63 926.413 L 1110.419 891.716 L 1110.419 891.716 Z " fill="rgb(255,255,255)"/></g><g id="Group"><path d=" M 1088.644 895.285 L 1089.856 895.26 Q 1098.125 895.961 1099.101 895.447 Q 1104.706 905.817 1108.24 918.036 Q 1111.834 931.711 1112.309 940.599 L 1112.673 950.542 Q 1112.595 960.416 1110.838 969.528 Q 1107.28 987.995 1097.624 1000.551 Q 1092.821 1006.711 1086.648 1010.677 L 1080.156 1013.974 Q 1070.992 1016.726 1069.981 1016.321 L 1062.913 1016.216 Q 1055.901 1015.397 1049.351 1012.099 Q 1036.139 1005.314 1026.125 990.865 Q 1016.114 976.415 1011.126 957.319 Q 1006.073 937.431 1007.975 917.209 L 1017.548 913.267 Q 1014.491 934.849 1019.923 955.484 Q 1024.711 973.538 1033.63 986 Q 1042.545 998.461 1053.359 1003.9 Q 1058.696 1006.575 1064.09 1007.228 Q 1071.043 1007.514 1071.533 1007.065 Q 1094.409 1001.879 1102.014 968.209 Q 1105.363 951.949 1102.183 932.011 Q 1098.237 910.254 1088.644 895.285 Z " fill="rgb(0,0,0)"/></g><g id="Group"><path d=" M 1066.558 895.728 L 1088.645 895.284 Q 1097.171 908.59 1101.237 927.259 Q 1105.197 943.884 1102.677 964.55 Q 1094.971 1003.551 1069.75 1007.378 Q 1050.272 1008.52 1033.628 985.999 Q 1031.753 983.998 1025.626 971.831 Q 1023.364 966.837 1021.647 961.484 Q 1016.367 943.618 1016.456 929.725 Q 1016.345 921.048 1017.428 913.293 L 1029.704 907.833 Q 1040.895 905.161 1066.558 895.728 Z " fill="rgb(182,150,127)"/></g><g id="Group"><path d=" M 1030.586 944.32 L 1030.586 944.32 C 1034.579 967.881 1050.555 986.944 1067.891 984.007 L 1067.891 984.007 C 1085.227 981.069 1094.03 957.806 1090.038 934.245 L 1090.038 934.245 C 1086.045 910.684 1070.069 891.62 1052.733 894.558 L 1052.733 894.558 C 1035.397 897.496 1026.594 920.759 1030.586 944.32 L 1030.586 944.32 Z  M 1035.746 943.445 L 1035.746 943.445 C 1031.85 920.455 1040.959 901.861 1053.607 899.718 L 1053.607 899.718 C 1066.256 897.575 1080.982 912.13 1084.878 935.12 L 1084.878 935.12 C 1088.773 958.11 1079.664 976.703 1067.016 978.847 L 1067.016 978.847 C 1054.368 980.99 1039.642 966.435 1035.746 943.445 Z " fill="rgb(0,0,0)"/></g><g id="Group"><path d=" M 1054.859 899.541 C 1054.449 899.575 1054.039 899.627 1053.633 899.696 C 1041.008 901.826 1031.896 920.411 1035.777 943.42 C 1039.534 965.688 1053.427 980.052 1065.761 979.025 C 1066.172 978.99 1066.581 978.939 1066.988 978.87 C 1079.617 976.741 1088.726 958.153 1084.847 935.145 C 1081.091 912.876 1067.196 898.513 1054.859 899.541 Z " fill="rgb(130,94,74)"/></g><g id="Group"><path d=" M 1081.852 918.742 C 1081.59 918.764 1081.326 918.793 1081.06 918.831 C 1074.17 919.807 1069.638 925.708 1070.485 931.685 C 1071.3 937.431 1076.873 941.727 1083.424 941.181 C 1083.687 941.159 1083.951 941.129 1084.217 941.092 C 1091.105 940.115 1095.638 934.216 1094.791 928.238 C 1093.976 922.49 1088.403 918.196 1081.852 918.742 Z " fill="rgb(255,255,255)"/></g><g id="Group"><path d=" M 1108.261 921.6 L 1108.261 921.6 L 1108.261 921.6 C 1108.132 921.607 1108.033 921.718 1108.04 921.847 C 1108.047 921.976 1108.158 922.075 1108.287 922.068 L 1108.287 922.068 L 1108.287 922.068 C 1108.416 922.061 1108.515 921.951 1108.508 921.821 C 1108.501 921.692 1108.391 921.593 1108.261 921.6 Z " fill="rgb(255,255,255)"/></g><g id="Group"><path d=" M 1047.902 963.952 C 1047.639 963.974 1047.376 964.003 1047.11 964.041 C 1040.22 965.018 1035.688 970.918 1036.535 976.895 C 1037.35 982.641 1042.923 986.937 1049.474 986.391 C 1049.737 986.369 1050.001 986.34 1050.267 986.302 C 1057.154 985.325 1061.689 979.426 1060.841 973.448 C 1060.025 967.701 1054.452 963.407 1047.902 963.952 Z " fill="rgb(255,255,255)"/></g><g id="Group"><path d=" M 1100.409 875.7 L 1101.836 875.627 Q 1126.05 874.261 1146.217 884.913 Q 1167.933 896.344 1199.566 925.057 L 1136.231 1010.725 Q 1164.339 950.869 1171.248 928.46 Q 1150.775 911.695 1138.968 907.151 Q 1108.175 893.958 1064.335 900.5 Q 1044.241 903.312 1022.649 911.831 Q 1006.872 918.337 981.189 935.937 L 966.173 933.685 Q 992.978 904.154 1015.75 895.399 Q 1054.133 879.295 1100.409 875.7 Z " fill="rgb(0,0,0)"/></g><g id="Group"><path d=" M 1102.175 1019.667 L 1062.192 1023.925 L 1022.208 1028.182 L 1102.175 1019.667 Z " fill="rgb(0,0,0)"/></g><g id="Group"><path d=" M 1082.951 1027.067 L 1063.648 981.936 L 1044.344 936.804 L 1082.951 1027.067 Z " fill="rgb(0,0,0)"/></g><g id="Group"><path d=" M 1096.434 1019.263 L 1095.354 1020.089 L 1094.275 1020.916 L 1096.434 1019.263 Z " fill="rgb(0,0,0)"/></g><g id="Group"><path d=" M 1034.875 1028.854 L 1035.63 1029.592 L 1036.384 1030.329 L 1034.875 1028.854 Z " fill="rgb(0,0,0)"/></g><g id="Group"><path d=" M 1105.506 1021.578 L 1104.368 1021.963 Q 1097.478 1023.843 1082.979 1026.246 Q 1076.236 1027.364 1070.529 1028.121 Q 1067.734 1028.488 1065.13 1028.755 L 1062.524 1029.001 Q 1055.177 1029.636 1045.063 1029.76 Q 1023.753 1030.016 1013.159 1029.748 L 1028.09 1026.746 Q 1034.51 1025.519 1041.343 1024.398 Q 1055.605 1022.06 1062.767 1021.453 Q 1072.781 1020.7 1085.684 1020.686 Q 1088.597 1020.698 1091.063 1020.787 L 1093.354 1020.898 Q 1096.355 1020.951 1098.209 1021.042 Q 1101.173 1021.135 1103.793 1021.639 Q 1104.836 1021.667 1105.506 1021.578 Z " fill="rgb(0,0,0)"/></g></g></g></g></g></g></svg>