<?xml version="1.0" standalone="no"?><!-- Generator: Gravit.io --><svg xmlns="http://www.w3.org/2000/svg" xmlns:xlink="http://www.w3.org/1999/xlink" style="isolation:isolate" viewBox="0 0 1736.678 1736.678" width="1736.678" height="1736.678"><defs><clipPath id="_clipPath_IQFShUjXH3SpglbnkjzbBbVtPQ2oY8x9"><rect width="1736.678" height="1736.678"/></clipPath></defs><g clip-path="url(#_clipPath_IQFShUjXH3SpglbnkjzbBbVtPQ2oY8x9)"><g id="avatars"><g id="face color"><g id="Group"><path d=" M 806.237 389.971 Q 818.2 389.312 830.531 389.154 Q 1057.132 390.725 1158.212 499.04 Q 1203.091 539 1238.04 656.086 Q 1268.652 750.721 1260.571 826.791 L 1260.558 826.792 Q 1221.444 1021.929 1200.676 1082.371 Q 1174.522 1169.086 1144.863 1215.239 Q 1098.483 1271.134 981.328 1360.093 Q 907.105 1406.043 879.229 1407.58 Q 876.555 1407.727 874.308 1407.466 Q 812.472 1401.989 733.183 1349.073 Q 619.707 1274.409 581.202 1221.254 Q 544.458 1160.981 504.005 1045.401 Q 482.652 983.656 459.383 852.498 L 459.377 852.498 Q 452.759 806.622 456.668 760.389 Q 460.694 704.034 473.232 651.947 Q 491.495 573.386 538.694 512.175 Q 634.507 399.435 806.237 389.971 Z " fill="rgb(252,235,224)"/></g></g><g id="face lines"><g id="Group"><path d=" M 806.237 389.971 Q 818.2 389.312 830.531 389.154 Q 1057.132 390.725 1158.212 499.04 Q 1203.091 539 1238.04 656.086 Q 1268.652 750.721 1260.571 826.791 L 1260.558 826.792 Q 1221.444 1021.929 1200.676 1082.371 Q 1174.522 1169.086 1144.863 1215.239 Q 1098.483 1271.134 981.328 1360.093 Q 907.105 1406.043 879.229 1407.58 Q 876.555 1407.727 874.308 1407.466 Q 812.472 1401.989 733.183 1349.073 Q 619.707 1274.409 581.202 1221.254 Q 544.458 1160.981 504.005 1045.401 Q 482.652 983.656 459.383 852.498 L 459.377 852.498 Q 452.759 806.622 456.668 760.389 Q 460.694 704.034 473.232 651.947 Q 491.495 573.386 538.694 512.175 Q 634.507 399.435 806.237 389.971 Z  M 811.173 379.852 Q 810.485 379.89 809.796 379.93 L 787.303 381.617 Q 696.278 389.506 620.436 430.4 Q 568.681 454.904 515.243 527.393 Q 472.396 594.288 457.615 676.362 Q 438.083 788.983 449.516 844.199 L 449.511 844.199 Q 449.084 845.335 448.992 846.904 L 461.34 922.153 Q 474.424 980.184 495.401 1049.529 Q 545.372 1188.924 574.647 1230.705 Q 637.068 1301.458 736.988 1363.042 Q 823.749 1419.611 876.174 1416.721 Q 876.457 1416.706 876.74 1416.688 Q 895.671 1414.773 916.087 1406.928 Q 948.099 1394.758 986.74 1368.474 Q 1067.7 1313.382 1156.086 1216.196 Q 1180.319 1181.738 1225.058 1032.667 Q 1248.202 947.577 1267.18 838.249 L 1267.166 838.25 Q 1270.154 833.266 1270.621 828.772 L 1271.619 770.556 Q 1266.467 723.139 1254.475 678.349 Q 1229.428 588.019 1209.242 553.235 Q 1179.696 502.633 1165.387 492.072 Q 1107.62 434.081 1029.003 407.956 Q 922.252 373.731 811.173 379.852 Z " fill="rgb(0,0,0)"/></g></g><g id="mouth"><path d=" M 867.71 1344.727 C 825.339 1344.708 756.963 1333.465 751.168 1325.91 Q 727.677 1295.287 724.748 1234.405 Q 722.824 1181.489 743.641 1164.09 Q 764.458 1146.69 864.028 1145.273 Q 870.796 1145.312 872.65 1145.273 Q 972.219 1146.69 993.036 1164.09 Q 1013.853 1181.489 1011.929 1234.405 Q 1009 1295.287 985.51 1325.91 C 979.714 1333.465 911.338 1344.708 868.968 1344.727 C 868.804 1344.688 868.012 1344.726 867.71 1344.727 Z " fill="rgb(233,113,114)"/><path d=" M 867.72 1348.73 C 861.99 1348.71 856.27 1348.54 850.55 1348.22 C 844.38 1347.87 838.22 1347.41 832.06 1346.82 C 819.69 1345.66 807.35 1344.08 795.08 1342.09 C 789.58 1341.21 784.09 1340.21 778.63 1339.1 C 774 1338.17 769.4 1337.11 764.84 1335.9 C 762.96 1335.4 761.09 1334.85 759.23 1334.26 C 757.67 1333.77 756.13 1333.21 754.61 1332.6 C 753.35 1332.1 752.12 1331.5 750.95 1330.82 C 750.41 1330.51 749.9 1330.16 749.42 1329.77 C 748.89 1329.36 748.42 1328.89 748.01 1328.37 C 747.14 1327.23 746.3 1326.08 745.48 1324.91 C 744.65 1323.7 743.84 1322.48 743.05 1321.24 C 740.13 1316.6 737.57 1311.74 735.39 1306.71 C 732.82 1300.77 730.64 1294.66 728.86 1288.44 C 728.34 1286.63 727.86 1284.81 727.4 1282.99 C 726.92 1281.06 726.46 1279.13 726.04 1277.18 C 724.66 1270.82 723.56 1264.4 722.76 1257.94 C 721.8 1250.18 721.13 1242.38 720.75 1234.57 C 720.47 1226.73 720.59 1218.89 721.12 1211.06 C 721.51 1205.33 722.31 1199.63 723.52 1194.02 C 724.36 1190.07 725.48 1186.19 726.84 1182.39 C 727.96 1179.29 729.34 1176.29 730.96 1173.41 C 732.34 1170.97 733.93 1168.64 735.7 1166.46 C 737.32 1164.48 739.12 1162.66 741.08 1161.02 C 741.58 1160.6 742.09 1160.2 742.62 1159.82 C 743.19 1159.4 743.78 1159 744.38 1158.62 C 746.13 1157.5 747.95 1156.52 749.83 1155.66 C 752.35 1154.53 754.92 1153.52 757.53 1152.65 C 760.27 1151.74 763.04 1150.94 765.84 1150.25 C 769.51 1149.34 773.21 1148.54 776.94 1147.85 C 779.69 1147.35 782.44 1146.89 785.21 1146.48 C 788.49 1145.99 791.78 1145.55 795.08 1145.16 C 797.45 1144.88 799.81 1144.62 802.18 1144.38 C 804.83 1144.12 807.48 1143.87 810.13 1143.65 C 817.88 1143 825.64 1142.51 833.4 1142.17 C 843.6 1141.72 853.8 1141.42 864.01 1141.27 C 866.27 1141.29 868.53 1141.29 870.8 1141.29 C 871.41 1141.29 872.02 1141.29 872.64 1141.27 C 881.91 1141.4 891.19 1141.66 900.46 1142.04 C 907.71 1142.34 914.96 1142.76 922.2 1143.31 C 927.73 1143.72 933.25 1144.23 938.76 1144.83 C 943.15 1145.31 947.53 1145.88 951.89 1146.54 C 955.37 1147.07 958.83 1147.67 962.29 1148.34 C 965.06 1148.88 967.83 1149.5 970.57 1150.18 C 973.06 1150.8 975.53 1151.5 977.98 1152.27 C 979.94 1152.89 981.87 1153.58 983.77 1154.34 C 986.18 1155.31 988.53 1156.43 990.79 1157.7 C 992.49 1158.66 994.1 1159.77 995.6 1161.02 C 997.56 1162.66 999.36 1164.48 1000.97 1166.46 C 1002.75 1168.63 1004.33 1170.96 1005.71 1173.4 C 1007.22 1176.08 1008.52 1178.87 1009.59 1181.75 C 1010.89 1185.22 1011.96 1188.78 1012.8 1192.38 C 1013.13 1193.82 1013.43 1195.26 1013.7 1196.71 C 1014 1198.28 1014.26 1199.86 1014.49 1201.44 C 1014.66 1202.59 1014.81 1203.74 1014.95 1204.89 C 1015.1 1206.11 1015.23 1207.34 1015.34 1208.56 C 1015.71 1212.48 1015.94 1216.42 1016.03 1220.35 C 1016.13 1225.09 1016.1 1229.84 1015.93 1234.57 C 1015.45 1244.58 1014.47 1254.56 1012.99 1264.48 C 1011.83 1272.32 1010.17 1280.08 1008.02 1287.72 C 1006.83 1291.96 1005.46 1296.15 1003.91 1300.28 C 1002.54 1303.95 1000.99 1307.54 999.27 1311.06 C 997.73 1314.23 996.03 1317.32 994.19 1320.33 C 992.49 1323.1 990.65 1325.79 988.67 1328.37 C 988.26 1328.89 987.78 1329.36 987.26 1329.77 C 986.78 1330.16 986.26 1330.51 985.73 1330.82 C 984.55 1331.5 983.33 1332.1 982.06 1332.6 C 980.55 1333.21 979.01 1333.77 977.44 1334.26 C 975.59 1334.85 973.72 1335.4 971.84 1335.9 C 967.28 1337.11 962.68 1338.17 958.05 1339.1 C 952.59 1340.21 947.1 1341.21 941.59 1342.09 C 929.32 1344.08 916.99 1345.66 904.61 1346.82 C 898.46 1347.41 892.3 1347.87 886.13 1348.22 C 880.42 1348.54 874.7 1348.71 868.98 1348.73 L 869.39 1342.22 C 869.09 1342.17 868.78 1342.16 868.47 1342.18 L 868.65 1348.71 C 868.5 1348.71 868.34 1348.71 868.19 1348.72 C 868.03 1348.72 867.88 1348.73 867.72 1348.73 Z  M 867.7 1340.73 C 862.13 1340.71 856.56 1340.55 851 1340.23 C 844.93 1339.89 838.87 1339.44 832.82 1338.86 C 820.62 1337.71 808.46 1336.16 796.36 1334.2 C 790.96 1333.33 785.57 1332.35 780.21 1331.26 C 775.74 1330.36 771.3 1329.33 766.89 1328.17 C 765.13 1327.7 763.39 1327.19 761.66 1326.64 C 760.28 1326.2 758.92 1325.72 757.59 1325.17 C 756.69 1324.82 755.82 1324.4 754.99 1323.91 C 754.77 1323.79 754.56 1323.64 754.36 1323.48 C 754.34 1323.47 754.33 1323.45 754.31 1323.44 C 753.53 1322.42 752.78 1321.39 752.05 1320.34 C 751.28 1319.23 750.54 1318.11 749.82 1316.97 C 747.12 1312.68 744.75 1308.19 742.74 1303.54 C 740.3 1297.91 738.24 1292.13 736.55 1286.24 C 736.06 1284.51 735.6 1282.78 735.16 1281.04 C 734.7 1279.2 734.26 1277.34 733.86 1275.48 C 732.52 1269.36 731.47 1263.17 730.7 1256.95 C 729.76 1249.41 729.11 1241.83 728.74 1234.24 C 728.47 1226.69 728.59 1219.13 729.1 1211.6 C 729.46 1206.25 730.21 1200.94 731.34 1195.7 C 732.11 1192.1 733.12 1188.56 734.37 1185.1 C 735.34 1182.42 736.53 1179.83 737.93 1177.35 C 739.08 1175.29 740.42 1173.34 741.9 1171.52 C 743.2 1169.93 744.64 1168.47 746.21 1167.16 C 746.57 1166.86 746.94 1166.57 747.32 1166.29 C 747.77 1165.97 748.22 1165.66 748.68 1165.36 C 750.11 1164.45 751.59 1163.65 753.13 1162.95 C 755.39 1161.93 757.7 1161.03 760.06 1160.24 C 762.59 1159.4 765.16 1158.65 767.75 1158.01 C 771.28 1157.14 774.82 1156.38 778.39 1155.72 C 781.05 1155.23 783.71 1154.79 786.38 1154.39 C 789.59 1153.91 792.8 1153.48 796.02 1153.1 C 798.34 1152.83 800.66 1152.57 802.98 1152.34 C 805.58 1152.08 808.19 1151.84 810.8 1151.62 C 818.44 1150.98 826.09 1150.5 833.76 1150.16 C 843.85 1149.71 853.94 1149.42 864.04 1149.27 C 866.3 1149.29 868.55 1149.29 870.8 1149.29 C 871.42 1149.29 872.04 1149.29 872.66 1149.27 C 881.82 1149.4 890.98 1149.66 900.13 1150.03 C 907.29 1150.33 914.45 1150.74 921.59 1151.28 C 927.04 1151.69 932.47 1152.19 937.9 1152.78 C 942.17 1153.25 946.44 1153.81 950.69 1154.45 C 954.06 1154.96 957.41 1155.54 960.76 1156.19 C 963.4 1156.71 966.02 1157.29 968.63 1157.94 C 970.97 1158.53 973.28 1159.18 975.58 1159.9 C 977.34 1160.46 979.08 1161.08 980.79 1161.77 C 982.88 1162.61 984.91 1163.58 986.88 1164.68 C 988.15 1165.39 989.35 1166.22 990.47 1167.16 C 992.04 1168.47 993.48 1169.93 994.77 1171.51 C 996.26 1173.34 997.59 1175.29 998.75 1177.34 C 1000.05 1179.65 1001.17 1182.06 1002.1 1184.54 C 1003.27 1187.7 1004.24 1190.92 1005 1194.2 C 1005.31 1195.52 1005.59 1196.85 1005.84 1198.18 C 1006.12 1199.65 1006.36 1201.12 1006.58 1202.6 C 1006.74 1203.67 1006.88 1204.75 1007.01 1205.84 C 1007.15 1206.99 1007.27 1208.15 1007.38 1209.31 C 1007.73 1213.04 1007.94 1216.79 1008.03 1220.53 C 1008.13 1225.1 1008.1 1229.67 1007.93 1234.24 C 1007.46 1243.97 1006.51 1253.67 1005.08 1263.3 C 1003.96 1270.81 1002.37 1278.24 1000.32 1285.55 C 999.19 1289.58 997.88 1293.56 996.42 1297.48 C 995.13 1300.9 993.69 1304.27 992.08 1307.55 C 990.65 1310.49 989.08 1313.36 987.37 1316.15 C 985.83 1318.66 984.16 1321.1 982.37 1323.44 C 982.35 1323.45 982.33 1323.47 982.32 1323.48 C 982.12 1323.64 981.91 1323.79 981.69 1323.91 C 980.86 1324.4 979.99 1324.82 979.09 1325.17 C 977.75 1325.72 976.4 1326.2 975.02 1326.64 C 973.29 1327.19 971.55 1327.7 969.79 1328.17 C 965.38 1329.33 960.94 1330.36 956.47 1331.26 C 951.11 1332.35 945.72 1333.33 940.32 1334.2 C 928.22 1336.16 916.06 1337.71 903.86 1338.86 C 897.81 1339.44 891.75 1339.89 885.68 1340.23 C 880.19 1340.54 874.69 1340.71 869.19 1340.73 C 868.97 1340.71 868.75 1340.7 868.53 1340.71 C 868.33 1340.71 868.13 1340.72 867.94 1340.72 C 867.86 1340.72 867.78 1340.73 867.7 1340.73 Z " fill-rule="evenodd" fill="rgb(0,0,0)"/></g></g></g></svg>