<?xml version="1.0" standalone="no"?><!-- Generator: Gravit.io --><svg xmlns="http://www.w3.org/2000/svg" xmlns:xlink="http://www.w3.org/1999/xlink" style="isolation:isolate" viewBox="0 0 1428.678 1446.703" width="1428.678" height="1446.703"><defs><clipPath id="_clipPath_2uI6lqR1Q6SlVBQoC0VOSOOjjwmNTJkU"><rect width="1428.678" height="1446.703"/></clipPath></defs><g clip-path="url(#_clipPath_2uI6lqR1Q6SlVBQoC0VOSOOjjwmNTJkU)"><rect x="0" y="0" width="1428.678" height="1428.678" transform="matrix(1,0,0,1,0,0)" fill="rgb(255,172,90)"/><g id="avatar"><g id="shirt-color"><path d=" M 393.348 1225.331 L 393.348 1225.331 L 393.348 1225.331 L 393.348 1225.331 L 393.348 1225.331 L 297.22 1247.46 L 224.012 1270.121 L 161.717 1293.1 L 119.83 1312.753 C 92.829 1338.155 74.386 1363.114 64.503 1387.63 L 58.998 1436.672 L 58.998 1436.672 L 1373.091 1426.375 L 1373.091 1426.375 C 1372.771 1407.18 1367.939 1386.762 1358.597 1365.12 L 1320.747 1314.09 L 1290.836 1294.166 L 1220.944 1266.092 C 1196.807 1257.4 1140.389 1243.312 1051.692 1223.83 L 1030.38 1220.187 L 946.112 1270.664 C 920.231 1282.366 884.859 1295.308 839.997 1309.49 L 783.501 1323.712 L 737.529 1326.753 L 660.893 1323.115 C 624.449 1316.4 583.63 1306.268 538.435 1292.722 L 476.036 1269.413 L 393.348 1225.331 L 393.348 1225.331 L 393.348 1225.331 L 393.348 1225.331 L 393.348 1225.331 Z  M 54.713 1436.711 L 54.713 1436.711 L 54.713 1436.711 L 54.713 1436.711 L 54.713 1436.711 C 52.064 1436.857 51.8 1438.914 51.821 1441.595 C 51.843 1444.356 52.27 1446.725 55.031 1446.703 L 1374.067 1436.368 C 1374.147 1436.367 1374.227 1436.365 1374.307 1436.36 C 1376.956 1436.214 1376.981 1434.162 1376.96 1431.481 C 1376.938 1428.72 1376.75 1426.347 1373.988 1426.368 L 1373.106 1426.375 L 1373.091 1426.376 C 1373.089 1426.07 1363.926 1419.795 1363.857 1421.815 L 73.003 1426.945 L 58.998 1436.672 L 58.998 1436.672 L 54.953 1436.704 C 54.872 1436.704 54.792 1436.707 54.713 1436.711 L 54.713 1436.711 L 54.713 1436.711 L 54.713 1436.711 L 54.713 1436.711 Z " fill="rgb(174,206,181)"/></g><g id="collar-color"><path d=" M 480.421 1184.433 L 407.731 1192.617 L 393.146 1223.801 L 438.432 1250.756 L 539.198 1295.143 L 642.77 1319.757 L 745.004 1327.393 L 855.97 1304.889 L 938.842 1271.793 L 1000.881 1240.111 L 1039.741 1211.776 L 1038.205 1195.58 L 1022.653 1181.805 L 1006.961 1177.521 L 942.494 1179.956 Q 967.579 1197.719 979.481 1208.825 L 862.773 1265.268 L 752.5 1291.917 L 641.906 1287.966 L 528.411 1256.402 L 444.385 1215.968 L 480.421 1184.433 Z " fill="rgb(255,255,255)"/></g><g id="neck-color"><path d=" M 552.041 1032.418 L 544.687 1160.942 Q 480.953 1181.006 445.54 1214.458 Q 477.465 1239.257 572.403 1274.225 L 715.244 1294.426 Q 791.326 1292.313 834.258 1275.679 Q 880.93 1259.023 931.543 1236.229 Q 954.079 1225.685 976.877 1207.374 Q 938.037 1178.283 882.838 1158.066 Q 872.854 1082.851 872.549 1024.684 L 830.425 1055.903 L 790.486 1080.136 L 757.165 1097.061 L 714.881 1104.629 L 669.147 1094.911 Q 636.544 1079.39 552.041 1032.418 Z " fill="rgb(242,211,196)"/></g><g id="shirt-lines"><path d=" M 391.453 1220.848 L 370.133 1225.505 Q 286.487 1244.034 228.954 1260.925 Q 139.21 1289.528 116.42 1308.529 Q 105.5 1315.567 85.191 1336.096 Q 78.714 1343.146 64.18 1371.46 Q 57.88 1383.772 51.417 1428.37 L 50.149 1442.668 Q 52.102 1446.863 55.817 1446.18 Q 58.926 1445.183 59.668 1442.993 Q 66.255 1389.737 73.967 1372.579 Q 100.333 1328.583 116.453 1319.941 Q 167.599 1289.935 216.819 1274.875 Q 271.156 1256.93 395.475 1230.113 L 391.453 1220.848 Z " fill="rgb(0,0,0)"/><path d=" M 1041.406 1216.179 L 1039.835 1217.704 L 1032.388 1224.797 Q 1256.079 1269.302 1304.719 1307.329 Q 1336.978 1330.124 1343.086 1343.945 Q 1362.518 1370.511 1369.579 1433.259 Q 1373.155 1439.119 1378.528 1433.923 Q 1374.371 1380.225 1359.817 1352.267 Q 1335.071 1311.687 1310.262 1298.841 Q 1257.691 1269.505 1196.791 1252.824 Q 1073.296 1220.83 1041.406 1216.179 Z " fill="rgb(0,0,0)"/><path d=" M 391.538 1221.051 L 390.803 1221.23 Q 387.973 1221.92 386.891 1222.254 Q 386.846 1222.538 387.061 1223.7 Q 387.172 1224.15 387.357 1224.557 Q 387.404 1224.788 388.077 1225.681 Q 388.48 1226.15 388.755 1226.331 L 389.152 1226.627 L 394.917 1230.36 L 395.517 1230.206 Q 394.023 1226.927 391.538 1221.051 Z " fill="rgb(0,0,0)"/><path d=" M 1041.084 1216.493 L 1040.344 1217.211 Q 1037.274 1220.185 1032.424 1224.763 L 1032.765 1224.879 L 1044.283 1217.206 Q 1043.981 1217.023 1041.084 1216.493 Z " fill="rgb(0,0,0)"/><path d=" M 1041.049 1216.526 L 1040.836 1216.735 L 1038.949 1218.557 Q 1039.373 1218.864 1039.514 1218.923 Q 1040.167 1219.242 1040.648 1219.378 Q 1041.389 1219.55 1042.026 1219.541 Q 1042.577 1219.545 1043.179 1219.392 Q 1044.541 1218.959 1045.422 1218.131 Q 1045.654 1217.899 1045.942 1217.556 Q 1045.895 1217.557 1045.583 1217.493 Q 1045.424 1217.463 1044.394 1217.233 Q 1043.263 1216.962 1042.957 1216.873 L 1042.654 1216.811 L 1042.293 1216.724 L 1042.305 1216.723 Q 1041.762 1216.627 1041.049 1216.526 Z " fill="rgb(0,0,0)"/><path d=" M 391.538 1221.051 L 390.89 1221.209 Q 388.395 1221.816 387.463 1222.094 L 387.439 1222.643 Q 387.442 1223.185 387.557 1223.692 Q 387.671 1224.2 387.898 1224.673 Q 388.124 1225.146 388.462 1225.585 L 388.828 1226.016 L 389.25 1226.43 Q 389.425 1226.608 390.354 1227.105 Q 391.105 1227.456 391.894 1227.544 Q 392.811 1227.638 393.704 1227.41 L 394.198 1227.244 Q 393.19 1224.959 391.538 1221.051 Z " fill="rgb(0,0,0)"/></g><g id="collar-lines"><path d=" M 488.042 1179.948 L 486.895 1180.491 Q 478.543 1184.479 476.085 1185.801 Q 474.168 1186.895 471.14 1188.944 Q 462.059 1195.088 442.991 1209.809 L 426.584 1213.35 Q 436.066 1217.487 440.03 1220.595 L 447.175 1219.043 Q 457.794 1209.877 480.247 1195.216 Q 485.319 1192.004 490.59 1188.901 L 505.827 1182.153 Q 504.056 1181.631 499.974 1180.971 Q 493.708 1180.22 488.042 1179.948 Z " fill="rgb(0,0,0)"/><path d=" M 397.957 1219.526 L 387.217 1221.843 L 387.436 1223.919 L 395.417 1230.285 L 407.992 1227.557 Q 405.421 1226.032 405.277 1225.893 Q 403.024 1224.193 402.784 1223.682 Q 402.114 1223.308 401.639 1222.964 Q 400.12 1221.817 399.004 1220.8 Q 398.74 1220.677 398.481 1220.481 Q 398.065 1220.122 397.957 1219.526 Z " fill="rgb(0,0,0)"/><path d=" M 359.209 1237.942 L 359.241 1238.01 L 359.354 1238.246 Q 359.39 1238.238 359.393 1238.239 L 359.214 1237.942 L 359.209 1237.942 Z " fill="rgb(0,0,0)"/><path d=" M 929.937 1171.597 L 929.401 1171.68 Q 927.336 1171.998 926.558 1172.044 L 912.628 1174.433 Q 924.438 1178.77 928.737 1180.619 Q 929.143 1180.509 936.077 1184.662 Q 955.973 1196.303 980.112 1213.939 Q 982.062 1213.517 992.238 1206.613 L 983.323 1204.799 Q 962.787 1188.839 950.829 1181.962 Q 946.363 1179.215 940.721 1176.111 Q 938.143 1174.847 929.937 1171.597 Z " fill="rgb(0,0,0)"/><path d=" M 1030.828 1214.473 L 1030.671 1214.608 Q 1029.055 1215.977 1027.875 1216.658 Q 1026.513 1217.493 1023.699 1218.755 L 1019.373 1221.437 Q 1018.495 1222.01 1018.367 1222.161 L 1031.641 1224.886 Q 1035.84 1221.743 1041.444 1218.507 L 1043.365 1217.02 L 1030.828 1214.473 Z " fill="rgb(0,0,0)"/><path d=" M 391.808 1217.437 L 391.714 1217.444 Q 384.822 1219.3 389.638 1226.496 L 444.738 1259.309 Q 500.438 1286.228 544.896 1300.998 Q 648.665 1333.621 738.788 1332.062 L 776.835 1328.04 L 822.17 1318.827 Q 874.028 1303.807 901.661 1292.737 Q 940.252 1277.402 1009.791 1239.033 Q 1030.672 1226.254 1043.954 1216.552 L 1041.51 1213.039 L 1044.067 1216.452 L 1045.431 1215.354 Q 1047.005 1208.749 1044.093 1208.466 Q 1041.031 1207.545 1039.15 1208.63 Q 1029.16 1217.169 967.898 1250.674 Q 892.002 1287.301 887.875 1287.575 Q 832.139 1306.957 811.12 1311.15 L 774.92 1318.223 Q 739.537 1322.345 727.548 1322.764 Q 641.518 1322.257 527.242 1285.616 Q 491.753 1274.069 391.808 1217.437 Z " fill="rgb(0,0,0)"/><path d=" M 405.38 1188.585 L 401.944 1190.801 Q 395.834 1195.508 397.122 1195.723 L 428.4 1214.504 Q 466.18 1237.105 529.233 1262.186 Q 572.649 1277.814 614.137 1286.733 Q 634.881 1291.193 655.143 1293.976 Q 705.376 1299.464 714.845 1298.549 L 735.151 1298.239 L 772.803 1294.234 Q 820.444 1285.29 840.692 1278.365 Q 940.654 1242.256 998.937 1203.035 Q 1022.77 1186.992 1027.116 1183.252 Q 1030.232 1176.366 1022.017 1175.238 Q 939.493 1232.025 855.906 1262.362 L 824.201 1272.506 L 793.001 1280.223 L 762.308 1285.514 Q 730.95 1288.972 718.018 1288.979 L 680.654 1286.716 L 645.119 1282.285 Q 609.744 1276.735 575.013 1266.707 Q 540.282 1256.68 506.194 1242.174 L 472.268 1226.55 Q 438.502 1209.806 405.38 1188.585 Z " fill="rgb(0,0,0)"/><path d=" M 924.339 1172.409 L 919.227 1173.249 Q 916.336 1174.5 916.326 1175.88 L 931.168 1182.217 Q 959.909 1180.308 992.267 1181.115 Q 1009.943 1182.199 1020.451 1186.072 Q 1026.546 1188.791 1032.973 1197.913 Q 1034.116 1200.421 1037.346 1216.545 Q 1038.986 1218.961 1040.249 1219.192 L 1041.443 1218.507 Q 1044.316 1216.3 1046.885 1214.141 Q 1044.832 1200.524 1041.936 1193.499 Q 1039.422 1185.207 1021.74 1175.934 Q 1013.991 1173.841 1006.538 1172.609 Q 993.596 1170.749 988.367 1170.874 Q 959.191 1170.631 924.339 1172.409 Z " fill="rgb(0,0,0)"/><path d=" M 448.716 1178.743 L 448.511 1178.755 Q 426.475 1180.221 418.34 1182.36 Q 414.465 1183.524 410.861 1184.975 L 401.944 1190.801 L 397.424 1194.62 Q 389.066 1208.384 387.933 1216.353 Q 387.206 1223.844 387.404 1224.158 L 391.583 1227.502 L 393.834 1227.615 Q 395.318 1226.825 397.05 1224.497 Q 399.872 1209.507 402.492 1203.809 Q 405.423 1198.843 414.458 1194.149 Q 418.537 1192.5 424.767 1191.209 Q 433.744 1189.762 443.538 1189.189 Q 456.172 1188.431 489.382 1189.618 Q 489.473 1189.149 496.112 1186.798 L 499.267 1185.016 L 502.494 1183.95 L 505.834 1182.155 Q 504.694 1181.709 498.692 1180.813 Q 493.43 1180.199 486.053 1179.845 L 483.985 1179.534 Q 457.366 1178.543 448.716 1178.743 Z " fill="rgb(0,0,0)"/></g><g id="neck-lines"><path d=" M 548.559 1020.319 L 547.978 1020.406 Q 545.715 1020.971 544.476 1024.995 Q 547.442 1063.892 546.543 1086.995 Q 545.808 1109.274 539.968 1158.522 Q 486.622 1178.281 471.685 1188.702 Q 458.14 1197.376 443.369 1209.499 Q 442.086 1214.422 441.798 1220.203 L 447.862 1218.682 Q 470.97 1199.736 487.393 1191.209 Q 503.971 1182.394 546.383 1166.799 Q 548.208 1165.925 548.869 1164.744 Q 556.967 1102.467 556.861 1077.758 Q 556.95 1058.099 554.354 1024.124 Q 554.028 1020.95 548.559 1020.319 Z " fill="rgb(0,0,0)"/><path d=" M 874.272 1016.652 L 873.657 1016.725 Q 869.682 1018.33 869.633 1020.636 Q 867.371 1052.696 868.053 1078.819 Q 868.796 1105.633 876.888 1161.054 Q 877.564 1162.227 879.4 1163.078 Q 922.036 1178.173 938.506 1186.661 Q 949.739 1192.826 953.84 1195.577 L 980.435 1214.384 L 980.257 1202.407 Q 965.78 1191.219 955.624 1184.576 Q 938.848 1173.707 885.712 1154.724 Q 879.258 1105.55 878.246 1083.282 Q 877.059 1060.192 879.539 1021.261 Q 878.717 1016.839 874.272 1016.652 Z " fill="rgb(0,0,0)"/><path d=" M 443.04 1211.212 L 442.335 1214.636 L 441.618 1221.985 Q 522.862 1263.093 547.868 1268.598 Q 560.272 1273.13 612.265 1286.035 Q 632.477 1290.628 651.018 1293.595 Q 687.397 1299.503 719.905 1299.013 Q 727.03 1299.034 757.543 1296.117 L 784.703 1292.014 Q 808.887 1288 845.775 1276.636 Q 881.145 1265.575 923.505 1245.27 Q 958.094 1228.09 980.428 1214.332 L 980.221 1202.782 Q 952.443 1220.84 919.131 1236.508 Q 858.932 1263.106 827.203 1271.945 Q 770.09 1288.452 713.158 1288.978 Q 643.12 1285.213 583.568 1269.07 Q 538.882 1255.952 499.832 1239.703 Q 485.482 1234.168 443.04 1211.212 Z " fill="rgb(0,0,0)"/></g><g id="head"><g id="ears"><g id="ear-color"><path d=" M 262.938 613.817 C 253.368 614.344 245.326 633.735 238.812 671.988 C 234.859 679.38 239.009 704.821 255.832 746.565 C 286.791 823.386 321.357 860.991 355.01 861.252 C 356.284 862.324 357.787 862.813 359.519 862.717 C 367.599 862.272 380.669 849.129 398.73 823.288 L 333.731 688.606 L 307.678 634.622 C 297.76 627.187 284.486 619.549 268.469 615.393 L 268.322 615.407 C 266.476 614.251 264.682 613.721 262.938 613.817 Z  M 1143.834 592.241 C 1142.978 592.288 1142.104 592.397 1141.21 592.567 L 1140.168 592.651 C 1099.133 605.285 1080.831 631.301 1062.026 687.263 L 1022.839 815.509 C 1021.668 825.614 1035.057 837.209 1064.751 842.132 C 1066.366 842.4 1068.005 842.487 1069.667 842.395 C 1093.575 841.078 1122.253 802.799 1154.958 734.342 C 1163.567 685.499 1168.987 661.015 1171.219 660.892 C 1171.439 660.88 1171.628 661.105 1171.786 661.568 C 1170.071 614.418 1160.753 591.309 1143.834 592.241 Z " fill="rgb(252,235,224)"/></g><g id="ear-lines"><path d=" M 284.683 655.532 L 284.683 655.532 L 284.683 655.532 L 284.683 655.532 L 284.683 655.532 L 284.891 661.727 C 284.94 661.727 284.991 661.725 285.048 661.72 L 285.038 661.721 C 286.266 661.624 287.182 660.549 287.085 659.322 L 287.085 659.322 L 287.547 665.147 C 287.614 666.002 287.325 666.847 286.747 667.48 C 286.17 668.114 285.355 668.48 284.498 668.492 L 284.498 668.492 L 284.496 668.492 L 287.554 665.327 C 287.562 665.704 287.561 666.091 287.534 666.432 L 287.534 666.432 C 287.52 666.601 287.486 666.984 287.354 667.397 C 286.946 668.667 285.772 669.533 284.438 669.549 L 284.438 669.549 L 284.432 669.549 L 287.157 667.859 C 287.206 667.764 287.248 667.665 287.284 667.558 C 286.861 668.809 285.692 669.655 284.372 669.665 L 284.372 669.665 L 284.362 669.665 L 286.586 668.7 C 285.965 669.354 285.193 669.618 284.973 669.695 L 284.974 669.695 C 284.868 669.732 284.742 669.772 284.638 669.803 C 284.363 669.885 284.077 669.927 283.79 669.93 L 283.79 669.93 L 283.767 669.931 L 283.979 669.921 C 281.473 670.119 280.288 670.332 279.976 670.442 L 279.975 670.442 C 279.97 670.444 279.997 670.434 280.033 670.418 C 279.647 670.589 279.232 670.68 278.81 670.685 L 278.81 670.685 L 278.793 670.685 L 279.733 670.528 C 279.52 670.598 279.453 670.657 279.456 670.655 L 279.456 670.654 C 279.463 670.649 279.482 670.629 279.497 670.602 C 278.979 671.529 278.022 672.127 276.961 672.186 L 276.961 672.186 L 276.961 672.186 L 279.468 670.653 C 278.875 671.67 278.58 672.624 278.508 673.535 C 278.384 675.081 277.137 676.298 275.588 676.383 L 275.588 676.383 L 275.588 676.383 L 278.496 673.652 C 278.451 674.028 278.441 674.341 278.453 674.596 L 278.451 674.549 L 278.452 674.573 L 278.45 674.535 L 278.788 679.036 C 278.852 679.891 278.559 680.734 277.978 681.366 C 277.398 681.997 276.582 682.36 275.724 682.367 L 275.724 682.367 L 275.715 682.368 L 278.78 679.482 L 278.779 679.484 L 278.777 679.514 C 278.768 679.632 278.756 679.752 278.74 679.875 L 278.74 679.875 C 278.719 680.04 278.654 680.568 278.399 681.106 C 277.891 682.18 276.813 682.869 275.624 682.879 L 275.624 682.879 L 275.611 682.88 L 278.004 681.718 C 278.672 680.884 278.665 679.671 277.933 678.845 L 277.933 678.845 C 277.486 678.34 276.857 678.087 276.24 678.094 L 276.24 678.094 C 275.725 678.1 275.202 678.287 274.786 678.655 L 274.785 678.655 C 274.568 678.848 274.439 679.051 274.369 679.199 C 275.037 677.787 276.65 677.092 278.135 677.577 C 279.619 678.063 280.511 679.576 280.216 681.109 L 280.216 681.109 L 280.216 681.11 L 274.37 679.198 C 274.318 679.307 274.303 679.372 274.305 679.366 L 274.305 679.366 C 274.307 679.355 274.327 679.264 274.34 679.063 L 274.334 679.278 L 274.333 679.159 L 274.341 679.369 L 274.003 674.869 C 273.941 674.038 274.215 673.217 274.765 672.591 C 275.314 671.965 276.093 671.587 276.924 671.541 L 276.924 671.541 L 276.925 671.541 L 273.998 674.767 C 273.974 674.213 274.004 673.651 274.072 673.089 L 274.067 673.137 L 274.071 673.102 L 274.063 673.18 C 274.199 671.488 274.751 669.885 275.627 668.388 L 275.609 668.419 L 275.618 668.404 L 275.604 668.428 C 276.253 667.267 277.301 666.672 278.131 666.365 L 278.13 666.366 C 278.249 666.322 278.357 666.286 278.474 666.25 L 278.216 666.342 L 278.358 666.284 L 277.988 666.464 L 277.989 666.463 C 278.446 666.202 278.962 666.062 279.488 666.056 L 279.488 666.056 L 279.495 666.056 L 278.408 666.266 C 278.568 666.204 278.722 666.155 278.857 666.116 L 278.856 666.116 C 279.867 665.825 281.624 665.632 283.749 665.467 L 283.749 665.467 C 283.603 665.478 283.46 665.504 283.317 665.544 L 283.318 665.544 C 283.475 665.5 283.542 665.465 283.546 665.463 L 283.545 665.463 C 283.548 665.462 283.405 665.539 283.254 665.75 L 285.945 670.65 L 285.945 670.65 C 284.754 670.716 283.632 670.093 283.057 669.047 C 282.483 668.002 282.559 666.721 283.253 665.751 L 283.253 665.751 C 283.215 665.804 283.179 665.863 283.144 665.93 L 285.941 670.437 L 285.924 670.437 C 284.769 670.45 283.702 669.819 283.157 668.8 C 282.612 667.781 282.678 666.544 283.33 665.59 L 283.33 665.59 C 283.209 665.767 283.144 665.924 283.109 666.031 C 283.568 664.609 284.975 663.716 286.457 663.907 C 287.939 664.099 289.073 665.319 289.155 666.811 L 289.155 666.811 L 289.155 666.812 L 283.108 666.035 C 283.08 666.121 283.072 666.171 283.073 666.165 L 283.073 666.166 C 283.082 666.118 283.107 665.885 283.096 665.375 L 283.099 665.462 L 283.096 665.413 L 283.102 665.499 L 282.64 659.674 L 282.64 659.674 C 282.733 660.852 283.724 661.74 284.888 661.727 C 283.202 661.746 281.811 660.414 281.755 658.73 C 281.7 657.045 283 655.625 284.683 655.532 L 284.683 655.532 L 284.683 655.532 L 284.683 655.532 L 284.683 655.532 L 284.683 655.532 Z  M 285.024 661.723 L 285.024 661.723 L 285.024 661.723 L 285.024 661.723 L 285.024 661.723 L 284.82 655.528 C 286.892 655.505 288.655 657.088 288.821 659.186 L 288.821 659.185 L 289.283 665.01 L 289.288 665.096 L 289.291 665.144 L 289.294 665.231 C 289.309 665.898 289.291 666.589 289.184 667.213 L 289.184 667.214 C 289.147 667.431 289.093 667.676 289.012 667.93 C 288.554 669.353 287.147 670.248 285.665 670.057 C 284.182 669.866 283.047 668.645 282.965 667.153 L 282.965 667.153 L 282.965 667.152 L 289.01 667.933 C 288.889 668.309 288.711 668.704 288.451 669.085 L 285.856 664.237 L 285.873 664.237 C 286.957 664.225 287.969 664.781 288.541 665.703 C 289.113 666.624 289.161 667.778 288.669 668.744 L 288.669 668.744 C 288.559 668.961 288.433 669.166 288.296 669.358 L 285.604 664.459 L 285.604 664.459 C 286.795 664.394 287.918 665.017 288.492 666.062 C 289.066 667.108 288.989 668.39 288.295 669.359 L 288.295 669.359 C 287.79 670.065 287.145 670.565 286.494 670.917 L 286.493 670.917 C 286.008 671.18 285.499 671.371 284.997 671.512 L 284.998 671.512 C 284.746 671.583 284.488 671.628 284.23 671.648 L 284.229 671.648 C 281.958 671.825 280.863 671.99 280.572 672.074 L 280.571 672.074 C 280.567 672.076 280.601 672.066 280.657 672.045 C 280.31 672.179 279.942 672.251 279.57 672.255 L 279.57 672.255 L 279.563 672.255 L 281.062 671.848 L 281.062 671.848 C 280.943 671.916 280.819 671.976 280.692 672.028 L 280.692 672.028 L 280.549 672.086 C 280.464 672.12 280.378 672.151 280.291 672.178 L 280.291 672.178 C 280.277 672.182 280.281 672.181 280.277 672.182 L 280.276 672.182 C 280.232 672.199 280.684 672.048 281.018 671.451 L 281.004 671.476 L 280.995 671.491 L 280.978 671.521 C 280.508 672.323 280.295 673.034 280.244 673.674 L 280.236 673.752 L 280.233 673.787 L 280.227 673.835 C 280.192 674.125 280.186 674.345 280.192 674.505 C 280.264 676.201 278.96 677.638 277.266 677.732 L 277.266 677.732 L 277.265 677.732 L 280.186 674.404 L 280.524 678.905 C 280.529 678.975 280.532 679.045 280.533 679.116 L 280.533 679.116 L 280.534 679.235 C 280.534 679.307 280.532 679.378 280.528 679.45 L 280.528 679.45 C 280.499 679.901 280.441 680.374 280.327 680.838 L 280.327 680.838 C 280.25 681.154 280.139 681.501 279.974 681.851 C 279.306 683.262 277.692 683.956 276.208 683.471 C 274.724 682.986 273.833 681.472 274.127 679.939 L 274.127 679.939 L 274.127 679.939 L 279.974 681.85 C 279.732 682.362 279.383 682.865 278.898 683.295 L 278.898 683.295 C 278.156 683.953 277.228 684.284 276.308 684.294 L 276.308 684.294 C 275.204 684.306 274.089 683.855 273.293 682.957 L 273.293 682.957 C 271.99 681.487 271.976 679.325 273.165 677.841 C 273.747 677.114 274.626 676.688 275.558 676.68 L 275.558 676.68 L 275.571 676.68 L 272.795 678.453 C 272.596 678.875 272.575 679.205 272.591 679.086 L 272.591 679.087 C 272.591 679.086 272.593 679.064 272.597 679.024 L 272.594 679.054 L 272.594 679.053 C 272.723 677.422 274.053 676.182 275.659 676.168 L 275.659 676.168 L 275.668 676.168 L 272.605 679.5 L 272.267 674.999 L 272.264 674.961 L 272.263 674.936 L 272.26 674.889 C 272.23 674.244 272.26 673.586 272.338 672.924 C 272.515 671.428 273.742 670.276 275.246 670.193 L 275.246 670.193 L 275.247 670.193 L 272.327 673.041 C 272.482 671.102 273.104 669.258 274.113 667.528 C 274.638 666.628 275.58 666.052 276.62 665.995 L 276.62 665.995 L 276.62 665.995 L 274.084 667.579 C 274.44 666.941 274.903 666.385 275.454 665.92 L 275.454 665.919 C 276.157 665.325 276.958 664.916 277.782 664.643 C 278.085 664.542 278.402 664.489 278.721 664.486 L 278.721 664.486 L 278.738 664.485 L 277.516 664.752 C 277.664 664.686 277.8 664.634 277.933 664.588 L 277.932 664.588 C 279.131 664.17 281.133 663.927 283.491 663.74 C 283.561 663.735 283.632 663.732 283.703 663.731 L 283.703 663.731 L 283.726 663.731 L 282.878 663.858 C 282.899 663.852 282.922 663.844 282.918 663.846 L 282.92 663.845 C 283.095 663.784 282.583 663.911 282.09 664.43 C 282.67 663.82 283.473 663.472 284.314 663.465 L 284.314 663.465 L 284.323 663.465 L 281.411 665.572 C 281.473 665.387 281.55 665.207 281.636 665.039 C 282.159 664.013 283.209 663.362 284.36 663.349 L 284.36 663.349 L 284.366 663.349 L 281.451 665.501 C 281.354 665.801 281.348 666.009 281.353 665.942 L 281.353 665.942 C 281.356 665.91 281.362 665.764 281.355 665.457 C 281.338 664.631 281.651 663.832 282.226 663.238 C 282.8 662.644 283.587 662.303 284.413 662.292 L 284.413 662.292 L 284.415 662.292 L 281.366 665.637 L 280.904 659.812 L 280.904 659.812 C 280.731 657.626 282.362 655.713 284.549 655.54 L 284.54 655.541 C 284.637 655.533 284.729 655.529 284.817 655.528 C 286.503 655.508 287.896 656.839 287.952 658.524 C 288.008 660.209 286.708 661.63 285.024 661.723 L 285.024 661.723 L 285.024 661.723 L 285.024 661.723 L 285.024 661.723 Z  M 272.955 624.344 L 272.955 624.344 L 272.955 624.344 L 272.955 624.344 L 272.955 624.344 L 273.159 630.539 C 272.272 630.549 271.465 630.757 270.694 631.171 L 270.694 631.171 C 268.949 632.108 267.107 634.244 265.472 638.32 C 265.005 639.484 263.883 640.252 262.629 640.266 L 262.629 640.266 L 262.606 640.266 L 264.99 639.105 C 256.343 649.893 261.771 690.309 285.023 764.075 L 285.023 764.075 C 284.72 763.111 283.826 762.506 282.872 762.517 L 282.874 762.517 C 282.654 762.519 282.435 762.554 282.229 762.619 L 282.227 762.619 C 281.053 762.99 280.401 764.242 280.771 765.416 L 280.771 765.416 C 258.23 693.908 250.549 649.495 261.662 636.132 L 261.662 636.131 C 261.512 636.311 261.392 636.514 261.305 636.733 L 261.305 636.731 C 263.019 632.434 265.334 628.988 268.584 627.243 L 268.585 627.242 C 270.062 626.449 271.662 626.043 273.341 626.024 L 273.341 626.024 C 286.1 625.884 303.378 649.229 325.127 689.741 L 325.126 689.74 C 324.718 688.981 323.934 688.557 323.138 688.566 L 323.002 688.571 L 323.003 688.571 L 323.139 688.566 C 322.787 688.57 322.43 688.658 322.107 688.831 L 322.107 688.831 C 321.024 689.413 320.615 690.764 321.198 691.85 L 321.198 691.85 C 298.109 648.841 282.093 630.441 273.159 630.539 C 271.474 630.557 270.083 629.226 270.027 627.541 C 269.971 625.857 271.272 624.436 272.955 624.344 L 272.955 624.344 L 272.955 624.344 L 272.955 624.344 L 272.955 624.344 L 272.955 624.344 Z  M 273.296 630.534 L 273.296 630.534 L 273.296 630.534 L 273.296 630.534 L 273.296 630.534 L 273.091 624.339 C 286.708 624.19 304.562 647.752 326.661 688.917 L 326.661 688.917 C 327.698 690.85 326.972 693.256 325.041 694.293 L 325.041 694.293 C 324.462 694.605 323.832 694.759 323.207 694.766 L 323.344 694.761 L 323.343 694.761 L 323.208 694.766 C 321.784 694.782 320.39 694.025 319.664 692.674 L 319.664 692.673 C 296.851 650.179 281.449 632.136 273.409 632.224 L 273.409 632.224 C 272.717 632.231 272.102 632.391 271.517 632.705 L 271.517 632.705 C 270.165 633.431 268.568 635.256 267.064 639.028 L 267.065 639.026 C 266.91 639.415 266.695 639.776 266.428 640.096 L 266.429 640.096 C 258.058 650.162 263.498 689.996 286.684 763.552 L 286.684 763.552 C 287.344 765.644 286.183 767.873 284.091 768.532 L 284.089 768.533 C 283.714 768.651 283.328 768.712 282.939 768.716 L 282.941 768.716 C 281.24 768.735 279.65 767.652 279.11 765.94 L 279.11 765.939 C 256.462 694.089 248.892 649.277 260.152 635.227 C 260.733 634.503 261.608 634.077 262.536 634.066 L 262.536 634.066 L 262.56 634.066 L 259.718 636.012 C 261.604 631.309 264.184 627.628 267.761 625.708 L 267.761 625.708 C 269.418 624.819 271.209 624.36 273.091 624.339 C 274.777 624.321 276.168 625.652 276.224 627.337 C 276.279 629.021 274.979 630.442 273.296 630.534 L 273.296 630.534 L 273.296 630.534 L 273.296 630.534 L 273.296 630.534 Z  M 319.678 715.835 L 319.678 715.835 L 319.678 715.835 L 319.678 715.835 L 319.678 715.835 L 320.019 722.025 L 320.019 722.025 L 319.882 722.03 C 320.888 722.019 321.794 721.328 322.031 720.302 L 322.031 720.303 C 320.24 728.056 321.143 735.33 324.733 742.263 C 325.228 743.219 325.192 744.363 324.637 745.286 C 324.083 746.209 323.089 746.777 322.013 746.788 L 322.013 746.788 L 321.989 746.789 L 324.966 742.941 C 326.416 748.774 335.051 756.372 353.656 765.299 L 353.657 765.299 C 353.344 765.149 353.004 765.076 352.666 765.08 L 352.667 765.08 C 351.853 765.089 351.064 765.549 350.683 766.343 L 350.683 766.343 C 350.149 767.455 350.619 768.786 351.727 769.318 L 351.837 769.369 L 351.837 769.369 L 351.728 769.319 C 333.971 760.799 322.57 752.436 320.587 743.799 L 320.587 743.799 C 320.628 743.98 320.693 744.158 320.781 744.328 L 320.78 744.326 C 316.693 736.44 315.665 728.052 317.687 719.299 L 317.687 719.299 C 317.41 720.499 318.157 721.696 319.357 721.973 L 319.47 721.997 L 319.469 721.997 L 319.355 721.973 C 319.531 722.013 319.708 722.032 319.882 722.03 C 318.197 722.048 316.806 720.717 316.75 719.032 C 316.695 717.348 317.995 715.927 319.678 715.835 L 319.678 715.835 L 319.678 715.835 L 319.678 715.835 L 319.678 715.835 L 319.678 715.835 Z  M 320.019 722.025 L 320.019 722.025 L 320.019 722.025 L 320.019 722.025 L 320.019 722.025 L 319.815 715.83 C 320.124 715.827 320.44 715.86 320.753 715.932 L 320.639 715.908 L 320.64 715.908 L 320.752 715.932 C 322.889 716.426 324.221 718.558 323.728 720.694 L 323.728 720.694 C 322.032 728.037 322.887 734.917 326.285 741.473 L 326.284 741.471 C 326.439 741.771 326.555 742.086 326.629 742.411 L 326.629 742.411 C 327.84 747.684 336.081 754.935 354.41 763.729 L 354.3 763.679 L 354.301 763.679 L 354.412 763.73 C 356.386 764.678 357.222 767.049 356.271 769.028 L 356.271 769.028 C 355.593 770.44 354.191 771.264 352.735 771.28 L 352.736 771.28 C 352.139 771.286 351.536 771.158 350.974 770.889 L 350.974 770.889 C 332.806 762.171 321.202 753.498 318.949 744.437 C 318.72 743.517 318.925 742.542 319.505 741.792 C 320.085 741.042 320.977 740.599 321.925 740.589 L 321.925 740.589 L 321.948 740.589 L 319.228 745.114 C 314.95 736.853 313.873 728.072 315.99 718.907 L 315.99 718.908 C 316.411 717.083 318.024 715.85 319.815 715.83 L 319.678 715.835 L 319.678 715.835 C 321.5 715.812 322.891 717.143 322.947 718.828 C 323.002 720.512 321.702 721.933 320.019 722.025 L 320.019 722.025 L 320.019 722.025 L 320.019 722.025 L 320.019 722.025 Z  M 308.741 672.357 L 308.741 672.357 L 308.741 672.357 L 308.741 672.357 L 308.741 672.357 L 308.944 678.552 C 309.071 678.551 309.199 678.532 309.317 678.498 L 309.315 678.498 C 309.643 678.403 309.798 678.231 309.803 678.225 L 309.802 678.225 C 309.795 678.234 309.708 678.344 309.583 678.634 L 309.583 678.634 C 308.348 681.503 307.503 690.691 307.471 707.279 C 307.468 708.976 306.101 710.355 304.403 710.373 L 304.403 710.373 L 304.38 710.373 L 306.911 709.017 C 299.781 719.493 296.868 724.976 296.716 726.432 L 296.716 726.431 C 296.716 726.429 296.717 726.422 296.718 726.393 C 296.68 728.065 295.323 729.406 293.651 729.423 L 293.651 729.423 L 293.627 729.424 L 296.576 727.174 C 294.782 733.464 295.899 742.818 300.743 755.662 L 300.743 755.662 C 300.678 755.489 300.59 755.321 300.48 755.165 L 300.48 755.164 C 313.938 774.263 331.743 784.122 354.104 784.987 L 354.098 784.987 C 354.066 784.986 354.034 784.985 353.986 784.986 L 353.994 784.986 C 352.811 784.999 351.837 785.935 351.79 787.128 L 351.79 787.127 C 351.742 788.36 352.703 789.394 353.93 789.442 L 354.222 789.44 L 354.222 789.44 L 353.932 789.443 C 330.194 788.524 311.131 777.929 296.952 757.899 L 299.515 759.207 L 299.491 759.208 C 298.189 759.221 297.018 758.419 296.558 757.201 L 296.558 757.201 C 291.698 744.303 290.003 733.659 292.351 725.736 L 292.351 725.738 C 292.291 725.941 292.26 726.152 292.259 726.365 L 292.259 726.365 C 292.26 726.052 292.293 725.757 292.337 725.499 L 292.337 725.499 C 292.856 722.422 296.948 715.715 303.4 706.252 L 303.4 706.252 C 303.149 706.62 303.013 707.056 303.012 707.504 L 303.012 707.505 C 303.035 691.575 303.717 680.986 305.488 676.871 L 305.487 676.872 C 305.598 676.614 305.725 676.346 305.868 676.091 L 305.867 676.092 C 305.96 675.927 306.553 674.77 307.846 674.291 C 308.182 674.166 308.536 674.101 308.894 674.097 L 308.894 674.097 L 308.917 674.097 C 309.211 674.094 309.505 674.133 309.788 674.213 L 309.533 674.153 L 309.534 674.153 L 309.819 674.222 C 309.999 674.275 310.145 674.335 310.209 674.363 L 308.812 674.115 L 308.812 674.115 C 309.29 674.088 309.767 674.173 310.206 674.362 L 310.206 674.362 C 309.917 674.238 309.608 674.178 309.303 674.181 L 309.302 674.181 C 308.454 674.19 307.64 674.689 307.279 675.529 L 307.279 675.529 C 306.793 676.659 307.314 677.971 308.445 678.458 L 308.445 678.458 C 308.544 678.5 308.686 678.541 308.86 678.55 L 308.865 678.551 C 308.88 678.551 308.916 678.553 308.951 678.552 C 307.264 678.574 305.87 677.243 305.813 675.557 C 305.756 673.872 307.057 672.45 308.741 672.357 L 308.741 672.357 L 308.741 672.357 L 308.741 672.357 L 308.741 672.357 L 308.741 672.357 Z  M 309.082 678.548 L 309.082 678.548 L 309.082 678.548 L 309.082 678.548 L 309.082 678.548 L 308.872 672.352 C 308.983 672.351 309.083 672.354 309.176 672.358 L 309.181 672.359 C 309.791 672.39 310.367 672.535 310.896 672.763 L 310.896 672.763 C 312.912 673.63 313.84 675.966 312.974 677.979 L 312.974 677.979 C 312.332 679.473 310.885 680.364 309.37 680.381 L 309.368 680.381 C 308.827 680.387 308.279 680.282 307.759 680.058 L 309.153 680.305 L 309.153 680.305 C 308.675 680.332 308.196 680.247 307.756 680.057 L 307.756 680.057 C 307.796 680.074 307.914 680.124 308.078 680.172 L 308.363 680.241 L 308.362 680.241 L 308.978 680.297 L 308.955 680.297 L 310.003 680.104 C 311.089 679.701 311.447 678.818 311.274 679.127 L 311.274 679.127 C 311.269 679.135 311.238 679.194 311.183 679.322 L 311.183 679.322 C 310.037 681.984 309.236 691.004 309.212 707.514 L 309.212 707.514 C 309.211 708.311 308.97 709.088 308.522 709.745 L 308.522 709.745 C 301.636 719.845 298.683 725.149 298.45 726.532 L 298.45 726.532 C 298.449 726.538 298.459 726.482 298.46 726.379 L 298.46 726.379 C 298.459 726.757 298.403 727.134 298.296 727.497 L 298.296 727.498 C 296.548 733.396 297.611 742.412 302.36 755.014 L 299.427 753.008 L 299.45 753.008 C 300.468 752.997 301.425 753.486 302.013 754.316 L 302.013 754.316 C 315.128 772.844 332.444 782.407 354.171 783.247 C 354.268 783.251 353.784 783.255 353.881 783.25 L 353.881 783.25 L 353.881 783.249 L 354.174 783.247 C 356.362 783.333 358.072 785.176 357.986 787.37 L 357.986 787.369 C 357.903 789.494 356.166 791.162 354.062 791.185 L 354.069 791.185 C 353.998 791.186 353.925 791.185 353.87 791.183 L 353.864 791.183 C 329.488 790.24 309.933 779.343 295.412 758.736 L 295.411 758.735 C 295.216 758.459 295.059 758.16 294.942 757.849 L 294.942 757.85 C 289.971 744.669 288.257 733.737 290.614 725.473 C 290.991 724.153 292.191 723.238 293.563 723.224 L 293.563 723.224 L 293.587 723.224 L 290.519 726.254 C 290.523 726.095 290.534 725.935 290.549 725.787 L 290.549 725.787 C 290.906 722.372 295.136 715.299 301.785 705.529 C 302.356 704.69 303.302 704.184 304.316 704.173 L 304.316 704.173 L 304.339 704.173 L 301.271 707.267 C 301.302 691.216 302.032 680.495 303.888 676.183 L 303.888 676.183 C 304.182 675.5 304.563 674.818 305.073 674.217 L 305.072 674.217 C 305.687 673.492 306.519 672.853 307.593 672.542 L 307.591 672.542 C 308.009 672.421 308.44 672.357 308.879 672.352 C 310.564 672.335 311.954 673.666 312.01 675.351 C 312.065 677.035 310.765 678.455 309.082 678.548 L 309.082 678.548 L 309.082 678.548 L 309.082 678.548 L 309.082 678.548 Z  M 266.278 613.515 L 266.278 613.515 L 266.278 613.515 L 266.278 613.515 L 266.278 613.515 L 266.483 619.71 C 263.947 619.738 261.332 619.924 258.641 620.272 L 258.637 620.272 C 258.753 620.257 258.861 620.234 258.962 620.206 L 258.958 620.207 C 248.405 623.172 241.829 641.142 242.919 680.382 C 242.942 681.213 242.631 682.018 242.055 682.616 C 241.479 683.215 240.687 683.558 239.857 683.568 L 239.857 683.568 L 239.833 683.568 L 242.614 681.76 C 240.569 686.222 245.535 710.711 259.946 758.143 L 259.946 758.143 C 259.908 758.018 259.858 757.893 259.795 757.77 L 259.794 757.769 C 295.991 827.924 327.161 860.468 352.924 860.186 L 352.924 860.186 C 357.745 860.133 362.46 858.935 367.103 856.539 L 367.103 856.539 C 372.177 853.921 377.188 849.851 382.116 844.215 L 382.116 844.215 C 381.307 845.141 381.399 846.55 382.327 847.361 L 382.299 847.337 L 382.299 847.337 L 382.328 847.362 C 382.755 847.735 383.292 847.917 383.818 847.912 L 383.955 847.907 L 383.955 847.907 L 383.819 847.912 C 384.426 847.905 385.038 847.647 385.472 847.151 L 385.473 847.15 C 380.307 853.059 374.873 857.547 369.148 860.502 L 369.148 860.502 C 363.951 863.183 358.538 864.579 352.939 864.641 L 352.939 864.641 C 323.486 864.964 291.266 828.454 255.908 759.96 L 258.692 761.638 L 258.676 761.638 C 257.3 761.651 256.08 760.756 255.68 759.439 L 255.68 759.439 C 241.912 714.126 235.338 686.551 238.566 679.884 L 238.566 679.884 C 238.625 679.76 238.692 679.634 238.763 679.509 L 238.764 679.509 C 238.558 679.866 238.456 680.273 238.467 680.684 L 238.467 680.684 C 237.429 644.003 242.572 620.277 257.656 615.942 L 258.547 622.021 L 258.524 622.021 C 256.882 622.04 255.51 620.775 255.396 619.137 C 255.282 617.499 256.465 616.056 258.093 615.847 L 258.093 615.847 C 260.9 615.485 263.652 615.289 266.342 615.259 L 266.342 615.259 C 301.816 614.87 324.423 643.237 335.404 696.297 L 335.404 696.298 C 335.184 695.232 334.242 694.508 333.196 694.52 L 333.196 694.52 C 333.053 694.521 332.907 694.537 332.766 694.566 L 332.77 694.566 C 331.563 694.815 330.789 695.995 331.038 697.201 L 331.038 697.201 C 319.999 643.861 298.076 619.364 266.483 619.71 C 264.797 619.729 263.406 618.397 263.35 616.713 C 263.295 615.028 264.595 613.608 266.278 613.515 L 266.278 613.515 L 266.278 613.515 L 266.278 613.515 L 266.278 613.515 L 266.278 613.515 Z  M 266.619 619.706 L 266.619 619.706 L 266.619 619.706 L 266.619 619.706 L 266.619 619.706 L 266.415 613.511 C 302.769 613.112 325.929 641.922 337.109 695.944 L 337.11 695.944 C 337.554 698.092 336.173 700.193 334.025 700.637 L 334.029 700.637 C 333.775 700.689 333.518 700.717 333.264 700.72 L 333.264 700.72 C 331.401 700.74 329.724 699.447 329.333 697.553 L 329.333 697.554 C 318.484 645.133 297.096 621.122 266.41 621.459 L 266.41 621.459 C 263.976 621.486 261.466 621.664 258.884 621.996 L 258.454 615.822 L 258.477 615.821 C 260.029 615.804 261.355 616.936 261.58 618.471 C 261.805 620.007 260.86 621.472 259.369 621.901 L 259.369 621.901 C 249.73 624.671 243.576 642.062 244.665 680.509 L 244.665 680.51 C 244.685 681.242 244.503 681.967 244.137 682.603 L 244.137 682.602 C 244.144 682.59 244.146 682.585 244.146 682.586 L 244.146 682.586 C 242.298 686.404 247.25 710.365 261.612 757.637 L 258.616 755.438 L 258.632 755.438 C 259.803 755.427 260.88 756.076 261.417 757.116 L 261.417 757.116 C 297.264 826.556 327.873 858.715 352.871 858.441 L 352.871 858.441 C 357.445 858.391 361.914 857.257 366.305 854.992 L 366.305 854.992 C 371.18 852.476 376.021 848.541 380.805 843.069 L 380.805 843.069 C 381.579 842.184 382.665 841.724 383.75 841.712 L 383.614 841.717 L 383.614 841.717 L 383.752 841.712 C 384.69 841.702 385.644 842.026 386.407 842.693 L 386.436 842.718 L 386.436 842.718 L 386.408 842.693 C 388.06 844.138 388.226 846.646 386.784 848.296 L 386.784 848.296 C 381.47 854.373 375.866 858.995 369.946 862.049 L 369.946 862.049 C 364.501 864.859 358.84 866.321 352.992 866.385 L 352.992 866.385 C 322.791 866.717 290.015 829.865 254.284 760.612 L 254.284 760.611 C 254.172 760.394 254.083 760.172 254.014 759.945 L 254.014 759.945 C 240.149 714.311 233.66 686.416 236.978 679.177 C 237.478 678.087 238.561 677.383 239.76 677.369 L 239.76 677.369 L 239.784 677.368 L 236.722 680.554 C 235.676 642.923 241.3 618.728 257.281 614.238 L 257.277 614.239 C 257.459 614.188 257.652 614.147 257.85 614.122 L 257.847 614.122 C 260.764 613.746 263.624 613.541 266.415 613.511 C 268.1 613.492 269.491 614.824 269.547 616.508 C 269.603 618.193 268.302 619.613 266.619 619.706 L 266.619 619.706 L 266.619 619.706 L 266.619 619.706 L 266.619 619.706 Z " fill="rgb(0,0,0)"/><path d=" M 1124.542 632.789 L 1124.542 632.789 L 1124.542 632.789 L 1124.542 632.789 L 1124.542 632.789 L 1124.619 632.786 C 1124.695 632.783 1124.792 632.783 1124.893 632.787 L 1124.88 632.786 C 1127.072 632.862 1128.787 634.701 1128.711 636.891 L 1128.711 636.892 L 1128.509 642.731 L 1125.24 639.529 L 1125.242 639.529 C 1126.079 639.483 1126.9 639.778 1127.516 640.348 C 1128.132 640.917 1128.491 641.712 1128.511 642.551 L 1128.511 642.551 C 1128.518 642.856 1128.532 643.005 1128.536 643.036 L 1128.535 643.034 C 1128.544 643.103 1128.528 642.895 1128.418 642.599 L 1125.409 640.579 L 1125.414 640.579 C 1126.567 640.541 1127.646 641.146 1128.215 642.149 L 1128.215 642.149 C 1128.31 642.317 1128.391 642.489 1128.461 642.668 L 1125.463 640.693 L 1125.472 640.693 C 1126.312 640.663 1127.128 640.976 1127.732 641.559 L 1127.734 641.56 C 1127.216 641.061 1126.697 640.956 1126.878 641.011 L 1126.88 641.011 C 1126.878 641.011 1126.896 641.016 1126.92 641.022 L 1126.067 640.932 L 1126.09 640.931 C 1126.161 640.929 1126.231 640.929 1126.302 640.931 L 1126.302 640.931 C 1128.666 641.013 1130.677 641.166 1131.893 641.531 L 1131.891 641.531 C 1132.024 641.57 1132.169 641.619 1132.315 641.676 L 1131.081 641.464 L 1131.098 641.464 C 1131.418 641.453 1131.738 641.492 1132.045 641.579 L 1132.045 641.579 C 1132.88 641.815 1133.698 642.188 1134.427 642.75 L 1134.427 642.75 C 1134.999 643.192 1135.486 643.727 1135.87 644.347 L 1133.063 642.883 L 1133.063 642.882 C 1134.175 642.821 1135.235 643.362 1135.839 644.298 L 1135.839 644.298 C 1136.924 645.981 1137.627 647.796 1137.868 649.726 L 1135.007 647.018 L 1135.007 647.018 C 1136.442 647.117 1137.619 648.191 1137.852 649.61 L 1137.852 649.61 C 1137.959 650.269 1138.019 650.922 1138.017 651.569 L 1138.017 651.607 L 1138.017 651.631 L 1138.015 651.679 L 1137.878 656.191 L 1134.67 652.998 L 1134.679 652.998 C 1136.285 652.941 1137.668 654.121 1137.865 655.716 L 1137.865 655.716 C 1137.87 655.755 1137.874 655.778 1137.874 655.779 L 1137.874 655.776 C 1137.894 655.896 1137.86 655.566 1137.64 655.151 L 1134.788 653.505 L 1134.801 653.505 C 1135.733 653.471 1136.63 653.858 1137.245 654.559 L 1137.245 654.559 C 1138.498 655.988 1138.581 658.149 1137.344 659.676 L 1137.344 659.676 C 1136.589 660.608 1135.494 661.108 1134.39 661.145 L 1134.392 661.145 C 1133.472 661.176 1132.531 660.887 1131.76 660.262 L 1131.76 660.262 C 1131.256 659.855 1130.885 659.366 1130.62 658.865 C 1129.83 657.369 1130.386 655.515 1131.869 654.7 C 1133.352 653.885 1135.215 654.411 1136.054 655.88 L 1136.054 655.88 L 1136.054 655.881 L 1130.266 657.588 L 1130.266 657.588 L 1130.622 658.868 C 1130.44 658.525 1130.314 658.183 1130.222 657.87 L 1130.222 657.868 C 1130.088 657.411 1130.009 656.944 1129.961 656.493 C 1129.953 656.422 1129.948 656.351 1129.945 656.279 L 1129.945 656.279 L 1129.941 656.16 C 1129.938 656.09 1129.938 656.019 1129.94 655.949 L 1129.94 655.949 L 1130.078 651.438 L 1132.962 654.625 L 1132.961 654.625 C 1131.339 654.512 1130.079 653.165 1130.076 651.539 L 1130.076 651.539 C 1130.075 651.377 1130.059 651.159 1130.011 650.87 L 1130.003 650.818 L 1129.998 650.782 L 1129.969 650.497 L 1129.968 650.496 L 1129.988 650.71 C 1129.908 650.073 1129.663 649.372 1129.159 648.592 L 1129.147 648.574 L 1129.138 648.56 L 1128.657 647.064 L 1128.657 647.064 L 1129.116 648.524 C 1129.476 649.106 1129.935 649.236 1129.889 649.222 L 1129.891 649.223 C 1129.89 649.222 1129.883 649.22 1129.872 649.217 C 1129.784 649.194 1129.698 649.168 1129.612 649.138 L 1129.612 649.138 L 1129.468 649.086 C 1129.309 649.03 1129.156 648.961 1129.009 648.88 L 1129.009 648.88 L 1129.008 648.88 L 1130.594 649.263 L 1130.587 649.263 C 1130.219 649.274 1129.851 649.219 1129.502 649.101 L 1129.501 649.1 C 1129.559 649.12 1129.595 649.129 1129.589 649.127 L 1129.588 649.127 C 1129.293 649.056 1128.193 648.94 1125.916 648.864 L 1125.916 648.864 C 1125.657 648.856 1125.396 648.821 1125.142 648.762 L 1125.143 648.762 C 1124.635 648.643 1124.119 648.476 1123.622 648.235 L 1123.621 648.234 C 1122.955 647.912 1122.288 647.441 1121.752 646.758 C 1120.953 645.741 1120.87 644.334 1121.543 643.23 C 1122.216 642.125 1123.505 641.555 1124.775 641.799 L 1124.775 641.799 L 1124.775 641.799 L 1121.75 646.755 C 1121.606 646.571 1121.472 646.373 1121.352 646.162 C 1120.817 645.218 1120.814 644.063 1121.344 643.116 C 1121.875 642.17 1122.861 641.569 1123.946 641.534 L 1123.946 641.534 L 1123.963 641.533 L 1121.583 646.49 C 1121.308 646.122 1121.112 645.736 1120.974 645.365 L 1126.975 644.113 L 1126.975 644.114 C 1127.059 645.644 1126.012 647.007 1124.511 647.319 C 1123.01 647.631 1121.506 646.799 1120.973 645.362 L 1120.973 645.363 C 1120.88 645.11 1120.815 644.868 1120.769 644.655 L 1120.768 644.653 C 1120.634 644.034 1120.585 643.347 1120.571 642.678 L 1120.57 642.596 L 1120.57 642.548 L 1120.572 642.457 L 1120.774 636.617 L 1120.774 636.619 C 1120.846 634.515 1122.539 632.855 1124.609 632.786 L 1124.542 632.789 L 1124.542 632.789 L 1124.542 632.789 L 1124.542 632.789 L 1124.542 632.789 Z  M 1124.883 638.979 L 1124.883 638.979 L 1124.883 638.979 L 1124.883 638.979 L 1124.883 638.979 L 1124.817 638.982 C 1125.98 638.943 1126.93 638.013 1126.971 636.83 L 1126.971 636.832 L 1126.769 642.671 L 1126.77 642.58 L 1126.77 642.629 L 1126.769 642.547 C 1126.78 643.057 1126.816 643.287 1126.827 643.337 L 1126.827 643.335 C 1126.828 643.344 1126.818 643.292 1126.786 643.206 L 1120.784 644.455 L 1120.784 644.454 C 1120.7 642.924 1121.746 641.562 1123.246 641.249 C 1124.746 640.936 1126.25 641.766 1126.785 643.202 L 1126.785 643.202 C 1126.746 643.097 1126.673 642.943 1126.546 642.773 C 1127.239 643.698 1127.359 644.931 1126.86 645.973 C 1126.36 647.014 1125.322 647.692 1124.167 647.73 L 1124.167 647.73 L 1124.15 647.73 L 1126.744 643.102 C 1126.706 643.035 1126.67 642.982 1126.63 642.931 C 1127.428 643.949 1127.51 645.355 1126.836 646.458 C 1126.162 647.562 1124.875 648.132 1123.605 647.888 L 1123.605 647.888 L 1123.605 647.888 L 1126.628 642.928 C 1126.468 642.725 1126.322 642.654 1126.324 642.655 L 1126.324 642.655 C 1126.329 642.657 1126.395 642.688 1126.555 642.725 L 1126.555 642.725 C 1126.412 642.692 1126.266 642.672 1126.12 642.668 L 1126.121 642.668 C 1128.251 642.738 1130.014 642.853 1131.037 643.099 L 1131.036 643.098 C 1131.172 643.131 1131.328 643.173 1131.493 643.229 L 1130.407 643.066 L 1130.414 643.066 C 1130.967 643.05 1131.515 643.182 1132 643.449 L 1132 643.449 L 1132 643.45 L 1131.542 643.243 L 1131.686 643.295 L 1131.427 643.215 C 1131.541 643.245 1131.653 643.277 1131.768 643.313 L 1131.77 643.314 C 1132.613 643.583 1133.688 644.13 1134.389 645.263 L 1134.848 646.723 L 1134.848 646.723 L 1134.367 645.228 L 1134.376 645.243 L 1134.365 645.225 C 1135.306 646.68 1135.929 648.258 1136.14 649.94 L 1136.159 650.155 L 1136.159 650.156 L 1136.13 649.87 L 1136.135 649.905 L 1136.127 649.852 C 1136.22 650.413 1136.274 650.968 1136.276 651.525 L 1133.39 648.439 L 1133.391 648.44 C 1135.052 648.555 1136.325 649.962 1136.275 651.626 L 1136.275 651.626 L 1136.137 656.138 L 1136.137 655.927 L 1136.141 656.046 L 1136.126 655.833 C 1136.147 656.032 1136.17 656.121 1136.174 656.133 L 1136.173 656.132 C 1136.175 656.137 1136.159 656.075 1136.101 655.967 L 1136.457 657.247 L 1136.457 657.247 C 1136.893 657.463 1136.339 659.318 1134.855 660.134 C 1133.372 660.95 1131.508 660.424 1130.669 658.954 L 1130.669 658.954 L 1130.669 658.954 L 1136.102 655.97 C 1136.026 655.824 1135.887 655.627 1135.662 655.444 L 1135.662 655.444 C 1135.23 655.094 1134.699 654.931 1134.183 654.948 L 1134.184 654.948 C 1133.567 654.969 1132.951 655.25 1132.527 655.773 L 1132.527 655.773 C 1131.831 656.632 1131.879 657.844 1132.584 658.647 L 1135.027 659.701 L 1135.014 659.701 C 1133.826 659.744 1132.719 659.105 1132.162 658.055 L 1132.162 658.055 C 1131.883 657.529 1131.793 657 1131.765 656.838 L 1131.765 656.836 C 1131.744 656.718 1131.726 656.588 1131.712 656.476 L 1134.898 659.194 L 1134.889 659.194 C 1134.032 659.225 1133.2 658.899 1132.593 658.294 C 1131.985 657.689 1131.655 656.859 1131.681 656.002 L 1131.681 656.002 L 1131.818 651.491 L 1131.817 651.539 L 1131.818 651.515 L 1131.817 651.552 C 1131.818 651.296 1131.794 650.985 1131.733 650.611 L 1134.578 653.203 L 1134.577 653.203 C 1133.099 653.1 1131.9 651.965 1131.716 650.495 L 1131.716 650.495 C 1131.602 649.587 1131.266 648.647 1130.628 647.658 L 1133.404 649.073 L 1133.404 649.073 C 1132.271 649.136 1131.194 648.574 1130.597 647.608 L 1130.597 647.608 C 1130.612 647.634 1130.633 647.653 1130.64 647.659 L 1130.64 647.659 C 1130.644 647.662 1130.574 647.606 1130.358 647.545 L 1131.305 647.66 L 1131.288 647.661 C 1130.867 647.675 1130.447 647.603 1130.055 647.449 L 1130.055 647.449 C 1130.092 647.464 1130.115 647.471 1130.113 647.47 L 1130.112 647.47 C 1129.794 647.374 1128.602 647.214 1126.089 647.128 L 1126.301 647.128 L 1126.277 647.129 C 1125.99 647.138 1125.703 647.108 1125.424 647.039 L 1125.424 647.039 C 1125.314 647.011 1125.195 646.979 1125.082 646.945 L 1125.084 646.946 C 1124.866 646.88 1124.079 646.65 1123.428 646.022 L 1125.69 646.889 L 1125.68 646.889 C 1124.363 646.936 1123.16 646.143 1122.683 644.915 L 1122.683 644.915 C 1122.722 645.015 1122.767 645.112 1122.82 645.206 L 1125.621 646.776 L 1125.615 646.776 C 1124.282 646.82 1123.07 646.007 1122.606 644.756 L 1122.606 644.756 C 1122.455 644.349 1122.404 643.967 1122.383 643.8 L 1122.383 643.798 C 1122.341 643.459 1122.322 643.074 1122.313 642.697 L 1125.583 645.719 L 1125.581 645.719 C 1124.712 645.767 1123.863 645.448 1123.241 644.838 C 1122.619 644.229 1122.283 643.387 1122.313 642.517 L 1122.313 642.517 L 1122.515 636.677 L 1122.515 636.678 C 1122.472 637.907 1123.435 638.94 1124.666 638.982 L 1124.653 638.982 C 1124.718 638.984 1124.765 638.984 1124.807 638.983 L 1124.883 638.979 L 1124.883 638.979 L 1124.883 638.979 L 1124.883 638.979 Z  M 1134.872 601.11 L 1134.872 601.11 L 1134.872 601.11 L 1134.872 601.11 L 1134.872 601.11 L 1134.938 601.107 C 1136.821 601.043 1138.629 601.422 1140.324 602.237 L 1140.324 602.237 C 1143.983 603.996 1146.724 607.558 1148.818 612.173 L 1145.888 610.356 L 1145.912 610.355 C 1146.841 610.323 1147.736 610.71 1148.349 611.408 L 1148.349 611.408 C 1160.223 624.943 1154.654 670.047 1135.224 742.834 L 1135.224 742.834 C 1134.76 744.57 1133.22 745.721 1131.52 745.778 L 1131.524 745.778 C 1131.132 745.792 1130.744 745.747 1130.365 745.646 L 1130.363 745.646 C 1128.244 745.08 1126.985 742.905 1127.551 740.786 L 1127.551 740.786 C 1147.442 666.271 1151.106 626.235 1142.295 616.551 L 1142.296 616.552 C 1142.015 616.244 1141.784 615.891 1141.614 615.514 L 1141.613 615.512 C 1139.943 611.811 1138.268 610.06 1136.883 609.394 L 1136.995 609.445 L 1136.995 609.445 L 1136.883 609.394 C 1136.285 609.107 1135.663 608.974 1134.972 608.998 L 1134.972 608.998 C 1126.936 609.267 1112.352 627.978 1091.451 671.445 L 1091.45 671.446 C 1090.786 672.826 1089.429 673.645 1088.004 673.692 L 1088.005 673.692 C 1087.382 673.713 1086.745 673.588 1086.15 673.301 L 1086.152 673.302 C 1084.176 672.352 1083.344 669.98 1084.294 668.003 L 1084.294 668.003 C 1104.541 625.896 1121.328 601.563 1134.939 601.107 L 1134.872 601.11 L 1134.872 601.11 L 1134.872 601.11 L 1134.872 601.11 L 1134.872 601.11 Z  M 1135.213 607.3 L 1135.213 607.3 L 1135.213 607.3 L 1135.213 607.3 L 1135.213 607.3 L 1135.146 607.303 C 1126.217 607.602 1111.035 626.697 1089.882 670.69 L 1089.882 670.69 C 1090.416 669.58 1089.948 668.248 1088.839 667.715 L 1088.841 667.716 C 1088.508 667.555 1088.148 667.484 1087.797 667.496 L 1087.799 667.496 C 1087.002 667.522 1086.237 667.981 1085.864 668.756 L 1085.864 668.758 C 1105.789 627.319 1122.012 603.229 1134.764 602.801 L 1134.764 602.801 C 1136.442 602.745 1138.058 603.08 1139.57 603.807 L 1139.458 603.755 L 1139.458 603.756 L 1139.57 603.807 C 1142.896 605.406 1145.361 608.745 1147.264 612.962 L 1147.264 612.961 C 1147.168 612.749 1147.039 612.552 1146.88 612.378 L 1146.881 612.379 C 1158.577 625.235 1152.879 669.945 1133.541 742.385 L 1133.541 742.385 C 1133.858 741.195 1133.152 739.974 1131.962 739.656 L 1131.961 739.655 C 1131.753 739.6 1131.532 739.574 1131.309 739.582 L 1131.313 739.582 C 1130.36 739.614 1129.494 740.258 1129.233 741.235 L 1129.233 741.235 C 1149.182 666.507 1152.806 625.89 1143.689 615.497 L 1146.126 616.551 L 1146.102 616.552 C 1144.848 616.595 1143.691 615.878 1143.172 614.735 L 1143.172 614.735 C 1141.357 610.735 1139.422 608.683 1137.638 607.825 L 1137.638 607.825 C 1136.848 607.445 1136.033 607.273 1135.147 607.303 L 1135.213 607.3 L 1135.213 607.3 L 1135.213 607.3 L 1135.213 607.3 Z  M 1092.264 694.588 L 1092.264 694.588 L 1092.264 694.588 L 1092.264 694.588 L 1092.264 694.588 L 1092.331 694.585 C 1094.119 694.525 1095.786 695.684 1096.289 697.489 L 1096.288 697.489 C 1098.811 706.55 1098.126 715.371 1094.22 723.814 L 1091.309 719.414 L 1091.332 719.413 C 1092.278 719.383 1093.186 719.787 1093.797 720.511 C 1094.408 721.234 1094.656 722.197 1094.468 723.125 L 1094.468 723.125 C 1092.621 732.278 1081.414 741.458 1063.651 750.975 L 1063.651 750.975 C 1063.101 751.269 1062.505 751.423 1061.91 751.444 L 1061.909 751.444 C 1060.454 751.492 1059.017 750.732 1058.277 749.352 L 1058.276 749.351 C 1057.239 747.416 1057.969 745.011 1059.899 743.976 L 1059.827 744.016 L 1059.828 744.015 L 1059.9 743.975 C 1077.82 734.374 1085.73 726.764 1086.705 721.443 L 1086.705 721.441 C 1086.765 721.117 1086.866 720.796 1087.007 720.49 L 1087.008 720.49 C 1090.111 713.789 1090.659 706.878 1088.638 699.618 L 1088.638 699.618 C 1088.05 697.506 1089.286 695.316 1091.398 694.729 L 1091.395 694.729 C 1091.706 694.643 1092.019 694.596 1092.331 694.585 L 1092.264 694.588 L 1092.264 694.588 L 1092.264 694.588 L 1092.264 694.588 L 1092.264 694.588 Z  M 1092.605 700.779 L 1092.605 700.779 L 1092.605 700.779 L 1092.605 700.779 L 1092.605 700.779 L 1092.539 700.781 C 1092.713 700.776 1092.892 700.749 1093.064 700.7 L 1093.061 700.701 C 1094.247 700.371 1094.941 699.142 1094.611 697.956 L 1094.611 697.956 C 1097.02 706.609 1096.366 715.036 1092.634 723.095 L 1092.634 723.095 C 1092.714 722.922 1092.77 722.742 1092.803 722.562 L 1092.804 722.56 C 1091.206 731.277 1080.189 740.139 1062.828 749.44 L 1062.901 749.4 L 1062.901 749.4 L 1062.829 749.44 C 1063.912 748.859 1064.323 747.509 1063.74 746.421 L 1063.739 746.42 C 1063.323 745.645 1062.515 745.22 1061.702 745.247 L 1061.701 745.247 C 1061.365 745.258 1061.029 745.346 1060.723 745.51 L 1060.723 745.51 C 1078.913 735.764 1087.201 727.79 1088.391 721.898 L 1091.527 725.61 L 1091.504 725.61 C 1090.429 725.644 1089.414 725.119 1088.821 724.222 C 1088.228 723.326 1088.141 722.186 1088.593 721.21 L 1088.593 721.21 C 1091.871 714.125 1092.45 706.818 1090.316 699.152 L 1090.316 699.151 C 1090.598 700.167 1091.535 700.815 1092.539 700.781 L 1092.605 700.779 L 1092.605 700.779 L 1092.605 700.779 L 1092.605 700.779 Z  M 1101.257 650.667 L 1101.257 650.667 L 1101.257 650.667 L 1101.257 650.667 L 1101.257 650.667 L 1101.322 650.664 C 1101.76 650.649 1102.194 650.694 1102.616 650.796 L 1102.616 650.796 C 1103.701 651.059 1104.561 651.66 1105.206 652.356 L 1105.206 652.356 C 1105.742 652.934 1106.154 653.598 1106.478 654.269 L 1106.478 654.269 C 1108.524 658.494 1109.731 669.172 1110.475 685.206 L 1107.273 682.251 L 1107.296 682.25 C 1108.31 682.216 1109.276 682.679 1109.884 683.492 L 1109.884 683.492 C 1116.961 692.957 1121.501 699.835 1122.01 703.231 L 1122.01 703.229 C 1122.033 703.382 1122.05 703.536 1122.06 703.693 L 1118.862 700.804 L 1118.885 700.804 C 1120.257 700.757 1121.496 701.618 1121.931 702.92 L 1121.931 702.92 C 1124.654 711.069 1123.427 722.068 1119.048 735.457 L 1119.048 735.457 C 1118.945 735.771 1118.801 736.076 1118.618 736.362 L 1118.618 736.363 C 1105.027 757.595 1085.977 769.351 1061.666 771.377 L 1061.656 771.378 C 1061.598 771.383 1061.53 771.386 1061.471 771.389 L 1061.469 771.389 C 1059.366 771.459 1057.557 769.87 1057.379 767.751 L 1057.38 767.752 C 1057.196 765.564 1058.822 763.646 1061.004 763.463 L 1061.093 763.457 L 1061.094 763.457 L 1061.007 763.463 C 1082.675 761.657 1099.549 751.334 1111.827 732.241 C 1112.377 731.386 1113.312 730.854 1114.329 730.82 L 1114.329 730.82 L 1114.352 730.819 L 1111.511 732.954 C 1115.695 720.152 1116.356 711.098 1114.347 705.284 L 1114.347 705.285 C 1114.222 704.922 1114.152 704.55 1114.134 704.176 L 1114.134 704.174 C 1114.139 704.275 1114.151 704.331 1114.15 704.325 L 1114.15 704.325 C 1113.856 702.955 1110.67 697.788 1103.341 688.003 L 1103.341 688.003 C 1102.865 687.367 1102.59 686.603 1102.553 685.807 L 1102.553 685.805 C 1101.794 669.312 1100.594 660.338 1099.331 657.729 L 1099.33 657.728 C 1099.268 657.6 1099.236 657.547 1099.231 657.539 L 1099.231 657.538 C 1099.045 657.239 1099.441 658.103 1100.543 658.457 L 1101.597 658.604 L 1101.574 658.605 L 1102.421 658.457 C 1102.613 658.395 1102.753 658.327 1102.793 658.308 L 1101.264 652.426 L 1101.264 652.426 C 1102.739 652.345 1104.067 653.316 1104.436 654.746 C 1104.806 656.177 1104.114 657.669 1102.784 658.312 L 1102.784 658.312 C 1102.274 658.559 1101.73 658.688 1101.191 658.706 L 1101.188 658.706 C 1099.675 658.757 1098.189 657.931 1097.481 656.467 L 1097.482 656.469 C 1096.526 654.495 1097.351 652.12 1099.323 651.164 L 1100.505 650.859 L 1100.505 650.859 L 1099.325 651.164 C 1099.843 650.913 1100.411 650.742 1101.021 650.684 L 1101.025 650.683 C 1101.113 650.675 1101.226 650.667 1101.33 650.664 L 1101.257 650.667 L 1101.257 650.667 L 1101.257 650.667 L 1101.257 650.667 L 1101.257 650.667 Z  M 1101.598 656.857 L 1101.598 656.857 L 1101.598 656.857 L 1101.598 656.857 L 1101.598 656.857 L 1101.525 656.861 C 1101.568 656.859 1101.586 656.858 1101.613 656.855 L 1101.616 656.855 C 1101.79 656.838 1101.931 656.79 1102.027 656.744 C 1101.657 656.923 1101.256 657.027 1100.846 657.049 L 1100.846 657.049 L 1100.846 657.049 L 1102.028 656.743 C 1103.135 656.207 1103.598 654.874 1103.061 653.765 L 1103.062 653.767 C 1102.663 652.942 1101.827 652.482 1100.982 652.51 L 1100.978 652.51 C 1100.675 652.52 1100.369 652.593 1100.085 652.73 L 1101.605 658.617 L 1101.605 658.617 C 1100.132 658.698 1098.806 657.729 1098.434 656.301 C 1098.063 654.873 1098.75 653.381 1100.076 652.735 L 1100.076 652.735 C 1100.144 652.702 1100.305 652.625 1100.517 652.556 C 1100.791 652.468 1101.076 652.418 1101.364 652.408 L 1101.364 652.408 L 1101.387 652.408 C 1101.744 652.396 1102.101 652.445 1102.441 652.555 L 1102.441 652.555 C 1103.752 652.976 1104.397 654.105 1104.496 654.265 L 1104.496 654.264 C 1104.652 654.516 1104.789 654.775 1104.911 655.028 L 1104.911 655.027 C 1106.863 659.06 1108.014 669.608 1108.746 685.52 L 1108.746 685.518 C 1108.725 685.072 1108.571 684.644 1108.304 684.287 L 1108.303 684.286 C 1115.17 693.454 1119.556 699.971 1120.212 703.023 L 1120.212 703.023 C 1120.267 703.28 1120.312 703.57 1120.327 703.883 L 1120.327 703.881 C 1120.317 703.674 1120.278 703.464 1120.207 703.26 L 1120.207 703.26 C 1122.906 711.07 1121.686 721.778 1117.404 734.88 C 1117 736.118 1115.864 736.971 1114.563 737.015 L 1114.563 737.015 L 1114.54 737.016 L 1117.042 735.595 C 1103.768 756.236 1085.195 767.669 1061.522 769.642 L 1061.435 769.648 L 1061.434 769.648 L 1061.523 769.642 C 1062.747 769.539 1063.661 768.463 1063.558 767.233 L 1063.558 767.234 C 1063.458 766.044 1062.443 765.153 1061.261 765.192 L 1061.259 765.192 C 1061.221 765.193 1061.199 765.195 1061.162 765.198 L 1061.152 765.199 C 1083.452 763.34 1100.8 752.698 1113.396 733.02 L 1113.396 733.02 C 1113.292 733.183 1113.212 733.354 1113.155 733.529 L 1113.155 733.529 C 1117.423 720.483 1118.123 711.088 1116.05 704.884 L 1119.096 707 L 1119.073 707.001 C 1117.402 707.058 1115.988 705.78 1115.875 704.112 L 1115.875 704.112 C 1115.876 704.132 1115.878 704.149 1115.878 704.15 L 1115.878 704.148 C 1115.661 702.701 1112.508 697.354 1104.919 687.205 L 1107.507 688.447 L 1107.483 688.447 C 1105.787 688.505 1104.36 687.188 1104.281 685.493 L 1104.281 685.493 C 1103.512 668.923 1102.259 659.782 1100.898 656.97 L 1100.898 656.97 C 1100.76 656.686 1100.669 656.581 1100.661 656.572 L 1100.66 656.572 C 1100.666 656.578 1100.827 656.742 1101.159 656.823 L 1101.158 656.822 C 1101.277 656.851 1101.405 656.865 1101.533 656.86 L 1101.598 656.857 L 1101.598 656.857 L 1101.598 656.857 L 1101.598 656.857 Z  M 1141.06 589.995 L 1141.06 589.995 L 1141.06 589.995 L 1141.06 589.995 L 1141.06 589.995 L 1141.127 589.992 C 1143.921 589.898 1146.779 589.976 1149.713 590.222 L 1149.713 590.222 C 1149.909 590.238 1150.1 590.269 1150.283 590.312 L 1150.284 590.312 C 1166.448 594.087 1173.143 618.007 1173.773 655.648 L 1170.582 652.601 L 1170.605 652.601 C 1171.8 652.565 1172.909 653.22 1173.455 654.283 L 1173.455 654.283 C 1177.092 661.368 1171.85 689.523 1160.028 735.73 L 1160.029 735.728 C 1159.969 735.963 1159.888 736.189 1159.79 736.403 L 1159.788 736.408 C 1127.172 807.181 1096.068 845.454 1065.883 846.466 L 1065.883 846.466 C 1060.038 846.662 1054.317 845.453 1048.752 842.888 L 1048.752 842.888 C 1042.703 840.101 1036.898 835.733 1031.32 829.898 L 1031.32 829.898 C 1029.805 828.314 1029.86 825.801 1031.446 824.285 L 1033.588 826.525 L 1033.588 826.525 L 1031.447 824.284 C 1032.179 823.584 1033.118 823.218 1034.056 823.186 L 1034.057 823.186 C 1035.141 823.15 1036.248 823.561 1037.06 824.411 L 1037.06 824.411 C 1042.082 829.664 1047.094 833.381 1052.076 835.676 L 1052.076 835.676 C 1056.564 837.744 1061.078 838.678 1065.65 838.525 L 1065.65 838.525 C 1090.636 837.687 1119.784 804.198 1152.507 733.232 C 1152.997 732.171 1154.042 731.475 1155.21 731.433 L 1155.21 731.433 L 1155.226 731.432 L 1152.335 733.762 C 1164.581 685.898 1168.462 661.739 1166.446 658.008 L 1166.446 658.008 C 1166.444 658.004 1166.451 658.016 1166.457 658.026 L 1166.455 658.024 C 1166.063 657.407 1165.847 656.691 1165.835 655.954 L 1165.835 655.956 C 1165.213 617.499 1158.291 600.399 1148.539 598.06 C 1147.029 597.698 1146.02 596.275 1146.178 594.731 C 1146.335 593.186 1147.611 591.997 1149.163 591.947 L 1149.163 591.947 L 1149.187 591.946 L 1149.027 598.134 C 1146.432 597.917 1143.919 597.85 1141.485 597.932 L 1141.485 597.932 C 1110.815 598.96 1090.516 623.899 1082.009 676.75 L 1082.009 676.749 C 1081.702 678.659 1080.086 680.025 1078.223 680.087 L 1078.225 680.087 C 1077.969 680.096 1077.711 680.08 1077.455 680.039 L 1077.458 680.039 C 1075.294 679.691 1073.82 677.653 1074.169 675.488 L 1074.169 675.488 C 1082.935 621.022 1104.791 591.21 1141.127 589.992 L 1141.06 589.995 L 1141.06 589.995 L 1141.06 589.995 L 1141.06 589.995 L 1141.06 589.995 Z  M 1141.401 596.185 L 1141.401 596.185 L 1141.401 596.185 L 1141.401 596.185 L 1141.401 596.185 L 1141.335 596.188 C 1109.758 597.247 1088.946 622.696 1080.29 676.473 L 1080.29 676.473 C 1080.485 675.257 1079.659 674.113 1078.442 673.918 L 1078.446 673.918 C 1078.303 673.895 1078.158 673.886 1078.013 673.891 L 1078.015 673.891 C 1076.969 673.926 1076.06 674.692 1075.888 675.765 L 1075.888 675.765 C 1084.499 622.268 1105.822 592.924 1141.278 591.735 L 1141.278 591.735 C 1143.968 591.645 1146.721 591.719 1149.544 591.955 C 1151.181 592.092 1152.427 593.482 1152.385 595.124 C 1152.342 596.766 1151.027 598.09 1149.385 598.143 L 1149.385 598.143 L 1149.361 598.144 L 1149.985 592.031 C 1165.247 595.691 1171.44 619.165 1172.034 655.856 L 1172.034 655.858 C 1172.028 655.443 1171.906 655.041 1171.686 654.696 L 1171.685 654.693 C 1171.765 654.819 1171.834 654.938 1171.9 655.06 L 1171.901 655.061 C 1175.422 661.577 1170.08 689.417 1158.342 735.298 C 1158.001 736.63 1156.824 737.578 1155.45 737.628 L 1155.45 737.628 L 1155.434 737.629 L 1158.137 735.829 C 1125.86 805.827 1095.296 843.734 1065.857 844.721 L 1065.857 844.721 C 1060.261 844.908 1054.792 843.754 1049.481 841.307 L 1049.481 841.307 C 1043.63 838.611 1038.002 834.368 1032.579 828.695 L 1032.578 828.695 C 1033.034 829.172 1033.657 829.403 1034.265 829.382 L 1034.265 829.382 C 1034.791 829.365 1035.319 829.158 1035.73 828.767 L 1033.588 826.525 L 1033.588 826.525 L 1035.731 828.766 C 1036.621 827.914 1036.652 826.503 1035.801 825.614 L 1035.801 825.614 C 1040.974 831.024 1046.163 834.868 1051.347 837.258 L 1051.347 837.258 C 1056.092 839.444 1060.857 840.432 1065.675 840.27 L 1065.675 840.27 C 1091.425 839.407 1121.117 805.507 1154.157 733.813 L 1154.155 733.817 C 1154.1 733.937 1154.056 734.061 1154.022 734.195 L 1154.022 734.193 C 1166.309 686.167 1170.181 661.482 1167.939 657.115 L 1170.789 658.798 L 1170.765 658.799 C 1169.936 658.823 1169.132 658.515 1168.532 657.942 C 1167.933 657.37 1167.587 656.581 1167.574 655.752 L 1167.574 655.752 C 1166.917 616.502 1159.549 598.843 1148.874 596.35 L 1148.874 596.35 C 1148.975 596.373 1149.083 596.391 1149.193 596.4 L 1149.194 596.4 C 1146.488 596.173 1143.871 596.103 1141.335 596.188 L 1141.401 596.185 L 1141.401 596.185 L 1141.401 596.185 L 1141.401 596.185 Z " fill="rgb(0,0,0)"/></g></g><g id="face-color"><path d=" M 652.237 81.971 Q 664.2 81.312 676.531 81.154 Q 903.132 82.725 1004.212 191.04 Q 1049.091 231 1084.04 348.086 Q 1114.652 442.721 1106.571 518.791 L 1106.558 518.792 Q 1067.444 713.929 1046.676 774.371 Q 1020.522 861.086 990.863 907.239 Q 944.483 963.134 827.328 1052.093 Q 753.105 1098.043 725.229 1099.58 Q 722.555 1099.727 720.308 1099.466 Q 658.472 1093.989 579.183 1041.073 Q 465.707 966.409 427.202 913.254 Q 390.458 852.981 350.005 737.401 Q 328.652 675.656 305.383 544.498 L 305.377 544.498 Q 298.759 498.622 302.668 452.389 Q 306.694 396.034 319.232 343.947 Q 337.495 265.386 384.694 204.175 Q 480.507 91.435 652.237 81.971 Z " fill="rgb(252,235,224)"/></g><g id="face-lines"><path d=" M 652.237 81.971 Q 664.2 81.312 676.531 81.154 Q 903.132 82.725 1004.212 191.04 Q 1049.091 231 1084.04 348.086 Q 1114.652 442.721 1106.571 518.791 L 1106.558 518.792 Q 1067.444 713.929 1046.676 774.371 Q 1020.522 861.086 990.863 907.239 Q 944.483 963.134 827.328 1052.093 Q 753.105 1098.043 725.229 1099.58 Q 722.555 1099.727 720.308 1099.466 Q 658.472 1093.989 579.183 1041.073 Q 465.707 966.409 427.202 913.254 Q 390.458 852.981 350.005 737.401 Q 328.652 675.656 305.383 544.498 L 305.377 544.498 Q 298.759 498.622 302.668 452.389 Q 306.694 396.034 319.232 343.947 Q 337.495 265.386 384.694 204.175 Q 480.507 91.435 652.237 81.971 Z  M 657.173 71.852 Q 656.485 71.89 655.796 71.93 L 633.303 73.617 Q 542.278 81.506 466.436 122.4 Q 414.681 146.904 361.243 219.393 Q 318.396 286.288 303.615 368.362 Q 284.083 480.983 295.516 536.199 L 295.511 536.199 Q 295.084 537.335 294.992 538.904 L 307.34 614.153 Q 320.424 672.184 341.401 741.529 Q 391.372 880.924 420.647 922.705 Q 483.068 993.458 582.988 1055.042 Q 669.749 1111.611 722.174 1108.721 Q 722.457 1108.706 722.74 1108.688 Q 741.671 1106.773 762.087 1098.928 Q 794.099 1086.758 832.74 1060.474 Q 913.7 1005.382 1002.086 908.196 Q 1026.319 873.738 1071.058 724.667 Q 1094.202 639.577 1113.18 530.249 L 1113.166 530.25 Q 1116.154 525.266 1116.621 520.772 L 1117.619 462.556 Q 1112.467 415.139 1100.475 370.349 Q 1075.428 280.019 1055.242 245.235 Q 1025.696 194.633 1011.387 184.072 Q 953.62 126.081 875.003 99.956 Q 768.252 65.731 657.173 71.852 Z " fill="rgb(0,0,0)"/></g><g id="mouth"><path d=" M 619.478 892.019 Q 680.732 905.734 714.623 905.734 Q 748.514 905.734 809.767 892.019 Q 761.269 1005.164 720.623 1005.164 Q 679.977 1005.164 619.478 892.019 Z " fill="rgb(132,60,60)"/><path d=" M 796.048 922.084 Q 802.827 908.21 809.767 892.019 Q 748.514 905.734 714.623 905.734 Q 680.732 905.734 619.478 892.019 Q 628.014 907.983 636.154 921.694 Q 679.892 935.929 718.908 936.591 Q 753.512 937.179 796.048 922.084 Z " fill="rgb(255,255,255)"/><path d=" M 762.785 977.442 Q 740.742 1005.164 720.623 1005.164 Q 700.202 1005.164 674.77 976.604 Q 701.445 967.491 718.908 967.449 Q 737.533 967.404 762.785 977.442 Z " fill="rgb(233,113,114)"/><path d=" M 614.576 888.265 C 625.307 890.733 636.073 893.014 646.873 895.122 C 653.988 896.494 661.136 897.745 668.302 898.859 C 677.456 900.299 686.662 901.448 695.885 902.288 C 702.108 902.871 708.365 903.162 714.623 903.162 C 717.537 903.162 720.451 903.094 723.366 902.957 C 726.914 902.785 730.48 902.545 734.029 902.237 C 736.6 902.014 739.154 901.756 741.726 901.465 C 744.623 901.139 747.537 900.779 750.435 900.402 C 758.835 899.271 767.218 897.934 775.566 896.391 C 788.458 894.008 801.315 891.333 814.104 888.402 C 809.733 898.774 805.138 909.059 800.287 919.225 C 796.995 926.151 793.515 933.008 789.881 939.78 C 786.949 945.231 783.881 950.614 780.692 955.912 C 778.104 960.215 775.378 964.432 772.532 968.563 C 768.658 974.186 764.492 979.586 760.035 984.746 C 756.829 988.466 753.332 991.946 749.595 995.135 C 746.972 997.364 744.212 999.386 741.297 1001.221 C 738.949 1002.712 736.48 1003.981 733.891 1005.026 C 731.697 1005.918 729.417 1006.604 727.086 1007.084 C 724.96 1007.512 722.8 1007.735 720.623 1007.735 C 718.428 1007.735 716.234 1007.512 714.074 1007.084 C 711.64 1006.587 709.24 1005.866 706.925 1004.958 C 704.491 1004.015 702.125 1002.866 699.862 1001.564 C 697.068 999.952 694.394 998.169 691.822 996.232 C 690.777 995.444 689.765 994.655 688.771 993.832 C 687.674 992.941 686.594 992.032 685.548 991.089 C 682.342 988.261 679.291 985.278 676.376 982.158 C 672.639 978.163 669.056 974.015 665.61 969.746 C 663.708 967.363 661.822 964.946 659.988 962.494 C 657.913 959.7 655.873 956.906 653.868 954.06 C 652.445 952.02 651.039 949.98 649.65 947.906 C 648.142 945.677 646.65 943.414 645.176 941.151 C 640.702 934.243 636.399 927.248 632.25 920.134 C 626.13 909.642 620.233 899.014 614.576 888.265 Z  M 624.399 895.739 C 631.547 897.299 638.713 898.774 645.896 900.162 C 653.079 901.551 660.279 902.819 667.496 903.951 C 676.771 905.391 686.079 906.557 695.405 907.414 C 701.8 908.014 708.211 908.305 714.623 908.305 C 717.623 908.305 720.623 908.237 723.606 908.082 C 727.24 907.911 730.857 907.671 734.474 907.362 C 737.08 907.122 739.686 906.865 742.292 906.574 C 745.24 906.248 748.172 905.888 751.103 905.494 C 759.606 904.362 768.075 903.008 776.509 901.448 C 786.161 899.648 795.812 897.711 805.413 895.619 C 802.275 902.802 799.018 909.934 795.641 917.014 C 792.384 923.871 788.955 930.66 785.355 937.346 C 782.458 942.729 779.441 948.026 776.286 953.254 C 773.749 957.472 771.075 961.603 768.298 965.649 C 764.526 971.117 760.48 976.363 756.143 981.386 C 753.109 984.901 749.8 988.192 746.252 991.209 C 743.817 993.284 741.246 995.169 738.554 996.884 C 736.463 998.204 734.269 999.335 731.971 1000.261 C 730.051 1001.032 728.08 1001.632 726.057 1002.044 C 724.274 1002.404 722.44 1002.592 720.623 1002.592 C 718.771 1002.592 716.92 1002.404 715.103 1002.044 C 712.943 1001.598 710.851 1000.981 708.811 1000.175 C 706.6 999.318 704.474 998.289 702.434 997.106 C 699.828 995.598 697.308 993.935 694.908 992.118 C 693.931 991.381 692.971 990.626 692.028 989.855 C 690.982 988.998 689.954 988.123 688.942 987.232 C 685.874 984.523 682.925 981.66 680.131 978.66 C 676.479 974.735 672.982 970.706 669.622 966.523 C 667.753 964.192 665.902 961.809 664.102 959.409 C 662.062 956.666 660.039 953.906 658.085 951.094 C 656.679 949.089 655.273 947.066 653.902 945.043 C 652.41 942.814 650.953 940.586 649.496 938.357 C 645.056 931.517 640.787 924.574 636.69 917.545 C 632.49 910.345 628.393 903.077 624.399 895.739 Z " fill-rule="evenodd" fill="rgb(0,0,0)"/></g><g id="nose"><path d=" M 704.087 735.257 Q 706.473 781.632 705.131 788.094 C 700.61 809.867 682.786 817.718 682.775 828.018 Q 682.763 838.346 709.602 853.527 Q 691.025 839.73 691.717 828.018 C 692.249 819.023 706.032 807.942 709.602 795.051 Q 715.354 774.282 704.087 735.257 Z " fill="rgb(0,0,0)"/><path d=" M 734.194 832.656 Q 724.264 836.69 718.545 837.294 Q 707.929 838.415 689.482 830.337 L 691.717 839.613 L 709.602 853.527 Q 717.108 856.217 725.252 855.981 C 739.781 855.559 748.155 841.882 745.372 837.294 Q 742.964 833.323 734.194 832.656 Z " fill="rgb(0,0,0)" fill-opacity="0.28"/></g><g id="eyes"><g id="left-eye"><path d=" M 586.047 776.386 C 572.481 788.794 558.151 798.733 542.978 806.123 C 484.531 832.475 446.142 818.388 427.74 763.791 C 392.517 669.257 412.923 603.43 488.887 566.24 C 517.612 557.605 541.913 566.232 561.779 592.107 C 582.143 613.08 595.5 646.031 601.774 690.885 C 601.083 728.673 595.843 757.176 586.047 776.386 Z " fill="rgb(255,255,255)"/><path d=" M 586.047 776.386 C 596.211 745.933 593.782 696.282 588.755 665.616 C 582.773 644.537 574.532 624.458 565.058 609.281 C 544.194 581.932 517.221 567.067 488.887 582.702 C 449.809 596.284 429.033 635.058 422.274 677.509 C 420.945 702.948 428.017 737.002 440.632 765.356 C 446.132 782.305 456.072 801.468 463.462 806.267 C 473.463 812.762 483.908 815.729 492.247 819 C 461.643 819 440.148 800.604 427.74 763.791 C 392.517 669.257 412.923 603.43 488.887 566.24 C 517.612 557.605 541.913 566.232 561.779 592.107 C 582.143 613.08 595.5 646.031 601.774 690.885 C 601.083 728.673 595.843 757.176 586.047 776.386 Z " fill="rgb(0,0,0)"/><path d=" M 578.216 635.235 C 574.224 625.683 569.795 616.869 565.058 609.281 C 544.194 581.932 517.221 567.067 488.887 582.702 C 449.809 596.284 429.033 635.058 422.274 677.51 C 437.626 646.25 458.254 621.158 492.247 613.276 C 523.805 605.958 557.138 615.712 578.216 635.235 Z " fill="rgb(0,0,0)" fill-opacity="0.2"/><path d=" M 519.46 592.107 C 488.128 592.004 476.392 628.089 484.183 700.292 C 492.357 754.388 509.627 781.065 535.923 780.254 C 562.574 780.941 574.357 751.175 571.2 690.885 C 568.956 624.807 551.733 591.905 519.46 592.107 Z " fill="rgb(0,0,0)"/><g id="Group"><path d=" M 520.558 599.165 C 493.926 599.077 483.951 636.805 490.573 698.177 C 497.52 744.157 512.199 777.075 534.551 776.386 C 538.935 776.499 542.743 775.259 546.013 772.813 C 563.414 762.265 567.74 731.172 561.779 690.181 C 560.014 638.085 546.021 599.003 520.558 599.165 Z " fill="rgb(110,45,64)"/></g><path d=" M 523.341 660.411 C 515.074 660.704 512.551 675.333 515.539 698.85 C 518.394 716.445 523.45 728.923 530.377 728.384 C 531.739 728.374 532.902 727.85 533.88 726.87 C 539.121 722.6 539.991 710.592 537.518 694.902 C 536.179 674.892 531.242 660.036 523.341 660.411 Z " fill="rgb(0,0,0)"/><path d=" M 500.646 655.608 C 495.326 656.462 494.063 661.182 493.591 669.719 C 493.177 677.199 495.607 682.297 500.646 681.478 C 504.054 680.924 504.467 676.981 505.35 669.719 C 506.5 660.258 504.901 654.925 500.646 655.608 Z " fill="rgb(255,255,255)"/><path d=" M 520.581 594.62 C 535.011 596.936 538.436 609.736 539.716 632.89 C 540.839 653.177 534.247 667.002 520.581 664.782 C 511.339 663.28 510.22 652.584 507.825 632.89 C 504.705 607.231 509.041 592.767 520.581 594.62 Z " fill="rgb(255,255,255)"/></g><g id="right-eye"><path d=" M 841.964 776.386 C 855.53 788.794 869.86 798.733 885.032 806.123 C 943.479 832.475 981.869 818.388 1000.271 763.791 C 1035.494 669.257 1015.088 603.43 939.124 566.24 C 910.399 557.605 886.097 566.232 866.232 592.107 C 845.868 613.08 832.511 646.031 826.237 690.885 C 826.928 728.673 832.168 757.176 841.964 776.386 Z " fill="rgb(255,255,255)"/><path d=" M 841.964 776.386 C 831.799 745.933 834.229 696.282 839.256 665.616 C 845.237 644.537 853.479 624.457 862.953 609.281 C 883.817 581.932 910.79 567.067 939.124 582.702 C 978.202 596.284 998.978 635.058 1005.737 677.51 C 1007.066 702.948 999.994 737.002 987.379 765.356 C 981.879 782.305 971.939 801.468 964.549 806.267 C 954.548 812.762 944.103 815.729 935.764 819 C 966.368 819 987.863 800.604 1000.271 763.791 C 1035.494 669.257 1015.088 603.43 939.124 566.24 C 910.399 557.605 886.097 566.232 866.232 592.107 C 845.868 613.08 832.511 646.031 826.237 690.885 C 826.928 728.673 832.168 757.176 841.964 776.386 Z " fill="rgb(0,0,0)"/><path d=" M 849.795 635.235 C 853.787 625.683 858.216 616.869 862.953 609.281 C 883.817 581.932 910.79 567.067 939.124 582.702 C 978.202 596.284 998.978 635.058 1005.737 677.51 C 990.385 646.25 969.757 621.158 935.764 613.276 C 904.206 605.958 870.873 615.712 849.795 635.235 Z " fill="rgb(0,0,0)" fill-opacity="0.2"/><path d=" M 908.55 592.107 C 939.883 592.004 951.619 628.089 943.827 700.292 C 935.654 754.388 918.384 781.065 892.088 780.254 C 865.437 780.941 853.654 751.175 856.811 690.885 C 859.055 624.807 876.278 591.905 908.55 592.107 Z " fill="rgb(0,0,0)"/><g id="Group"><path d=" M 907.453 599.165 C 934.085 599.077 944.06 636.805 937.438 698.177 C 930.491 744.157 915.811 777.075 893.46 776.386 C 889.076 776.499 885.268 775.259 881.998 772.813 C 864.597 762.265 860.271 731.172 866.232 690.181 C 867.997 638.085 881.99 599.003 907.453 599.165 Z " fill="rgb(110,45,64)"/></g><path d=" M 904.67 660.411 C 912.937 660.704 915.46 675.333 912.472 698.85 C 909.617 716.445 904.561 728.923 897.634 728.384 C 896.272 728.374 895.109 727.85 894.131 726.87 C 888.89 722.6 888.02 710.592 890.493 694.902 C 891.832 674.892 896.769 660.036 904.67 660.411 Z " fill="rgb(0,0,0)"/><path d=" M 927.365 655.608 C 932.685 656.462 933.948 661.182 934.42 669.719 C 934.834 677.199 932.404 682.297 927.365 681.478 C 923.957 680.924 923.544 676.981 922.661 669.719 C 921.511 660.258 923.11 654.925 927.365 655.608 Z " fill="rgb(255,255,255)"/><path d=" M 907.429 594.62 C 893 596.936 889.575 609.736 888.294 632.89 C 887.172 653.177 893.764 667.002 907.429 664.782 C 916.671 663.28 917.791 652.584 920.186 632.89 C 923.306 607.231 918.97 592.767 907.429 594.62 Z " fill="rgb(255,255,255)"/></g></g><g id="eyebrows"><g id="brow-color"><path d=" M 629.665 483.308 L 633.429 494.598 C 558.024 524.892 481.542 542.492 403.869 547.283 C 495.494 529.037 570.797 507.75 629.665 483.308 Z " fill="rgb(0,0,0)"/><path d=" M 799.012 483.308 L 795.249 494.598 C 870.654 524.892 947.136 542.492 1024.808 547.283 C 933.183 529.037 857.88 507.75 799.012 483.308 Z " fill="rgb(0,0,0)"/></g></g><g id="front-hair"><g id="hair-color"><path d=" M 1094.153 579.504 C 1090.23 573.848 1088.267 554.306 1088 550.86 C 1087.586 545.43 1080.436 532.909 1078.571 527.797 C 1078.571 527.797 1059.619 493.202 1059.619 493.202 C 1060 480 1060.763 449.969 1059.619 433.623 C 1056.974 395.857 1046.941 352.96 1028.037 319 C 1005.789 279.015 966.296 264.11 922.777 253.569 C 913.887 251.406 889.824 246.919 881.339 247.236 C 881.339 247.236 873.447 248.072 873.447 248.072 C 838.067 250.59 792.427 262.265 758.014 271.904 C 758.014 271.904 721.51 282.484 721.51 282.484 C 714.041 284.675 707.747 287.856 699.804 287.519 C 693.865 287.269 680.506 282.426 674.153 280.562 C 674.153 280.562 620.876 265.6 620.876 265.6 C 592.255 258.056 557.566 250.167 528.135 248.072 C 528.135 248.072 519.256 247.226 519.256 247.226 C 510.732 247.226 488.602 251.435 479.792 253.569 C 445.044 261.987 410.463 276.17 387.308 303.894 C 358.893 337.912 346.571 377.689 343.601 420 C 342.447 436.461 336.667 469.333 343.601 489.358 C 340.691 499.122 334.899 506.685 329.631 515.304 C 326.04 521.185 323.563 526.961 321.679 533.562 C 321.039 535.826 313.69 554.807 309.198 565.604 Q 307.297 555.286 305.383 544.498 L 305.377 544.498 Q 301.217 515.656 301.217 486.673 Q 301.217 486.673 301.217 486.673 Q 301.217 486.673 301.217 486.673 Q 301.217 469.556 302.668 452.389 Q 306.694 396.034 319.232 343.947 Q 337.495 265.386 384.694 204.175 Q 480.507 91.435 652.237 81.971 Q 664.2 81.312 676.531 81.154 Q 676.531 81.154 676.531 81.154 Q 903.132 82.725 1004.212 191.04 Q 1049.091 231 1084.04 348.086 Q 1114.652 442.721 1106.571 518.791 L 1106.558 518.792 Q 1100.106 550.98 1094.153 579.504 Z " fill="rgb(56,56,56)"/></g><path d=" M 701.235 285.672 C 686.321 280.897 671.359 276.294 656.34 271.86 C 644.27 268.29 632.14 264.9 619.97 261.69 C 615.86 260.61 611.75 259.55 607.64 258.52 C 603.91 257.58 600.17 256.67 596.43 255.78 C 591.2 254.54 585.95 253.35 580.69 252.21 C 576.18 251.24 571.67 250.32 567.14 249.46 C 560.94 248.28 554.72 247.23 548.48 246.3 C 543.62 245.58 538.74 244.98 533.85 244.52 C 529.15 244.07 524.43 243.78 519.71 243.64 C 516.18 243.54 512.65 243.6 509.13 243.82 C 507.91 243.89 506.69 243.99 505.48 244.12 C 504.39 244.23 503.31 244.36 502.23 244.52 C 493.26 245.81 484.35 247.47 475.53 249.5 C 467.56 251.33 459.69 253.54 451.93 256.12 C 444.9 258.46 437.99 261.18 431.25 264.26 C 425.08 267.08 419.08 270.26 413.29 273.79 C 407.92 277.07 402.77 280.68 397.86 284.6 C 393.24 288.29 388.87 292.28 384.78 296.55 C 377.09 304.57 370.44 313.53 364.96 323.2 C 362.32 327.86 359.93 332.66 357.82 337.58 C 355.72 342.46 353.85 347.42 352.22 352.47 C 350.6 357.49 349.18 362.57 347.96 367.71 C 346.75 372.82 345.69 377.98 344.81 383.16 C 343.92 388.32 343.16 393.5 342.53 398.7 C 341.91 403.85 341.37 409.01 340.93 414.18 C 340.49 419.28 340.1 424.39 339.77 429.49 C 339.45 434.49 339.14 439.49 338.85 444.5 C 338.59 448.95 338.32 453.41 338.03 457.86 C 337.76 462.16 337.44 466.46 337.08 470.75 C 336.74 474.86 336.32 478.96 335.83 483.06 C 335.37 486.93 334.81 490.8 334.14 494.65 C 333.77 496.73 333.23 498.77 332.53 500.77 C 331.83 502.74 331 504.66 330.06 506.53 C 329.09 508.44 328.04 510.32 326.93 512.15 C 325.77 514.06 324.58 515.95 323.38 517.82 C 322.33 519.46 321.29 521.1 320.28 522.75 C 319.22 524.45 318.21 526.19 317.25 527.95 C 316.26 529.77 315.34 531.64 314.5 533.55 C 313.63 535.54 312.87 537.59 312.23 539.67 C 310.26 546.11 308.92 552.72 308.21 559.42 C 307.2 569 306.82 578.63 307.06 588.26 C 307.25 595.73 307.71 603.2 308.45 610.64 C 309.39 620.13 310.6 629.6 312.09 639.02 L 312.79 643.47 L 321.68 642.07 L 320.98 637.62 C 319.52 628.37 318.33 619.07 317.4 609.75 C 316.69 602.53 316.24 595.28 316.06 588.03 C 315.82 578.79 316.19 569.55 317.16 560.36 C 317.81 554.24 319.04 548.19 320.84 542.3 C 321.37 540.55 322.01 538.84 322.74 537.16 C 323.48 535.49 324.28 533.86 325.15 532.26 C 326.04 530.64 326.96 529.04 327.93 527.47 C 328.92 525.87 329.93 524.28 330.94 522.69 C 332.19 520.75 333.42 518.8 334.62 516.83 C 335.85 514.79 337.01 512.71 338.09 510.59 C 339.2 508.38 340.18 506.11 341.01 503.77 C 341.88 501.31 342.55 498.78 343.01 496.2 C 343.7 492.19 344.29 488.16 344.77 484.12 C 345.27 479.92 345.7 475.72 346.05 471.51 C 346.41 467.15 346.74 462.8 347.02 458.44 C 347.3 453.97 347.58 449.49 347.84 445.02 C 348.12 440.04 348.43 435.06 348.75 430.08 C 349.08 425.03 349.46 419.99 349.89 414.96 C 350.33 409.89 350.86 404.83 351.47 399.78 C 352.08 394.73 352.82 389.69 353.68 384.68 C 354.53 379.68 355.55 374.72 356.72 369.79 C 357.88 364.88 359.24 360.03 360.79 355.23 C 362.33 350.46 364.1 345.75 366.08 341.14 C 368.07 336.52 370.31 332.01 372.79 327.63 C 377.9 318.61 384.11 310.26 391.27 302.78 C 395.1 298.8 399.17 295.08 403.48 291.63 C 408.09 287.94 412.93 284.55 417.97 281.48 C 423.46 278.13 429.14 275.11 434.99 272.44 C 441.44 269.5 448.04 266.9 454.77 264.66 C 462.26 262.17 469.86 260.04 477.54 258.27 C 486.13 256.3 494.8 254.68 503.52 253.42 C 504.47 253.29 505.43 253.17 506.39 253.07 C 507.48 252.96 508.58 252.87 509.69 252.8 C 512.94 252.6 516.2 252.54 519.45 252.64 C 523.97 252.77 528.49 253.05 533 253.48 C 537.73 253.93 542.45 254.5 547.15 255.2 C 553.27 256.11 559.38 257.15 565.45 258.3 C 569.91 259.15 574.36 260.06 578.79 261.01 C 583.99 262.13 589.18 263.31 594.35 264.53 C 598.05 265.41 601.75 266.32 605.44 267.24 C 609.53 268.27 613.6 269.32 617.67 270.39 C 629.76 273.58 641.8 276.95 653.79 280.49 C 668.46 284.821 683.084 289.316 697.664 293.974 L 701.24 295.119 L 704.816 293.975 C 718.226 289.694 731.68 285.54 745.17 281.53 C 756.49 278.16 767.84 274.94 779.24 271.88 C 793.91 267.93 808.67 264.31 823.51 261.04 C 833.47 258.84 843.5 256.98 853.59 255.46 C 858 254.8 862.43 254.22 866.86 253.74 C 870.36 253.36 873.88 253.07 877.4 252.87 C 881.66 252.62 885.93 252.56 890.19 252.67 C 893.13 252.75 896.05 253 898.96 253.42 C 907.68 254.68 916.35 256.3 924.93 258.27 C 932.62 260.04 940.22 262.17 947.7 264.66 C 954.43 266.9 961.04 269.5 967.49 272.44 C 973.33 275.11 979.02 278.13 984.51 281.48 C 989.55 284.55 994.39 287.94 999 291.63 C 1003.31 295.08 1007.38 298.8 1011.2 302.78 C 1018.37 310.26 1024.58 318.61 1029.68 327.63 C 1032.16 332.01 1034.4 336.52 1036.4 341.14 C 1038.38 345.75 1040.15 350.46 1041.69 355.23 C 1043.24 360.03 1044.59 364.88 1045.76 369.79 C 1046.93 374.72 1047.94 379.68 1048.8 384.68 C 1049.66 389.69 1050.4 394.73 1051.01 399.78 C 1051.62 404.83 1052.15 409.89 1052.58 414.96 C 1053.02 419.99 1053.4 425.03 1053.73 430.08 C 1054.05 435.06 1054.35 440.04 1054.64 445.02 C 1054.9 449.49 1055.17 453.97 1055.46 458.44 C 1055.74 462.8 1056.06 467.15 1056.43 471.51 C 1056.78 475.72 1057.21 479.92 1057.71 484.12 C 1058.19 488.16 1058.78 492.19 1059.47 496.2 C 1059.93 498.78 1060.59 501.31 1061.47 503.77 C 1062.3 506.11 1063.27 508.38 1064.39 510.59 C 1065.46 512.71 1066.62 514.79 1067.86 516.83 C 1069.06 518.8 1070.28 520.75 1071.53 522.69 C 1072.55 524.28 1073.55 525.87 1074.54 527.47 C 1075.51 529.04 1076.44 530.64 1077.33 532.26 C 1078.2 533.86 1079 535.49 1079.73 537.16 C 1080.47 538.84 1081.1 540.55 1081.64 542.3 C 1082.46 544.99 1083.15 547.72 1083.71 550.48 C 1084.39 553.82 1084.93 557.2 1085.34 560.59 C 1085.64 563.11 1085.87 565.63 1086.05 568.16 C 1086.24 571.05 1086.38 573.95 1086.44 576.84 C 1086.49 578.95 1086.51 581.05 1086.5 583.15 C 1086.48 585.45 1086.44 587.75 1086.36 590.05 C 1086.31 591.7 1086.24 593.36 1086.15 595.02 C 1086.07 596.78 1085.96 598.54 1085.84 600.3 C 1085.46 605.99 1084.94 611.66 1084.28 617.32 C 1083.49 624.11 1082.56 630.88 1081.5 637.62 L 1080.8 642.07 L 1089.69 643.47 L 1090.39 639.02 C 1091.47 632.16 1092.41 625.27 1093.22 618.36 C 1093.89 612.56 1094.43 606.74 1094.82 600.91 C 1094.94 599.1 1095.05 597.29 1095.14 595.47 C 1095.23 593.76 1095.3 592.05 1095.36 590.34 C 1095.44 587.96 1095.48 585.58 1095.5 583.2 C 1095.51 581.01 1095.49 578.82 1095.44 576.64 C 1095.37 573.6 1095.23 570.57 1095.03 567.55 C 1094.84 564.87 1094.59 562.19 1094.27 559.52 C 1093.84 555.89 1093.26 552.28 1092.53 548.69 C 1091.92 545.65 1091.15 542.64 1090.25 539.67 C 1089.61 537.59 1088.85 535.54 1087.98 533.55 C 1087.14 531.64 1086.22 529.77 1085.22 527.95 C 1084.26 526.19 1083.25 524.45 1082.2 522.75 C 1081.18 521.1 1080.15 519.46 1079.1 517.82 C 1077.89 515.95 1076.71 514.06 1075.55 512.15 C 1074.43 510.32 1073.39 508.44 1072.42 506.53 C 1071.48 504.66 1070.65 502.74 1069.95 500.77 C 1069.24 498.77 1068.71 496.73 1068.34 494.65 C 1067.67 490.8 1067.11 486.93 1066.64 483.06 C 1066.16 478.96 1065.74 474.86 1065.4 470.75 C 1065.04 466.46 1064.72 462.16 1064.44 457.86 C 1064.16 453.41 1063.88 448.95 1063.63 444.5 C 1063.34 439.49 1063.03 434.49 1062.71 429.49 C 1062.37 424.39 1061.99 419.28 1061.55 414.18 C 1061.1 409.01 1060.57 403.85 1059.94 398.7 C 1059.31 393.5 1058.55 388.32 1057.67 383.16 C 1056.78 377.98 1055.73 372.82 1054.52 367.71 C 1053.3 362.57 1051.87 357.49 1050.25 352.47 C 1048.62 347.42 1046.76 342.46 1044.66 337.58 C 1042.54 332.66 1040.16 327.86 1037.52 323.2 C 1032.04 313.53 1025.38 304.57 1017.7 296.55 C 1013.6 292.28 1009.24 288.29 1004.62 284.6 C 999.71 280.68 994.56 277.07 989.19 273.79 C 983.4 270.26 977.4 267.08 971.23 264.26 C 964.48 261.18 957.58 258.46 950.54 256.12 C 942.79 253.54 934.92 251.33 926.95 249.5 C 918.12 247.47 909.21 245.81 900.25 244.52 C 897 244.04 893.72 243.76 890.43 243.68 C 885.92 243.55 881.4 243.62 876.88 243.88 C 873.21 244.09 869.54 244.39 865.89 244.79 C 861.33 245.29 856.78 245.88 852.25 246.56 C 841.96 248.11 831.73 250.01 821.57 252.25 C 806.6 255.56 791.7 259.2 776.9 263.19 C 765.43 266.27 753.99 269.51 742.61 272.9 C 728.771 277.013 714.989 281.276 701.235 285.672 Z " fill="rgb(0,0,0)"/></g></g></g></g></svg>