
        <!--?xml version="1.0" standalone="no"?-->
        <!-- Generator: Gravit.io -->
        <svg id="character" xmlns="http://www.w3.org/2000/svg" xmlns:xlink="http://www.w3.org/1999/xlink" style="isolation:isolate" viewBox="0 0 1736.678 1736.678" width="1736.678" height="1736.678" preserveAspectRatio="xMidYMin">
          <defs>
            <clipPath id="_clipPath_ZAkK26mfD6xaShBW42UlzbgiXdc2eAaQ">
              <rect width="1736.678" height="1736.678"></rect>
            </clipPath>
          </defs>
          <g clip-path="url(#_clipPath_ZAkK26mfD6xaShBW42UlzbgiXdc2eAaQ)">
            <path id="background" d=" M 6 868.339 C 6 392.401 392.401 6 868.339 6 C 1344.277 6 1730.678 392.401 1730.678 868.339 C 1730.678 1344.277 1344.277 1730.678 868.339 1730.678 C 392.401 1730.678 6 1344.277 6 868.339 Z " fill="rgb(255,172,90)"></path>
            <clipPath id="_clipPath_8PKPfzLwoafclpY5tUdm7OnaipIS1TrR">
              <path d=" M 6 868.339 C 6 392.401 392.401 6 868.339 6 C 1344.277 6 1730.678 392.401 1730.678 868.339 C 1730.678 1344.277 1344.277 1730.678 868.339 1730.678 C 392.401 1730.678 6 1344.277 6 868.339 Z " fill="rgb(255,172,90)"></path>
            </clipPath>
            <g clip-path="url(#_clipPath_8PKPfzLwoafclpY5tUdm7OnaipIS1TrR)">
              <g id="avatar">
                <g id="shirt-color">
                  <path d=" M 1367.348 1571.514 C 1226.468 1671.729 1054.233 1730.678 868.339 1730.678 C 686.466 1730.678 517.667 1674.252 378.51 1577.967 L 451.22 1555.46 L 547.348 1533.331 L 630.036 1577.413 L 692.435 1600.722 C 737.63 1614.268 778.449 1624.4 814.893 1631.115 L 891.529 1634.753 L 937.501 1631.712 L 993.997 1617.49 C 1038.859 1603.308 1074.231 1590.366 1100.112 1578.664 L 1184.38 1528.187 L 1205.692 1531.83 C 1286.086 1549.488 1339.962 1562.715 1367.348 1571.514 Z " fill="rgb(0, 0, 0)"></path>
                </g>
                <g id="collar-color">
                  <path d=" M 634.421 1492.433 L 561.731 1500.617 L 547.146 1531.801 L 592.432 1558.756 L 693.198 1603.143 L 796.77 1627.757 L 899.004 1635.393 L 1009.97 1612.889 L 1092.842 1579.793 L 1154.881 1548.111 L 1193.741 1519.776 L 1192.205 1503.58 L 1176.653 1489.805 L 1160.961 1485.521 L 1096.494 1487.956 Q 1121.579 1505.719 1133.481 1516.825 L 1016.773 1573.268 L 906.5 1599.917 L 795.906 1595.966 L 682.411 1564.402 L 598.385 1523.968 L 634.421 1492.433 Z " fill="rgb(255,255,255)"></path>
                </g>
                <g id="neck-color">
                  <path d=" M 706.041 1340.418 L 698.687 1468.942 Q 634.953 1489.006 599.54 1522.458 Q 631.465 1547.257 726.403 1582.225 L 869.244 1602.426 Q 945.326 1600.313 988.258 1583.679 Q 1034.93 1567.023 1085.543 1544.229 Q 1108.079 1533.685 1130.877 1515.374 Q 1092.037 1486.283 1036.838 1466.066 Q 1026.854 1390.851 1026.549 1332.684 L 984.425 1363.903 L 944.486 1388.136 L 911.165 1405.061 L 868.881 1412.629 L 823.147 1402.911 Q 790.544 1387.39 706.041 1340.418 Z " fill="rgb(242,211,196)"></path>
                </g>
                <g id="shirt-lines">
                  <path d=" M 545.538 1529.051 L 544.803 1529.23 Q 541.973 1529.92 540.891 1530.254 Q 540.846 1530.538 541.061 1531.7 Q 541.172 1532.15 541.357 1532.557 Q 541.404 1532.788 542.077 1533.681 Q 542.48 1534.15 542.755 1534.331 L 543.152 1534.627 L 548.917 1538.36 L 549.517 1538.206 Q 548.023 1534.927 545.538 1529.051 Z " fill="rgb(0,0,0)"></path>
                  <path d=" M 1195.084 1524.493 L 1194.344 1525.211 Q 1191.274 1528.185 1186.424 1532.763 L 1186.765 1532.879 L 1198.283 1525.206 Q 1197.981 1525.023 1195.084 1524.493 Z " fill="rgb(0,0,0)"></path>
                  <path d=" M 1195.049 1524.526 L 1194.836 1524.735 L 1192.949 1526.557 Q 1193.373 1526.864 1193.514 1526.923 Q 1194.167 1527.242 1194.648 1527.378 Q 1195.389 1527.55 1196.026 1527.541 Q 1196.577 1527.545 1197.179 1527.392 Q 1198.541 1526.959 1199.422 1526.131 Q 1199.654 1525.899 1199.942 1525.556 Q 1199.895 1525.557 1199.583 1525.493 Q 1199.424 1525.463 1198.394 1525.233 Q 1197.263 1524.962 1196.957 1524.873 L 1196.654 1524.811 L 1196.293 1524.724 L 1196.305 1524.723 Q 1195.762 1524.627 1195.049 1524.526 Z " fill="rgb(0,0,0)"></path>
                  <path d=" M 545.538 1529.051 L 544.89 1529.209 Q 542.395 1529.816 541.463 1530.094 L 541.439 1530.643 Q 541.442 1531.185 541.557 1531.692 Q 541.671 1532.2 541.898 1532.673 Q 542.124 1533.146 542.462 1533.585 L 542.828 1534.016 L 543.25 1534.43 Q 543.425 1534.608 544.354 1535.105 Q 545.105 1535.456 545.894 1535.544 Q 546.811 1535.638 547.704 1535.41 L 548.198 1535.244 Q 547.19 1532.959 545.538 1529.051 Z " fill="rgb(0,0,0)"></path>
                  <path d=" M 1362.915 1574.659 Q 1295.462 1554.498 1186.388 1532.797 L 1193.835 1525.704 L 1195.406 1524.179 L 1195.406 1524.179 Q 1227.296 1528.83 1350.791 1560.824 Q 1362.065 1563.912 1373.053 1567.434 C 1369.692 1569.866 1366.312 1572.274 1362.915 1574.659 Z  M 371.075 1572.765 Q 376.86 1570.867 382.954 1568.925 Q 440.487 1552.034 524.133 1533.505 L 545.453 1528.848 L 545.453 1528.848 L 549.475 1538.113 Q 436.113 1562.567 380.941 1579.643 C 377.636 1577.373 374.347 1575.08 371.075 1572.765 Z " fill-rule="evenodd" fill="rgb(0,0,0)"></path>
                </g>
                <g id="collar-lines">
                  <path d=" M 642.042 1487.948 L 640.895 1488.491 Q 632.543 1492.479 630.085 1493.801 Q 628.168 1494.895 625.14 1496.944 Q 616.059 1503.088 596.991 1517.809 L 580.584 1521.35 Q 590.066 1525.487 594.03 1528.595 L 601.175 1527.043 Q 611.794 1517.877 634.247 1503.216 Q 639.319 1500.004 644.59 1496.901 L 659.827 1490.153 Q 658.056 1489.631 653.974 1488.971 Q 647.708 1488.22 642.042 1487.948 Z " fill="rgb(0,0,0)"></path>
                  <path d=" M 551.957 1527.526 L 541.217 1529.843 L 541.436 1531.919 L 549.417 1538.285 L 561.992 1535.557 Q 559.421 1534.032 559.277 1533.893 Q 557.024 1532.193 556.784 1531.682 Q 556.114 1531.308 555.639 1530.964 Q 554.12 1529.817 553.004 1528.8 Q 552.74 1528.677 552.481 1528.481 Q 552.065 1528.122 551.957 1527.526 Z " fill="rgb(0,0,0)"></path>
                  <path d=" M 513.209 1545.942 L 513.241 1546.01 L 513.354 1546.246 Q 513.39 1546.238 513.393 1546.239 L 513.214 1545.942 L 513.209 1545.942 Z " fill="rgb(0,0,0)"></path>
                  <path d=" M 1083.937 1479.597 L 1083.401 1479.68 Q 1081.336 1479.998 1080.558 1480.044 L 1066.628 1482.433 Q 1078.438 1486.77 1082.737 1488.619 Q 1083.143 1488.509 1090.077 1492.662 Q 1109.973 1504.303 1134.112 1521.939 Q 1136.062 1521.517 1146.238 1514.613 L 1137.323 1512.799 Q 1116.787 1496.839 1104.829 1489.962 Q 1100.363 1487.215 1094.721 1484.111 Q 1092.143 1482.847 1083.937 1479.597 Z " fill="rgb(0,0,0)"></path>
                  <path d=" M 1184.828 1522.473 L 1184.671 1522.608 Q 1183.055 1523.977 1181.875 1524.658 Q 1180.513 1525.493 1177.699 1526.755 L 1173.373 1529.437 Q 1172.495 1530.01 1172.367 1530.161 L 1185.641 1532.886 Q 1189.84 1529.743 1195.444 1526.507 L 1197.365 1525.02 L 1184.828 1522.473 Z " fill="rgb(0,0,0)"></path>
                  <path d=" M 545.808 1525.437 L 545.714 1525.444 Q 538.822 1527.3 543.638 1534.496 L 598.738 1567.309 Q 654.438 1594.228 698.896 1608.998 Q 802.665 1641.621 892.788 1640.062 L 930.835 1636.04 L 976.17 1626.827 Q 1028.028 1611.807 1055.661 1600.737 Q 1094.252 1585.402 1163.791 1547.033 Q 1184.672 1534.254 1197.954 1524.552 L 1195.51 1521.039 L 1198.067 1524.452 L 1199.431 1523.354 Q 1201.005 1516.749 1198.093 1516.466 Q 1195.031 1515.545 1193.15 1516.63 Q 1183.16 1525.169 1121.898 1558.674 Q 1046.002 1595.301 1041.875 1595.575 Q 986.139 1614.957 965.12 1619.15 L 928.92 1626.223 Q 893.537 1630.345 881.548 1630.764 Q 795.518 1630.257 681.242 1593.616 Q 645.753 1582.069 545.808 1525.437 Z " fill="rgb(0,0,0)"></path>
                  <path d=" M 559.38 1496.585 L 555.944 1498.801 Q 549.834 1503.508 551.122 1503.723 L 582.4 1522.504 Q 620.18 1545.105 683.233 1570.186 Q 726.649 1585.814 768.137 1594.733 Q 788.881 1599.193 809.143 1601.976 Q 859.376 1607.464 868.845 1606.549 L 889.151 1606.239 L 926.803 1602.234 Q 974.444 1593.29 994.692 1586.365 Q 1094.654 1550.256 1152.937 1511.035 Q 1176.77 1494.992 1181.116 1491.252 Q 1184.232 1484.366 1176.017 1483.238 Q 1093.493 1540.025 1009.906 1570.362 L 978.201 1580.506 L 947.001 1588.223 L 916.308 1593.514 Q 884.95 1596.972 872.018 1596.979 L 834.654 1594.716 L 799.119 1590.285 Q 763.744 1584.735 729.013 1574.707 Q 694.282 1564.68 660.194 1550.174 L 626.268 1534.55 Q 592.502 1517.806 559.38 1496.585 Z " fill="rgb(0,0,0)"></path>
                  <path d=" M 1078.339 1480.409 L 1073.227 1481.249 Q 1070.336 1482.5 1070.326 1483.88 L 1085.168 1490.217 Q 1113.909 1488.308 1146.267 1489.115 Q 1163.943 1490.199 1174.451 1494.072 Q 1180.546 1496.791 1186.973 1505.913 Q 1188.116 1508.421 1191.346 1524.545 Q 1192.986 1526.961 1194.249 1527.192 L 1195.443 1526.507 Q 1198.316 1524.3 1200.885 1522.141 Q 1198.832 1508.524 1195.936 1501.499 Q 1193.422 1493.207 1175.74 1483.934 Q 1167.991 1481.841 1160.538 1480.609 Q 1147.596 1478.749 1142.367 1478.874 Q 1113.191 1478.631 1078.339 1480.409 Z " fill="rgb(0,0,0)"></path>
                  <path d=" M 602.716 1486.743 L 602.511 1486.755 Q 580.475 1488.221 572.34 1490.36 Q 568.465 1491.524 564.861 1492.975 L 555.944 1498.801 L 551.424 1502.62 Q 543.066 1516.384 541.933 1524.353 Q 541.206 1531.844 541.404 1532.158 L 545.583 1535.502 L 547.834 1535.615 Q 549.318 1534.825 551.05 1532.497 Q 553.872 1517.507 556.492 1511.809 Q 559.423 1506.843 568.458 1502.149 Q 572.537 1500.5 578.767 1499.209 Q 587.744 1497.762 597.538 1497.189 Q 610.172 1496.431 643.382 1497.618 Q 643.473 1497.149 650.112 1494.798 L 653.267 1493.016 L 656.494 1491.95 L 659.834 1490.155 Q 658.694 1489.709 652.692 1488.813 Q 647.43 1488.199 640.053 1487.845 L 637.985 1487.534 Q 611.366 1486.543 602.716 1486.743 Z " fill="rgb(0,0,0)"></path>
                </g>
                <g id="neck-lines">
                  <path d=" M 702.559 1328.319 L 701.978 1328.406 Q 699.715 1328.971 698.476 1332.995 Q 701.442 1371.892 700.543 1394.995 Q 699.808 1417.274 693.968 1466.522 Q 640.622 1486.281 625.685 1496.702 Q 612.14 1505.376 597.369 1517.499 Q 596.086 1522.422 595.798 1528.203 L 601.862 1526.682 Q 624.97 1507.736 641.393 1499.209 Q 657.971 1490.394 700.383 1474.799 Q 702.208 1473.925 702.869 1472.744 Q 710.967 1410.467 710.861 1385.758 Q 710.95 1366.099 708.354 1332.124 Q 708.028 1328.95 702.559 1328.319 Z " fill="rgb(0,0,0)"></path>
                  <path d=" M 1028.272 1324.652 L 1027.657 1324.725 Q 1023.682 1326.33 1023.633 1328.636 Q 1021.371 1360.696 1022.053 1386.819 Q 1022.796 1413.633 1030.888 1469.054 Q 1031.564 1470.227 1033.4 1471.078 Q 1076.036 1486.173 1092.506 1494.661 Q 1103.739 1500.826 1107.84 1503.577 L 1134.435 1522.384 L 1134.257 1510.407 Q 1119.78 1499.219 1109.624 1492.576 Q 1092.848 1481.707 1039.712 1462.724 Q 1033.258 1413.55 1032.246 1391.282 Q 1031.059 1368.192 1033.539 1329.261 Q 1032.717 1324.839 1028.272 1324.652 Z " fill="rgb(0,0,0)"></path>
                  <path d=" M 597.04 1519.212 L 596.335 1522.636 L 595.618 1529.985 Q 676.862 1571.093 701.868 1576.598 Q 714.272 1581.13 766.265 1594.035 Q 786.477 1598.628 805.018 1601.595 Q 841.397 1607.503 873.905 1607.013 Q 881.03 1607.034 911.543 1604.117 L 938.703 1600.014 Q 962.887 1596 999.775 1584.636 Q 1035.145 1573.575 1077.505 1553.27 Q 1112.094 1536.09 1134.428 1522.332 L 1134.221 1510.782 Q 1106.443 1528.84 1073.131 1544.508 Q 1012.932 1571.106 981.203 1579.945 Q 924.09 1596.452 867.158 1596.978 Q 797.12 1593.213 737.568 1577.07 Q 692.882 1563.952 653.832 1547.703 Q 639.482 1542.168 597.04 1519.212 Z " fill="rgb(0,0,0)"></path>
                </g>
                <g id="head">
                  <g id="ears">
                    <g id="ear-color">
                      <path d=" M 416.938 921.817 C 407.368 922.344 399.326 941.735 392.812 979.988 C 388.859 987.38 393.009 1012.821 409.832 1054.565 C 440.791 1131.386 475.357 1168.991 509.01 1169.252 C 510.284 1170.324 511.787 1170.813 513.519 1170.717 C 521.599 1170.272 534.669 1157.129 552.73 1131.288 L 487.731 996.606 L 461.678 942.622 C 451.76 935.187 438.486 927.549 422.469 923.393 L 422.322 923.407 C 420.476 922.251 418.682 921.721 416.938 921.817 Z  M 1297.834 900.241 C 1296.978 900.288 1296.104 900.397 1295.21 900.567 L 1294.168 900.651 C 1253.133 913.285 1234.831 939.301 1216.026 995.263 L 1176.839 1123.509 C 1175.668 1133.614 1189.057 1145.209 1218.751 1150.132 C 1220.366 1150.4 1222.005 1150.487 1223.667 1150.395 C 1247.575 1149.078 1276.253 1110.799 1308.958 1042.342 C 1317.567 993.499 1322.987 969.015 1325.219 968.892 C 1325.439 968.88 1325.628 969.105 1325.786 969.568 C 1324.071 922.418 1314.753 899.309 1297.834 900.241 Z " fill="rgb(252,235,224)"></path>
                    </g>
                    <g id="ear-lines">
                      <path d=" M 438.683 963.532 L 438.683 963.532 L 438.683 963.532 L 438.683 963.532 L 438.683 963.532 L 438.891 969.727 C 438.94 969.727 438.991 969.725 439.048 969.72 L 439.038 969.721 C 440.266 969.624 441.182 968.549 441.085 967.322 L 441.085 967.322 L 441.547 973.147 C 441.614 974.002 441.325 974.847 440.747 975.48 C 440.17 976.114 439.355 976.48 438.498 976.492 L 438.498 976.492 L 438.496 976.492 L 441.554 973.327 C 441.562 973.704 441.561 974.091 441.534 974.432 L 441.534 974.432 C 441.52 974.601 441.486 974.984 441.354 975.397 C 440.946 976.667 439.772 977.533 438.438 977.549 L 438.438 977.549 L 438.432 977.549 L 441.157 975.859 C 441.206 975.764 441.248 975.665 441.284 975.558 C 440.861 976.809 439.692 977.655 438.372 977.665 L 438.372 977.665 L 438.362 977.665 L 440.586 976.7 C 439.965 977.354 439.193 977.618 438.973 977.695 L 438.974 977.695 C 438.868 977.732 438.742 977.772 438.638 977.803 C 438.363 977.885 438.077 977.927 437.79 977.93 L 437.79 977.93 L 437.767 977.931 L 437.979 977.921 C 435.473 978.119 434.288 978.332 433.976 978.442 L 433.975 978.442 C 433.97 978.444 433.997 978.434 434.033 978.418 C 433.647 978.589 433.232 978.68 432.81 978.685 L 432.81 978.685 L 432.793 978.685 L 433.733 978.528 C 433.52 978.598 433.453 978.657 433.456 978.655 L 433.456 978.654 C 433.463 978.649 433.482 978.629 433.497 978.602 C 432.979 979.529 432.022 980.127 430.961 980.186 L 430.961 980.186 L 430.961 980.186 L 433.468 978.653 C 432.875 979.67 432.58 980.624 432.508 981.535 C 432.384 983.081 431.137 984.298 429.588 984.383 L 429.588 984.383 L 429.588 984.383 L 432.496 981.652 C 432.451 982.028 432.441 982.341 432.453 982.596 L 432.451 982.549 L 432.452 982.573 L 432.45 982.535 L 432.788 987.036 C 432.852 987.891 432.559 988.734 431.978 989.366 C 431.398 989.997 430.582 990.36 429.724 990.367 L 429.724 990.367 L 429.715 990.368 L 432.78 987.482 L 432.779 987.484 L 432.777 987.514 C 432.768 987.632 432.756 987.752 432.74 987.875 L 432.74 987.875 C 432.719 988.04 432.654 988.568 432.399 989.106 C 431.891 990.18 430.813 990.869 429.624 990.879 L 429.624 990.879 L 429.611 990.88 L 432.004 989.718 C 432.672 988.884 432.665 987.671 431.933 986.845 L 431.933 986.845 C 431.486 986.34 430.857 986.087 430.24 986.094 L 430.24 986.094 C 429.725 986.1 429.202 986.287 428.786 986.655 L 428.785 986.655 C 428.568 986.848 428.439 987.051 428.369 987.199 C 429.037 985.787 430.65 985.092 432.135 985.577 C 433.619 986.063 434.511 987.576 434.216 989.109 L 434.216 989.109 L 434.216 989.11 L 428.37 987.198 C 428.318 987.307 428.303 987.372 428.305 987.366 L 428.305 987.366 C 428.307 987.355 428.327 987.264 428.34 987.063 L 428.334 987.278 L 428.333 987.159 L 428.341 987.369 L 428.003 982.869 C 427.941 982.038 428.215 981.217 428.765 980.591 C 429.314 979.965 430.093 979.587 430.924 979.541 L 430.924 979.541 L 430.925 979.541 L 427.998 982.767 C 427.974 982.213 428.004 981.651 428.072 981.089 L 428.067 981.137 L 428.071 981.102 L 428.063 981.18 C 428.199 979.488 428.751 977.885 429.627 976.388 L 429.609 976.419 L 429.618 976.404 L 429.604 976.428 C 430.253 975.267 431.301 974.672 432.131 974.365 L 432.13 974.366 C 432.249 974.322 432.357 974.286 432.474 974.25 L 432.216 974.342 L 432.358 974.284 L 431.988 974.464 L 431.989 974.463 C 432.446 974.202 432.962 974.062 433.488 974.056 L 433.488 974.056 L 433.495 974.056 L 432.408 974.266 C 432.568 974.204 432.722 974.155 432.857 974.116 L 432.856 974.116 C 433.867 973.825 435.624 973.632 437.749 973.467 L 437.749 973.467 C 437.603 973.478 437.46 973.504 437.317 973.544 L 437.318 973.544 C 437.475 973.5 437.542 973.465 437.546 973.463 L 437.545 973.463 C 437.548 973.462 437.405 973.539 437.254 973.75 L 439.945 978.65 L 439.945 978.65 C 438.754 978.716 437.632 978.093 437.057 977.047 C 436.483 976.002 436.559 974.721 437.253 973.751 L 437.253 973.751 C 437.215 973.804 437.179 973.863 437.144 973.93 L 439.941 978.437 L 439.924 978.437 C 438.769 978.45 437.702 977.819 437.157 976.8 C 436.612 975.781 436.678 974.544 437.33 973.59 L 437.33 973.59 C 437.209 973.767 437.144 973.924 437.109 974.031 C 437.568 972.609 438.975 971.716 440.457 971.907 C 441.939 972.099 443.073 973.319 443.155 974.811 L 443.155 974.811 L 443.155 974.812 L 437.108 974.035 C 437.08 974.121 437.072 974.171 437.073 974.165 L 437.073 974.166 C 437.082 974.118 437.107 973.885 437.096 973.375 L 437.099 973.462 L 437.096 973.413 L 437.102 973.499 L 436.64 967.674 L 436.64 967.674 C 436.733 968.852 437.724 969.74 438.888 969.727 C 437.202 969.746 435.811 968.414 435.755 966.73 C 435.7 965.045 437 963.625 438.683 963.532 L 438.683 963.532 L 438.683 963.532 L 438.683 963.532 L 438.683 963.532 L 438.683 963.532 Z  M 439.024 969.723 L 439.024 969.723 L 439.024 969.723 L 439.024 969.723 L 439.024 969.723 L 438.82 963.528 C 440.892 963.505 442.655 965.088 442.821 967.186 L 442.821 967.185 L 443.283 973.01 L 443.288 973.096 L 443.291 973.144 L 443.294 973.231 C 443.309 973.898 443.291 974.589 443.184 975.213 L 443.184 975.214 C 443.147 975.431 443.093 975.676 443.012 975.93 C 442.554 977.353 441.147 978.248 439.665 978.057 C 438.182 977.866 437.047 976.645 436.965 975.153 L 436.965 975.153 L 436.965 975.152 L 443.01 975.933 C 442.889 976.309 442.711 976.704 442.451 977.085 L 439.856 972.237 L 439.873 972.237 C 440.957 972.225 441.969 972.781 442.541 973.703 C 443.113 974.624 443.161 975.778 442.669 976.744 L 442.669 976.744 C 442.559 976.961 442.433 977.166 442.296 977.358 L 439.604 972.459 L 439.604 972.459 C 440.795 972.394 441.918 973.017 442.492 974.062 C 443.066 975.108 442.989 976.39 442.295 977.359 L 442.295 977.359 C 441.79 978.065 441.145 978.565 440.494 978.917 L 440.493 978.917 C 440.008 979.18 439.499 979.371 438.997 979.512 L 438.998 979.512 C 438.746 979.583 438.488 979.628 438.23 979.648 L 438.229 979.648 C 435.958 979.825 434.863 979.99 434.572 980.074 L 434.571 980.074 C 434.567 980.076 434.601 980.066 434.657 980.045 C 434.31 980.179 433.942 980.251 433.57 980.255 L 433.57 980.255 L 433.563 980.255 L 435.062 979.848 L 435.062 979.848 C 434.943 979.916 434.819 979.976 434.692 980.028 L 434.692 980.028 L 434.549 980.086 C 434.464 980.12 434.378 980.151 434.291 980.178 L 434.291 980.178 C 434.277 980.182 434.281 980.181 434.277 980.182 L 434.276 980.182 C 434.232 980.199 434.684 980.048 435.018 979.451 L 435.004 979.476 L 434.995 979.491 L 434.978 979.521 C 434.508 980.323 434.295 981.034 434.244 981.674 L 434.236 981.752 L 434.233 981.787 L 434.227 981.835 C 434.192 982.125 434.186 982.345 434.192 982.505 C 434.264 984.201 432.96 985.638 431.266 985.732 L 431.266 985.732 L 431.265 985.732 L 434.186 982.404 L 434.524 986.905 C 434.529 986.975 434.532 987.045 434.533 987.116 L 434.533 987.116 L 434.534 987.235 C 434.534 987.307 434.532 987.378 434.528 987.45 L 434.528 987.45 C 434.499 987.901 434.441 988.374 434.327 988.838 L 434.327 988.838 C 434.25 989.154 434.139 989.501 433.974 989.851 C 433.306 991.262 431.692 991.956 430.208 991.471 C 428.724 990.986 427.833 989.472 428.127 987.939 L 428.127 987.939 L 428.127 987.939 L 433.974 989.85 C 433.732 990.362 433.383 990.865 432.898 991.295 L 432.898 991.295 C 432.156 991.953 431.228 992.284 430.308 992.294 L 430.308 992.294 C 429.204 992.306 428.089 991.855 427.293 990.957 L 427.293 990.957 C 425.99 989.487 425.976 987.325 427.165 985.841 C 427.747 985.114 428.626 984.688 429.558 984.68 L 429.558 984.68 L 429.571 984.68 L 426.795 986.453 C 426.596 986.875 426.575 987.205 426.591 987.086 L 426.591 987.087 C 426.591 987.086 426.593 987.064 426.597 987.024 L 426.594 987.054 L 426.594 987.053 C 426.723 985.422 428.053 984.182 429.659 984.168 L 429.659 984.168 L 429.668 984.168 L 426.605 987.5 L 426.267 982.999 L 426.264 982.961 L 426.263 982.936 L 426.26 982.889 C 426.23 982.244 426.26 981.586 426.338 980.924 C 426.515 979.428 427.742 978.276 429.246 978.193 L 429.246 978.193 L 429.247 978.193 L 426.327 981.041 C 426.482 979.102 427.104 977.258 428.113 975.528 C 428.638 974.628 429.58 974.052 430.62 973.995 L 430.62 973.995 L 430.62 973.995 L 428.084 975.579 C 428.44 974.941 428.903 974.385 429.454 973.92 L 429.454 973.919 C 430.157 973.325 430.958 972.916 431.782 972.643 C 432.085 972.542 432.402 972.489 432.721 972.486 L 432.721 972.486 L 432.738 972.485 L 431.516 972.752 C 431.664 972.686 431.8 972.634 431.933 972.588 L 431.932 972.588 C 433.131 972.17 435.133 971.927 437.491 971.74 C 437.561 971.735 437.632 971.732 437.703 971.731 L 437.703 971.731 L 437.726 971.731 L 436.878 971.858 C 436.899 971.852 436.922 971.844 436.918 971.846 L 436.92 971.845 C 437.095 971.784 436.583 971.911 436.09 972.43 C 436.67 971.82 437.473 971.472 438.314 971.465 L 438.314 971.465 L 438.323 971.465 L 435.411 973.572 C 435.473 973.387 435.55 973.207 435.636 973.039 C 436.159 972.013 437.209 971.362 438.36 971.349 L 438.36 971.349 L 438.366 971.349 L 435.451 973.501 C 435.354 973.801 435.348 974.009 435.353 973.942 L 435.353 973.942 C 435.356 973.91 435.362 973.764 435.355 973.457 C 435.338 972.631 435.651 971.832 436.226 971.238 C 436.8 970.644 437.587 970.303 438.413 970.292 L 438.413 970.292 L 438.415 970.292 L 435.366 973.637 L 434.904 967.812 L 434.904 967.812 C 434.731 965.626 436.362 963.713 438.549 963.54 L 438.54 963.541 C 438.637 963.533 438.729 963.529 438.817 963.528 C 440.503 963.508 441.896 964.839 441.952 966.524 C 442.008 968.209 440.708 969.63 439.024 969.723 L 439.024 969.723 L 439.024 969.723 L 439.024 969.723 L 439.024 969.723 Z  M 426.955 932.344 L 426.955 932.344 L 426.955 932.344 L 426.955 932.344 L 426.955 932.344 L 427.159 938.539 C 426.272 938.549 425.465 938.757 424.694 939.171 L 424.694 939.171 C 422.949 940.108 421.107 942.244 419.472 946.32 C 419.005 947.484 417.883 948.252 416.629 948.266 L 416.629 948.266 L 416.606 948.266 L 418.99 947.105 C 410.343 957.893 415.771 998.309 439.023 1072.075 L 439.023 1072.075 C 438.72 1071.111 437.826 1070.506 436.872 1070.517 L 436.874 1070.517 C 436.654 1070.519 436.435 1070.554 436.229 1070.619 L 436.227 1070.619 C 435.053 1070.99 434.401 1072.242 434.771 1073.416 L 434.771 1073.416 C 412.23 1001.908 404.549 957.495 415.662 944.132 L 415.662 944.131 C 415.512 944.311 415.392 944.514 415.305 944.733 L 415.305 944.731 C 417.019 940.434 419.334 936.988 422.584 935.243 L 422.585 935.242 C 424.062 934.449 425.662 934.043 427.341 934.024 L 427.341 934.024 C 440.1 933.884 457.378 957.229 479.127 997.741 L 479.126 997.74 C 478.718 996.981 477.934 996.557 477.138 996.566 L 477.002 996.571 L 477.003 996.571 L 477.139 996.566 C 476.787 996.57 476.43 996.658 476.107 996.831 L 476.107 996.831 C 475.024 997.413 474.615 998.764 475.198 999.85 L 475.198 999.85 C 452.109 956.841 436.093 938.441 427.159 938.539 C 425.474 938.557 424.083 937.226 424.027 935.541 C 423.971 933.857 425.272 932.436 426.955 932.344 L 426.955 932.344 L 426.955 932.344 L 426.955 932.344 L 426.955 932.344 L 426.955 932.344 Z  M 427.296 938.534 L 427.296 938.534 L 427.296 938.534 L 427.296 938.534 L 427.296 938.534 L 427.091 932.339 C 440.708 932.19 458.562 955.752 480.661 996.917 L 480.661 996.917 C 481.698 998.85 480.972 1001.256 479.041 1002.293 L 479.041 1002.293 C 478.462 1002.605 477.832 1002.759 477.207 1002.766 L 477.344 1002.761 L 477.343 1002.761 L 477.208 1002.766 C 475.784 1002.782 474.39 1002.025 473.664 1000.674 L 473.664 1000.673 C 450.851 958.179 435.449 940.136 427.409 940.224 L 427.409 940.224 C 426.717 940.231 426.102 940.391 425.517 940.705 L 425.517 940.705 C 424.165 941.431 422.568 943.256 421.064 947.028 L 421.065 947.026 C 420.91 947.415 420.695 947.776 420.428 948.096 L 420.429 948.096 C 412.058 958.162 417.498 997.996 440.684 1071.552 L 440.684 1071.552 C 441.344 1073.644 440.183 1075.873 438.091 1076.532 L 438.089 1076.533 C 437.714 1076.651 437.328 1076.712 436.939 1076.716 L 436.941 1076.716 C 435.24 1076.735 433.65 1075.652 433.11 1073.94 L 433.11 1073.939 C 410.462 1002.089 402.892 957.277 414.152 943.227 C 414.733 942.503 415.608 942.077 416.536 942.066 L 416.536 942.066 L 416.56 942.066 L 413.718 944.012 C 415.604 939.309 418.184 935.628 421.761 933.708 L 421.761 933.708 C 423.418 932.819 425.209 932.36 427.091 932.339 C 428.777 932.321 430.168 933.652 430.224 935.337 C 430.279 937.021 428.979 938.442 427.296 938.534 L 427.296 938.534 L 427.296 938.534 L 427.296 938.534 L 427.296 938.534 Z  M 473.678 1023.835 L 473.678 1023.835 L 473.678 1023.835 L 473.678 1023.835 L 473.678 1023.835 L 474.019 1030.025 L 474.019 1030.025 L 473.882 1030.03 C 474.888 1030.019 475.794 1029.328 476.031 1028.302 L 476.031 1028.303 C 474.24 1036.056 475.143 1043.33 478.733 1050.263 C 479.228 1051.219 479.192 1052.363 478.637 1053.286 C 478.083 1054.209 477.089 1054.777 476.013 1054.788 L 476.013 1054.788 L 475.989 1054.789 L 478.966 1050.941 C 480.416 1056.774 489.051 1064.372 507.656 1073.299 L 507.657 1073.299 C 507.344 1073.149 507.004 1073.076 506.666 1073.08 L 506.667 1073.08 C 505.853 1073.089 505.064 1073.549 504.683 1074.343 L 504.683 1074.343 C 504.149 1075.455 504.619 1076.786 505.727 1077.318 L 505.837 1077.369 L 505.837 1077.369 L 505.728 1077.319 C 487.971 1068.799 476.57 1060.436 474.587 1051.799 L 474.587 1051.799 C 474.628 1051.98 474.693 1052.158 474.781 1052.328 L 474.78 1052.326 C 470.693 1044.44 469.665 1036.052 471.687 1027.299 L 471.687 1027.299 C 471.41 1028.499 472.157 1029.696 473.357 1029.973 L 473.47 1029.997 L 473.469 1029.997 L 473.355 1029.973 C 473.531 1030.013 473.708 1030.032 473.882 1030.03 C 472.197 1030.048 470.806 1028.717 470.75 1027.032 C 470.695 1025.348 471.995 1023.927 473.678 1023.835 L 473.678 1023.835 L 473.678 1023.835 L 473.678 1023.835 L 473.678 1023.835 L 473.678 1023.835 Z  M 474.019 1030.025 L 474.019 1030.025 L 474.019 1030.025 L 474.019 1030.025 L 474.019 1030.025 L 473.815 1023.83 C 474.124 1023.827 474.44 1023.86 474.753 1023.932 L 474.639 1023.908 L 474.64 1023.908 L 474.752 1023.932 C 476.889 1024.426 478.221 1026.558 477.728 1028.694 L 477.728 1028.694 C 476.032 1036.037 476.887 1042.917 480.285 1049.473 L 480.284 1049.471 C 480.439 1049.771 480.555 1050.086 480.629 1050.411 L 480.629 1050.411 C 481.84 1055.684 490.081 1062.935 508.41 1071.729 L 508.3 1071.679 L 508.301 1071.679 L 508.412 1071.73 C 510.386 1072.678 511.222 1075.049 510.271 1077.028 L 510.271 1077.028 C 509.593 1078.44 508.191 1079.264 506.735 1079.28 L 506.736 1079.28 C 506.139 1079.286 505.536 1079.158 504.974 1078.889 L 504.974 1078.889 C 486.806 1070.171 475.202 1061.498 472.949 1052.437 C 472.72 1051.517 472.925 1050.542 473.505 1049.792 C 474.085 1049.042 474.977 1048.599 475.925 1048.589 L 475.925 1048.589 L 475.948 1048.589 L 473.228 1053.114 C 468.95 1044.853 467.873 1036.072 469.99 1026.907 L 469.99 1026.908 C 470.411 1025.083 472.024 1023.85 473.815 1023.83 L 473.678 1023.835 L 473.678 1023.835 C 475.5 1023.812 476.891 1025.143 476.947 1026.828 C 477.002 1028.512 475.702 1029.933 474.019 1030.025 L 474.019 1030.025 L 474.019 1030.025 L 474.019 1030.025 L 474.019 1030.025 Z  M 462.741 980.357 L 462.741 980.357 L 462.741 980.357 L 462.741 980.357 L 462.741 980.357 L 462.944 986.552 C 463.071 986.551 463.199 986.532 463.317 986.498 L 463.315 986.498 C 463.643 986.403 463.798 986.231 463.803 986.225 L 463.802 986.225 C 463.795 986.234 463.708 986.344 463.583 986.634 L 463.583 986.634 C 462.348 989.503 461.503 998.691 461.471 1015.279 C 461.468 1016.976 460.101 1018.355 458.403 1018.373 L 458.403 1018.373 L 458.38 1018.373 L 460.911 1017.017 C 453.781 1027.493 450.868 1032.976 450.716 1034.432 L 450.716 1034.431 C 450.716 1034.429 450.717 1034.422 450.718 1034.393 C 450.68 1036.065 449.323 1037.406 447.651 1037.423 L 447.651 1037.423 L 447.627 1037.424 L 450.576 1035.174 C 448.782 1041.464 449.899 1050.818 454.743 1063.662 L 454.743 1063.662 C 454.678 1063.489 454.59 1063.321 454.48 1063.165 L 454.48 1063.164 C 467.938 1082.263 485.743 1092.122 508.104 1092.987 L 508.098 1092.987 C 508.066 1092.986 508.034 1092.985 507.986 1092.986 L 507.994 1092.986 C 506.811 1092.999 505.837 1093.935 505.79 1095.128 L 505.79 1095.127 C 505.742 1096.36 506.703 1097.394 507.93 1097.442 L 508.222 1097.44 L 508.222 1097.44 L 507.932 1097.443 C 484.194 1096.524 465.131 1085.929 450.952 1065.899 L 453.515 1067.207 L 453.491 1067.208 C 452.189 1067.221 451.018 1066.419 450.558 1065.201 L 450.558 1065.201 C 445.698 1052.303 444.003 1041.659 446.351 1033.736 L 446.351 1033.738 C 446.291 1033.941 446.26 1034.152 446.259 1034.365 L 446.259 1034.365 C 446.26 1034.052 446.293 1033.757 446.337 1033.499 L 446.337 1033.499 C 446.856 1030.422 450.948 1023.715 457.4 1014.252 L 457.4 1014.252 C 457.149 1014.62 457.013 1015.056 457.012 1015.504 L 457.012 1015.505 C 457.035 999.575 457.717 988.986 459.488 984.871 L 459.487 984.872 C 459.598 984.614 459.725 984.346 459.868 984.091 L 459.867 984.092 C 459.96 983.927 460.553 982.77 461.846 982.291 C 462.182 982.166 462.536 982.101 462.894 982.097 L 462.894 982.097 L 462.917 982.097 C 463.211 982.094 463.505 982.133 463.788 982.213 L 463.533 982.153 L 463.534 982.153 L 463.819 982.222 C 463.999 982.275 464.145 982.335 464.209 982.363 L 462.812 982.115 L 462.812 982.115 C 463.29 982.088 463.767 982.173 464.206 982.362 L 464.206 982.362 C 463.917 982.238 463.608 982.178 463.303 982.181 L 463.302 982.181 C 462.454 982.19 461.64 982.689 461.279 983.529 L 461.279 983.529 C 460.793 984.659 461.314 985.971 462.445 986.458 L 462.445 986.458 C 462.544 986.5 462.686 986.541 462.86 986.55 L 462.865 986.551 C 462.88 986.551 462.916 986.553 462.951 986.552 C 461.264 986.574 459.87 985.243 459.813 983.557 C 459.756 981.872 461.057 980.45 462.741 980.357 L 462.741 980.357 L 462.741 980.357 L 462.741 980.357 L 462.741 980.357 L 462.741 980.357 Z  M 463.082 986.548 L 463.082 986.548 L 463.082 986.548 L 463.082 986.548 L 463.082 986.548 L 462.872 980.352 C 462.983 980.351 463.083 980.354 463.176 980.358 L 463.181 980.359 C 463.791 980.39 464.367 980.535 464.896 980.763 L 464.896 980.763 C 466.912 981.63 467.84 983.966 466.974 985.979 L 466.974 985.979 C 466.332 987.473 464.885 988.364 463.37 988.381 L 463.368 988.381 C 462.827 988.387 462.279 988.282 461.759 988.058 L 463.153 988.305 L 463.153 988.305 C 462.675 988.332 462.196 988.247 461.756 988.057 L 461.756 988.057 C 461.796 988.074 461.914 988.124 462.078 988.172 L 462.363 988.241 L 462.362 988.241 L 462.978 988.297 L 462.955 988.297 L 464.003 988.104 C 465.089 987.701 465.447 986.818 465.274 987.127 L 465.274 987.127 C 465.269 987.135 465.238 987.194 465.183 987.322 L 465.183 987.322 C 464.037 989.984 463.236 999.004 463.212 1015.514 L 463.212 1015.514 C 463.211 1016.311 462.97 1017.088 462.522 1017.745 L 462.522 1017.745 C 455.636 1027.845 452.683 1033.149 452.45 1034.532 L 452.45 1034.532 C 452.449 1034.538 452.459 1034.482 452.46 1034.379 L 452.46 1034.379 C 452.459 1034.757 452.403 1035.134 452.296 1035.497 L 452.296 1035.498 C 450.548 1041.396 451.611 1050.412 456.36 1063.014 L 453.427 1061.008 L 453.45 1061.008 C 454.468 1060.997 455.425 1061.486 456.013 1062.316 L 456.013 1062.316 C 469.128 1080.844 486.444 1090.407 508.171 1091.247 C 508.268 1091.251 507.784 1091.255 507.881 1091.25 L 507.881 1091.25 L 507.881 1091.249 L 508.174 1091.247 C 510.362 1091.333 512.072 1093.176 511.986 1095.37 L 511.986 1095.369 C 511.903 1097.494 510.166 1099.162 508.062 1099.185 L 508.069 1099.185 C 507.998 1099.186 507.925 1099.185 507.87 1099.183 L 507.864 1099.183 C 483.488 1098.24 463.933 1087.343 449.412 1066.736 L 449.411 1066.735 C 449.216 1066.459 449.059 1066.16 448.942 1065.849 L 448.942 1065.85 C 443.971 1052.669 442.257 1041.737 444.614 1033.473 C 444.991 1032.153 446.191 1031.238 447.563 1031.224 L 447.563 1031.224 L 447.587 1031.224 L 444.519 1034.254 C 444.523 1034.095 444.534 1033.935 444.549 1033.787 L 444.549 1033.787 C 444.906 1030.372 449.136 1023.299 455.785 1013.529 C 456.356 1012.69 457.302 1012.184 458.316 1012.173 L 458.316 1012.173 L 458.339 1012.173 L 455.271 1015.267 C 455.302 999.216 456.032 988.495 457.888 984.183 L 457.888 984.183 C 458.182 983.5 458.563 982.818 459.073 982.217 L 459.072 982.217 C 459.687 981.492 460.519 980.853 461.593 980.542 L 461.591 980.542 C 462.009 980.421 462.44 980.357 462.879 980.352 C 464.564 980.335 465.954 981.666 466.01 983.351 C 466.065 985.035 464.765 986.455 463.082 986.548 L 463.082 986.548 L 463.082 986.548 L 463.082 986.548 L 463.082 986.548 Z  M 420.278 921.515 L 420.278 921.515 L 420.278 921.515 L 420.278 921.515 L 420.278 921.515 L 420.483 927.71 C 417.947 927.738 415.332 927.924 412.641 928.272 L 412.637 928.272 C 412.753 928.257 412.861 928.234 412.962 928.206 L 412.958 928.207 C 402.405 931.172 395.829 949.142 396.919 988.382 C 396.942 989.213 396.631 990.018 396.055 990.616 C 395.479 991.215 394.687 991.558 393.857 991.568 L 393.857 991.568 L 393.833 991.568 L 396.614 989.76 C 394.569 994.222 399.535 1018.711 413.946 1066.143 L 413.946 1066.143 C 413.908 1066.018 413.858 1065.893 413.795 1065.77 L 413.794 1065.769 C 449.991 1135.924 481.161 1168.468 506.924 1168.186 L 506.924 1168.186 C 511.745 1168.133 516.46 1166.935 521.103 1164.539 L 521.103 1164.539 C 526.177 1161.921 531.188 1157.851 536.116 1152.215 L 536.116 1152.215 C 535.307 1153.141 535.399 1154.55 536.327 1155.361 L 536.299 1155.337 L 536.299 1155.337 L 536.328 1155.362 C 536.755 1155.735 537.292 1155.917 537.818 1155.912 L 537.955 1155.907 L 537.955 1155.907 L 537.819 1155.912 C 538.426 1155.905 539.038 1155.647 539.472 1155.151 L 539.473 1155.15 C 534.307 1161.059 528.873 1165.547 523.148 1168.502 L 523.148 1168.502 C 517.951 1171.183 512.538 1172.579 506.939 1172.641 L 506.939 1172.641 C 477.486 1172.964 445.266 1136.454 409.908 1067.96 L 412.692 1069.638 L 412.676 1069.638 C 411.3 1069.651 410.08 1068.756 409.68 1067.439 L 409.68 1067.439 C 395.912 1022.126 389.338 994.551 392.566 987.884 L 392.566 987.884 C 392.625 987.76 392.692 987.634 392.763 987.509 L 392.764 987.509 C 392.558 987.866 392.456 988.273 392.467 988.684 L 392.467 988.684 C 391.429 952.003 396.572 928.277 411.656 923.942 L 412.547 930.021 L 412.524 930.021 C 410.882 930.04 409.51 928.775 409.396 927.137 C 409.282 925.499 410.465 924.056 412.093 923.847 L 412.093 923.847 C 414.9 923.485 417.652 923.289 420.342 923.259 L 420.342 923.259 C 455.816 922.87 478.423 951.237 489.404 1004.297 L 489.404 1004.298 C 489.184 1003.232 488.242 1002.508 487.196 1002.52 L 487.196 1002.52 C 487.053 1002.521 486.907 1002.537 486.766 1002.566 L 486.77 1002.566 C 485.563 1002.815 484.789 1003.995 485.038 1005.201 L 485.038 1005.201 C 473.999 951.861 452.076 927.364 420.483 927.71 C 418.797 927.729 417.406 926.397 417.35 924.713 C 417.295 923.028 418.595 921.608 420.278 921.515 L 420.278 921.515 L 420.278 921.515 L 420.278 921.515 L 420.278 921.515 L 420.278 921.515 Z  M 420.619 927.706 L 420.619 927.706 L 420.619 927.706 L 420.619 927.706 L 420.619 927.706 L 420.415 921.511 C 456.769 921.112 479.929 949.922 491.109 1003.944 L 491.11 1003.944 C 491.554 1006.092 490.173 1008.193 488.025 1008.637 L 488.029 1008.637 C 487.775 1008.689 487.518 1008.717 487.264 1008.72 L 487.264 1008.72 C 485.401 1008.74 483.724 1007.447 483.333 1005.553 L 483.333 1005.554 C 472.484 953.133 451.096 929.122 420.41 929.459 L 420.41 929.459 C 417.976 929.486 415.466 929.664 412.884 929.996 L 412.454 923.822 L 412.477 923.821 C 414.029 923.804 415.355 924.936 415.58 926.471 C 415.805 928.007 414.86 929.472 413.369 929.901 L 413.369 929.901 C 403.73 932.671 397.576 950.062 398.665 988.509 L 398.665 988.51 C 398.685 989.242 398.503 989.967 398.137 990.603 L 398.137 990.602 C 398.144 990.59 398.146 990.585 398.146 990.586 L 398.146 990.586 C 396.298 994.404 401.25 1018.365 415.612 1065.637 L 412.616 1063.438 L 412.632 1063.438 C 413.803 1063.427 414.88 1064.076 415.417 1065.116 L 415.417 1065.116 C 451.264 1134.556 481.873 1166.715 506.871 1166.441 L 506.871 1166.441 C 511.445 1166.391 515.914 1165.257 520.305 1162.992 L 520.305 1162.992 C 525.18 1160.476 530.021 1156.541 534.805 1151.069 L 534.805 1151.069 C 535.579 1150.184 536.665 1149.724 537.75 1149.712 L 537.614 1149.717 L 537.614 1149.717 L 537.752 1149.712 C 538.69 1149.702 539.644 1150.026 540.407 1150.693 L 540.436 1150.718 L 540.436 1150.718 L 540.408 1150.693 C 542.06 1152.138 542.226 1154.646 540.784 1156.296 L 540.784 1156.296 C 535.47 1162.373 529.866 1166.995 523.946 1170.049 L 523.946 1170.049 C 518.501 1172.859 512.84 1174.321 506.992 1174.385 L 506.992 1174.385 C 476.791 1174.717 444.015 1137.865 408.284 1068.612 L 408.284 1068.611 C 408.172 1068.394 408.083 1068.172 408.014 1067.945 L 408.014 1067.945 C 394.149 1022.311 387.66 994.416 390.978 987.177 C 391.478 986.087 392.561 985.383 393.76 985.369 L 393.76 985.369 L 393.784 985.368 L 390.722 988.554 C 389.676 950.923 395.3 926.728 411.281 922.238 L 411.277 922.239 C 411.459 922.188 411.652 922.147 411.85 922.122 L 411.847 922.122 C 414.764 921.746 417.624 921.541 420.415 921.511 C 422.1 921.492 423.491 922.824 423.547 924.508 C 423.603 926.193 422.302 927.613 420.619 927.706 L 420.619 927.706 L 420.619 927.706 L 420.619 927.706 L 420.619 927.706 Z " fill="rgb(0,0,0)"></path>
                      <path d=" M 1278.542 940.789 L 1278.542 940.789 L 1278.542 940.789 L 1278.542 940.789 L 1278.542 940.789 L 1278.619 940.786 C 1278.695 940.783 1278.792 940.783 1278.893 940.787 L 1278.88 940.786 C 1281.072 940.862 1282.787 942.701 1282.711 944.891 L 1282.711 944.892 L 1282.509 950.731 L 1279.24 947.529 L 1279.242 947.529 C 1280.079 947.483 1280.9 947.778 1281.516 948.348 C 1282.132 948.917 1282.491 949.712 1282.511 950.551 L 1282.511 950.551 C 1282.518 950.856 1282.532 951.005 1282.536 951.036 L 1282.535 951.034 C 1282.544 951.103 1282.528 950.895 1282.418 950.599 L 1279.409 948.579 L 1279.414 948.579 C 1280.567 948.541 1281.646 949.146 1282.215 950.149 L 1282.215 950.149 C 1282.31 950.317 1282.391 950.489 1282.461 950.668 L 1279.463 948.693 L 1279.472 948.693 C 1280.312 948.663 1281.128 948.976 1281.732 949.559 L 1281.734 949.56 C 1281.216 949.061 1280.697 948.956 1280.878 949.011 L 1280.88 949.011 C 1280.878 949.011 1280.896 949.016 1280.92 949.022 L 1280.067 948.932 L 1280.09 948.931 C 1280.161 948.929 1280.231 948.929 1280.302 948.931 L 1280.302 948.931 C 1282.666 949.013 1284.677 949.166 1285.893 949.531 L 1285.891 949.531 C 1286.024 949.57 1286.169 949.619 1286.315 949.676 L 1285.081 949.464 L 1285.098 949.464 C 1285.418 949.453 1285.738 949.492 1286.045 949.579 L 1286.045 949.579 C 1286.88 949.815 1287.698 950.188 1288.427 950.75 L 1288.427 950.75 C 1288.999 951.192 1289.486 951.727 1289.87 952.347 L 1287.063 950.883 L 1287.063 950.882 C 1288.175 950.821 1289.235 951.362 1289.839 952.298 L 1289.839 952.298 C 1290.924 953.981 1291.627 955.796 1291.868 957.726 L 1289.007 955.018 L 1289.007 955.018 C 1290.442 955.117 1291.619 956.191 1291.852 957.61 L 1291.852 957.61 C 1291.959 958.269 1292.019 958.922 1292.017 959.569 L 1292.017 959.607 L 1292.017 959.631 L 1292.015 959.679 L 1291.878 964.191 L 1288.67 960.998 L 1288.679 960.998 C 1290.285 960.941 1291.668 962.121 1291.865 963.716 L 1291.865 963.716 C 1291.87 963.755 1291.874 963.778 1291.874 963.779 L 1291.874 963.776 C 1291.894 963.896 1291.86 963.566 1291.64 963.151 L 1288.788 961.505 L 1288.801 961.505 C 1289.733 961.471 1290.63 961.858 1291.245 962.559 L 1291.245 962.559 C 1292.498 963.988 1292.581 966.149 1291.344 967.676 L 1291.344 967.676 C 1290.589 968.608 1289.494 969.108 1288.39 969.145 L 1288.392 969.145 C 1287.472 969.176 1286.531 968.887 1285.76 968.262 L 1285.76 968.262 C 1285.256 967.855 1284.885 967.366 1284.62 966.865 C 1283.83 965.369 1284.386 963.515 1285.869 962.7 C 1287.352 961.885 1289.215 962.411 1290.054 963.88 L 1290.054 963.88 L 1290.054 963.881 L 1284.266 965.588 L 1284.266 965.588 L 1284.622 966.868 C 1284.44 966.525 1284.314 966.183 1284.222 965.87 L 1284.222 965.868 C 1284.088 965.411 1284.009 964.944 1283.961 964.493 C 1283.953 964.422 1283.948 964.351 1283.945 964.279 L 1283.945 964.279 L 1283.941 964.16 C 1283.938 964.09 1283.938 964.019 1283.94 963.949 L 1283.94 963.949 L 1284.078 959.438 L 1286.962 962.625 L 1286.961 962.625 C 1285.339 962.512 1284.079 961.165 1284.076 959.539 L 1284.076 959.539 C 1284.075 959.377 1284.059 959.159 1284.011 958.87 L 1284.003 958.818 L 1283.998 958.782 L 1283.969 958.497 L 1283.968 958.496 L 1283.988 958.71 C 1283.908 958.073 1283.663 957.372 1283.159 956.592 L 1283.147 956.574 L 1283.138 956.56 L 1282.657 955.064 L 1282.657 955.064 L 1283.116 956.524 C 1283.476 957.106 1283.935 957.236 1283.889 957.222 L 1283.891 957.223 C 1283.89 957.222 1283.883 957.22 1283.872 957.217 C 1283.784 957.194 1283.698 957.168 1283.612 957.138 L 1283.612 957.138 L 1283.468 957.086 C 1283.309 957.03 1283.156 956.961 1283.009 956.88 L 1283.009 956.88 L 1283.008 956.88 L 1284.594 957.263 L 1284.587 957.263 C 1284.219 957.274 1283.851 957.219 1283.502 957.101 L 1283.501 957.1 C 1283.559 957.12 1283.595 957.129 1283.589 957.127 L 1283.588 957.127 C 1283.293 957.056 1282.193 956.94 1279.916 956.864 L 1279.916 956.864 C 1279.657 956.856 1279.396 956.821 1279.142 956.762 L 1279.143 956.762 C 1278.635 956.643 1278.119 956.476 1277.622 956.235 L 1277.621 956.234 C 1276.955 955.912 1276.288 955.441 1275.752 954.758 C 1274.953 953.741 1274.87 952.334 1275.543 951.23 C 1276.216 950.125 1277.505 949.555 1278.775 949.799 L 1278.775 949.799 L 1278.775 949.799 L 1275.75 954.755 C 1275.606 954.571 1275.472 954.373 1275.352 954.162 C 1274.817 953.218 1274.814 952.063 1275.344 951.116 C 1275.875 950.17 1276.861 949.569 1277.946 949.534 L 1277.946 949.534 L 1277.963 949.533 L 1275.583 954.49 C 1275.308 954.122 1275.112 953.736 1274.974 953.365 L 1280.975 952.113 L 1280.975 952.114 C 1281.059 953.644 1280.012 955.007 1278.511 955.319 C 1277.01 955.631 1275.506 954.799 1274.973 953.362 L 1274.973 953.363 C 1274.88 953.11 1274.815 952.868 1274.769 952.655 L 1274.768 952.653 C 1274.634 952.034 1274.585 951.347 1274.571 950.678 L 1274.57 950.596 L 1274.57 950.548 L 1274.572 950.457 L 1274.774 944.617 L 1274.774 944.619 C 1274.846 942.515 1276.539 940.855 1278.609 940.786 L 1278.542 940.789 L 1278.542 940.789 L 1278.542 940.789 L 1278.542 940.789 L 1278.542 940.789 Z  M 1278.883 946.979 L 1278.883 946.979 L 1278.883 946.979 L 1278.883 946.979 L 1278.883 946.979 L 1278.817 946.982 C 1279.98 946.943 1280.93 946.013 1280.971 944.83 L 1280.971 944.832 L 1280.769 950.671 L 1280.77 950.58 L 1280.77 950.629 L 1280.769 950.547 C 1280.78 951.057 1280.816 951.287 1280.827 951.337 L 1280.827 951.335 C 1280.828 951.344 1280.818 951.292 1280.786 951.206 L 1274.784 952.455 L 1274.784 952.454 C 1274.7 950.924 1275.746 949.562 1277.246 949.249 C 1278.746 948.936 1280.25 949.766 1280.785 951.202 L 1280.785 951.202 C 1280.746 951.097 1280.673 950.943 1280.546 950.773 C 1281.239 951.698 1281.359 952.931 1280.86 953.973 C 1280.36 955.014 1279.322 955.692 1278.167 955.73 L 1278.167 955.73 L 1278.15 955.73 L 1280.744 951.102 C 1280.706 951.035 1280.67 950.982 1280.63 950.931 C 1281.428 951.949 1281.51 953.355 1280.836 954.458 C 1280.162 955.562 1278.875 956.132 1277.605 955.888 L 1277.605 955.888 L 1277.605 955.888 L 1280.628 950.928 C 1280.468 950.725 1280.322 950.654 1280.324 950.655 L 1280.324 950.655 C 1280.329 950.657 1280.395 950.688 1280.555 950.725 L 1280.555 950.725 C 1280.412 950.692 1280.266 950.672 1280.12 950.668 L 1280.121 950.668 C 1282.251 950.738 1284.014 950.853 1285.037 951.099 L 1285.036 951.098 C 1285.172 951.131 1285.328 951.173 1285.493 951.229 L 1284.407 951.066 L 1284.414 951.066 C 1284.967 951.05 1285.515 951.182 1286 951.449 L 1286 951.449 L 1286 951.45 L 1285.542 951.243 L 1285.686 951.295 L 1285.427 951.215 C 1285.541 951.245 1285.653 951.277 1285.768 951.313 L 1285.77 951.314 C 1286.613 951.583 1287.688 952.13 1288.389 953.263 L 1288.848 954.723 L 1288.848 954.723 L 1288.367 953.228 L 1288.376 953.243 L 1288.365 953.225 C 1289.306 954.68 1289.929 956.258 1290.14 957.94 L 1290.159 958.155 L 1290.159 958.156 L 1290.13 957.87 L 1290.135 957.905 L 1290.127 957.852 C 1290.22 958.413 1290.274 958.968 1290.276 959.525 L 1287.39 956.439 L 1287.391 956.44 C 1289.052 956.555 1290.325 957.962 1290.275 959.626 L 1290.275 959.626 L 1290.137 964.138 L 1290.137 963.927 L 1290.141 964.046 L 1290.126 963.833 C 1290.147 964.032 1290.17 964.121 1290.174 964.133 L 1290.173 964.132 C 1290.175 964.137 1290.159 964.075 1290.101 963.967 L 1290.457 965.247 L 1290.457 965.247 C 1290.893 965.463 1290.339 967.318 1288.855 968.134 C 1287.372 968.95 1285.508 968.424 1284.669 966.954 L 1284.669 966.954 L 1284.669 966.954 L 1290.102 963.97 C 1290.026 963.824 1289.887 963.627 1289.662 963.444 L 1289.662 963.444 C 1289.23 963.094 1288.699 962.931 1288.183 962.948 L 1288.184 962.948 C 1287.567 962.969 1286.951 963.25 1286.527 963.773 L 1286.527 963.773 C 1285.831 964.632 1285.879 965.844 1286.584 966.647 L 1289.027 967.701 L 1289.014 967.701 C 1287.826 967.744 1286.719 967.105 1286.162 966.055 L 1286.162 966.055 C 1285.883 965.529 1285.793 965 1285.765 964.838 L 1285.765 964.836 C 1285.744 964.718 1285.726 964.588 1285.712 964.476 L 1288.898 967.194 L 1288.889 967.194 C 1288.032 967.225 1287.2 966.899 1286.593 966.294 C 1285.985 965.689 1285.655 964.859 1285.681 964.002 L 1285.681 964.002 L 1285.818 959.491 L 1285.817 959.539 L 1285.818 959.515 L 1285.817 959.552 C 1285.818 959.296 1285.794 958.985 1285.733 958.611 L 1288.578 961.203 L 1288.577 961.203 C 1287.099 961.1 1285.9 959.965 1285.716 958.495 L 1285.716 958.495 C 1285.602 957.587 1285.266 956.647 1284.628 955.658 L 1287.404 957.073 L 1287.404 957.073 C 1286.271 957.136 1285.194 956.574 1284.597 955.608 L 1284.597 955.608 C 1284.612 955.634 1284.633 955.653 1284.64 955.659 L 1284.64 955.659 C 1284.644 955.662 1284.574 955.606 1284.358 955.545 L 1285.305 955.66 L 1285.288 955.661 C 1284.867 955.675 1284.447 955.603 1284.055 955.449 L 1284.055 955.449 C 1284.092 955.464 1284.115 955.471 1284.113 955.47 L 1284.112 955.47 C 1283.794 955.374 1282.602 955.214 1280.089 955.128 L 1280.301 955.128 L 1280.277 955.129 C 1279.99 955.138 1279.703 955.108 1279.424 955.039 L 1279.424 955.039 C 1279.314 955.011 1279.195 954.979 1279.082 954.945 L 1279.084 954.946 C 1278.866 954.88 1278.079 954.65 1277.428 954.022 L 1279.69 954.889 L 1279.68 954.889 C 1278.363 954.936 1277.16 954.143 1276.683 952.915 L 1276.683 952.915 C 1276.722 953.015 1276.767 953.112 1276.82 953.206 L 1279.621 954.776 L 1279.615 954.776 C 1278.282 954.82 1277.07 954.007 1276.606 952.756 L 1276.606 952.756 C 1276.455 952.349 1276.404 951.967 1276.383 951.8 L 1276.383 951.798 C 1276.341 951.459 1276.322 951.074 1276.313 950.697 L 1279.583 953.719 L 1279.581 953.719 C 1278.712 953.767 1277.863 953.448 1277.241 952.838 C 1276.619 952.229 1276.283 951.387 1276.313 950.517 L 1276.313 950.517 L 1276.515 944.677 L 1276.515 944.678 C 1276.472 945.907 1277.435 946.94 1278.666 946.982 L 1278.653 946.982 C 1278.718 946.984 1278.765 946.984 1278.807 946.983 L 1278.883 946.979 L 1278.883 946.979 L 1278.883 946.979 L 1278.883 946.979 Z  M 1288.872 909.11 L 1288.872 909.11 L 1288.872 909.11 L 1288.872 909.11 L 1288.872 909.11 L 1288.938 909.107 C 1290.821 909.043 1292.629 909.422 1294.324 910.237 L 1294.324 910.237 C 1297.983 911.996 1300.724 915.558 1302.818 920.173 L 1299.888 918.356 L 1299.912 918.355 C 1300.841 918.323 1301.736 918.71 1302.349 919.408 L 1302.349 919.408 C 1314.223 932.943 1308.654 978.047 1289.224 1050.834 L 1289.224 1050.834 C 1288.76 1052.57 1287.22 1053.721 1285.52 1053.778 L 1285.524 1053.778 C 1285.132 1053.792 1284.744 1053.747 1284.365 1053.646 L 1284.363 1053.646 C 1282.244 1053.08 1280.985 1050.905 1281.551 1048.786 L 1281.551 1048.786 C 1301.442 974.271 1305.106 934.235 1296.295 924.551 L 1296.296 924.552 C 1296.015 924.244 1295.784 923.891 1295.614 923.514 L 1295.613 923.512 C 1293.943 919.811 1292.268 918.06 1290.883 917.394 L 1290.995 917.445 L 1290.995 917.445 L 1290.883 917.394 C 1290.285 917.107 1289.663 916.974 1288.972 916.998 L 1288.972 916.998 C 1280.936 917.267 1266.352 935.978 1245.451 979.445 L 1245.45 979.446 C 1244.786 980.826 1243.429 981.645 1242.004 981.692 L 1242.005 981.692 C 1241.382 981.713 1240.745 981.588 1240.15 981.301 L 1240.152 981.302 C 1238.176 980.352 1237.344 977.98 1238.294 976.003 L 1238.294 976.003 C 1258.541 933.896 1275.328 909.563 1288.939 909.107 L 1288.872 909.11 L 1288.872 909.11 L 1288.872 909.11 L 1288.872 909.11 L 1288.872 909.11 Z  M 1289.213 915.3 L 1289.213 915.3 L 1289.213 915.3 L 1289.213 915.3 L 1289.213 915.3 L 1289.146 915.303 C 1280.217 915.602 1265.035 934.697 1243.882 978.69 L 1243.882 978.69 C 1244.416 977.58 1243.948 976.248 1242.839 975.715 L 1242.841 975.716 C 1242.508 975.555 1242.148 975.484 1241.797 975.496 L 1241.799 975.496 C 1241.002 975.522 1240.237 975.981 1239.864 976.756 L 1239.864 976.758 C 1259.789 935.319 1276.012 911.229 1288.764 910.801 L 1288.764 910.801 C 1290.442 910.745 1292.058 911.08 1293.57 911.807 L 1293.458 911.755 L 1293.458 911.756 L 1293.57 911.807 C 1296.896 913.406 1299.361 916.745 1301.264 920.962 L 1301.264 920.961 C 1301.168 920.749 1301.039 920.552 1300.88 920.378 L 1300.881 920.379 C 1312.577 933.235 1306.879 977.945 1287.541 1050.385 L 1287.541 1050.385 C 1287.858 1049.195 1287.152 1047.974 1285.962 1047.656 L 1285.961 1047.655 C 1285.753 1047.6 1285.532 1047.574 1285.309 1047.582 L 1285.313 1047.582 C 1284.36 1047.614 1283.494 1048.258 1283.233 1049.235 L 1283.233 1049.235 C 1303.182 974.507 1306.806 933.89 1297.689 923.497 L 1300.126 924.551 L 1300.102 924.552 C 1298.848 924.595 1297.691 923.878 1297.172 922.735 L 1297.172 922.735 C 1295.357 918.735 1293.422 916.683 1291.638 915.825 L 1291.638 915.825 C 1290.848 915.445 1290.033 915.273 1289.147 915.303 L 1289.213 915.3 L 1289.213 915.3 L 1289.213 915.3 L 1289.213 915.3 Z  M 1246.264 1002.588 L 1246.264 1002.588 L 1246.264 1002.588 L 1246.264 1002.588 L 1246.264 1002.588 L 1246.331 1002.585 C 1248.119 1002.525 1249.786 1003.684 1250.289 1005.489 L 1250.288 1005.489 C 1252.811 1014.55 1252.126 1023.371 1248.22 1031.814 L 1245.309 1027.414 L 1245.332 1027.413 C 1246.278 1027.383 1247.186 1027.787 1247.797 1028.511 C 1248.408 1029.234 1248.656 1030.197 1248.468 1031.125 L 1248.468 1031.125 C 1246.621 1040.278 1235.414 1049.458 1217.651 1058.975 L 1217.651 1058.975 C 1217.101 1059.269 1216.505 1059.423 1215.91 1059.444 L 1215.909 1059.444 C 1214.454 1059.492 1213.017 1058.732 1212.277 1057.352 L 1212.276 1057.351 C 1211.239 1055.416 1211.969 1053.011 1213.899 1051.976 L 1213.827 1052.016 L 1213.828 1052.015 L 1213.9 1051.975 C 1231.82 1042.374 1239.73 1034.764 1240.705 1029.443 L 1240.705 1029.441 C 1240.765 1029.117 1240.866 1028.796 1241.007 1028.49 L 1241.008 1028.49 C 1244.111 1021.789 1244.659 1014.878 1242.638 1007.618 L 1242.638 1007.618 C 1242.05 1005.506 1243.286 1003.316 1245.398 1002.729 L 1245.395 1002.729 C 1245.706 1002.643 1246.019 1002.596 1246.331 1002.585 L 1246.264 1002.588 L 1246.264 1002.588 L 1246.264 1002.588 L 1246.264 1002.588 L 1246.264 1002.588 Z  M 1246.605 1008.779 L 1246.605 1008.779 L 1246.605 1008.779 L 1246.605 1008.779 L 1246.605 1008.779 L 1246.539 1008.781 C 1246.713 1008.776 1246.892 1008.749 1247.064 1008.7 L 1247.061 1008.701 C 1248.247 1008.371 1248.941 1007.142 1248.611 1005.956 L 1248.611 1005.956 C 1251.02 1014.609 1250.366 1023.036 1246.634 1031.095 L 1246.634 1031.095 C 1246.714 1030.922 1246.77 1030.742 1246.803 1030.562 L 1246.804 1030.56 C 1245.206 1039.277 1234.189 1048.139 1216.828 1057.44 L 1216.901 1057.4 L 1216.901 1057.4 L 1216.829 1057.44 C 1217.912 1056.859 1218.323 1055.509 1217.74 1054.421 L 1217.739 1054.42 C 1217.323 1053.645 1216.515 1053.22 1215.702 1053.247 L 1215.701 1053.247 C 1215.365 1053.258 1215.029 1053.346 1214.723 1053.51 L 1214.723 1053.51 C 1232.913 1043.764 1241.201 1035.79 1242.391 1029.898 L 1245.527 1033.61 L 1245.504 1033.61 C 1244.429 1033.644 1243.414 1033.119 1242.821 1032.222 C 1242.228 1031.326 1242.141 1030.186 1242.593 1029.21 L 1242.593 1029.21 C 1245.871 1022.125 1246.45 1014.818 1244.316 1007.152 L 1244.316 1007.151 C 1244.598 1008.167 1245.535 1008.815 1246.539 1008.781 L 1246.605 1008.779 L 1246.605 1008.779 L 1246.605 1008.779 L 1246.605 1008.779 Z  M 1255.257 958.667 L 1255.257 958.667 L 1255.257 958.667 L 1255.257 958.667 L 1255.257 958.667 L 1255.322 958.664 C 1255.76 958.649 1256.194 958.694 1256.616 958.796 L 1256.616 958.796 C 1257.701 959.059 1258.561 959.66 1259.206 960.356 L 1259.206 960.356 C 1259.742 960.934 1260.154 961.598 1260.478 962.269 L 1260.478 962.269 C 1262.524 966.494 1263.731 977.172 1264.475 993.206 L 1261.273 990.251 L 1261.296 990.25 C 1262.31 990.216 1263.276 990.679 1263.884 991.492 L 1263.884 991.492 C 1270.961 1000.957 1275.501 1007.835 1276.01 1011.231 L 1276.01 1011.229 C 1276.033 1011.382 1276.05 1011.536 1276.06 1011.693 L 1272.862 1008.804 L 1272.885 1008.804 C 1274.257 1008.757 1275.496 1009.618 1275.931 1010.92 L 1275.931 1010.92 C 1278.654 1019.069 1277.427 1030.068 1273.048 1043.457 L 1273.048 1043.457 C 1272.945 1043.771 1272.801 1044.076 1272.618 1044.362 L 1272.618 1044.363 C 1259.027 1065.595 1239.977 1077.351 1215.666 1079.377 L 1215.656 1079.378 C 1215.598 1079.383 1215.53 1079.386 1215.471 1079.389 L 1215.469 1079.389 C 1213.366 1079.459 1211.557 1077.87 1211.379 1075.751 L 1211.38 1075.752 C 1211.196 1073.564 1212.822 1071.646 1215.004 1071.463 L 1215.093 1071.457 L 1215.094 1071.457 L 1215.007 1071.463 C 1236.675 1069.657 1253.549 1059.334 1265.827 1040.241 C 1266.377 1039.386 1267.312 1038.854 1268.329 1038.82 L 1268.329 1038.82 L 1268.352 1038.819 L 1265.511 1040.954 C 1269.695 1028.152 1270.356 1019.098 1268.347 1013.284 L 1268.347 1013.285 C 1268.222 1012.922 1268.152 1012.55 1268.134 1012.176 L 1268.134 1012.174 C 1268.139 1012.275 1268.151 1012.331 1268.15 1012.325 L 1268.15 1012.325 C 1267.856 1010.955 1264.67 1005.788 1257.341 996.003 L 1257.341 996.003 C 1256.865 995.367 1256.59 994.603 1256.553 993.807 L 1256.553 993.805 C 1255.794 977.312 1254.594 968.338 1253.331 965.729 L 1253.33 965.728 C 1253.268 965.6 1253.236 965.547 1253.231 965.539 L 1253.231 965.538 C 1253.045 965.239 1253.441 966.103 1254.543 966.457 L 1255.597 966.604 L 1255.574 966.605 L 1256.421 966.457 C 1256.613 966.395 1256.753 966.327 1256.793 966.308 L 1255.264 960.426 L 1255.264 960.426 C 1256.739 960.345 1258.067 961.316 1258.436 962.746 C 1258.806 964.177 1258.114 965.669 1256.784 966.312 L 1256.784 966.312 C 1256.274 966.559 1255.73 966.688 1255.191 966.706 L 1255.188 966.706 C 1253.675 966.757 1252.189 965.931 1251.481 964.467 L 1251.482 964.469 C 1250.526 962.495 1251.351 960.12 1253.323 959.164 L 1254.505 958.859 L 1254.505 958.859 L 1253.325 959.164 C 1253.843 958.913 1254.411 958.742 1255.021 958.684 L 1255.025 958.683 C 1255.113 958.675 1255.226 958.667 1255.33 958.664 L 1255.257 958.667 L 1255.257 958.667 L 1255.257 958.667 L 1255.257 958.667 L 1255.257 958.667 Z  M 1255.598 964.857 L 1255.598 964.857 L 1255.598 964.857 L 1255.598 964.857 L 1255.598 964.857 L 1255.525 964.861 C 1255.568 964.859 1255.586 964.858 1255.613 964.855 L 1255.616 964.855 C 1255.79 964.838 1255.931 964.79 1256.027 964.744 C 1255.657 964.923 1255.256 965.027 1254.846 965.049 L 1254.846 965.049 L 1254.846 965.049 L 1256.028 964.743 C 1257.135 964.207 1257.598 962.874 1257.061 961.765 L 1257.062 961.767 C 1256.663 960.942 1255.827 960.482 1254.982 960.51 L 1254.978 960.51 C 1254.675 960.52 1254.369 960.593 1254.085 960.73 L 1255.605 966.617 L 1255.605 966.617 C 1254.132 966.698 1252.806 965.729 1252.434 964.301 C 1252.063 962.873 1252.75 961.381 1254.076 960.735 L 1254.076 960.735 C 1254.144 960.702 1254.305 960.625 1254.517 960.556 C 1254.791 960.468 1255.076 960.418 1255.364 960.408 L 1255.364 960.408 L 1255.387 960.408 C 1255.744 960.396 1256.101 960.445 1256.441 960.555 L 1256.441 960.555 C 1257.752 960.976 1258.397 962.105 1258.496 962.265 L 1258.496 962.264 C 1258.652 962.516 1258.789 962.775 1258.911 963.028 L 1258.911 963.027 C 1260.863 967.06 1262.014 977.608 1262.746 993.52 L 1262.746 993.518 C 1262.725 993.072 1262.571 992.644 1262.304 992.287 L 1262.303 992.286 C 1269.17 1001.454 1273.556 1007.971 1274.212 1011.023 L 1274.212 1011.023 C 1274.267 1011.28 1274.312 1011.57 1274.327 1011.883 L 1274.327 1011.881 C 1274.317 1011.674 1274.278 1011.464 1274.207 1011.26 L 1274.207 1011.26 C 1276.906 1019.07 1275.686 1029.778 1271.404 1042.88 C 1271 1044.118 1269.864 1044.971 1268.563 1045.015 L 1268.563 1045.015 L 1268.54 1045.016 L 1271.042 1043.595 C 1257.768 1064.236 1239.195 1075.669 1215.522 1077.642 L 1215.435 1077.648 L 1215.434 1077.648 L 1215.523 1077.642 C 1216.747 1077.539 1217.661 1076.463 1217.558 1075.233 L 1217.558 1075.234 C 1217.458 1074.044 1216.443 1073.153 1215.261 1073.192 L 1215.259 1073.192 C 1215.221 1073.193 1215.199 1073.195 1215.162 1073.198 L 1215.152 1073.199 C 1237.452 1071.34 1254.8 1060.698 1267.396 1041.02 L 1267.396 1041.02 C 1267.292 1041.183 1267.212 1041.354 1267.155 1041.529 L 1267.155 1041.529 C 1271.423 1028.483 1272.123 1019.088 1270.05 1012.884 L 1273.096 1015 L 1273.073 1015.001 C 1271.402 1015.058 1269.988 1013.78 1269.875 1012.112 L 1269.875 1012.112 C 1269.876 1012.132 1269.878 1012.149 1269.878 1012.15 L 1269.878 1012.148 C 1269.661 1010.701 1266.508 1005.354 1258.919 995.205 L 1261.507 996.447 L 1261.483 996.447 C 1259.787 996.505 1258.36 995.188 1258.281 993.493 L 1258.281 993.493 C 1257.512 976.923 1256.259 967.782 1254.898 964.97 L 1254.898 964.97 C 1254.76 964.686 1254.669 964.581 1254.661 964.572 L 1254.66 964.572 C 1254.666 964.578 1254.827 964.742 1255.159 964.823 L 1255.158 964.822 C 1255.277 964.851 1255.405 964.865 1255.533 964.86 L 1255.598 964.857 L 1255.598 964.857 L 1255.598 964.857 L 1255.598 964.857 Z  M 1295.06 897.995 L 1295.06 897.995 L 1295.06 897.995 L 1295.06 897.995 L 1295.06 897.995 L 1295.127 897.992 C 1297.921 897.898 1300.779 897.976 1303.713 898.222 L 1303.713 898.222 C 1303.909 898.238 1304.1 898.269 1304.283 898.312 L 1304.284 898.312 C 1320.448 902.087 1327.143 926.007 1327.773 963.648 L 1324.582 960.601 L 1324.605 960.601 C 1325.8 960.565 1326.909 961.22 1327.455 962.283 L 1327.455 962.283 C 1331.092 969.368 1325.85 997.523 1314.028 1043.73 L 1314.029 1043.728 C 1313.969 1043.963 1313.888 1044.189 1313.79 1044.403 L 1313.788 1044.408 C 1281.172 1115.181 1250.068 1153.454 1219.883 1154.466 L 1219.883 1154.466 C 1214.038 1154.662 1208.317 1153.453 1202.752 1150.888 L 1202.752 1150.888 C 1196.703 1148.101 1190.898 1143.733 1185.32 1137.898 L 1185.32 1137.898 C 1183.805 1136.314 1183.86 1133.801 1185.446 1132.285 L 1187.588 1134.525 L 1187.588 1134.525 L 1185.447 1132.284 C 1186.179 1131.584 1187.118 1131.218 1188.056 1131.186 L 1188.057 1131.186 C 1189.141 1131.15 1190.248 1131.561 1191.06 1132.411 L 1191.06 1132.411 C 1196.082 1137.664 1201.094 1141.381 1206.076 1143.676 L 1206.076 1143.676 C 1210.564 1145.744 1215.078 1146.678 1219.65 1146.525 L 1219.65 1146.525 C 1244.636 1145.687 1273.784 1112.198 1306.507 1041.232 C 1306.997 1040.171 1308.042 1039.475 1309.21 1039.433 L 1309.21 1039.433 L 1309.226 1039.432 L 1306.335 1041.762 C 1318.581 993.898 1322.462 969.739 1320.446 966.008 L 1320.446 966.008 C 1320.444 966.004 1320.451 966.016 1320.457 966.026 L 1320.455 966.024 C 1320.063 965.407 1319.847 964.691 1319.835 963.954 L 1319.835 963.956 C 1319.213 925.499 1312.291 908.399 1302.539 906.06 C 1301.029 905.698 1300.02 904.275 1300.178 902.731 C 1300.335 901.186 1301.611 899.997 1303.163 899.947 L 1303.163 899.947 L 1303.187 899.946 L 1303.027 906.134 C 1300.432 905.917 1297.919 905.85 1295.485 905.932 L 1295.485 905.932 C 1264.815 906.96 1244.516 931.899 1236.009 984.75 L 1236.009 984.749 C 1235.702 986.659 1234.086 988.025 1232.223 988.087 L 1232.225 988.087 C 1231.969 988.096 1231.711 988.08 1231.455 988.039 L 1231.458 988.039 C 1229.294 987.691 1227.82 985.653 1228.169 983.488 L 1228.169 983.488 C 1236.935 929.022 1258.791 899.21 1295.127 897.992 L 1295.06 897.995 L 1295.06 897.995 L 1295.06 897.995 L 1295.06 897.995 L 1295.06 897.995 Z  M 1295.401 904.185 L 1295.401 904.185 L 1295.401 904.185 L 1295.401 904.185 L 1295.401 904.185 L 1295.335 904.188 C 1263.758 905.247 1242.946 930.696 1234.29 984.473 L 1234.29 984.473 C 1234.485 983.257 1233.659 982.113 1232.442 981.918 L 1232.446 981.918 C 1232.303 981.895 1232.158 981.886 1232.013 981.891 L 1232.015 981.891 C 1230.969 981.926 1230.06 982.692 1229.888 983.765 L 1229.888 983.765 C 1238.499 930.268 1259.822 900.924 1295.278 899.735 L 1295.278 899.735 C 1297.968 899.645 1300.721 899.719 1303.544 899.955 C 1305.181 900.092 1306.427 901.482 1306.385 903.124 C 1306.342 904.766 1305.027 906.09 1303.385 906.143 L 1303.385 906.143 L 1303.361 906.144 L 1303.985 900.031 C 1319.247 903.691 1325.44 927.165 1326.034 963.856 L 1326.034 963.858 C 1326.028 963.443 1325.906 963.041 1325.686 962.696 L 1325.685 962.693 C 1325.765 962.819 1325.834 962.938 1325.9 963.06 L 1325.901 963.061 C 1329.422 969.577 1324.08 997.417 1312.342 1043.298 C 1312.001 1044.63 1310.824 1045.578 1309.45 1045.628 L 1309.45 1045.628 L 1309.434 1045.629 L 1312.137 1043.829 C 1279.86 1113.827 1249.296 1151.734 1219.857 1152.721 L 1219.857 1152.721 C 1214.261 1152.908 1208.792 1151.754 1203.481 1149.307 L 1203.481 1149.307 C 1197.63 1146.611 1192.002 1142.368 1186.579 1136.695 L 1186.578 1136.695 C 1187.034 1137.172 1187.657 1137.403 1188.265 1137.382 L 1188.265 1137.382 C 1188.791 1137.365 1189.319 1137.158 1189.73 1136.767 L 1187.588 1134.525 L 1187.588 1134.525 L 1189.731 1136.766 C 1190.621 1135.914 1190.652 1134.503 1189.801 1133.614 L 1189.801 1133.614 C 1194.974 1139.024 1200.163 1142.868 1205.347 1145.258 L 1205.347 1145.258 C 1210.092 1147.444 1214.857 1148.432 1219.675 1148.27 L 1219.675 1148.27 C 1245.425 1147.407 1275.117 1113.507 1308.157 1041.813 L 1308.155 1041.817 C 1308.1 1041.937 1308.056 1042.061 1308.022 1042.195 L 1308.022 1042.193 C 1320.309 994.167 1324.181 969.482 1321.939 965.115 L 1324.789 966.798 L 1324.765 966.799 C 1323.936 966.823 1323.132 966.515 1322.532 965.942 C 1321.933 965.37 1321.587 964.581 1321.574 963.752 L 1321.574 963.752 C 1320.917 924.502 1313.549 906.843 1302.874 904.35 L 1302.874 904.35 C 1302.975 904.373 1303.083 904.391 1303.193 904.4 L 1303.194 904.4 C 1300.488 904.173 1297.871 904.103 1295.335 904.188 L 1295.401 904.185 L 1295.401 904.185 L 1295.401 904.185 L 1295.401 904.185 Z " fill="rgb(0,0,0)"></path>
                    </g>
                  </g>
                  <g id="face-color">
                    <path d=" M 806.237 389.971 Q 818.2 389.312 830.531 389.154 Q 1057.132 390.725 1158.212 499.04 Q 1203.091 539 1238.04 656.086 Q 1268.652 750.721 1260.571 826.791 L 1260.558 826.792 Q 1221.444 1021.929 1200.676 1082.371 Q 1174.522 1169.086 1144.863 1215.239 Q 1098.483 1271.134 981.328 1360.093 Q 907.105 1406.043 879.229 1407.58 Q 876.555 1407.727 874.308 1407.466 Q 812.472 1401.989 733.183 1349.073 Q 619.707 1274.409 581.202 1221.254 Q 544.458 1160.981 504.005 1045.401 Q 482.652 983.656 459.383 852.498 L 459.377 852.498 Q 452.759 806.622 456.668 760.389 Q 460.694 704.034 473.232 651.947 Q 491.495 573.386 538.694 512.175 Q 634.507 399.435 806.237 389.971 Z " fill="rgb(252,235,224)"></path>
                  </g>
                  <g id="rear-hair"></g>
                  <g id="face-lines">
                    <path d=" M 806.237 389.971 Q 818.2 389.312 830.531 389.154 Q 1057.132 390.725 1158.212 499.04 Q 1203.091 539 1238.04 656.086 Q 1268.652 750.721 1260.571 826.791 L 1260.558 826.792 Q 1221.444 1021.929 1200.676 1082.371 Q 1174.522 1169.086 1144.863 1215.239 Q 1098.483 1271.134 981.328 1360.093 Q 907.105 1406.043 879.229 1407.58 Q 876.555 1407.727 874.308 1407.466 Q 812.472 1401.989 733.183 1349.073 Q 619.707 1274.409 581.202 1221.254 Q 544.458 1160.981 504.005 1045.401 Q 482.652 983.656 459.383 852.498 L 459.377 852.498 Q 452.759 806.622 456.668 760.389 Q 460.694 704.034 473.232 651.947 Q 491.495 573.386 538.694 512.175 Q 634.507 399.435 806.237 389.971 Z  M 811.173 379.852 Q 810.485 379.89 809.796 379.93 L 787.303 381.617 Q 696.278 389.506 620.436 430.4 Q 568.681 454.904 515.243 527.393 Q 472.396 594.288 457.615 676.362 Q 438.083 788.983 449.516 844.199 L 449.511 844.199 Q 449.084 845.335 448.992 846.904 L 461.34 922.153 Q 474.424 980.184 495.401 1049.529 Q 545.372 1188.924 574.647 1230.705 Q 637.068 1301.458 736.988 1363.042 Q 823.749 1419.611 876.174 1416.721 Q 876.457 1416.706 876.74 1416.688 Q 895.671 1414.773 916.087 1406.928 Q 948.099 1394.758 986.74 1368.474 Q 1067.7 1313.382 1156.086 1216.196 Q 1180.319 1181.738 1225.058 1032.667 Q 1248.202 947.577 1267.18 838.249 L 1267.166 838.25 Q 1270.154 833.266 1270.621 828.772 L 1271.619 770.556 Q 1266.467 723.139 1254.475 678.349 Q 1229.428 588.019 1209.242 553.235 Q 1179.696 502.633 1165.387 492.072 Q 1107.62 434.081 1029.003 407.956 Q 922.252 373.731 811.173 379.852 Z " fill="rgb(0,0,0)"></path>
                  </g>
                  <g id="mouth" transform="scale(1) translate(0, 0)"><path d=" M 773.478 1200.019 Q 834.732 1213.734 868.623 1213.734 Q 902.514 1213.734 963.767 1200.019 Q 915.269 1313.164 874.623 1313.164 Q 833.977 1313.164 773.478 1200.019 Z " fill="rgb(132,60,60)"></path><path d=" M 950.048 1230.084 Q 956.827 1216.21 963.767 1200.019 Q 902.514 1213.734 868.623 1213.734 Q 834.732 1213.734 773.478 1200.019 Q 782.014 1215.983 790.154 1229.694 Q 833.892 1243.929 872.908 1244.591 Q 907.512 1245.179 950.048 1230.084 Z " fill="rgb(255,255,255)"></path><path d=" M 916.785 1285.442 Q 894.742 1313.164 874.623 1313.164 Q 854.202 1313.164 828.77 1284.604 Q 855.445 1275.491 872.908 1275.449 Q 891.533 1275.404 916.785 1285.442 Z " fill="rgb(233,113,114)"></path><path d=" M 768.576 1196.265 C 779.307 1198.733 790.073 1201.014 800.873 1203.122 C 807.988 1204.494 815.136 1205.745 822.302 1206.859 C 831.456 1208.299 840.662 1209.448 849.885 1210.288 C 856.108 1210.871 862.365 1211.162 868.623 1211.162 C 871.537 1211.162 874.451 1211.094 877.366 1210.957 C 880.914 1210.785 884.48 1210.545 888.029 1210.237 C 890.6 1210.014 893.154 1209.756 895.726 1209.465 C 898.623 1209.139 901.537 1208.779 904.435 1208.402 C 912.835 1207.271 921.218 1205.934 929.566 1204.391 C 942.458 1202.008 955.315 1199.333 968.104 1196.402 C 963.733 1206.774 959.138 1217.059 954.287 1227.225 C 950.995 1234.151 947.515 1241.008 943.881 1247.78 C 940.949 1253.231 937.881 1258.614 934.692 1263.912 C 932.104 1268.215 929.378 1272.432 926.532 1276.563 C 922.658 1282.186 918.492 1287.586 914.035 1292.746 C 910.829 1296.466 907.332 1299.946 903.595 1303.135 C 900.972 1305.364 898.212 1307.386 895.297 1309.221 C 892.949 1310.712 890.48 1311.981 887.891 1313.026 C 885.697 1313.918 883.417 1314.604 881.086 1315.084 C 878.96 1315.512 876.8 1315.735 874.623 1315.735 C 872.428 1315.735 870.234 1315.512 868.074 1315.084 C 865.64 1314.587 863.24 1313.866 860.925 1312.958 C 858.491 1312.015 856.125 1310.866 853.862 1309.564 C 851.068 1307.952 848.394 1306.169 845.822 1304.232 C 844.777 1303.444 843.765 1302.655 842.771 1301.832 C 841.674 1300.941 840.594 1300.032 839.548 1299.089 C 836.342 1296.261 833.291 1293.278 830.376 1290.158 C 826.639 1286.163 823.056 1282.015 819.61 1277.746 C 817.708 1275.363 815.822 1272.946 813.988 1270.494 C 811.913 1267.7 809.873 1264.906 807.868 1262.06 C 806.445 1260.02 805.039 1257.98 803.65 1255.906 C 802.142 1253.677 800.65 1251.414 799.176 1249.151 C 794.702 1242.243 790.399 1235.248 786.25 1228.134 C 780.13 1217.642 774.233 1207.014 768.576 1196.265 Z  M 778.399 1203.739 C 785.547 1205.299 792.713 1206.774 799.896 1208.162 C 807.079 1209.551 814.279 1210.819 821.496 1211.951 C 830.771 1213.391 840.079 1214.557 849.405 1215.414 C 855.8 1216.014 862.211 1216.305 868.623 1216.305 C 871.623 1216.305 874.623 1216.237 877.606 1216.082 C 881.24 1215.911 884.857 1215.671 888.474 1215.362 C 891.08 1215.122 893.686 1214.865 896.292 1214.574 C 899.24 1214.248 902.172 1213.888 905.103 1213.494 C 913.606 1212.362 922.075 1211.008 930.509 1209.448 C 940.161 1207.648 949.812 1205.711 959.413 1203.619 C 956.275 1210.802 953.018 1217.934 949.641 1225.014 C 946.384 1231.871 942.955 1238.66 939.355 1245.346 C 936.458 1250.729 933.441 1256.026 930.286 1261.254 C 927.749 1265.472 925.075 1269.603 922.298 1273.649 C 918.526 1279.117 914.48 1284.363 910.143 1289.386 C 907.109 1292.901 903.8 1296.192 900.252 1299.209 C 897.817 1301.284 895.246 1303.169 892.554 1304.884 C 890.463 1306.204 888.269 1307.335 885.971 1308.261 C 884.051 1309.032 882.08 1309.632 880.057 1310.044 C 878.274 1310.404 876.44 1310.592 874.623 1310.592 C 872.771 1310.592 870.92 1310.404 869.103 1310.044 C 866.943 1309.598 864.851 1308.981 862.811 1308.175 C 860.6 1307.318 858.474 1306.289 856.434 1305.106 C 853.828 1303.598 851.308 1301.935 848.908 1300.118 C 847.931 1299.381 846.971 1298.626 846.028 1297.855 C 844.982 1296.998 843.954 1296.123 842.942 1295.232 C 839.874 1292.523 836.925 1289.66 834.131 1286.66 C 830.479 1282.735 826.982 1278.706 823.622 1274.523 C 821.753 1272.192 819.902 1269.809 818.102 1267.409 C 816.062 1264.666 814.039 1261.906 812.085 1259.094 C 810.679 1257.089 809.273 1255.066 807.902 1253.043 C 806.41 1250.814 804.953 1248.586 803.496 1246.357 C 799.056 1239.517 794.787 1232.574 790.69 1225.545 C 786.49 1218.345 782.393 1211.077 778.399 1203.739 Z " fill-rule="evenodd" fill="rgb(0,0,0)"></path></g>
                  <g id="nose"><path d=" M 858.087 1043.257 Q 860.473 1089.632 859.131 1096.094 C 854.61 1117.867 836.786 1125.718 836.775 1136.018 Q 836.763 1146.346 863.602 1161.527 Q 845.025 1147.73 845.717 1136.018 C 846.249 1127.023 860.032 1115.942 863.602 1103.051 Q 869.354 1082.282 858.087 1043.257 Z " fill="rgb(0,0,0)"></path><path d=" M 888.194 1140.656 Q 878.264 1144.69 872.545 1145.294 Q 861.929 1146.415 843.482 1138.337 L 845.717 1147.613 L 863.602 1161.527 Q 871.108 1164.217 879.252 1163.981 C 893.781 1163.559 902.155 1149.882 899.372 1145.294 Q 896.964 1141.323 888.194 1140.656 Z " fill="rgb(0,0,0)" fill-opacity="0.28"></path></g>
                  <g id="eyes" transform="scale(1) translate(0, 10)"><g id="left-eye"><path d=" M 740.047 1074.386 C 726.481 1086.794 712.151 1096.733 696.978 1104.123 C 638.531 1130.475 600.142 1116.388 581.74 1061.791 C 546.517 967.257 566.923 901.43 642.887 864.24 C 671.612 855.605 695.913 864.232 715.779 890.107 C 736.143 911.08 749.5 944.031 755.774 988.885 C 755.083 1026.673 749.843 1055.176 740.047 1074.386 Z " fill="rgb(255,255,255)"></path><path d=" M 740.047 1074.386 C 750.211 1043.933 747.782 994.282 742.755 963.616 C 736.773 942.537 728.532 922.458 719.058 907.281 C 698.194 879.932 671.221 865.067 642.887 880.702 C 603.809 894.284 583.033 933.058 576.274 975.509 C 574.945 1000.948 582.017 1035.002 594.632 1063.356 C 600.132 1080.305 610.072 1099.468 617.462 1104.267 C 627.463 1110.762 637.908 1113.729 646.247 1117 C 615.643 1117 594.148 1098.604 581.74 1061.791 C 546.517 967.257 566.923 901.43 642.887 864.24 C 671.612 855.605 695.913 864.232 715.779 890.107 C 736.143 911.08 749.5 944.031 755.774 988.885 C 755.083 1026.673 749.843 1055.176 740.047 1074.386 Z " fill="rgb(0,0,0)"></path><path d=" M 732.216 933.235 C 728.224 923.683 723.795 914.869 719.058 907.281 C 698.194 879.932 671.221 865.067 642.887 880.702 C 603.809 894.284 583.033 933.058 576.274 975.51 C 591.626 944.25 612.254 919.158 646.247 911.276 C 677.805 903.958 711.138 913.712 732.216 933.235 Z " fill="rgb(0,0,0)" fill-opacity="0.2"></path><path d=" M 673.46 890.107 C 642.128 890.004 630.392 926.089 638.183 998.292 C 646.357 1052.388 663.627 1079.065 689.923 1078.254 C 716.574 1078.941 728.357 1049.175 725.2 988.885 C 722.956 922.807 705.733 889.905 673.46 890.107 Z " fill="rgb(0,0,0)"></path><g class="eye-color"><path d=" M 674.558 897.165 C 647.926 897.077 637.951 934.805 644.573 996.177 C 651.52 1042.157 666.199 1075.075 688.551 1074.386 C 692.935 1074.499 696.743 1073.259 700.013 1070.813 C 717.414 1060.265 721.74 1029.172 715.779 988.181 C 714.014 936.085 700.021 897.003 674.558 897.165 Z " fill="rgb(110,45,64)"></path></g><path d=" M 677.341 958.411 C 669.074 958.704 666.551 973.333 669.539 996.85 C 672.394 1014.445 677.45 1026.923 684.377 1026.384 C 685.739 1026.374 686.902 1025.85 687.88 1024.87 C 693.121 1020.6 693.991 1008.592 691.518 992.902 C 690.179 972.892 685.242 958.036 677.341 958.411 Z " fill="rgb(0,0,0)"></path><path d=" M 654.646 953.608 C 649.326 954.462 648.063 959.182 647.591 967.719 C 647.177 975.199 649.607 980.297 654.646 979.478 C 658.054 978.924 658.467 974.981 659.35 967.719 C 660.5 958.258 658.901 952.925 654.646 953.608 Z " fill="rgb(255,255,255)"></path><path d=" M 674.581 892.62 C 689.011 894.936 692.436 907.736 693.716 930.89 C 694.839 951.177 688.247 965.002 674.581 962.782 C 665.339 961.28 664.22 950.584 661.825 930.89 C 658.705 905.231 663.041 890.767 674.581 892.62 Z " fill="rgb(255,255,255)"></path></g><g id="right-eye"><path d=" M 995.964 1074.386 C 1009.53 1086.794 1023.86 1096.733 1039.032 1104.123 C 1097.479 1130.475 1135.869 1116.388 1154.271 1061.791 C 1189.494 967.257 1169.088 901.43 1093.124 864.24 C 1064.399 855.605 1040.097 864.232 1020.232 890.107 C 999.868 911.08 986.511 944.031 980.237 988.885 C 980.928 1026.673 986.168 1055.176 995.964 1074.386 Z " fill="rgb(255,255,255)"></path><path d=" M 995.964 1074.386 C 985.799 1043.933 988.229 994.282 993.256 963.616 C 999.237 942.537 1007.479 922.457 1016.953 907.281 C 1037.817 879.932 1064.79 865.067 1093.124 880.702 C 1132.202 894.284 1152.978 933.058 1159.737 975.51 C 1161.066 1000.948 1153.994 1035.002 1141.379 1063.356 C 1135.879 1080.305 1125.939 1099.468 1118.549 1104.267 C 1108.548 1110.762 1098.103 1113.729 1089.764 1117 C 1120.368 1117 1141.863 1098.604 1154.271 1061.791 C 1189.494 967.257 1169.088 901.43 1093.124 864.24 C 1064.399 855.605 1040.097 864.232 1020.232 890.107 C 999.868 911.08 986.511 944.031 980.237 988.885 C 980.928 1026.673 986.168 1055.176 995.964 1074.386 Z " fill="rgb(0,0,0)"></path><path d=" M 1003.795 933.235 C 1007.787 923.683 1012.216 914.869 1016.953 907.281 C 1037.817 879.932 1064.79 865.067 1093.124 880.702 C 1132.202 894.284 1152.978 933.058 1159.737 975.51 C 1144.385 944.25 1123.757 919.158 1089.764 911.276 C 1058.206 903.958 1024.873 913.712 1003.795 933.235 Z " fill="rgb(0,0,0)" fill-opacity="0.2"></path><path d=" M 1062.55 890.107 C 1093.883 890.004 1105.619 926.089 1097.827 998.292 C 1089.654 1052.388 1072.384 1079.065 1046.088 1078.254 C 1019.437 1078.941 1007.654 1049.175 1010.811 988.885 C 1013.055 922.807 1030.278 889.905 1062.55 890.107 Z " fill="rgb(0,0,0)"></path><g class="eye-color"><path d=" M 1061.453 897.165 C 1088.085 897.077 1098.06 934.805 1091.438 996.177 C 1084.491 1042.157 1069.811 1075.075 1047.46 1074.386 C 1043.076 1074.499 1039.268 1073.259 1035.998 1070.813 C 1018.597 1060.265 1014.271 1029.172 1020.232 988.181 C 1021.997 936.085 1035.99 897.003 1061.453 897.165 Z " fill="rgb(110,45,64)"></path></g><path d=" M 1058.67 958.411 C 1066.937 958.704 1069.46 973.333 1066.472 996.85 C 1063.617 1014.445 1058.561 1026.923 1051.634 1026.384 C 1050.272 1026.374 1049.109 1025.85 1048.131 1024.87 C 1042.89 1020.6 1042.02 1008.592 1044.493 992.902 C 1045.832 972.892 1050.769 958.036 1058.67 958.411 Z " fill="rgb(0,0,0)"></path><path d=" M 1081.365 953.608 C 1086.685 954.462 1087.948 959.182 1088.42 967.719 C 1088.834 975.199 1086.404 980.297 1081.365 979.478 C 1077.957 978.924 1077.544 974.981 1076.661 967.719 C 1075.511 958.258 1077.11 952.925 1081.365 953.608 Z " fill="rgb(255,255,255)"></path><path d=" M 1061.429 892.62 C 1047 894.936 1043.575 907.736 1042.294 930.89 C 1041.172 951.177 1047.764 965.002 1061.429 962.782 C 1070.671 961.28 1071.791 950.584 1074.186 930.89 C 1077.306 905.231 1072.97 890.767 1061.429 892.62 Z " fill="rgb(255,255,255)"></path></g></g>
                  <g id="eyebrows" transform="scale(1) translate(0, -37)"><g id="brow-color"><path d=" M 783.665 828.308 L 787.429 839.598 C 712.024 869.892 635.542 887.492 557.869 892.283 C 649.494 874.037 724.797 852.75 783.665 828.308 Z " fill="rgb(0,0,0)"></path><path d=" M 953.012 828.308 L 949.249 839.598 C 1024.654 869.892 1101.136 887.492 1178.808 892.283 C 1087.183 874.037 1011.88 852.75 953.012 828.308 Z " fill="rgb(0,0,0)"></path></g></g>
                  <g id="front-hair"><g id="hair-color"><path d=" M 1248.153 887.504 C 1244.23 881.848 1242.267 862.306 1242 858.86 C 1241.586 853.43 1234.436 840.909 1232.571 835.797 C 1232.571 835.797 1213.619 801.202 1213.619 801.202 C 1214 788 1214.763 757.969 1213.619 741.623 C 1210.974 703.857 1200.941 660.96 1182.037 627 C 1159.789 587.015 1120.296 572.11 1076.777 561.569 C 1067.887 559.406 1043.824 554.919 1035.339 555.236 C 1035.339 555.236 1027.447 556.072 1027.447 556.072 C 992.067 558.59 946.427 570.265 912.014 579.904 C 912.014 579.904 875.51 590.484 875.51 590.484 C 868.041 592.675 861.747 595.856 853.804 595.519 C 847.865 595.269 834.506 590.426 828.153 588.562 C 828.153 588.562 774.876 573.6 774.876 573.6 C 746.255 566.056 711.566 558.167 682.135 556.072 C 682.135 556.072 673.256 555.226 673.256 555.226 C 664.732 555.226 642.602 559.435 633.792 561.569 C 599.044 569.987 564.463 584.17 541.308 611.894 C 512.893 645.912 500.571 685.689 497.601 728 C 496.447 744.461 490.667 777.333 497.601 797.358 C 494.691 807.122 488.899 814.685 483.631 823.304 C 480.04 829.185 477.563 834.961 475.679 841.562 C 475.039 843.826 467.69 862.807 463.198 873.604 Q 461.297 863.286 459.383 852.498 L 459.377 852.498 Q 455.217 823.656 455.217 794.673 Q 455.217 794.673 455.217 794.673 Q 455.217 794.673 455.217 794.673 Q 455.217 777.556 456.668 760.389 Q 460.694 704.034 473.232 651.947 Q 491.495 573.386 538.694 512.175 Q 634.507 399.435 806.237 389.971 Q 818.2 389.312 830.531 389.154 Q 830.531 389.154 830.531 389.154 Q 1057.132 390.725 1158.212 499.04 Q 1203.091 539 1238.04 656.086 Q 1268.652 750.721 1260.571 826.791 L 1260.558 826.792 Q 1254.106 858.98 1248.153 887.504 Z " fill="rgba(56, 56, 56, 1)"></path></g><path d=" M 855.235 593.672 C 840.321 588.897 825.359 584.294 810.34 579.86 C 798.27 576.29 786.14 572.9 773.97 569.69 C 769.86 568.61 765.75 567.55 761.64 566.52 C 757.91 565.58 754.17 564.67 750.43 563.78 C 745.2 562.54 739.95 561.35 734.69 560.21 C 730.18 559.24 725.67 558.32 721.14 557.46 C 714.94 556.28 708.72 555.23 702.48 554.3 C 697.62 553.58 692.74 552.98 687.85 552.52 C 683.15 552.07 678.43 551.78 673.71 551.64 C 670.18 551.54 666.65 551.6 663.13 551.82 C 661.91 551.89 660.69 551.99 659.48 552.12 C 658.39 552.23 657.31 552.36 656.23 552.52 C 647.26 553.81 638.35 555.47 629.53 557.5 C 621.56 559.33 613.69 561.54 605.93 564.12 C 598.9 566.46 591.99 569.18 585.25 572.26 C 579.08 575.08 573.08 578.26 567.29 581.79 C 561.92 585.07 556.77 588.68 551.86 592.6 C 547.24 596.29 542.87 600.28 538.78 604.55 C 531.09 612.57 524.44 621.53 518.96 631.2 C 516.32 635.86 513.93 640.66 511.82 645.58 C 509.72 650.46 507.85 655.42 506.22 660.47 C 504.6 665.49 503.18 670.57 501.96 675.71 C 500.75 680.82 499.69 685.98 498.81 691.16 C 497.92 696.32 497.16 701.5 496.53 706.7 C 495.91 711.85 495.37 717.01 494.93 722.18 C 494.49 727.28 494.1 732.39 493.77 737.49 C 493.45 742.49 493.14 747.49 492.85 752.5 C 492.59 756.95 492.32 761.41 492.03 765.86 C 491.76 770.16 491.44 774.46 491.08 778.75 C 490.74 782.86 490.32 786.96 489.83 791.06 C 489.37 794.93 488.81 798.8 488.14 802.65 C 487.77 804.73 487.23 806.77 486.53 808.77 C 485.83 810.74 485 812.66 484.06 814.53 C 483.09 816.44 482.04 818.32 480.93 820.15 C 479.77 822.06 478.58 823.95 477.38 825.82 C 476.33 827.46 475.29 829.1 474.28 830.75 C 473.22 832.45 472.21 834.19 471.25 835.95 C 470.26 837.77 469.34 839.64 468.5 841.55 C 467.63 843.54 466.87 845.59 466.23 847.67 C 464.26 854.11 462.92 860.72 462.21 867.42 C 461.2 877 460.82 886.63 461.06 896.26 C 461.25 903.73 461.71 911.2 462.45 918.64 C 463.39 928.13 464.6 937.6 466.09 947.02 L 466.79 951.47 L 475.68 950.07 L 474.98 945.62 C 473.52 936.37 472.33 927.07 471.4 917.75 C 470.69 910.53 470.24 903.28 470.06 896.03 C 469.82 886.79 470.19 877.55 471.16 868.36 C 471.81 862.24 473.04 856.19 474.84 850.3 C 475.37 848.55 476.01 846.84 476.74 845.16 C 477.48 843.49 478.28 841.86 479.15 840.26 C 480.04 838.64 480.96 837.04 481.93 835.47 C 482.92 833.87 483.93 832.28 484.94 830.69 C 486.19 828.75 487.42 826.8 488.62 824.83 C 489.85 822.79 491.01 820.71 492.09 818.59 C 493.2 816.38 494.18 814.11 495.01 811.77 C 495.88 809.31 496.55 806.78 497.01 804.2 C 497.7 800.19 498.29 796.16 498.77 792.12 C 499.27 787.92 499.7 783.72 500.05 779.51 C 500.41 775.15 500.74 770.8 501.02 766.44 C 501.3 761.97 501.58 757.49 501.84 753.02 C 502.12 748.04 502.43 743.06 502.75 738.08 C 503.08 733.03 503.46 727.99 503.89 722.96 C 504.33 717.89 504.86 712.83 505.47 707.78 C 506.08 702.73 506.82 697.69 507.68 692.68 C 508.53 687.68 509.55 682.72 510.72 677.79 C 511.88 672.88 513.24 668.03 514.79 663.23 C 516.33 658.46 518.1 653.75 520.08 649.14 C 522.07 644.52 524.31 640.01 526.79 635.63 C 531.9 626.61 538.11 618.26 545.27 610.78 C 549.1 606.8 553.17 603.08 557.48 599.63 C 562.09 595.94 566.93 592.55 571.97 589.48 C 577.46 586.13 583.14 583.11 588.99 580.44 C 595.44 577.5 602.04 574.9 608.77 572.66 C 616.26 570.17 623.86 568.04 631.54 566.27 C 640.13 564.3 648.8 562.68 657.52 561.42 C 658.47 561.29 659.43 561.17 660.39 561.07 C 661.48 560.96 662.58 560.87 663.69 560.8 C 666.94 560.6 670.2 560.54 673.45 560.64 C 677.97 560.77 682.49 561.05 687 561.48 C 691.73 561.93 696.45 562.5 701.15 563.2 C 707.27 564.11 713.38 565.15 719.45 566.3 C 723.91 567.15 728.36 568.06 732.79 569.01 C 737.99 570.13 743.18 571.31 748.35 572.53 C 752.05 573.41 755.75 574.32 759.44 575.24 C 763.53 576.27 767.6 577.32 771.67 578.39 C 783.76 581.58 795.8 584.95 807.79 588.49 C 822.46 592.821 837.084 597.316 851.664 601.974 L 855.24 603.119 L 858.816 601.975 C 872.226 597.694 885.68 593.54 899.17 589.53 C 910.49 586.16 921.84 582.94 933.24 579.88 C 947.91 575.93 962.67 572.31 977.51 569.04 C 987.47 566.84 997.5 564.98 1007.59 563.46 C 1012 562.8 1016.43 562.22 1020.86 561.74 C 1024.36 561.36 1027.88 561.07 1031.4 560.87 C 1035.66 560.62 1039.93 560.56 1044.19 560.67 C 1047.13 560.75 1050.05 561 1052.96 561.42 C 1061.68 562.68 1070.35 564.3 1078.93 566.27 C 1086.62 568.04 1094.22 570.17 1101.7 572.66 C 1108.43 574.9 1115.04 577.5 1121.49 580.44 C 1127.33 583.11 1133.02 586.13 1138.51 589.48 C 1143.55 592.55 1148.39 595.94 1153 599.63 C 1157.31 603.08 1161.38 606.8 1165.2 610.78 C 1172.37 618.26 1178.58 626.61 1183.68 635.63 C 1186.16 640.01 1188.4 644.52 1190.4 649.14 C 1192.38 653.75 1194.15 658.46 1195.69 663.23 C 1197.24 668.03 1198.59 672.88 1199.76 677.79 C 1200.93 682.72 1201.94 687.68 1202.8 692.68 C 1203.66 697.69 1204.4 702.73 1205.01 707.78 C 1205.62 712.83 1206.15 717.89 1206.58 722.96 C 1207.02 727.99 1207.4 733.03 1207.73 738.08 C 1208.05 743.06 1208.35 748.04 1208.64 753.02 C 1208.9 757.49 1209.17 761.97 1209.46 766.44 C 1209.74 770.8 1210.06 775.15 1210.43 779.51 C 1210.78 783.72 1211.21 787.92 1211.71 792.12 C 1212.19 796.16 1212.78 800.19 1213.47 804.2 C 1213.93 806.78 1214.59 809.31 1215.47 811.77 C 1216.3 814.11 1217.27 816.38 1218.39 818.59 C 1219.46 820.71 1220.62 822.79 1221.86 824.83 C 1223.06 826.8 1224.28 828.75 1225.53 830.69 C 1226.55 832.28 1227.55 833.87 1228.54 835.47 C 1229.51 837.04 1230.44 838.64 1231.33 840.26 C 1232.2 841.86 1233 843.49 1233.73 845.16 C 1234.47 846.84 1235.1 848.55 1235.64 850.3 C 1236.46 852.99 1237.15 855.72 1237.71 858.48 C 1238.39 861.82 1238.93 865.2 1239.34 868.59 C 1239.64 871.11 1239.87 873.63 1240.05 876.16 C 1240.24 879.05 1240.38 881.95 1240.44 884.84 C 1240.49 886.95 1240.51 889.05 1240.5 891.15 C 1240.48 893.45 1240.44 895.75 1240.36 898.05 C 1240.31 899.7 1240.24 901.36 1240.15 903.02 C 1240.07 904.78 1239.96 906.54 1239.84 908.3 C 1239.46 913.99 1238.94 919.66 1238.28 925.32 C 1237.49 932.11 1236.56 938.88 1235.5 945.62 L 1234.8 950.07 L 1243.69 951.47 L 1244.39 947.02 C 1245.47 940.16 1246.41 933.27 1247.22 926.36 C 1247.89 920.56 1248.43 914.74 1248.82 908.91 C 1248.94 907.1 1249.05 905.29 1249.14 903.47 C 1249.23 901.76 1249.3 900.05 1249.36 898.34 C 1249.44 895.96 1249.48 893.58 1249.5 891.2 C 1249.51 889.01 1249.49 886.82 1249.44 884.64 C 1249.37 881.6 1249.23 878.57 1249.03 875.55 C 1248.84 872.87 1248.59 870.19 1248.27 867.52 C 1247.84 863.89 1247.26 860.28 1246.53 856.69 C 1245.92 853.65 1245.15 850.64 1244.25 847.67 C 1243.61 845.59 1242.85 843.54 1241.98 841.55 C 1241.14 839.64 1240.22 837.77 1239.22 835.95 C 1238.26 834.19 1237.25 832.45 1236.2 830.75 C 1235.18 829.1 1234.15 827.46 1233.1 825.82 C 1231.89 823.95 1230.71 822.06 1229.55 820.15 C 1228.43 818.32 1227.39 816.44 1226.42 814.53 C 1225.48 812.66 1224.65 810.74 1223.95 808.77 C 1223.24 806.77 1222.71 804.73 1222.34 802.65 C 1221.67 798.8 1221.11 794.93 1220.64 791.06 C 1220.16 786.96 1219.74 782.86 1219.4 778.75 C 1219.04 774.46 1218.72 770.16 1218.44 765.86 C 1218.16 761.41 1217.88 756.95 1217.63 752.5 C 1217.34 747.49 1217.03 742.49 1216.71 737.49 C 1216.37 732.39 1215.99 727.28 1215.55 722.18 C 1215.1 717.01 1214.57 711.85 1213.94 706.7 C 1213.31 701.5 1212.55 696.32 1211.67 691.16 C 1210.78 685.98 1209.73 680.82 1208.52 675.71 C 1207.3 670.57 1205.87 665.49 1204.25 660.47 C 1202.62 655.42 1200.76 650.46 1198.66 645.58 C 1196.54 640.66 1194.16 635.86 1191.52 631.2 C 1186.04 621.53 1179.38 612.57 1171.7 604.55 C 1167.6 600.28 1163.24 596.29 1158.62 592.6 C 1153.71 588.68 1148.56 585.07 1143.19 581.79 C 1137.4 578.26 1131.4 575.08 1125.23 572.26 C 1118.48 569.18 1111.58 566.46 1104.54 564.12 C 1096.79 561.54 1088.92 559.33 1080.95 557.5 C 1072.12 555.47 1063.21 553.81 1054.25 552.52 C 1051 552.04 1047.72 551.76 1044.43 551.68 C 1039.92 551.55 1035.4 551.62 1030.88 551.88 C 1027.21 552.09 1023.54 552.39 1019.89 552.79 C 1015.33 553.29 1010.78 553.88 1006.25 554.56 C 995.96 556.11 985.73 558.01 975.57 560.25 C 960.6 563.56 945.7 567.2 930.9 571.19 C 919.43 574.27 907.99 577.51 896.61 580.9 C 882.771 585.013 868.989 589.276 855.235 593.672 Z " fill="rgb(0,0,0)"></path></g>
                </g>
              </g>
            </g>
            <path id="bg-border" d=" M 0 868.339 C 0 389.09 389.09 0 868.339 0 C 1347.588 0 1736.678 389.09 1736.678 868.339 C 1736.678 1347.588 1347.588 1736.678 868.339 1736.678 C 389.09 1736.678 0 1347.588 0 868.339 Z  M 12 868.339 C 12 395.713 395.713 12 868.339 12 C 1340.965 12 1724.678 395.713 1724.678 868.339 C 1724.678 1340.965 1340.965 1724.678 868.339 1724.678 C 395.713 1724.678 12 1340.965 12 868.339 Z " fill-rule="evenodd" fill="rgb(0,0,0)"></path>
          </g>
        </svg>
      