<?xml version="1.0" standalone="no"?><!-- Generator: Gravit.io --><svg xmlns="http://www.w3.org/2000/svg" xmlns:xlink="http://www.w3.org/1999/xlink" style="isolation:isolate" viewBox="0 0 1736.678 1736.678" width="1736.678" height="1736.678"><defs><clipPath id="_clipPath_Dro4mMPS5pJm1urVd7MFIxLeLx1OxGjS"><rect width="1736.678" height="1736.678"/></clipPath></defs><g clip-path="url(#_clipPath_Dro4mMPS5pJm1urVd7MFIxLeLx1OxGjS)"><clipPath id="_clipPath_Idlnvhdp0Au9GnTcrJAIj0SVDlQ2f2SE"><path d=" M 6 868.339 C 6 392.401 392.401 6 868.339 6 C 1344.277 6 1730.678 392.401 1730.678 868.339 C 1730.678 1344.277 1344.277 1730.678 868.339 1730.678 C 392.401 1730.678 6 1344.277 6 868.339 Z " fill="rgb(255,255,255)"/></clipPath><g clip-path="url(#_clipPath_Idlnvhdp0Au9GnTcrJAIj0SVDlQ2f2SE)"><g id="avatars"><g id="collar color"><g id="Group"><path d=" M 634.421 1492.433 L 561.731 1500.617 L 547.146 1531.801 L 592.432 1558.756 L 693.198 1603.143 L 796.77 1627.757 L 899.004 1635.393 L 1009.97 1612.889 L 1092.842 1579.793 L 1154.881 1548.111 L 1193.741 1519.776 L 1192.205 1503.58 L 1176.653 1489.805 L 1160.961 1485.521 L 1096.494 1487.956 Q 1121.579 1505.719 1133.481 1516.825 L 1016.773 1573.268 L 906.5 1599.917 L 795.906 1595.966 L 682.411 1564.402 L 598.385 1523.968 L 634.421 1492.433 Z " fill="rgb(255,255,255)"/></g></g><g id="neck color"><g id="Group"><path d=" M 706.041 1340.418 L 698.687 1468.942 Q 634.953 1489.006 599.54 1522.458 Q 631.465 1547.257 726.403 1582.225 L 869.244 1602.426 Q 945.326 1600.313 988.258 1583.679 Q 1034.93 1567.023 1085.543 1544.229 Q 1108.079 1533.685 1130.877 1515.374 Q 1092.037 1486.283 1036.838 1466.066 Q 1026.854 1390.851 1026.549 1332.684 L 984.425 1363.903 L 944.486 1388.136 L 911.165 1405.061 L 868.881 1412.629 L 823.147 1402.911 Q 790.544 1387.39 706.041 1340.418 Z " fill="rgb(242,211,196)"/></g></g><g id="face color"><g id="Group"><path d=" M 806.237 389.971 Q 818.2 389.312 830.531 389.154 Q 1057.132 390.725 1158.212 499.04 Q 1203.091 539 1238.04 656.086 Q 1268.652 750.721 1260.571 826.791 L 1260.558 826.792 Q 1221.444 1021.929 1200.676 1082.371 Q 1174.522 1169.086 1144.863 1215.239 Q 1098.483 1271.134 981.328 1360.093 Q 907.105 1406.043 879.229 1407.58 Q 876.555 1407.727 874.308 1407.466 Q 812.472 1401.989 733.183 1349.073 Q 619.707 1274.409 581.202 1221.254 Q 544.458 1160.981 504.005 1045.401 Q 482.652 983.656 459.383 852.498 L 459.377 852.498 Q 452.759 806.622 456.668 760.389 Q 460.694 704.034 473.232 651.947 Q 491.495 573.386 538.694 512.175 Q 634.507 399.435 806.237 389.971 Z " fill="rgb(252,235,224)"/></g></g><g id="face lines"><g id="Group"><path d=" M 806.237 389.971 Q 818.2 389.312 830.531 389.154 Q 1057.132 390.725 1158.212 499.04 Q 1203.091 539 1238.04 656.086 Q 1268.652 750.721 1260.571 826.791 L 1260.558 826.792 Q 1221.444 1021.929 1200.676 1082.371 Q 1174.522 1169.086 1144.863 1215.239 Q 1098.483 1271.134 981.328 1360.093 Q 907.105 1406.043 879.229 1407.58 Q 876.555 1407.727 874.308 1407.466 Q 812.472 1401.989 733.183 1349.073 Q 619.707 1274.409 581.202 1221.254 Q 544.458 1160.981 504.005 1045.401 Q 482.652 983.656 459.383 852.498 L 459.377 852.498 Q 452.759 806.622 456.668 760.389 Q 460.694 704.034 473.232 651.947 Q 491.495 573.386 538.694 512.175 Q 634.507 399.435 806.237 389.971 Z  M 811.173 379.852 Q 810.485 379.89 809.796 379.93 L 787.303 381.617 Q 696.278 389.506 620.436 430.4 Q 568.681 454.904 515.243 527.393 Q 472.396 594.288 457.615 676.362 Q 438.083 788.983 449.516 844.199 L 449.511 844.199 Q 449.084 845.335 448.992 846.904 L 461.34 922.153 Q 474.424 980.184 495.401 1049.529 Q 545.372 1188.924 574.647 1230.705 Q 637.068 1301.458 736.988 1363.042 Q 823.749 1419.611 876.174 1416.721 Q 876.457 1416.706 876.74 1416.688 Q 895.671 1414.773 916.087 1406.928 Q 948.099 1394.758 986.74 1368.474 Q 1067.7 1313.382 1156.086 1216.196 Q 1180.319 1181.738 1225.058 1032.667 Q 1248.202 947.577 1267.18 838.249 L 1267.166 838.25 Q 1270.154 833.266 1270.621 828.772 L 1271.619 770.556 Q 1266.467 723.139 1254.475 678.349 Q 1229.428 588.019 1209.242 553.235 Q 1179.696 502.633 1165.387 492.072 Q 1107.62 434.081 1029.003 407.956 Q 922.252 373.731 811.173 379.852 Z " fill="rgb(0,0,0)"/></g></g><g id="collar lines"><g id="Group"><path d=" M 642.042 1487.948 L 640.895 1488.491 Q 632.543 1492.479 630.085 1493.801 Q 628.168 1494.895 625.14 1496.944 Q 616.059 1503.088 596.991 1517.809 L 580.584 1521.35 Q 590.066 1525.487 594.03 1528.595 L 601.175 1527.043 Q 611.794 1517.877 634.247 1503.216 Q 639.319 1500.004 644.59 1496.901 L 659.827 1490.153 Q 658.056 1489.631 653.974 1488.971 Q 647.708 1488.22 642.042 1487.948 Z " fill="rgb(0,0,0)"/></g><g id="Group"><path d=" M 551.957 1527.526 L 541.217 1529.843 L 541.436 1531.919 L 549.417 1538.285 L 561.992 1535.557 Q 559.421 1534.032 559.277 1533.893 Q 557.024 1532.193 556.784 1531.682 Q 556.114 1531.308 555.639 1530.964 Q 554.12 1529.817 553.004 1528.8 Q 552.74 1528.677 552.481 1528.481 Q 552.065 1528.122 551.957 1527.526 Z " fill="rgb(0,0,0)"/></g><g id="Group"><path d=" M 513.209 1545.942 L 513.241 1546.01 L 513.354 1546.246 Q 513.39 1546.238 513.393 1546.239 L 513.214 1545.942 L 513.209 1545.942 Z " fill="rgb(0,0,0)"/></g><g id="Group"><path d=" M 1083.937 1479.597 L 1083.401 1479.68 Q 1081.336 1479.998 1080.558 1480.044 L 1066.628 1482.433 Q 1078.438 1486.77 1082.737 1488.619 Q 1083.143 1488.509 1090.077 1492.662 Q 1109.973 1504.303 1134.112 1521.939 Q 1136.062 1521.517 1146.238 1514.613 L 1137.323 1512.799 Q 1116.787 1496.839 1104.829 1489.962 Q 1100.363 1487.215 1094.721 1484.111 Q 1092.143 1482.847 1083.937 1479.597 Z " fill="rgb(0,0,0)"/></g><g id="Group"><path d=" M 1184.828 1522.473 L 1184.671 1522.608 Q 1183.055 1523.977 1181.875 1524.658 Q 1180.513 1525.493 1177.699 1526.755 L 1173.373 1529.437 Q 1172.495 1530.01 1172.367 1530.161 L 1185.641 1532.886 Q 1189.84 1529.743 1195.444 1526.507 L 1197.365 1525.02 L 1184.828 1522.473 Z " fill="rgb(0,0,0)"/></g><g id="Group"><path d=" M 545.808 1525.437 L 545.714 1525.444 Q 538.822 1527.3 543.638 1534.496 L 598.738 1567.309 Q 654.438 1594.228 698.896 1608.998 Q 802.665 1641.621 892.788 1640.062 L 930.835 1636.04 L 976.17 1626.827 Q 1028.028 1611.807 1055.661 1600.737 Q 1094.252 1585.402 1163.791 1547.033 Q 1184.672 1534.254 1197.954 1524.552 L 1195.51 1521.039 L 1198.067 1524.452 L 1199.431 1523.354 Q 1201.005 1516.749 1198.093 1516.466 Q 1195.031 1515.545 1193.15 1516.63 Q 1183.16 1525.169 1121.898 1558.674 Q 1046.002 1595.301 1041.875 1595.575 Q 986.139 1614.957 965.12 1619.15 L 928.92 1626.223 Q 893.537 1630.345 881.548 1630.764 Q 795.518 1630.257 681.242 1593.616 Q 645.753 1582.069 545.808 1525.437 Z " fill="rgb(0,0,0)"/></g><g id="Group"><path d=" M 559.38 1496.585 L 555.944 1498.801 Q 549.834 1503.508 551.122 1503.723 L 582.4 1522.504 Q 620.18 1545.105 683.233 1570.186 Q 726.649 1585.814 768.137 1594.733 Q 788.881 1599.193 809.143 1601.976 Q 859.376 1607.464 868.845 1606.549 L 889.151 1606.239 L 926.803 1602.234 Q 974.444 1593.29 994.692 1586.365 Q 1094.654 1550.256 1152.937 1511.035 Q 1176.77 1494.992 1181.116 1491.252 Q 1184.232 1484.366 1176.017 1483.238 Q 1093.493 1540.025 1009.906 1570.362 L 978.201 1580.506 L 947.001 1588.223 L 916.308 1593.514 Q 884.95 1596.972 872.018 1596.979 L 834.654 1594.716 L 799.119 1590.285 Q 763.744 1584.735 729.013 1574.707 Q 694.282 1564.68 660.194 1550.174 L 626.268 1534.55 Q 592.502 1517.806 559.38 1496.585 Z " fill="rgb(0,0,0)"/></g><g id="Group"><path d=" M 1078.339 1480.409 L 1073.227 1481.249 Q 1070.336 1482.5 1070.326 1483.88 L 1085.168 1490.217 Q 1113.909 1488.308 1146.267 1489.115 Q 1163.943 1490.199 1174.451 1494.072 Q 1180.546 1496.791 1186.973 1505.913 Q 1188.116 1508.421 1191.346 1524.545 Q 1192.986 1526.961 1194.249 1527.192 L 1195.443 1526.507 Q 1198.316 1524.3 1200.885 1522.141 Q 1198.832 1508.524 1195.936 1501.499 Q 1193.422 1493.207 1175.74 1483.934 Q 1167.991 1481.841 1160.538 1480.609 Q 1147.596 1478.749 1142.367 1478.874 Q 1113.191 1478.631 1078.339 1480.409 Z " fill="rgb(0,0,0)"/></g><g id="Group"><path d=" M 602.716 1486.743 L 602.511 1486.755 Q 580.475 1488.221 572.34 1490.36 Q 568.465 1491.524 564.861 1492.975 L 555.944 1498.801 L 551.424 1502.62 Q 543.066 1516.384 541.933 1524.353 Q 541.206 1531.844 541.404 1532.158 L 545.583 1535.502 L 547.834 1535.615 Q 549.318 1534.825 551.05 1532.497 Q 553.872 1517.507 556.492 1511.809 Q 559.423 1506.843 568.458 1502.149 Q 572.537 1500.5 578.767 1499.209 Q 587.744 1497.762 597.538 1497.189 Q 610.172 1496.431 643.382 1497.618 Q 643.473 1497.149 650.112 1494.798 L 653.267 1493.016 L 656.494 1491.95 L 659.834 1490.155 Q 658.694 1489.709 652.692 1488.813 Q 647.43 1488.199 640.053 1487.845 L 637.985 1487.534 Q 611.366 1486.543 602.716 1486.743 Z " fill="rgb(0,0,0)"/></g></g><g id="neck lines"><g id="Group"><path d=" M 702.559 1328.319 L 701.978 1328.406 Q 699.715 1328.971 698.476 1332.995 Q 701.442 1371.892 700.543 1394.995 Q 699.808 1417.274 693.968 1466.522 Q 640.622 1486.281 625.685 1496.702 Q 612.14 1505.376 597.369 1517.499 Q 596.086 1522.422 595.798 1528.203 L 601.862 1526.682 Q 624.97 1507.736 641.393 1499.209 Q 657.971 1490.394 700.383 1474.799 Q 702.208 1473.925 702.869 1472.744 Q 710.967 1410.467 710.861 1385.758 Q 710.95 1366.099 708.354 1332.124 Q 708.028 1328.95 702.559 1328.319 Z " fill="rgb(0,0,0)"/></g><g id="Group"><path d=" M 1028.272 1324.652 L 1027.657 1324.725 Q 1023.682 1326.33 1023.633 1328.636 Q 1021.371 1360.696 1022.053 1386.819 Q 1022.796 1413.633 1030.888 1469.054 Q 1031.564 1470.227 1033.4 1471.078 Q 1076.036 1486.173 1092.506 1494.661 Q 1103.739 1500.826 1107.84 1503.577 L 1134.435 1522.384 L 1134.257 1510.407 Q 1119.78 1499.219 1109.624 1492.576 Q 1092.848 1481.707 1039.712 1462.724 Q 1033.258 1413.55 1032.246 1391.282 Q 1031.059 1368.192 1033.539 1329.261 Q 1032.717 1324.839 1028.272 1324.652 Z " fill="rgb(0,0,0)"/></g><g id="Group"><path d=" M 597.04 1519.212 L 596.335 1522.636 L 595.618 1529.985 Q 676.862 1571.093 701.868 1576.598 Q 714.272 1581.13 766.265 1594.035 Q 786.477 1598.628 805.018 1601.595 Q 841.397 1607.503 873.905 1607.013 Q 881.03 1607.034 911.543 1604.117 L 938.703 1600.014 Q 962.887 1596 999.775 1584.636 Q 1035.145 1573.575 1077.505 1553.27 Q 1112.094 1536.09 1134.428 1522.332 L 1134.221 1510.782 Q 1106.443 1528.84 1073.131 1544.508 Q 1012.932 1571.106 981.203 1579.945 Q 924.09 1596.452 867.158 1596.978 Q 797.12 1593.213 737.568 1577.07 Q 692.882 1563.952 653.832 1547.703 Q 639.482 1542.168 597.04 1519.212 Z " fill="rgb(0,0,0)"/></g></g></g></g></g></svg>