<?xml version="1.0" standalone="no"?><!-- Generator: Gravit.io --><svg xmlns="http://www.w3.org/2000/svg" xmlns:xlink="http://www.w3.org/1999/xlink" style="isolation:isolate" viewBox="0 0 1736.678 1736.678" width="1736.678" height="1736.678"><defs><clipPath id="_clipPath_yjp9ZYvQ38k9kI1UipV3AqOeGrqOQ1lD"><rect width="1736.678" height="1736.678"/></clipPath></defs><g clip-path="url(#_clipPath_yjp9ZYvQ38k9kI1UipV3AqOeGrqOQ1lD)"><clipPath id="_clipPath_Lgh6Deo79EYRoPOiwuJH6wej6bFYkn5T"><path d=" M 6 868.339 C 6 392.401 392.401 6 868.339 6 C 1344.277 6 1730.678 392.401 1730.678 868.339 C 1730.678 1344.277 1344.277 1730.678 868.339 1730.678 C 392.401 1730.678 6 1344.277 6 868.339 Z " fill="rgb(255,255,255)"/></clipPath><g clip-path="url(#_clipPath_Lgh6Deo79EYRoPOiwuJH6wej6bFYkn5T)"><g id="avatars"><g id="face color"><g id="Group"><path d=" M 806.237 389.971 Q 818.2 389.312 830.531 389.154 Q 1057.132 390.725 1158.212 499.04 Q 1203.091 539 1238.04 656.086 Q 1268.652 750.721 1260.571 826.791 L 1260.558 826.792 Q 1221.444 1021.929 1200.676 1082.371 Q 1174.522 1169.086 1144.863 1215.239 Q 1098.483 1271.134 981.328 1360.093 Q 907.105 1406.043 879.229 1407.58 Q 876.555 1407.727 874.308 1407.466 Q 812.472 1401.989 733.183 1349.073 Q 619.707 1274.409 581.202 1221.254 Q 544.458 1160.981 504.005 1045.401 Q 482.652 983.656 459.383 852.498 L 459.377 852.498 Q 452.759 806.622 456.668 760.389 Q 460.694 704.034 473.232 651.947 Q 491.495 573.386 538.694 512.175 Q 634.507 399.435 806.237 389.971 Z " fill="rgb(252,235,224)"/></g></g><g id="face lines"><g id="Group"><path d=" M 806.237 389.971 Q 818.2 389.312 830.531 389.154 Q 1057.132 390.725 1158.212 499.04 Q 1203.091 539 1238.04 656.086 Q 1268.652 750.721 1260.571 826.791 L 1260.558 826.792 Q 1221.444 1021.929 1200.676 1082.371 Q 1174.522 1169.086 1144.863 1215.239 Q 1098.483 1271.134 981.328 1360.093 Q 907.105 1406.043 879.229 1407.58 Q 876.555 1407.727 874.308 1407.466 Q 812.472 1401.989 733.183 1349.073 Q 619.707 1274.409 581.202 1221.254 Q 544.458 1160.981 504.005 1045.401 Q 482.652 983.656 459.383 852.498 L 459.377 852.498 Q 452.759 806.622 456.668 760.389 Q 460.694 704.034 473.232 651.947 Q 491.495 573.386 538.694 512.175 Q 634.507 399.435 806.237 389.971 Z  M 811.173 379.852 Q 810.485 379.89 809.796 379.93 L 787.303 381.617 Q 696.278 389.506 620.436 430.4 Q 568.681 454.904 515.243 527.393 Q 472.396 594.288 457.615 676.362 Q 438.083 788.983 449.516 844.199 L 449.511 844.199 Q 449.084 845.335 448.992 846.904 L 461.34 922.153 Q 474.424 980.184 495.401 1049.529 Q 545.372 1188.924 574.647 1230.705 Q 637.068 1301.458 736.988 1363.042 Q 823.749 1419.611 876.174 1416.721 Q 876.457 1416.706 876.74 1416.688 Q 895.671 1414.773 916.087 1406.928 Q 948.099 1394.758 986.74 1368.474 Q 1067.7 1313.382 1156.086 1216.196 Q 1180.319 1181.738 1225.058 1032.667 Q 1248.202 947.577 1267.18 838.249 L 1267.166 838.25 Q 1270.154 833.266 1270.621 828.772 L 1271.619 770.556 Q 1266.467 723.139 1254.475 678.349 Q 1229.428 588.019 1209.242 553.235 Q 1179.696 502.633 1165.387 492.072 Q 1107.62 434.081 1029.003 407.956 Q 922.252 373.731 811.173 379.852 Z " fill="rgb(0,0,0)"/></g></g><g id="eyebrows"><path d=" M 1025.148 878.42 C 1021.034 879.084 1017.283 879.878 1014.12 880.881 C 1005.866 883.497 1001.61 887.54 997.354 891.588 L 997.357 891.587 L 998.626 896.126 L 998.626 896.126 C 1004.039 892.103 1009.462 888.08 1017.132 885.269 C 1024.431 882.593 1033.764 881.014 1043.196 879.492 L 1044.695 879.25 L 1044.695 879.25 L 1046.867 875.886 L 1046.872 875.886 C 1039.316 876.619 1031.763 877.352 1025.148 878.42 Z  M 691.363 886.576 C 695.525 886.784 699.34 887.16 702.594 887.809 C 711.086 889.503 715.761 893.054 720.436 896.609 L 720.432 896.609 L 719.67 901.259 L 719.67 901.259 C 713.848 897.856 708.016 894.453 700.083 892.502 C 692.535 890.644 683.084 890.101 673.542 889.623 L 672.025 889.548 L 672.025 889.548 L 669.497 886.444 L 669.492 886.443 C 677.083 886.342 684.671 886.241 691.363 886.576 Z " fill-rule="evenodd" fill="rgb(0,0,0)"/><path d=" M 1083.518 821.001 C 1083.52 821.001 1083.522 821.001 1083.524 821.001 C 1115.581 819.234 1151.667 819.389 1188.183 819.683 L 1188.17 819.684 L 1181.354 828.139 L 1181.354 828.139 L 1175.258 828.473 L 1175.257 828.473 C 1175.245 828.474 1175.232 828.475 1175.219 828.476 C 1126.024 831.187 1076.824 834.255 1037.448 844.156 C 998.153 854.036 968.759 870.682 940.325 887.457 L 940.325 887.457 L 937.603 871.367 L 937.593 871.367 C 960.94 853.442 984.288 836.155 1026.084 827.598 C 1042.62 824.212 1062.106 822.181 1083.518 821.001 Z  M 627.037 835.918 C 648.448 834.738 668.04 834.615 684.848 836.164 C 727.33 840.077 752.437 854.693 777.612 869.944 L 777.603 869.944 L 776.665 886.237 L 776.665 886.237 C 746.56 872.688 715.515 859.373 675.373 853.871 C 635.147 848.357 585.908 850.712 536.712 853.423 C 536.7 853.424 536.687 853.425 536.674 853.426 L 536.674 853.426 L 530.578 853.763 L 530.578 853.763 L 522.873 846.108 L 522.867 846.108 C 559.127 841.803 594.975 837.685 627.031 835.918 C 627.033 835.918 627.035 835.918 627.037 835.918 Z " fill-rule="evenodd" fill="rgb(183,151,128)"/><path d=" M 933.243 894.695 L 929.115 870.297 C 928.862 868.803 929.456 867.291 930.657 866.367 C 954.838 847.783 979.555 828.764 1024.441 819.574 C 1041.528 816.075 1061.465 814.014 1083.07 812.823 C 1117.908 810.903 1157.398 811.234 1196.71 811.563 C 1198.281 811.576 1199.706 812.486 1200.378 813.906 C 1201.05 815.326 1200.85 817.005 1199.864 818.229 L 1186.587 834.698 C 1185.859 835.602 1184.781 836.154 1183.622 836.217 L 1183.622 836.218 L 1183.204 836.24 L 1182.786 836.263 L 1182.787 836.263 L 1175.68 836.653 L 1175.681 836.653 C 1126.299 839.374 1077.922 842.425 1039.445 852.1 C 999.066 862.253 969.454 879.743 939.366 897.537 C 938.205 898.224 936.78 898.295 935.556 897.727 C 934.333 897.159 933.468 896.025 933.243 894.695 L 933.243 894.695 Z  M 784.5 892.653 L 785.922 867.95 C 786.009 866.436 785.253 864.998 783.959 864.214 L 783.862 864.155 L 783.86 864.153 C 757.815 848.358 731.167 832.205 685.6 828.008 C 668.231 826.408 648.19 826.549 626.584 827.74 C 591.739 829.66 552.538 834.328 513.493 838.975 C 511.933 839.16 510.617 840.222 510.105 841.707 C 509.593 843.192 509.976 844.84 511.091 845.947 L 526.098 860.858 C 526.921 861.676 528.053 862.106 529.211 862.042 L 537.164 861.602 L 537.163 861.602 C 586.541 858.88 634.956 856.597 674.26 861.985 L 674.261 861.985 C 715.51 867.64 746.866 881.771 778.727 896.151 C 779.956 896.706 781.38 896.62 782.533 895.921 C 783.687 895.222 784.423 894 784.5 892.653 L 784.5 892.653 Z  M 777.592 869.932 C 777.615 869.97 777.609 869.957 777.602 869.944 L 776.665 886.23 C 776.681 886.214 776.697 886.198 776.675 886.238 C 746.565 872.689 715.517 859.373 675.373 853.87 L 675.373 853.87 C 635.145 848.355 585.909 850.712 536.712 853.423 L 536.711 853.423 L 528.758 853.863 L 531.871 855.047 L 516.864 840.136 L 514.461 847.108 C 553.572 842.454 592.501 837.822 627.034 835.919 C 648.444 834.739 668.042 834.616 684.848 836.164 C 727.318 840.076 752.425 854.687 777.592 869.932 L 777.592 869.932 Z  M 1181.358 828.134 L 1188.167 819.687 L 1188.167 819.687 C 1188.168 819.698 1188.169 819.708 1188.184 819.683 C 1151.669 819.39 1115.578 819.235 1083.521 821.002 C 1062.111 822.182 1042.619 824.213 1026.084 827.599 C 984.297 836.154 960.949 853.436 937.607 871.357 L 937.605 871.373 L 940.326 887.461 C 940.324 887.459 940.321 887.457 940.331 887.45 C 968.765 870.677 998.158 854.035 1037.448 844.156 C 1076.828 834.254 1126.03 831.185 1175.23 828.474 L 1175.231 828.474 L 1181.347 828.139 C 1181.351 828.137 1181.354 828.135 1181.358 828.134 Z " fill-rule="evenodd" fill="rgb(0,0,0)"/></g></g></g></g></svg>