<?xml version="1.0" standalone="no"?><!-- Generator: Gravit.io --><svg xmlns="http://www.w3.org/2000/svg" xmlns:xlink="http://www.w3.org/1999/xlink" style="isolation:isolate" viewBox="0 0 1736.678 1736.678" width="1736.678" height="1736.678"><defs><clipPath id="_clipPath_MMSPKig4yjuFrh14ME5WjSvlbWcoE5jD"><rect width="1736.678" height="1736.678"/></clipPath></defs><g clip-path="url(#_clipPath_MMSPKig4yjuFrh14ME5WjSvlbWcoE5jD)"><clipPath id="_clipPath_HX3EijqqDlJSaBblX96ONvfSN2YTm7kq"><path d=" M 6 868.339 C 6 392.401 392.401 6 868.339 6 C 1344.277 6 1730.678 392.401 1730.678 868.339 C 1730.678 1344.277 1344.277 1730.678 868.339 1730.678 C 392.401 1730.678 6 1344.277 6 868.339 Z " fill="rgb(255,255,255)"/></clipPath><g clip-path="url(#_clipPath_HX3EijqqDlJSaBblX96ONvfSN2YTm7kq)"><g id="avatars"><g id="face color"><g id="Group"><path d=" M 806.237 389.971 Q 818.2 389.312 830.531 389.154 Q 1057.132 390.725 1158.212 499.04 Q 1203.091 539 1238.04 656.086 Q 1268.652 750.721 1260.571 826.791 L 1260.558 826.792 Q 1221.444 1021.929 1200.676 1082.371 Q 1174.522 1169.086 1144.863 1215.239 Q 1098.483 1271.134 981.328 1360.093 Q 907.105 1406.043 879.229 1407.58 Q 876.555 1407.727 874.308 1407.466 Q 812.472 1401.989 733.183 1349.073 Q 619.707 1274.409 581.202 1221.254 Q 544.458 1160.981 504.005 1045.401 Q 482.652 983.656 459.383 852.498 L 459.377 852.498 Q 452.759 806.622 456.668 760.389 Q 460.694 704.034 473.232 651.947 Q 491.495 573.386 538.694 512.175 Q 634.507 399.435 806.237 389.971 Z " fill="rgb(252,235,224)"/></g></g><g id="face lines"><g id="Group"><path d=" M 806.237 389.971 Q 818.2 389.312 830.531 389.154 Q 1057.132 390.725 1158.212 499.04 Q 1203.091 539 1238.04 656.086 Q 1268.652 750.721 1260.571 826.791 L 1260.558 826.792 Q 1221.444 1021.929 1200.676 1082.371 Q 1174.522 1169.086 1144.863 1215.239 Q 1098.483 1271.134 981.328 1360.093 Q 907.105 1406.043 879.229 1407.58 Q 876.555 1407.727 874.308 1407.466 Q 812.472 1401.989 733.183 1349.073 Q 619.707 1274.409 581.202 1221.254 Q 544.458 1160.981 504.005 1045.401 Q 482.652 983.656 459.383 852.498 L 459.377 852.498 Q 452.759 806.622 456.668 760.389 Q 460.694 704.034 473.232 651.947 Q 491.495 573.386 538.694 512.175 Q 634.507 399.435 806.237 389.971 Z  M 811.173 379.852 Q 810.485 379.89 809.796 379.93 L 787.303 381.617 Q 696.278 389.506 620.436 430.4 Q 568.681 454.904 515.243 527.393 Q 472.396 594.288 457.615 676.362 Q 438.083 788.983 449.516 844.199 L 449.511 844.199 Q 449.084 845.335 448.992 846.904 L 461.34 922.153 Q 474.424 980.184 495.401 1049.529 Q 545.372 1188.924 574.647 1230.705 Q 637.068 1301.458 736.988 1363.042 Q 823.749 1419.611 876.174 1416.721 Q 876.457 1416.706 876.74 1416.688 Q 895.671 1414.773 916.087 1406.928 Q 948.099 1394.758 986.74 1368.474 Q 1067.7 1313.382 1156.086 1216.196 Q 1180.319 1181.738 1225.058 1032.667 Q 1248.202 947.577 1267.18 838.249 L 1267.166 838.25 Q 1270.154 833.266 1270.621 828.772 L 1271.619 770.556 Q 1266.467 723.139 1254.475 678.349 Q 1229.428 588.019 1209.242 553.235 Q 1179.696 502.633 1165.387 492.072 Q 1107.62 434.081 1029.003 407.956 Q 922.252 373.731 811.173 379.852 Z " fill="rgb(0,0,0)"/></g></g><g id="hair"><g id="hair border"><path d=" M 462.184 429.725 C 462.443 429.724 462.689 429.737 462.923 429.765 L 462.917 429.765 C 462.896 429.772 462.876 429.778 462.855 429.784 C 462.635 429.746 462.409 429.726 462.179 429.725 L 462.184 429.725 Z  M 494.477 428.654 C 494.502 428.653 494.526 428.652 494.549 428.651 C 494.528 428.652 494.506 428.653 494.485 428.654 C 494.423 428.658 494.361 428.662 494.299 428.669 L 494.297 428.669 C 494.36 428.662 494.42 428.657 494.477 428.654 Z  M 502.836 437.681 C 503.08 437.875 503.341 438.036 503.614 438.164 L 503.609 438.165 C 503.346 438.05 503.089 437.892 502.84 437.69 L 502.834 437.691 C 502.833 437.688 502.831 437.685 502.83 437.682 L 502.836 437.681 Z  M 1264.581 495.462 C 1265.477 496.463 1266.421 497.521 1267.414 498.636 C 1267.478 498.707 1267.545 498.777 1267.613 498.844 C 1273.153 504.23 1279.391 509.084 1286.329 513.405 L 1286.329 513.405 C 1294.455 518.474 1304.041 523.579 1315.088 528.72 C 1315.163 528.754 1315.239 528.787 1315.316 528.817 L 1347.141 541.296 C 1347.282 541.351 1347.425 541.398 1347.571 541.437 L 1355.703 543.605 L 1355.688 543.605 C 1354.212 546.434 1352.663 548.291 1351.041 549.178 C 1350.871 549.271 1350.708 549.376 1350.554 549.492 C 1348.222 551.245 1345.613 552.897 1342.729 554.448 L 1342.715 554.448 C 1340.717 555.367 1337.653 556.321 1333.523 557.309 L 1333.477 557.321 C 1327.503 558.824 1323.03 559.658 1320.056 559.822 C 1319.124 559.873 1318.34 559.859 1317.704 559.779 C 1317.638 559.771 1317.572 559.764 1317.505 559.759 C 1310.603 559.238 1305.42 558.534 1301.957 557.648 L 1301.943 557.649 C 1300.474 557.091 1299.332 556.633 1298.518 556.276 L 1298.504 556.277 C 1287.501 534.676 1276.189 514.404 1264.567 495.462 L 1264.581 495.462 Z  M 1008.667 653.112 L 1008.667 653.112 C 1009.415 653.65 1010.323 653.91 1011.229 653.86 C 1011.744 653.831 1012.258 653.703 1012.742 653.47 L 1012.753 653.47 C 1012.117 653.801 1011.519 653.982 1010.958 654.013 C 1010.104 654.06 1009.337 653.76 1008.656 653.113 L 1008.667 653.112 Z  M 808.043 805.844 C 810.327 805.826 811.625 806.863 811.937 808.957 L 811.932 808.957 C 811.707 807.977 811.121 807.112 810.284 806.541 C 809.616 806.085 808.83 805.846 808.034 805.844 L 808.043 805.844 Z  M 1200.13 855.555 C 1200.489 856.797 1201.433 857.803 1202.679 858.23 C 1201.27 857.747 1200.416 856.856 1200.117 855.556 L 1200.13 855.555 Z  M 1259.977 1023.029 C 1259.922 1025.091 1258.798 1026.295 1256.607 1026.643 C 1258.442 1026.349 1259.811 1024.839 1259.964 1023.029 L 1259.977 1023.029 Z  M 1256.274 1031.407 L 1259.977 1032.937 L 1259.976 1032.937 L 1256.274 1031.407 Z  M 479.788 1086.983 C 479.723 1087.785 479.452 1088.46 478.975 1089.01 C 479.416 1088.436 479.705 1087.74 479.783 1086.983 L 479.788 1086.983 Z  M 1256.873 1049.847 C 1258.724 1049.828 1259.955 1050.745 1260.566 1052.6 L 1260.566 1052.6 C 1260.031 1050.977 1258.535 1049.888 1256.859 1049.848 L 1256.873 1049.847 Z  M 1256.076 1049.906 C 1254.372 1050.2 1253.034 1051.564 1252.792 1053.3 L 1252.764 1053.501 C 1252.817 1051.382 1253.916 1050.184 1256.062 1049.906 L 1256.076 1049.906 Z  M 1260.327 1063.384 C 1260.033 1064.696 1259.219 1065.573 1257.885 1066.015 C 1259.067 1065.568 1259.965 1064.586 1260.314 1063.384 L 1260.327 1063.384 Z  M 1252.69 1063.61 C 1253.28 1065.274 1254.906 1066.366 1256.683 1066.268 C 1256.752 1066.268 1256.821 1066.258 1256.89 1066.251 L 1256.904 1066.251 C 1256.684 1066.287 1256.472 1066.311 1256.269 1066.322 C 1254.439 1066.422 1253.242 1065.519 1252.677 1063.611 L 1252.69 1063.61 Z  M 871.343 226.883 C 871.242 227.119 871.152 227.307 871.074 227.448 C 871.051 227.488 871.03 227.528 871.009 227.568 C 861.523 245.922 856.192 255.877 855.014 257.432 L 855.011 257.432 C 854.803 257.678 854.625 257.948 854.482 258.236 C 852.854 261.511 847.812 268.241 839.356 278.428 L 839.294 278.504 C 832.568 287.021 825.895 294.339 819.276 300.46 C 819.142 300.585 819.016 300.718 818.899 300.86 C 817.126 303.021 815.667 305.074 814.523 307.02 L 814.513 307.02 C 812.524 307.66 811.344 309.743 811.857 311.801 C 812.329 313.697 814.079 314.938 815.961 314.835 C 816.21 314.821 816.461 314.784 816.712 314.721 C 833.219 310.612 851.112 308.027 870.39 306.964 C 888.67 305.957 908.195 306.319 928.967 308.051 L 928.957 308.052 L 1008.462 320.345 L 1008.45 320.346 C 1063.08 337.109 1110.027 358.517 1149.291 384.57 L 1149.29 384.57 C 1176.666 402.949 1199.174 421.478 1216.816 440.155 L 1216.803 440.156 C 1242.71 473.501 1267.256 512.817 1290.442 558.106 L 1290.428 558.106 C 1290.428 558.721 1290.588 559.398 1290.897 560.136 L 1290.897 560.137 C 1291.211 560.886 1291.741 561.54 1292.488 562.097 L 1292.474 562.098 C 1307.11 591.006 1321.199 622.311 1334.743 656.012 C 1334.797 656.147 1334.859 656.279 1334.927 656.407 C 1337.341 660.92 1340.599 675.891 1344.701 701.32 L 1344.687 701.32 L 1350.888 850.218 C 1350.898 850.422 1350.921 850.625 1350.96 850.825 C 1360.692 900.268 1368.447 933.485 1374.225 950.476 L 1374.211 950.477 C 1374.23 950.663 1374.255 950.853 1374.287 951.048 C 1374.297 951.103 1374.306 951.158 1374.318 951.212 L 1374.423 951.719 C 1372.585 950.671 1370.379 949.378 1367.803 947.842 L 1367.793 947.842 L 1360.965 943.251 L 1360.951 943.252 C 1349.441 934.11 1342.857 929.065 1341.198 928.115 L 1341.198 928.115 C 1341.176 928.102 1341.154 928.09 1341.133 928.078 L 1341.119 928.079 C 1332.977 922.578 1327.477 919.099 1324.619 917.642 L 1324.605 917.642 L 1310.137 905.002 L 1308.708 903.251 L 1320.212 828.769 C 1319.692 817.703 1319.943 804.061 1320.965 787.844 C 1319.415 775.573 1317.85 767.65 1316.272 764.074 L 1316.874 761.673 L 1316.743 760.225 C 1316.014 758.258 1314.655 757.285 1312.665 757.305 L 1312.391 757.33 C 1309.965 757.626 1308.575 759.695 1308.22 763.537 C 1308.241 764.537 1308.332 765.379 1308.492 766.065 C 1309.25 767.777 1310.17 771.313 1311.254 776.671 C 1311.879 780.038 1312.448 783.942 1312.962 788.383 C 1312.044 798.12 1311.788 811.488 1312.193 828.487 L 1301.478 897.629 L 1301.464 897.63 C 1300.815 897.745 1300.185 898.023 1299.638 898.469 C 1297.923 899.868 1297.667 902.392 1299.065 904.107 L 1299.958 905.201 L 1299.944 905.202 C 1296.011 919.636 1289.925 937.249 1281.687 958.039 C 1274.059 974.619 1264.918 991.688 1254.264 1009.248 L 1254.251 1009.249 C 1253.342 1009.855 1252.686 1010.803 1252.284 1012.093 L 1252.284 1012.093 C 1252.219 1012.301 1252.158 1012.524 1252.104 1012.76 L 1252.094 1012.76 C 1252.035 1013.018 1251.995 1013.29 1251.973 1013.577 C 1251.946 1013.943 1251.93 1014.566 1251.925 1015.447 L 1251.925 1015.447 C 1251.924 1015.514 1251.924 1015.584 1251.925 1015.656 C 1251.935 1016.218 1252.019 1017.055 1252.178 1018.167 L 1252.164 1018.168 C 1251.971 1020.142 1251.905 1021.719 1251.967 1022.897 L 1251.967 1022.897 C 1251.967 1022.907 1251.967 1022.913 1251.967 1022.921 L 1251.967 1022.921 C 1251.979 1023.237 1252.042 1024.177 1252.157 1025.743 C 1252.157 1025.809 1252.168 1025.875 1252.176 1025.941 C 1252.276 1026.75 1252.349 1027.63 1252.396 1028.58 L 1252.382 1028.581 L 1252.271 1031.237 L 1252.272 1031.237 C 1252.261 1031.471 1252.262 1031.711 1252.289 1031.959 L 1252.289 1031.959 C 1252.321 1032.298 1252.404 1032.899 1252.54 1033.763 L 1252.53 1033.764 C 1252.53 1033.785 1252.53 1033.809 1252.54 1033.835 L 1252.554 1033.834 C 1252.554 1033.834 1252.554 1033.844 1252.554 1033.846 L 1252.539 1033.846 C 1252.556 1034.071 1252.581 1034.43 1252.614 1034.922 L 1252.604 1034.922 C 1252.604 1035.954 1252.644 1036.949 1252.716 1037.907 L 1252.706 1037.908 L 1252.729 1040.429 C 1252.729 1040.497 1252.729 1040.565 1252.739 1040.634 C 1252.825 1042.065 1252.906 1043.109 1252.984 1043.767 L 1252.971 1043.768 C 1252.853 1044.62 1252.726 1045.868 1252.591 1047.512 C 1252.577 1047.674 1252.574 1047.836 1252.58 1047.998 C 1252.605 1048.635 1252.611 1049.096 1252.598 1049.382 C 1252.588 1049.547 1252.598 1049.712 1252.608 1049.877 L 1252.649 1050.391 L 1252.613 1051.038 C 1252.603 1051.21 1252.603 1051.384 1252.613 1051.556 C 1252.69 1052.6 1252.737 1053.297 1252.755 1053.646 L 1252.742 1053.646 L 1252.463 1055.648 C 1252.45 1055.737 1252.441 1055.827 1252.434 1055.923 C 1252.434 1055.979 1252.424 1056.038 1252.424 1056.1 L 1252.424 1056.1 C 1252.408 1056.46 1252.41 1057.118 1252.434 1058.074 C 1252.434 1058.247 1252.453 1058.419 1252.479 1058.59 C 1252.525 1058.892 1252.552 1059.093 1252.559 1059.195 L 1252.545 1059.195 C 1252.528 1059.369 1252.496 1059.651 1252.449 1060.042 L 1252.449 1060.042 C 1252.424 1060.234 1252.412 1060.431 1252.411 1060.633 C 1252.411 1060.889 1252.423 1061.381 1252.451 1062.108 L 1252.438 1062.108 C 1252.392 1062.619 1252.328 1063.699 1252.248 1065.349 L 1248.578 1063.119 L 1244.394 1059.873 L 1244.394 1059.873 C 1241.731 1057.719 1240.065 1056.265 1239.396 1055.509 L 1239.375 1055.486 L 1232.621 1047.977 C 1231.776 1047.038 1230.589 1046.591 1229.419 1046.656 C 1228.539 1046.704 1227.669 1047.042 1226.962 1047.677 C 1225.738 1048.779 1225.351 1050.464 1225.843 1051.932 L 1225.83 1051.933 L 1175.703 1115.006 C 1175.897 1111.995 1176.215 1108.874 1176.657 1105.643 L 1176.645 1105.644 C 1178.477 1098.022 1179.522 1091.776 1179.78 1086.905 L 1179.767 1086.906 L 1190.25 1027.661 L 1197.611 991.794 C 1197.629 991.708 1197.644 991.621 1197.656 991.534 L 1201.241 965.429 L 1201.241 965.416 C 1203.869 945.806 1205.381 929.989 1205.775 917.964 L 1205.762 917.965 C 1206.94 909.823 1207.579 904.899 1207.678 903.191 L 1207.688 903.19 C 1207.981 901.409 1208.103 894.801 1208.053 883.365 L 1208.04 883.366 C 1208.739 876.704 1208.974 870.995 1208.746 866.237 L 1208.745 866.214 C 1208.359 859.056 1208.106 855.013 1207.987 854.086 L 1207.987 854.084 C 1207.977 854.022 1207.97 853.961 1207.961 853.901 L 1207.95 853.901 L 1203.19 818.23 C 1203.18 818.164 1203.171 818.098 1203.159 818.033 C 1200.821 805.366 1198.029 794.125 1194.781 784.311 C 1194.765 784.264 1194.749 784.218 1194.731 784.171 C 1189.143 769.173 1185.883 760.824 1184.95 759.123 L 1184.95 759.123 C 1184.416 758.149 1183.763 757.475 1182.993 757.102 L 1182.98 757.103 L 1162.938 733.465 C 1162.553 733.012 1162.09 732.665 1161.584 732.428 L 1161.572 732.429 C 1163.331 727.774 1165.036 722.935 1166.686 717.91 L 1166.676 717.91 C 1175.623 694.807 1180.225 672.105 1180.483 649.805 C 1180.484 649.717 1180.483 649.628 1180.473 649.539 L 1178.143 607.138 C 1178.133 607.045 1178.129 606.953 1178.117 606.86 C 1175.873 588.964 1172.215 572.798 1167.141 558.361 C 1166.537 556.64 1164.877 555.592 1163.143 555.688 C 1162.773 555.708 1162.4 555.781 1162.033 555.91 C 1159.945 556.643 1158.848 558.93 1159.581 561.018 C 1164.465 574.916 1167.994 590.529 1170.167 607.857 L 1170.157 607.857 L 1172.472 649.979 L 1172.462 649.979 C 1172.182 671.228 1167.761 692.907 1159.199 715.016 C 1159.173 715.082 1159.15 715.148 1159.128 715.215 C 1148.283 748.299 1135.129 772.954 1119.666 789.179 C 1119.634 789.213 1119.602 789.247 1119.571 789.283 C 1111.608 798.247 1103.753 806.086 1096.005 812.802 C 1095.745 813.027 1095.516 813.284 1095.322 813.568 C 1087.402 825.149 1080.872 833.714 1075.733 839.262 L 1075.721 839.262 L 1064.825 847.026 C 1065.448 843.806 1065.808 840.203 1065.905 836.219 L 1065.905 836.219 C 1066.315 828.554 1065.55 814.762 1063.612 794.844 C 1063.612 794.802 1063.602 794.759 1063.597 794.717 L 1062.14 783.47 C 1062.13 783.396 1062.119 783.323 1062.105 783.25 L 1055.768 749.241 C 1055.731 749.042 1055.679 748.846 1055.612 748.656 C 1053.525 742.67 1051.48 735.522 1049.477 727.213 C 1049.439 727.055 1049.391 726.9 1049.334 726.748 L 1029.96 674.978 C 1029.897 674.811 1029.824 674.648 1029.739 674.491 L 1022.819 661.574 L 1022.78 661.503 C 1021.768 659.702 1020.85 658.081 1020.024 656.64 L 1020.024 656.64 C 1017.158 651.638 1015.294 648.616 1014.433 647.575 L 1014.433 647.575 C 1014.195 647.288 1013.954 647.035 1013.708 646.815 L 1013.697 646.816 C 1002.483 633.048 994.573 624.233 989.967 620.37 L 989.956 620.371 L 991.571 598.874 C 991.586 598.678 991.586 598.481 991.572 598.286 L 989.966 576.01 L 989.793 559.308 C 989.792 559.214 989.788 559.12 989.78 559.026 C 988.97 549.027 985.349 535.888 978.916 519.609 C 978.873 519.499 978.825 519.391 978.772 519.285 C 965.099 492.024 954.399 472.535 946.672 460.819 L 946.662 460.819 L 937.628 440.102 C 936.94 438.524 935.358 437.612 933.734 437.702 C 933.271 437.727 932.804 437.834 932.354 438.031 C 930.326 438.915 929.398 441.277 930.283 443.305 L 939.435 464.293 C 939.528 464.507 939.639 464.712 939.768 464.906 C 947.328 476.307 957.932 495.612 971.58 522.82 L 971.57 522.821 C 977.644 538.234 981.052 550.518 981.793 559.673 L 981.784 559.673 L 981.954 576.216 C 981.955 576.298 981.959 576.381 981.965 576.463 L 983.558 598.567 L 981.991 619.435 L 981.98 619.436 C 981.72 619.768 981.509 620.147 981.36 620.566 C 980.952 621.716 981.1 622.929 981.665 623.909 L 981.654 623.909 L 981.323 628.324 L 961.759 725.566 C 961.746 725.631 961.735 725.697 961.725 725.762 C 960.765 732.157 960.094 739.683 959.712 748.339 L 959.702 748.34 C 958.391 753.731 957.482 760.246 956.975 767.885 L 956.964 767.886 C 955.378 773.204 952.984 786.49 949.78 807.746 C 949.742 807.998 949.728 808.252 949.738 808.506 C 950.2 819.865 949.983 828.679 949.087 834.947 C 949.05 835.203 949.039 835.462 949.052 835.721 L 949.603 846.346 C 949.611 846.501 949.628 846.655 949.654 846.808 L 952.608 864.228 C 952.64 864.42 952.687 864.61 952.747 864.795 C 953.982 868.605 955.531 876.038 957.393 887.093 C 920.099 868.517 893.019 848.144 876.153 825.976 L 876.151 825.976 L 844.403 781.107 L 839.964 773.789 L 839.966 773.789 C 822.677 743.023 813.754 723.23 813.196 714.409 C 813.098 712.867 812.14 711.583 810.818 710.998 L 810.809 710.998 C 809.984 710.212 808.897 709.842 807.825 709.901 C 806.941 709.95 806.068 710.29 805.361 710.929 C 804.321 711.869 803.808 713.163 803.821 714.811 L 803.821 714.811 C 803.821 714.902 803.824 714.995 803.828 715.089 C 803.833 715.232 803.847 715.374 803.868 715.515 C 804.16 717.48 804.256 719.133 804.156 720.472 L 804.15 720.569 L 804.13 720.967 L 804.125 720.967 C 803.802 724.266 803.612 728.066 803.555 732.367 L 803.546 732.368 C 803.071 736.424 802.704 742.041 802.444 749.218 C 802.442 749.269 802.442 749.321 802.442 749.373 C 802.465 758.67 802.562 766.825 802.734 773.839 L 802.729 773.84 C 802.648 777.128 802.657 779.961 802.757 782.34 C 802.759 782.385 802.761 782.43 802.765 782.475 C 802.925 784.597 803.192 789.842 803.566 798.211 L 803.571 798.3 L 803.812 801.889 L 803.803 801.889 C 803.793 803.811 803.804 805.175 803.837 805.982 L 803.836 805.982 C 803.888 808.142 803.941 809.497 803.995 810.047 C 804.028 810.385 804.081 810.7 804.152 810.993 L 804.144 810.993 L 804.785 815.157 L 804.781 815.157 C 805.136 818.397 805.482 820.945 805.818 822.801 C 805.826 822.844 805.834 822.886 805.843 822.928 L 806.511 826.041 C 793.753 818.584 784.378 810.674 778.386 802.312 L 778.382 802.312 C 760.922 775.552 747.706 752.972 738.732 734.572 L 738.724 734.572 C 727.643 706.426 719.55 678.902 714.453 652.01 L 714.443 651.961 C 713.23 645.966 712.311 637.276 711.687 625.893 L 711.679 625.894 C 713.183 624.898 713.872 622.97 713.234 621.197 C 712.886 620.231 712.205 619.481 711.368 619.029 L 711.36 619.029 C 711.004 610.366 710.792 600.393 710.723 589.109 C 710.709 586.896 708.905 585.114 706.692 585.127 C 706.625 585.127 706.559 585.13 706.493 585.133 C 704.373 585.25 702.697 587.012 702.71 589.158 C 702.783 601.191 703.022 611.783 703.426 620.932 L 703.418 620.932 C 697.089 624.469 691.119 630.46 685.509 638.905 L 685.487 638.939 L 649.752 693.936 C 649.713 693.996 649.676 694.056 649.64 694.118 C 645.177 701.86 642.233 707.377 640.806 710.67 C 640.778 710.736 640.751 710.803 640.726 710.87 L 621.067 763.884 L 621.06 763.884 C 620.92 764.09 620.788 764.311 620.665 764.547 L 620.665 764.547 C 619.11 767.529 616.52 779.644 612.895 800.893 C 612.888 800.937 612.881 800.981 612.875 801.025 C 611.64 810.073 611.106 816.147 611.273 819.246 L 611.274 819.268 C 612.191 834.638 613.174 846.683 614.221 855.403 C 586.514 821.732 566.121 787.747 553.041 753.448 L 553.034 753.448 C 552.957 753.103 552.835 752.771 552.673 752.461 L 552.666 752.461 C 548.385 741.111 544.905 729.727 542.225 718.308 C 542.215 718.266 542.204 718.223 542.192 718.18 C 539.102 706.725 537.57 689.382 537.596 666.153 C 537.596 666.017 537.59 665.881 537.576 665.746 C 536.919 659.227 538.129 644.036 541.208 620.175 L 541.203 620.175 C 544.022 604.705 545.95 595.522 546.987 592.625 L 546.987 592.625 C 553.912 573.672 558.404 560.44 560.463 552.927 L 560.462 552.927 C 560.573 552.536 560.741 552.266 560.964 552.115 C 562.798 550.878 563.283 548.388 562.046 546.553 C 561.228 545.34 559.862 544.717 558.5 544.792 C 557.802 544.831 557.106 545.052 556.484 545.471 C 554.642 546.713 553.399 548.468 552.754 550.737 L 552.744 550.774 C 550.748 558.065 546.32 571.099 539.46 589.875 L 539.454 589.894 C 538.269 593.185 536.225 602.8 533.32 618.738 C 533.307 618.806 533.297 618.874 533.288 618.943 C 530.132 643.367 528.899 659.188 529.589 666.405 L 529.583 666.405 C 529.568 690.216 531.192 708.17 534.456 720.268 L 534.454 720.268 C 536.979 731.001 540.188 741.698 544.081 752.36 L 544.075 752.36 C 541.515 754.992 538.956 760.831 536.398 769.876 C 536.357 770.02 536.324 770.167 536.3 770.315 C 534.417 781.741 527.439 807.111 515.364 846.427 C 515.35 846.475 515.336 846.523 515.323 846.57 C 511.388 861.314 509.16 881.13 508.64 906.018 C 508.638 906.112 508.64 906.207 508.644 906.302 C 509.259 918.595 509.785 926.209 510.222 929.144 C 510.229 929.189 510.236 929.234 510.245 929.278 C 514.422 951.989 516.52 964.451 516.539 966.664 C 516.541 966.902 516.564 967.139 516.608 967.374 L 520.391 987.39 C 520.412 987.501 520.438 987.611 520.468 987.72 C 527.99 1014.741 532.054 1031.631 532.659 1038.391 C 532.673 1038.556 532.698 1038.72 532.733 1038.882 C 533.764 1043.642 534.534 1051.961 535.042 1063.839 C 535.045 1063.91 535.05 1063.981 535.057 1064.052 C 535.472 1068.36 536.729 1078.094 538.828 1093.254 C 538.842 1093.353 538.859 1093.451 538.88 1093.548 L 543.734 1116.095 L 543.76 1116.209 C 544.81 1120.479 545.783 1124.289 546.68 1127.64 C 528.006 1108.762 517.941 1098.41 516.485 1096.584 C 511.72 1091.524 504.11 1082.425 493.653 1069.289 L 493.647 1069.289 C 493.699 1068.171 493.284 1067.038 492.411 1066.205 C 491.577 1065.409 490.49 1065.044 489.423 1065.102 C 488.442 1065.156 487.478 1065.57 486.746 1066.337 C 485.116 1068.045 483.433 1070.148 481.697 1072.647 L 481.692 1072.647 C 481.656 1072.694 481.62 1072.743 481.584 1072.793 L 481.584 1072.793 C 481.205 1073.321 480.532 1074.441 479.563 1076.155 L 479.557 1076.156 L 477.395 1078.539 C 477.279 1078.666 477.172 1078.8 477.074 1078.941 C 476.97 1079.091 476.868 1079.237 476.767 1079.38 L 476.495 1078.455 L 476.485 1078.455 C 476.5 1077.977 476.498 1077.577 476.479 1077.257 L 476.479 1077.256 C 476.472 1077.132 476.462 1077.012 476.449 1076.896 L 476.444 1076.896 C 476.432 1076.745 476.412 1076.584 476.384 1076.412 L 476.384 1076.412 C 476.31 1075.954 476.119 1075.105 475.812 1073.866 L 475.806 1073.866 C 475.821 1073.5 475.824 1073.162 475.813 1072.851 L 475.813 1072.851 C 475.8 1072.495 475.777 1072.147 475.744 1071.807 L 475.739 1071.807 L 475.706 1071.469 L 475.472 1069.808 L 475.464 1069.748 C 475.369 1069.14 475.238 1068.422 475.073 1067.592 L 475.07 1067.592 C 475.053 1067.488 475.041 1067.387 475.034 1067.291 C 475.028 1067.209 475.027 1067.087 475.03 1066.927 L 475.03 1066.927 L 475.141 1062.823 L 475.141 1062.823 C 475.144 1062.744 475.144 1062.66 475.143 1062.57 C 475.14 1062.316 475.119 1061.849 475.08 1061.168 L 475.078 1061.136 C 475.051 1060.711 474.999 1060.103 474.923 1059.312 L 474.923 1059.312 L 474.923 1059.312 L 474.923 1059.312 C 474.919 1059.25 474.916 1059.197 474.913 1059.153 L 474.908 1059.153 L 474.94 1057.299 C 474.942 1057.177 474.939 1057.056 474.93 1056.935 C 474.883 1056.302 474.837 1055.462 474.791 1054.415 L 474.787 1054.338 C 474.772 1054.092 474.751 1053.841 474.724 1053.585 L 474.711 1053.469 L 474.711 1053.469 L 474.712 1053.469 C 474.655 1052.937 474.554 1052.233 474.41 1051.358 L 474.404 1051.358 C 474.357 1050.772 474.256 1049.911 474.099 1048.774 L 474.096 1048.775 C 474.076 1048.532 474.04 1047.692 473.987 1046.254 L 473.982 1046.255 L 474.581 1037.124 C 474.585 1037.066 474.588 1037.008 474.589 1036.95 L 474.591 1036.857 L 474.585 1036.857 C 474.803 1036.01 474.745 1035.09 474.37 1034.24 L 474.364 1034.241 C 474.415 1032.767 473.643 1031.344 472.311 1030.603 L 472.306 1030.603 C 472.092 1030.282 471.901 1030.007 471.733 1029.777 C 471.697 1029.727 471.66 1029.679 471.622 1029.632 L 465.913 1022.537 L 465.916 1022.536 C 464.469 1020.589 463.563 1019.318 463.197 1018.722 L 463.191 1018.723 C 463.039 1018.313 462.82 1017.927 462.539 1017.582 L 460.648 1015.266 L 460.643 1015.266 C 459.593 1013.199 458.838 1011.835 458.378 1011.174 L 458.378 1011.174 C 458.157 1010.856 457.93 1010.584 457.697 1010.358 L 457.697 1010.358 C 457.404 1010.073 457.079 1009.842 456.733 1009.664 L 456.728 1009.665 C 449.031 997.756 442.096 985.914 435.923 974.138 C 435.921 974.139 435.919 974.14 435.917 974.14 C 435.562 974.159 428.515 956.727 414.774 921.843 L 411.752 911.836 C 409.919 904.82 406.467 887.952 401.396 861.23 L 398.454 813.901 L 398.483 804.651 C 398.67 798.437 399.013 794.12 399.511 791.701 C 399.722 790.667 399.965 789.825 400.24 789.173 C 400.693 788.09 401.339 787.12 402.178 786.264 C 402.437 785.606 402.556 785.072 402.537 784.66 C 402.731 782.357 401.115 781 397.689 780.588 L 397.546 780.597 C 394.618 781.892 392.891 784.468 392.365 788.326 C 390.654 799.456 390.017 808.13 390.453 814.35 L 393.444 862.247 C 395.553 875.029 398.663 890.183 402.776 907.709 L 402.771 907.71 C 402.262 908.327 401.932 909.102 401.869 909.961 C 401.225 918.671 399.936 925.293 398.002 929.825 L 397.997 929.825 C 390.644 944.575 385.811 952.734 383.5 954.3 C 383.324 954.42 383.158 954.552 383.003 954.698 C 375.532 961.72 370.082 966.267 366.653 968.338 L 366.649 968.338 L 345.303 979.664 L 345.303 979.664 C 343.165 980.773 340.998 981.388 338.803 981.509 C 336.186 981.653 333.53 981.096 330.833 979.836 C 330.445 979.655 330.044 979.542 329.641 979.491 L 329.637 979.491 C 330.47 976.507 331.48 973.317 332.668 969.919 L 332.664 969.919 C 340.475 956.525 344.882 947.149 345.885 941.793 L 345.88 941.793 L 350.621 921.181 C 350.655 921.031 350.681 920.88 350.698 920.727 C 354.937 882.756 357.792 861.881 359.263 858.102 C 359.419 857.7 359.51 857.275 359.531 856.844 L 361.444 817.517 C 361.455 817.291 361.447 817.066 361.42 816.842 L 355.371 766.741 L 355.335 737.262 L 355.331 737.263 C 356.283 726.036 360.152 706.253 366.937 677.913 L 366.933 677.914 L 386.139 620.906 L 386.14 620.906 C 388.548 614.227 396.613 600.333 410.334 579.226 C 410.445 579.056 410.543 578.877 410.627 578.691 L 431.918 531.534 L 470.609 475.617 L 470.603 475.617 C 482.893 464.274 492.162 454.788 498.41 447.161 L 498.404 447.162 C 499.019 447.011 499.607 446.711 500.112 446.26 C 500.611 445.814 500.939 445.516 501.096 445.367 L 501.096 445.366 C 501.137 445.327 501.177 445.288 501.216 445.249 L 501.212 445.249 C 502.457 444.015 503.25 443.201 503.59 442.807 L 503.59 442.807 C 503.741 442.631 503.877 442.451 503.998 442.268 L 503.996 442.268 C 504.498 441.526 505.419 440.269 506.76 438.498 L 506.754 438.499 C 507.478 438.273 508.146 437.839 508.661 437.208 C 510.06 435.493 509.805 432.969 508.09 431.57 C 505.997 429.863 503.716 428.897 501.247 428.674 L 501.241 428.674 C 501.147 428.663 501.048 428.653 500.945 428.646 L 500.944 428.646 C 500.573 428.619 499.922 428.603 498.991 428.599 C 498.912 428.599 498.833 428.601 498.754 428.605 C 498.744 428.606 498.733 428.607 498.722 428.607 C 498.566 428.617 498.413 428.626 498.264 428.634 C 496.924 428.708 495.818 428.719 494.947 428.666 C 494.855 428.661 494.763 428.658 494.671 428.659 L 494.665 428.66 C 494.104 428.624 492.308 428.417 489.279 428.04 L 488.565 428.015 L 489.208 428.032 C 488.589 427.966 487.708 427.918 486.565 427.889 L 486.563 427.889 C 485.753 427.861 484.199 427.881 481.9 427.949 L 481.894 427.949 L 477.272 427.891 L 477.266 427.891 C 477.199 427.889 477.13 427.888 477.057 427.887 L 477.057 427.887 C 476.848 427.886 476.564 427.896 476.205 427.916 C 475.682 427.945 474.999 427.995 474.158 428.068 C 474.14 428.069 474.121 428.07 474.102 428.071 C 473.147 428.123 471.17 428.402 468.173 428.907 C 468.012 428.904 467.836 428.9 467.647 428.895 C 467.622 428.894 467.597 428.894 467.581 428.894 L 467.579 428.894 L 467.474 428.894 C 467.215 428.899 466.974 428.908 466.753 428.92 C 466.456 428.937 466.193 428.96 465.964 428.989 L 465.963 428.989 C 465.46 429.052 464.956 429.155 464.451 429.296 C 464.406 429.308 464.362 429.321 464.318 429.335 C 464.131 429.395 463.951 429.452 463.778 429.506 L 463.773 429.506 C 462.618 429.635 461.907 429.72 461.639 429.76 L 461.639 429.76 C 461.333 429.805 461.047 429.866 460.781 429.942 L 460.776 429.943 C 459.25 430.262 457.829 430.518 456.514 430.711 C 456.408 430.726 456.304 430.746 456.2 430.77 C 454.221 431.223 451.362 432.184 447.624 433.651 L 447.619 433.652 C 446.639 433.867 445.759 434.065 444.978 434.246 C 452.377 426.557 464.185 416.585 480.402 404.329 L 480.397 404.33 C 497.668 394.645 507.617 389.564 510.245 389.086 C 510.44 389.05 510.631 389.001 510.818 388.937 C 536.699 380.132 554.889 375.374 565.387 374.665 C 565.55 374.654 565.713 374.633 565.873 374.602 C 573.587 373.118 583.796 372.026 596.501 371.326 C 597.323 371.281 598.155 371.237 598.997 371.195 C 599.004 371.195 599.011 371.194 599.018 371.194 C 599.07 371.191 599.122 371.187 599.174 371.182 C 600.403 371.066 601.707 370.97 603.086 370.894 C 609.981 370.514 618.747 370.634 629.382 371.255 C 629.533 371.264 629.684 371.264 629.836 371.256 C 629.913 371.252 629.99 371.245 630.067 371.236 L 632.603 370.948 L 632.61 370.948 C 632.747 371.034 632.89 371.113 633.039 371.183 C 633.663 371.478 634.324 371.598 634.968 371.562 C 636.389 371.484 637.723 370.65 638.373 369.273 C 643.218 359.024 653.181 344.731 668.26 326.394 L 668.253 326.394 C 683.444 312.717 696.468 302.228 707.325 294.925 L 707.323 294.925 C 740.548 273.602 767.849 259.688 789.226 253.183 L 789.217 253.184 C 800.318 250.443 808.281 248.742 813.105 248.079 L 813.096 248.079 C 820.105 247.39 826.115 246.907 831.127 246.631 C 835.992 246.363 839.916 246.29 842.898 246.411 C 843.026 246.416 843.154 246.415 843.281 246.408 C 843.409 246.401 843.536 246.388 843.663 246.369 C 845.919 246.026 848.604 245.212 851.718 243.929 C 851.954 243.831 852.181 243.712 852.394 243.571 C 858.737 239.396 865.05 233.837 871.333 226.895 L 871.343 226.883 Z  M 879.894 205.505 C 878.724 205.57 877.592 206.145 876.855 207.172 C 867.293 220.519 857.773 230.349 848.296 236.663 L 848.287 236.663 C 846.113 237.541 844.286 238.113 842.807 238.378 C 839.647 238.269 835.595 238.351 830.65 238.624 C 825.49 238.908 819.359 239.4 812.256 240.099 C 812.206 240.104 812.157 240.11 812.108 240.116 C 807 240.811 798.708 242.575 787.233 245.409 C 787.165 245.426 787.097 245.444 787.03 245.464 C 764.924 252.168 736.913 266.403 702.996 288.17 L 702.925 288.216 C 691.694 295.763 678.284 306.559 662.696 320.604 C 662.548 320.737 662.411 320.881 662.284 321.034 C 648.037 338.341 638.145 352.287 632.608 362.873 L 632.6 362.873 L 629.504 363.225 C 618.724 362.604 609.762 362.491 602.617 362.885 C 601.174 362.964 599.806 363.064 598.511 363.185 C 597.689 363.226 596.877 363.269 596.074 363.313 C 583.127 364.026 572.635 365.148 564.597 366.677 L 564.591 366.677 C 553.393 367.488 534.677 372.353 508.442 381.27 L 508.436 381.271 C 504.564 382.197 493.839 387.59 476.26 397.451 C 476.102 397.54 475.95 397.639 475.806 397.748 C 452.73 415.173 438.111 428.366 431.948 437.325 C 430.804 438.989 431.088 441.213 432.533 442.542 L 432.528 442.542 C 433.152 443.808 434.428 444.705 435.939 444.775 C 436.512 444.802 437.033 444.802 437.502 444.776 C 437.787 444.76 438.053 444.735 438.3 444.7 L 438.3 444.7 C 438.779 444.632 439.218 444.524 439.617 444.377 L 439.691 444.349 L 443.482 442.87 L 443.48 442.87 C 444.069 442.662 446.128 442.171 449.659 441.397 C 449.868 441.351 450.073 441.288 450.272 441.21 C 453.028 440.121 455.207 439.345 456.808 438.88 L 456.813 438.88 C 457.066 438.955 457.329 439.007 457.602 439.031 C 457.615 439.032 457.623 439.033 457.628 439.033 L 457.637 439.034 C 457.958 439.061 458.266 439.067 458.561 439.051 C 458.85 439.035 459.126 438.998 459.389 438.94 L 459.39 438.94 C 459.514 438.913 459.636 438.88 459.757 438.841 C 460.302 438.665 460.657 438.558 460.822 438.521 L 460.822 438.521 C 460.859 438.513 460.895 438.505 460.932 438.496 L 460.928 438.496 C 461.061 438.467 461.374 438.413 461.869 438.334 C 461.917 438.326 461.965 438.318 462.013 438.308 C 462.232 438.265 462.452 438.217 462.675 438.164 L 462.669 438.164 C 462.725 438.153 462.783 438.14 462.842 438.127 L 462.843 438.127 C 463.271 438.028 464.134 437.777 465.431 437.374 L 465.426 437.374 C 465.96 437.315 466.575 437.249 467.27 437.174 C 467.357 437.164 467.444 437.152 467.531 437.137 C 467.968 437.06 468.385 436.988 468.782 436.92 L 468.788 436.919 C 469.241 436.924 469.575 436.923 469.79 436.914 L 469.788 436.914 C 469.827 436.913 469.864 436.911 469.9 436.909 C 469.936 436.907 469.971 436.905 470.004 436.902 L 470.049 436.899 C 470.156 436.89 470.29 436.881 470.449 436.872 C 470.738 436.856 471.113 436.84 471.574 436.825 C 471.603 436.824 471.632 436.823 471.662 436.821 C 471.679 436.82 471.696 436.819 471.714 436.818 C 471.805 436.812 471.902 436.804 472.003 436.794 L 472.008 436.794 C 472.504 436.967 473.03 437.041 473.554 437.012 C 474.338 436.969 475.118 436.695 475.786 436.177 C 475.882 436.102 475.974 436.023 476.062 435.942 L 476.056 435.942 C 476.289 435.925 476.486 435.912 476.645 435.903 C 476.814 435.894 476.941 435.889 477.026 435.889 L 477.022 435.89 C 477.048 435.89 477.074 435.891 477.1 435.891 L 481.874 435.951 C 481.931 435.952 481.987 435.952 482.044 435.95 C 484.223 435.885 485.637 435.864 486.286 435.887 L 486.325 435.888 C 487.27 435.911 487.948 435.945 488.359 435.989 L 488.356 435.989 C 491.676 436.402 493.675 436.625 494.353 436.656 L 494.353 436.656 C 494.452 436.661 494.548 436.663 494.642 436.663 L 494.636 436.664 C 495.167 436.692 495.744 436.704 496.368 436.7 L 496.362 436.7 C 496.225 436.843 496.096 436.998 495.978 437.165 C 490.339 445.132 479.966 456.078 464.86 470.002 C 464.643 470.202 464.449 470.426 464.281 470.668 L 425.121 527.263 C 424.984 527.462 424.864 527.674 424.765 527.894 L 403.438 575.129 L 403.433 575.129 C 389.434 596.678 381.146 611.058 378.569 618.267 L 378.545 618.337 L 359.297 675.469 C 359.259 675.582 359.225 675.698 359.197 675.814 C 352.261 704.765 348.307 725.061 347.336 736.701 C 347.326 736.814 347.322 736.926 347.322 737.039 L 347.358 766.979 C 347.358 767.137 347.368 767.296 347.387 767.454 L 353.424 817.455 L 351.553 855.905 L 351.549 855.905 C 349.794 861.623 346.863 882.866 342.756 919.633 L 342.752 919.633 L 338.07 939.992 C 338.054 940.062 338.039 940.133 338.027 940.203 C 337.258 944.617 333.103 953.277 325.561 966.181 C 325.432 966.401 325.325 966.633 325.24 966.873 C 322.911 973.493 321.207 979.417 320.126 984.645 C 319.678 986.812 321.071 988.931 323.238 989.38 C 323.587 989.452 323.934 989.476 324.273 989.457 C 325.726 989.377 327.033 988.505 327.663 987.19 L 327.667 987.189 C 331.562 988.971 335.413 989.757 339.218 989.548 C 342.523 989.366 345.795 988.432 349.032 986.746 L 349.059 986.732 L 370.534 975.337 C 370.596 975.305 370.657 975.27 370.717 975.234 C 374.603 972.904 380.462 968.062 388.295 960.71 L 388.29 960.711 C 391.797 958.046 397.451 948.882 405.254 933.218 C 405.288 933.15 405.32 933.08 405.35 933.01 C 406.252 930.906 407.032 928.473 407.689 925.71 L 407.694 925.709 L 424.142 967.077 C 426.777 973.171 429.776 979.539 433.141 986.183 C 438.515 995.807 445.451 1007.01 453.95 1019.791 L 453.945 1019.792 C 454.021 1020.423 454.249 1021.046 454.638 1021.604 L 458.584 1027.253 C 458.647 1027.344 458.714 1027.431 458.784 1027.516 C 462.739 1032.284 465.044 1035.172 465.7 1036.179 L 465.694 1036.179 C 465.708 1036.286 465.725 1036.407 465.745 1036.543 L 465.742 1036.543 L 465.793 1037.022 L 465.793 1037.21 C 465.794 1037.372 465.804 1037.55 465.825 1037.744 C 465.829 1037.781 465.834 1037.822 465.839 1037.865 L 465.833 1037.865 C 465.832 1037.905 465.83 1037.938 465.829 1037.965 L 465.824 1037.965 L 465.744 1038.505 C 465.725 1038.639 465.712 1038.773 465.706 1038.908 C 465.7 1039.049 465.685 1039.198 465.662 1039.356 C 465.647 1039.466 465.635 1039.576 465.629 1039.687 L 465.606 1040.054 L 465.601 1040.055 C 465.598 1040.074 465.595 1040.095 465.592 1040.118 L 465.592 1040.118 C 465.583 1040.189 465.575 1040.258 465.569 1040.329 C 465.553 1040.52 465.547 1040.712 465.55 1040.904 C 465.55 1040.959 465.552 1041.014 465.556 1041.069 C 465.562 1041.183 465.565 1041.261 465.566 1041.303 L 465.567 1041.303 L 465.57 1041.492 L 465.572 1041.57 L 465.571 1041.57 C 465.577 1041.685 465.586 1041.802 465.599 1041.922 L 465.611 1042.024 L 465.741 1043.011 L 465.738 1043.011 C 465.753 1043.159 465.769 1043.297 465.784 1043.424 L 465.779 1043.424 L 465.748 1043.716 C 465.728 1043.908 465.722 1044.102 465.73 1044.295 C 465.731 1044.321 465.733 1044.348 465.734 1044.375 L 465.734 1044.385 C 465.745 1044.611 465.769 1044.82 465.805 1045.01 L 465.805 1045.01 L 465.8 1044.949 L 465.805 1045.011 L 465.801 1045.011 L 465.801 1045.021 L 465.806 1045.021 L 465.812 1045.099 L 465.811 1045.099 C 465.812 1045.099 465.812 1045.099 465.812 1045.109 L 465.806 1045.109 C 465.797 1045.214 465.792 1045.319 465.791 1045.424 C 465.79 1045.443 465.79 1045.454 465.79 1045.458 C 465.789 1045.679 465.798 1045.881 465.818 1046.065 L 465.818 1046.065 C 465.85 1046.367 465.911 1046.664 466 1046.954 L 465.994 1046.955 C 466.044 1048.277 466.082 1049.102 466.109 1049.429 L 466.109 1049.429 C 466.125 1049.618 466.148 1049.793 466.178 1049.953 L 466.173 1049.953 C 466.311 1050.959 466.394 1051.66 466.421 1052.054 C 466.43 1052.184 466.445 1052.312 466.461 1052.408 L 466.462 1052.408 L 466.467 1052.44 C 466.616 1053.326 466.711 1053.976 466.752 1054.388 L 466.767 1054.518 L 466.765 1054.519 C 466.775 1054.629 466.783 1054.735 466.79 1054.839 L 466.789 1054.839 C 466.834 1055.867 466.881 1056.719 466.929 1057.396 L 466.924 1057.397 L 466.895 1059.05 L 466.895 1059.05 C 466.894 1059.145 466.895 1059.248 466.9 1059.361 L 466.9 1059.361 C 466.905 1059.487 466.917 1059.676 466.934 1059.93 L 466.939 1059.997 L 466.94 1059.997 L 466.943 1060.034 C 467.013 1060.761 467.059 1061.3 467.082 1061.651 L 467.082 1061.651 C 467.113 1062.195 467.129 1062.532 467.131 1062.662 L 467.131 1062.663 L 467.129 1062.663 L 467.019 1066.704 L 467.019 1066.721 C 467.009 1067.151 467.017 1067.538 467.043 1067.884 C 467.068 1068.218 467.108 1068.554 467.164 1068.892 C 467.172 1068.938 467.18 1068.985 467.19 1069.031 C 467.345 1069.804 467.464 1070.453 467.546 1070.979 L 467.546 1070.979 L 467.771 1072.581 L 467.769 1072.581 C 467.786 1072.757 467.797 1072.94 467.804 1073.131 C 467.809 1073.289 467.804 1073.494 467.789 1073.746 C 467.784 1073.824 467.782 1073.902 467.782 1073.98 C 467.781 1074.305 467.802 1074.627 467.846 1074.945 C 467.866 1075.09 467.894 1075.234 467.93 1075.376 C 468.247 1076.636 468.428 1077.408 468.474 1077.692 L 468.471 1077.692 C 468.476 1077.733 468.481 1077.773 468.487 1077.813 L 468.482 1077.813 C 468.483 1077.931 468.48 1078.107 468.471 1078.339 C 468.467 1078.446 468.467 1078.555 468.472 1078.663 C 468.489 1079.077 468.537 1079.509 468.614 1079.961 C 468.64 1080.117 468.675 1080.27 468.72 1080.422 L 469.711 1083.787 L 469.706 1083.787 C 469.876 1084.928 470.109 1086.028 470.406 1087.088 C 470.847 1088.664 472.17 1089.755 473.692 1089.975 L 473.687 1089.976 C 474.317 1090.368 475.065 1090.589 475.862 1090.576 C 475.915 1090.575 475.968 1090.576 476.021 1090.566 C 477.159 1090.503 478.167 1089.967 478.856 1089.154 L 478.851 1089.154 C 479.059 1088.976 479.428 1088.682 479.959 1088.272 C 480.202 1088.084 480.423 1087.869 480.617 1087.631 C 481.36 1086.718 482.315 1085.427 483.483 1083.757 L 483.478 1083.757 L 485.808 1081.19 C 486.009 1080.968 486.186 1080.723 486.333 1080.461 C 487.212 1078.897 487.783 1077.92 488.046 1077.532 L 488.041 1077.533 C 488.114 1077.444 488.183 1077.353 488.249 1077.258 C 488.492 1076.908 488.732 1076.568 488.971 1076.238 L 488.976 1076.238 C 489.065 1076.403 489.154 1076.571 489.244 1076.742 C 494.387 1083.302 498.217 1088.04 500.734 1090.957 C 510.669 1102.262 525.017 1117.211 543.779 1135.803 C 545.978 1138.596 547.278 1140.394 547.68 1141.197 C 548.31 1142.501 548.774 1144.21 549.072 1146.324 L 549.799 1147.487 C 551.152 1148.481 552.35 1148.95 553.395 1148.893 C 554.215 1148.848 554.94 1148.478 555.57 1147.785 L 555.84 1147.392 L 555.846 1147.392 C 556.045 1147.411 556.244 1147.414 556.443 1147.403 C 557.476 1147.346 558.487 1146.892 559.226 1146.054 C 560.593 1144.506 560.547 1142.196 559.185 1140.705 L 559.179 1140.705 C 557.917 1138.661 555.381 1129.895 551.57 1114.406 L 551.568 1114.406 L 546.763 1092.084 L 546.757 1092.084 C 544.712 1077.322 543.478 1067.792 543.054 1063.494 L 543.048 1063.494 C 542.53 1051.39 541.723 1042.718 540.628 1037.479 L 540.622 1037.479 C 539.919 1030.141 535.796 1012.914 528.252 985.8 L 528.246 985.8 L 524.544 966.21 L 524.538 966.211 C 524.349 962.844 522.22 950.094 518.15 927.96 L 518.148 927.961 C 517.752 925.301 517.256 918.022 516.659 906.124 L 516.653 906.124 C 517.16 881.99 519.285 862.874 523.028 848.777 L 523.025 848.777 C 535.109 809.428 542.154 783.801 544.16 771.895 L 544.154 771.895 C 545.439 767.363 546.59 763.916 547.607 761.554 L 547.613 761.554 C 562.639 798.847 586.072 835.707 617.912 872.135 L 617.905 872.135 C 617.988 872.255 618.074 872.371 618.163 872.481 C 618.334 872.694 618.522 872.885 618.725 873.054 L 618.718 873.054 C 618.895 873.255 619.072 873.456 619.249 873.658 C 620.093 874.617 621.294 875.076 622.478 875.01 C 623.345 874.963 624.202 874.635 624.903 874.017 C 626.564 872.554 626.724 870.022 625.262 868.362 C 624.981 868.042 624.7 867.723 624.421 867.405 L 624.414 867.405 C 622.705 863.787 620.992 847.589 619.274 818.811 L 619.274 818.811 C 619.135 816.233 619.642 810.708 620.797 802.238 L 620.795 802.238 C 624.175 782.418 626.464 771.163 627.663 768.472 L 627.656 768.472 C 627.954 768.12 628.191 767.716 628.354 767.278 L 648.24 713.653 L 648.247 713.652 C 649.576 710.635 652.32 705.518 656.478 698.299 L 656.471 698.299 L 692.206 643.302 L 692.207 643.302 C 696.022 637.564 699.924 633.184 703.913 630.163 L 703.921 630.163 C 704.562 640.13 705.451 647.925 706.589 653.548 L 706.589 653.548 C 711.784 680.937 720.02 708.944 731.296 737.569 C 731.334 737.666 731.376 737.761 731.421 737.854 C 740.543 756.598 753.961 779.545 771.677 806.697 C 771.707 806.743 771.737 806.787 771.768 806.831 C 779.422 817.585 791.841 827.51 809.024 836.606 L 809.015 836.607 C 809.133 838.089 810.075 839.448 811.554 840.025 C 812.104 840.24 812.674 840.325 813.228 840.295 C 814.748 840.211 816.153 839.26 816.743 837.75 C 817.153 836.699 817.217 835.561 816.937 834.336 C 816.925 834.282 816.911 834.228 816.897 834.174 C 816.003 830.9 815.42 828.855 815.149 828.039 L 815.14 828.039 L 813.684 821.253 L 813.686 821.253 C 813.386 819.565 813.07 817.205 812.74 814.173 L 812.74 814.173 L 812.734 814.119 C 812.728 814.06 812.72 814.001 812.711 813.943 L 811.986 809.237 C 811.983 809.22 811.98 809.203 811.978 809.186 L 811.969 809.187 C 811.935 808.756 811.896 807.604 811.851 805.731 L 811.849 805.664 C 811.82 804.944 811.812 803.614 811.823 801.675 C 811.824 801.578 811.821 801.48 811.814 801.383 L 811.578 797.86 L 811.577 797.86 C 811.207 789.575 810.938 784.292 810.771 782.011 L 810.769 782.011 C 810.676 779.777 810.669 777.076 810.75 773.907 L 810.749 773.907 L 810.751 773.85 C 810.753 773.783 810.753 773.716 810.751 773.649 C 810.581 766.733 810.484 758.688 810.461 749.514 L 810.458 749.514 C 810.672 743.594 810.958 738.804 811.315 735.143 L 811.324 735.142 C 815.954 746.073 823.196 760.305 833.052 777.837 C 833.073 777.875 833.096 777.913 833.119 777.951 L 837.632 785.39 C 837.68 785.471 837.732 785.549 837.786 785.626 L 869.615 830.611 C 869.641 830.647 869.668 830.683 869.695 830.719 C 888.236 855.143 918.343 877.335 960.016 897.294 L 960.006 897.295 C 960.08 897.452 960.157 897.612 960.237 897.775 C 960.965 899.267 962.499 900.104 964.06 900.018 C 964.578 899.99 965.099 899.86 965.595 899.618 C 965.929 899.454 966.231 899.251 966.497 899.015 L 966.486 899.016 C 967.433 898.662 968.248 897.952 968.712 896.964 C 969.651 894.961 968.789 892.575 966.786 891.635 C 966.605 891.55 966.424 891.465 966.244 891.38 L 966.233 891.381 C 966.216 891.313 966.203 891.25 966.194 891.194 C 963.924 877.093 962.023 867.591 960.489 862.688 L 960.479 862.689 L 957.599 845.704 L 957.083 835.749 L 957.073 835.749 C 957.987 829.11 958.218 820.068 957.768 808.624 L 957.758 808.625 C 960.986 787.232 963.322 774.293 964.765 769.808 C 964.866 769.493 964.928 769.167 964.949 768.838 C 965.433 761.28 966.315 754.947 967.593 749.839 C 967.658 749.577 967.697 749.309 967.709 749.04 C 968.072 740.608 968.711 733.312 969.626 727.153 L 969.621 727.153 L 989.083 630.415 L 989.094 630.414 C 993.287 634.801 999.555 642.125 1007.898 652.384 C 1008.079 652.607 1008.28 652.805 1008.496 652.979 L 1008.485 652.98 C 1009.191 653.969 1010.722 656.519 1013.077 660.629 L 1013.077 660.629 C 1013.895 662.058 1014.803 663.66 1015.801 665.434 L 1015.801 665.434 L 1022.556 678.045 L 1041.783 729.42 L 1041.772 729.421 C 1043.788 737.751 1045.857 744.972 1047.977 751.083 L 1047.966 751.083 L 1054.214 784.613 L 1055.657 795.753 L 1055.656 795.753 C 1057.546 815.203 1058.297 828.551 1057.911 835.798 L 1057.901 835.919 C 1057.767 841.734 1057.034 846.504 1055.701 850.228 C 1055.602 850.502 1055.535 850.785 1055.498 851.074 C 1055.394 851.889 1055.363 852.783 1055.403 853.755 L 1055.392 853.756 L 1054.824 854.16 C 1053.022 855.444 1052.602 857.946 1053.886 859.748 C 1054.713 860.91 1056.047 861.497 1057.373 861.424 C 1058.104 861.384 1058.833 861.143 1059.474 860.686 L 1080.739 845.535 C 1080.957 845.38 1081.158 845.204 1081.341 845.008 C 1086.727 839.245 1093.491 830.425 1101.632 818.547 L 1101.621 818.548 C 1109.484 811.7 1117.435 803.755 1125.474 794.713 L 1125.474 794.714 C 1137.926 781.648 1148.896 763.58 1158.386 740.511 L 1158.398 740.51 L 1178.216 763.883 C 1178.302 763.984 1178.392 764.08 1178.485 764.171 L 1178.473 764.171 C 1179.738 767.117 1182.654 774.719 1187.221 786.975 L 1187.221 786.975 C 1190.334 796.409 1193.02 807.248 1195.28 819.493 L 1195.27 819.493 L 1200.004 854.967 C 1200.021 855.097 1200.044 855.225 1200.074 855.351 L 1200.061 855.352 C 1200.168 856.486 1200.394 860.252 1200.739 866.651 C 1200.947 871.019 1200.72 876.346 1200.056 882.633 C 1200.041 882.779 1200.034 882.925 1200.034 883.076 L 1200.034 883.086 C 1200.086 894.27 1200 900.538 1199.777 901.892 L 1199.777 901.892 C 1199.714 902.171 1199.683 902.457 1199.681 902.746 L 1199.681 902.746 C 1199.656 903.801 1199.035 908.529 1197.818 916.931 C 1197.796 917.08 1197.783 917.23 1197.778 917.38 C 1197.41 929.173 1195.918 944.832 1193.301 964.358 L 1189.735 990.319 L 1182.389 1026.108 L 1182.369 1026.216 L 1171.85 1085.668 C 1171.819 1085.838 1171.8 1086.011 1171.792 1086.184 C 1171.592 1090.611 1170.606 1096.499 1168.836 1103.848 C 1168.806 1103.976 1168.781 1104.105 1168.763 1104.235 C 1167.917 1110.326 1167.483 1116.072 1167.463 1121.473 L 1167.451 1121.474 C 1167.334 1122.192 1166.959 1123.448 1166.327 1125.24 L 1166.314 1125.241 C 1164.399 1126.242 1163.618 1128.594 1164.572 1130.548 C 1165.301 1132.041 1166.834 1132.878 1168.395 1132.792 C 1168.913 1132.763 1169.435 1132.633 1169.931 1132.39 C 1172.374 1131.197 1174.152 1129.882 1175.264 1128.445 L 1175.264 1128.445 L 1231.064 1058.233 L 1233.419 1060.851 C 1234.396 1061.947 1236.396 1063.717 1239.419 1066.16 L 1239.482 1066.21 L 1243.846 1069.596 C 1243.966 1069.689 1244.091 1069.775 1244.221 1069.854 L 1249.659 1073.159 L 1249.762 1073.219 L 1249.762 1073.22 C 1250.041 1073.407 1250.575 1073.824 1251.365 1074.472 L 1251.352 1074.472 C 1251.352 1074.718 1251.38 1074.967 1251.43 1075.217 C 1251.825 1077.197 1253.616 1078.542 1255.574 1078.435 C 1255.763 1078.424 1255.953 1078.4 1256.143 1078.362 C 1257.563 1078.078 1258.579 1077.503 1259.192 1076.635 L 1259.179 1076.635 C 1260.042 1076.087 1260.696 1075.212 1260.939 1074.136 C 1261.181 1073.068 1260.971 1072.003 1260.436 1071.141 L 1260.423 1071.142 C 1260.513 1070.52 1260.565 1069.911 1260.581 1069.313 C 1260.582 1069.271 1260.582 1069.228 1260.582 1069.185 C 1260.582 1068.957 1260.572 1068.746 1260.559 1068.551 L 1260.559 1068.55 C 1260.559 1068.485 1260.549 1068.42 1260.543 1068.358 L 1260.533 1068.358 C 1260.523 1068.218 1260.508 1068.064 1260.484 1067.898 C 1260.444 1067.618 1260.359 1067.158 1260.23 1066.52 L 1260.217 1066.521 L 1260.216 1066.521 L 1260.215 1066.521 C 1260.296 1064.806 1260.355 1063.673 1260.395 1063.121 L 1260.382 1063.121 C 1260.453 1062.794 1260.484 1062.453 1260.47 1062.104 C 1260.448 1061.563 1260.434 1061.17 1260.428 1060.925 L 1260.414 1060.926 C 1260.485 1060.332 1260.53 1059.891 1260.55 1059.603 L 1260.539 1059.603 C 1260.573 1059.304 1260.577 1058.974 1260.55 1058.613 L 1260.55 1058.613 C 1260.533 1058.385 1260.501 1058.104 1260.455 1057.77 L 1260.442 1057.771 C 1260.431 1057.264 1260.427 1056.895 1260.428 1056.663 L 1260.414 1056.664 L 1260.594 1055.375 L 1260.581 1055.376 C 1260.727 1054.872 1260.792 1054.293 1260.776 1053.638 L 1260.776 1053.637 C 1260.766 1053.308 1260.72 1052.541 1260.633 1051.337 L 1260.62 1051.338 L 1260.663 1050.574 C 1260.673 1050.394 1260.673 1050.213 1260.653 1050.033 L 1260.618 1049.595 L 1260.605 1049.596 C 1260.618 1049.182 1260.615 1048.668 1260.595 1048.052 L 1260.582 1048.053 C 1260.741 1046.135 1260.864 1044.969 1260.95 1044.556 L 1260.95 1044.555 L 1260.97 1044.454 C 1261.064 1043.942 1261.057 1043.419 1260.95 1042.911 L 1260.95 1042.911 C 1260.9 1042.598 1260.832 1041.748 1260.748 1040.362 L 1260.738 1040.362 L 1260.714 1037.576 C 1260.713 1037.488 1260.704 1037.399 1260.703 1037.311 C 1260.641 1036.49 1260.611 1035.627 1260.613 1034.722 L 1260.613 1034.722 L 1260.613 1034.671 C 1260.614 1034.577 1260.613 1034.482 1260.603 1034.388 C 1260.548 1033.573 1260.511 1033.056 1260.49 1032.837 C 1260.479 1032.73 1260.466 1032.626 1260.45 1032.524 L 1260.45 1032.524 C 1260.374 1032.039 1260.32 1031.681 1260.29 1031.45 L 1260.276 1031.451 L 1260.396 1028.591 C 1260.396 1028.47 1260.396 1028.35 1260.395 1028.229 C 1260.342 1027.142 1260.259 1026.119 1260.147 1025.16 L 1260.137 1025.16 C 1260.059 1024.084 1260.007 1023.342 1259.981 1022.936 L 1259.96 1022.937 C 1259.97 1022.786 1259.97 1022.632 1259.96 1022.478 C 1259.917 1021.66 1259.981 1020.408 1260.151 1018.724 C 1260.165 1018.587 1260.172 1018.451 1260.172 1018.314 C 1260.171 1017.971 1260.156 1017.624 1260.127 1017.272 C 1260.117 1017.193 1260.112 1017.114 1260.101 1017.036 C 1259.993 1016.28 1259.935 1015.78 1259.927 1015.537 L 1259.914 1015.538 C 1270.878 997.25 1280.418 979.511 1288.533 962.321 C 1296.369 942.717 1302.281 926.039 1306.269 912.287 L 1306.282 912.286 L 1319.694 924.003 C 1319.974 924.247 1320.285 924.451 1320.621 924.609 C 1322.922 925.695 1328.301 929.095 1336.757 934.81 C 1336.936 934.931 1337.124 935.037 1337.32 935.128 L 1337.306 935.129 C 1338.812 936.048 1345.041 940.857 1355.993 949.556 C 1356.076 949.622 1356.161 949.685 1356.249 949.744 L 1363.309 954.491 C 1363.368 954.531 1363.429 954.569 1363.49 954.606 C 1371.551 959.42 1376.568 962.121 1378.541 962.71 L 1378.541 962.71 C 1379.202 962.907 1379.822 962.99 1380.4 962.958 L 1380.462 962.954 C 1381.531 962.88 1382.472 962.393 1383.142 961.659 L 1383.127 961.66 C 1384.614 960.658 1385.018 958.999 1384.338 956.685 L 1384.338 956.685 C 1384.284 956.5 1384.216 956.318 1384.135 956.143 L 1383.76 955.326 L 1383.745 955.327 C 1383.966 954.514 1383.933 953.625 1383.594 952.784 C 1383.131 951.636 1382.652 950.358 1382.158 948.95 L 1382.144 948.951 C 1382.131 948.799 1382.113 948.657 1382.091 948.525 L 1382.091 948.525 C 1381.983 947.87 1381.882 947.343 1381.788 946.945 L 1381.774 946.946 C 1381.764 946.849 1381.754 946.755 1381.742 946.663 L 1381.742 946.661 C 1381.742 946.629 1381.732 946.598 1381.729 946.567 L 1381.714 946.567 C 1381.676 945.487 1381.209 944.515 1380.479 943.817 L 1380.464 943.818 C 1374.997 926.329 1367.805 894.946 1358.887 849.67 L 1358.873 849.671 L 1352.665 700.628 C 1352.655 700.471 1352.643 700.313 1352.618 700.157 C 1348.455 674.338 1344.97 658.612 1342.162 652.979 L 1342.148 652.98 C 1329.716 622.049 1316.821 593.112 1303.462 566.168 L 1303.476 566.167 C 1307.018 566.813 1311.48 567.339 1316.86 567.746 L 1316.845 567.747 C 1317.828 567.858 1318.989 567.877 1320.327 567.803 C 1324.002 567.601 1329.018 566.701 1335.376 565.102 L 1335.375 565.102 C 1340.173 563.954 1343.821 562.788 1346.317 561.603 C 1346.377 561.574 1346.437 561.544 1346.496 561.513 C 1349.638 559.824 1352.505 558.016 1355.097 556.089 L 1355.083 556.09 C 1358.339 554.231 1361.165 550.77 1363.56 545.706 L 1363.575 545.706 C 1363.994 545.817 1364.416 545.858 1364.827 545.836 C 1366.511 545.743 1368.019 544.584 1368.477 542.866 C 1369.047 540.728 1367.776 538.533 1365.638 537.963 L 1363.885 537.495 L 1363.871 537.496 C 1363.553 537.242 1363.191 537.032 1362.79 536.879 C 1362.248 536.673 1361.69 536.592 1361.147 536.622 C 1361.017 536.629 1360.888 536.643 1360.761 536.662 L 1349.842 533.752 L 1318.443 521.44 L 1318.429 521.441 C 1307.689 516.442 1298.397 511.497 1290.555 506.604 L 1290.555 506.603 C 1284.189 502.638 1278.467 498.201 1273.389 493.293 L 1273.377 493.293 C 1265.063 483.96 1259.911 478.371 1257.923 476.528 L 1257.909 476.528 C 1252.159 468.619 1248.43 463.982 1246.722 462.619 C 1246.484 462.429 1246.25 462.265 1246.019 462.126 L 1246.019 462.125 C 1245.305 461.696 1244.51 461.515 1243.736 461.557 C 1243.348 461.579 1242.965 461.656 1242.6 461.787 C 1236.134 452.473 1229.579 443.544 1222.935 435.001 C 1222.857 434.901 1222.774 434.804 1222.686 434.711 C 1204.622 415.575 1181.636 396.639 1153.728 377.904 L 1153.71 377.892 C 1113.729 351.363 1065.991 329.597 1010.496 312.594 C 1010.312 312.537 1010.125 312.494 1009.935 312.465 L 930.011 300.107 C 929.919 300.093 929.826 300.082 929.733 300.074 C 908.556 298.304 888.625 297.934 869.939 298.963 C 854.789 299.798 840.459 301.553 826.947 304.228 C 833.112 298.299 839.3 291.404 845.512 283.545 L 845.511 283.545 C 854.033 273.277 859.336 266.177 861.419 262.244 L 861.409 262.245 C 862.889 260.267 868.437 249.974 878.055 231.366 L 878.052 231.366 C 879.075 229.541 880.844 223.995 883.359 214.727 C 883.375 214.669 883.39 214.61 883.403 214.55 C 883.679 213.311 883.786 212.208 883.723 211.24 L 883.713 211.24 C 884.543 209.519 884.041 207.399 882.435 206.248 C 881.664 205.695 880.763 205.456 879.883 205.504 L 879.894 205.505 Z " fill="rgb(0,0,0)"/></g><g id="hair color"><path d=" M 1264.581 495.461 Q 1265.925 496.964 1267.414 498.636 C 1267.478 498.707 1267.545 498.777 1267.613 498.844 Q 1275.923 506.923 1286.329 513.405 L 1286.329 513.405 Q 1298.517 521.009 1315.088 528.72 C 1315.162 528.754 1315.239 528.787 1315.315 528.817 L 1347.141 541.296 C 1347.281 541.351 1347.425 541.398 1347.571 541.437 L 1355.703 543.605 L 1355.688 543.605 Q 1353.475 547.848 1351.041 549.178 C 1350.871 549.271 1350.708 549.376 1350.553 549.492 Q 1347.056 552.122 1342.729 554.448 L 1342.715 554.448 Q 1339.718 555.827 1333.523 557.309 L 1333.478 557.321 Q 1324.517 559.576 1320.056 559.822 Q 1318.659 559.899 1317.704 559.779 C 1317.638 559.771 1317.572 559.764 1317.505 559.759 Q 1307.152 558.977 1301.957 557.648 L 1301.943 557.649 Q 1299.74 556.812 1298.518 556.276 L 1298.504 556.277 Q 1282 523.875 1264.567 495.462 L 1264.581 495.461 Z  M 871.333 226.884 Q 861.909 237.297 852.394 243.56 C 852.181 243.701 851.954 243.82 851.718 243.918 Q 847.048 245.843 843.663 246.358 C 843.536 246.377 843.409 246.39 843.281 246.397 C 843.154 246.404 843.026 246.405 842.898 246.4 Q 838.425 246.218 831.127 246.62 Q 823.61 247.034 813.096 248.068 L 813.105 248.068 Q 805.869 249.062 789.217 253.173 L 789.226 253.172 Q 757.161 262.93 707.323 294.914 L 707.325 294.914 Q 691.04 305.868 668.253 326.383 L 668.26 326.383 Q 645.641 353.889 638.373 369.262 C 637.723 370.639 636.389 371.473 634.968 371.551 C 634.324 371.587 633.663 371.467 633.039 371.172 C 632.89 371.102 632.747 371.023 632.61 370.937 L 632.603 370.937 L 630.067 371.225 C 629.99 371.234 629.913 371.241 629.836 371.245 C 629.684 371.253 629.533 371.253 629.382 371.244 Q 613.429 370.313 603.086 370.883 Q 601.018 370.997 599.174 371.171 C 599.122 371.176 599.07 371.18 599.018 371.183 C 599.011 371.183 599.004 371.184 598.997 371.184 Q 597.734 371.247 596.501 371.315 Q 577.444 372.365 565.873 374.591 C 565.713 374.622 565.55 374.643 565.387 374.654 Q 549.639 375.718 510.819 388.926 C 510.631 388.99 510.44 389.039 510.245 389.075 Q 506.303 389.792 480.397 404.319 L 480.402 404.318 Q 456.077 422.702 444.978 434.235 Q 446.149 433.964 447.619 433.641 L 447.624 433.64 Q 453.231 431.439 456.2 430.759 C 456.304 430.735 456.408 430.715 456.514 430.7 Q 458.487 430.411 460.776 429.932 L 460.781 429.931 Q 461.18 429.817 461.639 429.749 L 461.639 429.749 Q 462.041 429.689 463.773 429.495 L 463.778 429.495 Q 464.037 429.414 464.318 429.324 C 464.362 429.31 464.406 429.297 464.451 429.285 Q 465.208 429.073 465.963 428.978 L 465.964 428.978 Q 466.308 428.934 466.753 428.909 Q 467.085 428.891 467.474 428.883 L 467.579 428.883 L 467.581 428.883 C 467.598 428.883 467.622 428.883 467.647 428.884 Q 467.931 428.891 468.173 428.896 Q 472.669 428.138 474.102 428.06 Q 474.131 428.058 474.158 428.057 Q 475.42 427.948 476.205 427.905 Q 476.743 427.875 477.057 427.876 L 477.057 427.876 Q 477.166 427.877 477.266 427.88 L 477.272 427.88 L 481.894 427.938 L 481.9 427.938 Q 485.348 427.836 486.563 427.878 L 486.565 427.878 Q 488.279 427.922 489.208 428.021 L 488.565 428.004 L 489.279 428.029 Q 493.823 428.595 494.665 428.649 L 494.671 428.648 C 494.763 428.647 494.855 428.65 494.947 428.655 Q 496.254 428.734 498.264 428.623 Q 498.488 428.611 498.722 428.596 C 498.733 428.596 498.744 428.595 498.754 428.594 C 498.833 428.59 498.912 428.588 498.991 428.588 Q 500.388 428.594 500.945 428.635 L 500.945 428.635 Q 501.1 428.646 501.241 428.663 L 501.247 428.663 Q 504.951 428.998 508.09 431.559 C 509.805 432.958 510.06 435.482 508.661 437.197 C 508.146 437.828 507.478 438.262 506.754 438.488 L 506.76 438.487 Q 504.749 441.144 503.996 442.257 L 503.998 442.257 Q 503.817 442.532 503.59 442.796 L 503.59 442.796 Q 503.08 443.387 501.212 445.238 L 501.216 445.238 Q 501.157 445.297 501.096 445.355 L 501.096 445.356 Q 500.861 445.58 500.112 446.249 C 499.607 446.7 499.019 447 498.404 447.151 L 498.41 447.15 Q 489.038 458.591 470.603 475.606 L 470.609 475.606 L 431.918 531.523 L 410.627 578.68 C 410.543 578.866 410.445 579.045 410.334 579.215 Q 389.752 610.876 386.14 620.895 L 386.139 620.895 L 366.933 677.903 L 366.937 677.902 Q 356.759 720.412 355.331 737.252 L 355.335 737.251 L 355.371 766.73 L 361.42 816.831 C 361.447 817.055 361.455 817.28 361.444 817.506 L 359.531 856.833 C 359.51 857.264 359.419 857.689 359.263 858.091 Q 357.057 863.76 350.698 920.716 C 350.681 920.869 350.655 921.02 350.621 921.17 L 345.88 941.782 L 345.885 941.782 Q 344.381 949.817 332.664 969.908 L 332.668 969.908 Q 330.886 975.005 329.637 979.48 L 329.641 979.479 C 330.044 979.531 330.445 979.644 330.833 979.825 Q 334.878 981.715 338.803 981.498 Q 342.096 981.317 345.303 979.653 L 345.303 979.653 L 366.649 968.327 L 366.653 968.327 Q 371.797 965.221 383.003 954.687 C 383.158 954.541 383.324 954.409 383.5 954.289 Q 386.967 951.94 397.997 929.814 L 398.002 929.814 Q 400.903 923.016 401.869 909.95 C 401.932 909.091 402.262 908.316 402.771 907.699 L 402.776 907.698 Q 396.607 881.41 393.444 862.236 L 390.453 814.339 Q 389.799 805.01 392.366 788.315 Q 393.154 782.529 397.546 780.586 L 397.689 780.577 Q 402.828 781.195 402.537 784.649 Q 402.566 785.267 402.178 786.253 Q 400.919 787.538 400.24 789.162 Q 399.827 790.14 399.511 791.69 Q 398.764 795.319 398.483 804.64 L 398.454 813.89 L 401.396 861.219 Q 409.003 901.302 411.752 911.825 L 414.774 921.832 Q 435.385 974.158 435.917 974.129 Q 435.92 974.129 435.923 974.127 Q 445.183 991.791 456.728 1009.654 L 456.733 1009.653 C 457.079 1009.831 457.404 1010.062 457.697 1010.347 L 457.697 1010.347 Q 458.046 1010.686 458.378 1011.163 L 458.378 1011.163 Q 459.068 1012.155 460.643 1015.255 L 460.648 1015.255 L 462.539 1017.571 C 462.82 1017.916 463.039 1018.302 463.191 1018.712 L 463.197 1018.711 Q 463.746 1019.605 465.916 1022.525 L 465.913 1022.526 L 471.622 1029.621 C 471.66 1029.668 471.697 1029.716 471.733 1029.766 Q 471.985 1030.111 472.306 1030.592 L 472.311 1030.591 C 473.643 1031.332 474.415 1032.755 474.364 1034.229 L 474.37 1034.228 C 474.745 1035.078 474.803 1035.998 474.585 1036.845 L 474.591 1036.845 Q 474.59 1036.891 474.589 1036.938 C 474.588 1036.996 474.585 1037.054 474.581 1037.112 L 473.982 1046.243 L 473.987 1046.242 Q 474.066 1048.399 474.096 1048.763 L 474.099 1048.762 Q 474.334 1050.468 474.404 1051.346 L 474.41 1051.346 Q 474.626 1052.659 474.712 1053.457 L 474.711 1053.457 L 474.711 1053.459 L 474.724 1053.575 Q 474.764 1053.96 474.787 1054.328 L 474.791 1054.405 Q 474.86 1055.976 474.93 1056.925 C 474.939 1057.046 474.942 1057.167 474.94 1057.289 L 474.908 1059.143 L 474.913 1059.143 Q 474.917 1059.209 474.923 1059.302 L 474.923 1059.302 L 474.923 1059.306 L 474.923 1059.306 Q 475.037 1060.493 475.078 1061.13 L 475.08 1061.162 Q 475.139 1062.183 475.143 1062.564 Q 475.145 1062.699 475.141 1062.817 L 475.141 1062.817 L 475.03 1066.921 L 475.03 1066.921 Q 475.025 1067.162 475.034 1067.285 Q 475.045 1067.43 475.07 1067.586 L 475.073 1067.586 Q 475.321 1068.831 475.464 1069.742 L 475.472 1069.802 L 475.706 1071.463 L 475.739 1071.801 L 475.744 1071.801 Q 475.794 1072.311 475.813 1072.844 L 475.813 1072.85 Q 475.829 1073.317 475.806 1073.865 L 475.812 1073.865 Q 476.273 1075.724 476.384 1076.411 L 476.384 1076.413 Q 476.426 1076.671 476.444 1076.897 L 476.449 1076.897 Q 476.468 1077.071 476.479 1077.257 L 476.479 1077.258 Q 476.507 1077.739 476.485 1078.456 L 476.495 1078.456 L 476.767 1079.381 Q 476.918 1079.167 477.074 1078.942 C 477.172 1078.801 477.279 1078.667 477.395 1078.54 L 479.557 1076.157 L 479.563 1076.156 Q 481.016 1073.586 481.584 1072.794 L 481.584 1072.793 Q 481.638 1072.718 481.692 1072.647 L 481.697 1072.647 Q 484.301 1068.899 486.746 1066.337 C 487.478 1065.569 488.442 1065.156 489.423 1065.102 C 490.49 1065.044 491.577 1065.409 492.411 1066.205 C 493.284 1067.038 493.699 1068.171 493.647 1069.289 L 493.653 1069.289 Q 509.338 1088.994 516.485 1096.584 Q 518.669 1099.324 546.68 1127.64 Q 545.335 1122.614 543.76 1116.209 L 543.734 1116.095 L 538.88 1093.548 C 538.859 1093.451 538.842 1093.353 538.828 1093.254 Q 535.679 1070.515 535.057 1064.052 C 535.05 1063.981 535.045 1063.91 535.042 1063.839 Q 534.28 1046.022 532.733 1038.882 C 532.698 1038.72 532.673 1038.556 532.659 1038.391 Q 531.751 1028.252 520.468 987.72 C 520.438 987.611 520.412 987.501 520.391 987.39 L 516.608 967.374 C 516.564 967.139 516.541 966.902 516.539 966.664 Q 516.51 963.345 510.245 929.279 C 510.236 929.234 510.229 929.189 510.222 929.144 Q 509.567 924.742 508.644 906.302 C 508.64 906.207 508.638 906.112 508.64 906.018 Q 509.42 868.687 515.323 846.57 C 515.336 846.523 515.35 846.475 515.364 846.427 Q 533.476 787.454 536.3 770.315 C 536.324 770.167 536.357 770.02 536.398 769.876 Q 540.235 756.309 544.075 752.36 L 544.081 752.36 Q 538.241 736.367 534.454 720.268 L 534.456 720.268 Q 529.56 702.121 529.583 666.405 L 529.589 666.405 Q 528.554 655.579 533.288 618.943 C 533.297 618.875 533.307 618.806 533.32 618.738 Q 537.677 594.831 539.454 589.893 L 539.46 589.875 Q 549.75 561.711 552.744 550.774 L 552.754 550.737 Q 553.721 547.334 556.484 545.471 C 557.106 545.052 557.802 544.831 558.5 544.792 C 559.862 544.717 561.228 545.34 562.046 546.553 C 563.283 548.388 562.798 550.878 560.964 552.115 Q 560.629 552.341 560.462 552.927 L 560.463 552.927 Q 557.374 564.196 546.987 592.625 L 546.987 592.625 Q 545.432 596.97 541.203 620.175 L 541.208 620.175 Q 536.59 655.967 537.576 665.746 C 537.59 665.881 537.596 666.017 537.596 666.153 Q 537.557 700.997 542.192 718.18 C 542.204 718.223 542.215 718.266 542.225 718.308 Q 546.245 735.436 552.667 752.461 L 552.673 752.461 C 552.835 752.771 552.957 753.103 553.034 753.448 L 553.041 753.448 Q 572.661 804.897 614.221 855.403 Q 612.65 842.324 611.274 819.268 L 611.273 819.246 Q 611.022 814.598 612.875 801.025 C 612.881 800.981 612.888 800.937 612.895 800.893 Q 618.332 769.02 620.665 764.547 L 620.665 764.547 Q 620.85 764.193 621.06 763.884 L 621.067 763.884 L 640.726 710.87 C 640.751 710.803 640.778 710.736 640.806 710.67 Q 642.946 705.731 649.64 694.118 C 649.676 694.056 649.713 693.996 649.752 693.936 L 685.487 638.939 L 685.509 638.905 Q 693.924 626.238 703.418 620.932 L 703.426 620.932 Q 702.82 607.208 702.71 589.158 C 702.697 587.012 704.373 585.25 706.493 585.133 C 706.559 585.13 706.625 585.128 706.692 585.127 C 708.905 585.114 710.709 586.896 710.723 589.109 Q 710.826 606.035 711.36 619.029 L 711.368 619.029 C 712.206 619.481 712.886 620.231 713.234 621.197 C 713.872 622.97 713.183 624.898 711.679 625.894 L 711.687 625.893 Q 712.623 642.968 714.443 651.961 L 714.453 652.01 Q 722.099 692.348 738.73 734.581 L 738.738 734.581 Q 752.199 762.182 778.388 802.321 L 778.392 802.321 Q 787.38 814.865 806.517 826.05 L 805.849 822.937 C 805.84 822.895 805.832 822.853 805.824 822.81 Q 805.32 820.026 804.787 815.166 L 804.791 815.166 L 804.15 811.002 L 804.158 811.002 Q 804.051 810.563 804.001 810.056 Q 803.92 809.232 803.842 805.991 L 803.843 805.991 Q 803.794 804.781 803.809 801.898 L 803.818 801.898 L 803.577 798.309 L 803.572 798.22 Q 803.012 785.667 802.771 782.484 C 802.767 782.439 802.765 782.394 802.763 782.349 Q 802.613 778.781 802.735 773.849 L 802.74 773.848 Q 802.482 763.328 802.448 749.382 C 802.448 749.33 802.448 749.278 802.45 749.227 Q 802.841 738.462 803.552 732.377 L 803.561 732.376 Q 803.647 725.925 804.131 720.976 L 804.136 720.976 L 804.156 720.578 L 804.162 720.481 Q 804.312 718.472 803.874 715.524 C 803.853 715.383 803.839 715.241 803.834 715.098 Q 803.828 714.957 803.827 714.82 L 803.827 714.82 Q 803.808 712.348 805.367 710.938 C 806.074 710.299 806.947 709.959 807.831 709.91 C 808.903 709.851 809.99 710.221 810.815 711.007 L 810.824 711.007 C 812.146 711.592 813.104 712.876 813.202 714.418 Q 814.039 727.649 839.972 773.798 L 839.97 773.798 L 844.409 781.116 L 876.157 825.985 L 876.159 825.985 Q 901.459 859.238 957.399 887.102 Q 954.606 870.52 952.753 864.804 C 952.693 864.619 952.646 864.429 952.614 864.237 L 949.66 846.817 C 949.634 846.664 949.617 846.51 949.609 846.355 L 949.058 835.73 C 949.045 835.471 949.057 835.212 949.093 834.956 Q 950.437 825.554 949.744 808.515 C 949.734 808.261 949.748 808.007 949.786 807.755 Q 954.592 775.872 956.97 767.895 L 956.981 767.894 Q 957.742 756.436 959.708 748.349 L 959.718 748.348 Q 960.292 735.363 961.731 725.771 C 961.741 725.706 961.752 725.64 961.765 725.575 L 981.329 628.333 L 981.661 623.918 L 981.671 623.918 C 981.106 622.938 980.958 621.725 981.366 620.575 C 981.514 620.156 981.726 619.777 981.986 619.445 L 981.997 619.444 L 983.564 598.576 L 981.971 576.472 C 981.965 576.39 981.961 576.307 981.96 576.225 L 981.79 559.682 L 981.799 559.682 Q 980.688 545.95 971.576 522.83 L 971.586 522.829 Q 951.115 482.017 939.774 464.915 C 939.645 464.721 939.534 464.516 939.441 464.302 L 930.289 443.314 C 929.404 441.286 930.332 438.924 932.36 438.04 C 932.81 437.844 933.277 437.736 933.74 437.711 C 935.364 437.621 936.946 438.533 937.634 440.111 L 946.668 460.828 L 946.678 460.828 Q 958.269 478.402 978.778 519.294 C 978.831 519.4 978.879 519.508 978.922 519.618 Q 988.572 544.036 989.786 559.035 C 989.794 559.129 989.798 559.223 989.799 559.317 L 989.972 576.019 L 991.578 598.295 C 991.592 598.49 991.592 598.687 991.577 598.883 L 989.962 620.38 L 989.973 620.379 Q 996.882 626.173 1013.703 646.825 L 1013.714 646.824 Q 1014.083 647.154 1014.439 647.584 L 1014.439 647.584 Q 1015.731 649.146 1020.03 656.649 L 1020.03 656.649 Q 1021.269 658.811 1022.786 661.512 L 1022.825 661.583 L 1029.745 674.5 C 1029.83 674.657 1029.903 674.82 1029.966 674.987 L 1049.34 726.757 C 1049.397 726.909 1049.445 727.064 1049.483 727.222 Q 1052.488 739.686 1055.618 748.665 C 1055.685 748.855 1055.737 749.051 1055.774 749.25 L 1062.111 783.259 C 1062.125 783.332 1062.137 783.405 1062.146 783.479 L 1063.603 794.726 C 1063.609 794.768 1063.614 794.811 1063.618 794.853 Q 1066.526 824.731 1065.911 836.228 L 1065.913 836.228 Q 1065.768 842.205 1064.833 847.035 L 1075.729 839.271 L 1075.741 839.271 Q 1083.449 830.949 1095.33 813.577 C 1095.524 813.293 1095.753 813.036 1096.013 812.811 Q 1107.635 802.738 1119.579 789.292 C 1119.61 789.256 1119.642 789.222 1119.674 789.188 Q 1142.869 764.852 1159.136 715.224 C 1159.158 715.157 1159.181 715.091 1159.207 715.025 Q 1172.05 681.861 1172.47 649.988 L 1172.479 649.988 L 1170.164 607.866 L 1170.174 607.866 Q 1166.915 581.874 1159.589 561.027 C 1158.855 558.939 1159.952 556.652 1162.04 555.919 C 1162.407 555.79 1162.78 555.717 1163.15 555.697 C 1164.884 555.601 1166.544 556.649 1167.148 558.37 Q 1174.759 580.025 1178.125 606.869 C 1178.136 606.962 1178.144 607.054 1178.15 607.147 L 1180.48 649.548 C 1180.485 649.637 1180.487 649.726 1180.486 649.814 Q 1180.1 683.264 1166.679 717.919 L 1166.685 717.919 Q 1164.21 725.456 1161.571 732.438 L 1161.583 732.437 C 1162.089 732.674 1162.552 733.021 1162.937 733.474 L 1182.979 757.112 L 1182.991 757.111 Q 1184.148 757.671 1184.949 759.132 L 1184.949 759.132 Q 1186.349 761.684 1194.73 784.18 C 1194.748 784.227 1194.764 784.273 1194.78 784.32 Q 1199.652 799.042 1203.158 818.042 C 1203.17 818.107 1203.18 818.173 1203.189 818.239 L 1207.949 853.91 L 1207.96 853.91 Q 1207.974 854 1207.986 854.093 L 1207.986 854.095 Q 1208.165 855.486 1208.744 866.223 L 1208.745 866.246 Q 1209.088 873.383 1208.039 883.375 L 1208.052 883.374 Q 1208.127 900.528 1207.687 903.199 L 1207.681 903.2 Q 1207.533 905.762 1205.765 917.974 L 1205.778 917.973 Q 1205.187 936.011 1201.244 965.425 L 1201.242 965.438 L 1197.657 991.543 C 1197.645 991.63 1197.63 991.717 1197.612 991.803 L 1190.251 1027.67 L 1179.768 1086.915 L 1179.781 1086.914 Q 1179.395 1094.221 1176.646 1105.653 L 1176.658 1105.652 Q 1175.995 1110.499 1175.704 1115.015 L 1225.831 1051.942 L 1225.844 1051.941 C 1225.352 1050.473 1225.739 1048.788 1226.963 1047.686 C 1227.67 1047.051 1228.54 1046.713 1229.42 1046.665 C 1230.59 1046.6 1231.777 1047.047 1232.622 1047.986 L 1239.376 1055.495 L 1239.397 1055.518 Q 1240.401 1056.651 1244.395 1059.882 L 1244.394 1059.882 L 1248.577 1063.128 L 1252.247 1065.358 Q 1252.368 1062.884 1252.437 1062.117 L 1252.45 1062.117 Q 1252.408 1061.027 1252.41 1060.642 Q 1252.411 1060.339 1252.448 1060.051 L 1252.447 1060.051 Q 1252.519 1059.465 1252.543 1059.204 L 1252.557 1059.204 Q 1252.546 1059.052 1252.477 1058.599 C 1252.451 1058.428 1252.436 1058.256 1252.432 1058.083 Q 1252.401 1056.65 1252.425 1056.109 L 1252.425 1056.105 Q 1252.429 1056.012 1252.435 1055.927 C 1252.442 1055.832 1252.451 1055.742 1252.464 1055.653 L 1252.743 1053.651 L 1252.756 1053.651 Q 1252.729 1053.128 1252.614 1051.561 C 1252.601 1051.389 1252.6 1051.215 1252.61 1051.043 L 1252.646 1050.396 L 1252.605 1049.882 C 1252.592 1049.717 1252.59 1049.552 1252.597 1049.387 Q 1252.616 1048.959 1252.579 1048.003 C 1252.573 1047.841 1252.576 1047.679 1252.59 1047.517 Q 1252.793 1045.052 1252.969 1043.773 L 1252.983 1043.772 Q 1252.867 1042.786 1252.738 1040.639 C 1252.733 1040.57 1252.731 1040.502 1252.731 1040.434 L 1252.708 1037.913 L 1252.717 1037.912 Q 1252.609 1036.476 1252.605 1034.927 L 1252.614 1034.927 Q 1252.565 1034.189 1252.539 1033.851 L 1252.554 1033.85 C 1252.553 1033.846 1252.552 1033.842 1252.552 1033.838 L 1252.538 1033.839 Q 1252.536 1033.8 1252.533 1033.768 L 1252.54 1033.767 Q 1252.337 1032.472 1252.289 1031.963 L 1252.289 1031.961 Q 1252.255 1031.59 1252.272 1031.239 L 1252.271 1031.239 L 1252.382 1028.583 L 1252.396 1028.582 Q 1252.326 1027.157 1252.176 1025.943 C 1252.168 1025.877 1252.161 1025.811 1252.156 1025.745 Q 1251.985 1023.397 1251.967 1022.923 L 1251.967 1022.921 Q 1251.967 1022.909 1251.966 1022.897 L 1251.97 1022.897 Q 1251.878 1021.13 1252.167 1018.168 L 1252.181 1018.167 Q 1251.943 1016.499 1251.928 1015.656 Q 1251.926 1015.548 1251.927 1015.447 L 1251.927 1015.447 Q 1251.934 1014.126 1251.975 1013.577 Q 1252.008 1013.147 1252.097 1012.76 L 1252.104 1012.76 Q 1252.186 1012.406 1252.284 1012.093 L 1252.284 1012.093 Q 1252.888 1010.159 1254.251 1009.249 L 1254.264 1009.248 Q 1270.246 982.909 1281.687 958.039 Q 1294.045 926.854 1299.944 905.202 L 1299.958 905.201 L 1299.065 904.107 C 1297.667 902.392 1297.923 899.868 1299.638 898.469 C 1300.185 898.023 1300.815 897.745 1301.464 897.63 L 1301.478 897.629 L 1312.193 828.487 Q 1311.586 802.989 1312.962 788.383 Q 1312.192 781.722 1311.254 776.671 Q 1309.629 768.634 1308.492 766.065 Q 1308.252 765.037 1308.219 763.537 Q 1308.753 757.774 1312.391 757.33 L 1312.665 757.305 Q 1315.65 757.275 1316.743 760.225 L 1316.874 761.673 L 1316.272 764.074 Q 1318.64 769.438 1320.965 787.844 Q 1319.432 812.17 1320.212 828.769 L 1308.708 903.251 L 1310.137 905.002 L 1324.605 917.642 L 1324.619 917.642 Q 1328.906 919.828 1341.119 928.079 L 1341.133 928.078 Q 1341.165 928.096 1341.198 928.115 L 1341.198 928.115 Q 1343.687 929.54 1360.951 943.252 L 1360.965 943.251 L 1367.793 947.842 L 1367.803 947.842 Q 1371.667 950.147 1374.423 951.719 L 1374.318 951.212 C 1374.306 951.158 1374.296 951.103 1374.287 951.048 Q 1374.239 950.756 1374.211 950.477 L 1374.225 950.476 Q 1365.559 924.99 1350.96 850.825 C 1350.921 850.625 1350.897 850.422 1350.888 850.218 L 1344.687 701.32 L 1344.701 701.32 Q 1338.548 663.176 1334.927 656.407 C 1334.859 656.279 1334.797 656.147 1334.743 656.012 Q 1314.427 605.46 1292.474 562.098 L 1292.488 562.097 Q 1291.368 561.261 1290.898 560.137 L 1290.897 560.136 Q 1290.434 559.029 1290.428 558.106 L 1290.442 558.106 Q 1255.664 490.173 1216.803 440.156 L 1216.816 440.155 Q 1190.354 412.139 1149.29 384.57 L 1149.291 384.57 Q 1090.395 345.491 1008.45 320.346 L 1008.462 320.345 L 928.957 308.052 L 928.967 308.051 Q 897.81 305.453 870.39 306.965 Q 841.473 308.558 816.712 314.721 C 816.461 314.784 816.21 314.821 815.961 314.835 C 814.079 314.938 812.329 313.697 811.857 311.801 C 811.344 309.743 812.524 307.66 814.513 307.02 L 814.523 307.02 Q 816.24 304.101 818.899 300.86 C 819.016 300.718 819.142 300.585 819.276 300.46 Q 829.205 291.279 839.294 278.504 L 839.356 278.428 Q 852.04 263.148 854.482 258.236 C 854.625 257.948 854.803 257.678 855.011 257.432 L 855.014 257.432 Q 856.781 255.099 871.009 227.568 C 871.03 227.528 871.051 227.488 871.074 227.448 Q 871.192 227.237 871.343 226.883 L 871.333 226.884 Z " fill-rule="evenodd" fill="rgb(183,151,128)"/></g><g id="hair shine"><path d=" M 1193.53 501.014 L 1209.675 521.194 L 1217.747 504.041 L 1232.883 526.239 L 1246 491.932 L 1229.855 501.014 L 1217.747 480.833 L 1209.675 496.977 L 1200.594 491.932 L 1193.53 501.014 Z  M 1088.591 486.887 L 1121.889 526.239 L 1127.943 509.086 L 1144.088 526.239 L 1156.196 509.086 L 1169.314 526.239 L 1169.314 504.041 L 1156.196 491.932 L 1147.115 480.833 L 1139.043 501.014 L 1121.889 480.833 L 1113.817 496.977 L 1088.591 486.887 Z  M 1014 523 L 1014 507 L 998 515 L 986 480.833 L 1010.895 486.887 L 1030.067 501.014 L 1027.04 476.797 L 1053.275 496.977 L 1056.302 476.797 L 1079.51 504.041 L 1059.329 504.041 L 1056.302 526.239 L 1046.212 509.086 L 1035.112 526.239 L 1014 523 Z  M 899.902 504.041 L 908.983 476.797 L 917.055 491.932 L 926.137 476.797 L 938.245 486.887 L 951.363 501.014 L 951.363 521.194 L 938.245 504.041 L 933.2 521.194 L 923.11 501.014 L 917.055 521.194 L 908.983 496.977 L 899.902 504.041 Z  M 825.234 496.977 L 830.279 476.797 L 840.369 491.932 L 861.559 461.661 L 874.676 496.977 L 884.766 486.887 L 892.839 509.086 L 884.766 501.014 L 884.766 526.239 L 866 507 L 861.559 491.932 L 836.333 513.122 L 836.333 501.014 L 825.234 496.977 Z  M 784.872 509.086 L 796.981 470.743 L 817.161 496.977 L 808.08 513.122 L 796.981 491.932 L 784.872 509.086 Z  M 745.52 521.194 L 752 498.995 L 745.52 476.797 L 763.683 491.932 L 769.737 476.797 L 776.8 513.122 L 763.683 509.086 L 745.52 521.194 Z  M 686.996 513.122 L 693.05 486.887 L 707.177 501.014 L 711.213 486.887 L 733.412 486.887 L 722.312 496.977 L 722.312 513.122 L 707.177 509.086 L 698.095 501.014 L 686.996 513.122 Z  M 595.174 509.086 L 606.274 486.887 L 615.355 491.932 L 615.355 476.797 L 624.436 486.887 L 638.563 470.743 L 646.635 509.086 L 665.806 486.887 L 675.897 486.887 L 675.897 513.122 L 665.806 501.014 L 638.563 537.339 L 633.517 501.014 L 624.436 513.122 L 615.355 501.014 L 595.174 509.086 Z  M 558.849 491.932 L 570.957 521.194 L 584.075 476.797 L 570.957 486.887 L 558.849 491.932 Z  M 464 513.122 L 489.226 476.797 L 503.352 491.932 L 515.461 476.797 L 530.596 486.887 L 544.723 476.797 L 535.641 513.122 L 515.461 491.932 L 503.352 513.122 L 489.226 491.932 L 464 513.122 Z " fill-rule="evenodd" fill="rgb(255,255,255)"/></g></g></g></g></g></svg>