<?xml version="1.0" standalone="no"?><!-- Generator: Gravit.io --><svg xmlns="http://www.w3.org/2000/svg" xmlns:xlink="http://www.w3.org/1999/xlink" style="isolation:isolate" viewBox="0 0 1736.678 1736.678" width="1736.678" height="1736.678"><defs><clipPath id="_clipPath_qJShbONkmOA6R4mTpvZLdPt84NSbirgA"><rect width="1736.678" height="1736.678"/></clipPath></defs><g clip-path="url(#_clipPath_qJShbONkmOA6R4mTpvZLdPt84NSbirgA)"><clipPath id="_clipPath_QmrvsyZMUIRn233HLRuDpmRAI1cGVaqW"><path d=" M 6 868.339 C 6 392.401 392.401 6 868.339 6 C 1344.277 6 1730.678 392.401 1730.678 868.339 C 1730.678 1344.277 1344.277 1730.678 868.339 1730.678 C 392.401 1730.678 6 1344.277 6 868.339 Z " fill="rgb(255,255,255)"/></clipPath><g clip-path="url(#_clipPath_QmrvsyZMUIRn233HLRuDpmRAI1cGVaqW)"><g id="avatars"><g id="ears"><g id="ear color"><path d=" M 416.938 921.817 C 407.368 922.344 399.326 941.735 392.812 979.988 C 388.859 987.38 393.009 1012.821 409.832 1054.565 C 440.791 1131.386 475.357 1168.991 509.01 1169.252 C 510.284 1170.324 511.787 1170.813 513.519 1170.717 C 521.599 1170.272 534.669 1157.129 552.73 1131.288 L 487.731 996.606 L 461.678 942.622 C 451.76 935.187 438.486 927.549 422.469 923.393 L 422.322 923.407 C 420.476 922.251 418.682 921.721 416.938 921.817 Z  M 1297.834 900.241 C 1296.978 900.288 1296.104 900.397 1295.21 900.567 L 1294.168 900.651 C 1253.133 913.285 1234.831 939.301 1216.026 995.263 L 1176.839 1123.509 C 1175.668 1133.614 1189.057 1145.209 1218.751 1150.132 C 1220.366 1150.4 1222.005 1150.487 1223.667 1150.395 C 1247.575 1149.078 1276.253 1110.799 1308.958 1042.342 C 1317.567 993.499 1322.987 969.015 1325.219 968.892 C 1325.439 968.88 1325.628 969.105 1325.786 969.568 C 1324.071 922.418 1314.753 899.309 1297.834 900.241 Z " fill="rgb(252,235,224)"/></g><g id="ear lines"><path d=" M 438.683 963.532 L 438.683 963.532 L 438.683 963.532 L 438.683 963.532 L 438.683 963.532 L 438.891 969.727 C 438.94 969.727 438.991 969.725 439.048 969.72 L 439.038 969.721 C 440.266 969.624 441.182 968.549 441.085 967.322 L 441.085 967.322 L 441.547 973.147 C 441.614 974.002 441.325 974.847 440.747 975.48 C 440.17 976.114 439.355 976.48 438.498 976.492 L 438.498 976.492 L 438.496 976.492 L 441.554 973.327 C 441.562 973.704 441.561 974.091 441.534 974.432 L 441.534 974.432 C 441.52 974.601 441.486 974.984 441.354 975.397 C 440.946 976.667 439.772 977.533 438.438 977.549 L 438.438 977.549 L 438.432 977.549 L 441.157 975.859 C 441.206 975.764 441.248 975.665 441.284 975.558 C 440.861 976.809 439.692 977.655 438.372 977.665 L 438.372 977.665 L 438.362 977.665 L 440.586 976.7 C 439.965 977.354 439.193 977.618 438.973 977.695 L 438.974 977.695 C 438.868 977.732 438.742 977.772 438.638 977.803 C 438.363 977.885 438.077 977.927 437.79 977.93 L 437.79 977.93 L 437.767 977.931 L 437.979 977.921 C 435.473 978.119 434.288 978.332 433.976 978.442 L 433.975 978.442 C 433.97 978.444 433.997 978.434 434.033 978.418 C 433.647 978.589 433.232 978.68 432.81 978.685 L 432.81 978.685 L 432.793 978.685 L 433.733 978.528 C 433.52 978.598 433.453 978.657 433.456 978.655 L 433.456 978.654 C 433.463 978.649 433.482 978.629 433.497 978.602 C 432.979 979.529 432.022 980.127 430.961 980.186 L 430.961 980.186 L 430.961 980.186 L 433.468 978.653 C 432.875 979.67 432.58 980.624 432.508 981.535 C 432.384 983.081 431.137 984.298 429.588 984.383 L 429.588 984.383 L 429.588 984.383 L 432.496 981.652 C 432.451 982.028 432.441 982.341 432.453 982.596 L 432.451 982.549 L 432.452 982.573 L 432.45 982.535 L 432.788 987.036 C 432.852 987.891 432.559 988.734 431.978 989.366 C 431.398 989.997 430.582 990.36 429.724 990.367 L 429.724 990.367 L 429.715 990.368 L 432.78 987.482 L 432.779 987.484 L 432.777 987.514 C 432.768 987.632 432.756 987.752 432.74 987.875 L 432.74 987.875 C 432.719 988.04 432.654 988.568 432.399 989.106 C 431.891 990.18 430.813 990.869 429.624 990.879 L 429.624 990.879 L 429.611 990.88 L 432.004 989.718 C 432.672 988.884 432.665 987.671 431.933 986.845 L 431.933 986.845 C 431.486 986.34 430.857 986.087 430.24 986.094 L 430.24 986.094 C 429.725 986.1 429.202 986.287 428.786 986.655 L 428.785 986.655 C 428.568 986.848 428.439 987.051 428.369 987.199 C 429.037 985.787 430.65 985.092 432.135 985.577 C 433.619 986.063 434.511 987.576 434.216 989.109 L 434.216 989.109 L 434.216 989.11 L 428.37 987.198 C 428.318 987.307 428.303 987.372 428.305 987.366 L 428.305 987.366 C 428.307 987.355 428.327 987.264 428.34 987.063 L 428.334 987.278 L 428.333 987.159 L 428.341 987.369 L 428.003 982.869 C 427.941 982.038 428.215 981.217 428.765 980.591 C 429.314 979.965 430.093 979.587 430.924 979.541 L 430.924 979.541 L 430.925 979.541 L 427.998 982.767 C 427.974 982.213 428.004 981.651 428.072 981.089 L 428.067 981.137 L 428.071 981.102 L 428.063 981.18 C 428.199 979.488 428.751 977.885 429.627 976.388 L 429.609 976.419 L 429.618 976.404 L 429.604 976.428 C 430.253 975.267 431.301 974.672 432.131 974.365 L 432.13 974.366 C 432.249 974.322 432.357 974.286 432.474 974.25 L 432.216 974.342 L 432.358 974.284 L 431.988 974.464 L 431.989 974.463 C 432.446 974.202 432.962 974.062 433.488 974.056 L 433.488 974.056 L 433.495 974.056 L 432.408 974.266 C 432.568 974.204 432.722 974.155 432.857 974.116 L 432.856 974.116 C 433.867 973.825 435.624 973.632 437.749 973.467 L 437.749 973.467 C 437.603 973.478 437.46 973.504 437.317 973.544 L 437.318 973.544 C 437.475 973.5 437.542 973.465 437.546 973.463 L 437.545 973.463 C 437.548 973.462 437.405 973.539 437.254 973.75 L 439.945 978.65 L 439.945 978.65 C 438.754 978.716 437.632 978.093 437.057 977.047 C 436.483 976.002 436.559 974.721 437.253 973.751 L 437.253 973.751 C 437.215 973.804 437.179 973.863 437.144 973.93 L 439.941 978.437 L 439.924 978.437 C 438.769 978.45 437.702 977.819 437.157 976.8 C 436.612 975.781 436.678 974.544 437.33 973.59 L 437.33 973.59 C 437.209 973.767 437.144 973.924 437.109 974.031 C 437.568 972.609 438.975 971.716 440.457 971.907 C 441.939 972.099 443.073 973.319 443.155 974.811 L 443.155 974.811 L 443.155 974.812 L 437.108 974.035 C 437.08 974.121 437.072 974.171 437.073 974.165 L 437.073 974.166 C 437.082 974.118 437.107 973.885 437.096 973.375 L 437.099 973.462 L 437.096 973.413 L 437.102 973.499 L 436.64 967.674 L 436.64 967.674 C 436.733 968.852 437.724 969.74 438.888 969.727 C 437.202 969.746 435.811 968.414 435.755 966.73 C 435.7 965.045 437 963.625 438.683 963.532 L 438.683 963.532 L 438.683 963.532 L 438.683 963.532 L 438.683 963.532 L 438.683 963.532 L 438.683 963.532 Z  M 439.024 969.723 L 439.024 969.723 L 439.024 969.723 L 439.024 969.723 L 439.024 969.723 L 438.82 963.528 C 440.892 963.505 442.655 965.088 442.821 967.186 L 442.821 967.185 L 443.283 973.01 L 443.288 973.096 L 443.291 973.144 L 443.294 973.231 C 443.309 973.898 443.291 974.589 443.184 975.213 L 443.184 975.214 C 443.147 975.431 443.093 975.676 443.012 975.93 C 442.554 977.353 441.147 978.248 439.665 978.057 C 438.182 977.866 437.047 976.645 436.965 975.153 L 436.965 975.153 L 436.965 975.152 L 443.01 975.933 C 442.889 976.309 442.711 976.704 442.451 977.085 L 439.856 972.237 L 439.873 972.237 C 440.957 972.225 441.969 972.781 442.541 973.703 C 443.113 974.624 443.161 975.778 442.669 976.744 L 442.669 976.744 C 442.559 976.961 442.433 977.166 442.296 977.358 L 439.604 972.459 L 439.604 972.459 C 440.795 972.394 441.918 973.017 442.492 974.062 C 443.066 975.108 442.989 976.39 442.295 977.359 L 442.295 977.359 C 441.79 978.065 441.145 978.565 440.494 978.917 L 440.493 978.917 C 440.008 979.18 439.499 979.371 438.997 979.512 L 438.998 979.512 C 438.746 979.583 438.488 979.628 438.23 979.648 L 438.229 979.648 C 435.958 979.825 434.863 979.99 434.572 980.074 L 434.571 980.074 C 434.567 980.076 434.601 980.066 434.657 980.045 C 434.31 980.179 433.942 980.251 433.57 980.255 L 433.57 980.255 L 433.563 980.255 L 435.062 979.848 L 435.062 979.848 C 434.943 979.916 434.819 979.976 434.692 980.028 L 434.692 980.028 L 434.549 980.086 C 434.464 980.12 434.378 980.151 434.291 980.178 L 434.291 980.178 C 434.277 980.182 434.281 980.181 434.277 980.182 L 434.276 980.182 C 434.232 980.199 434.684 980.048 435.018 979.451 L 435.004 979.476 L 434.995 979.491 L 434.978 979.521 C 434.508 980.323 434.295 981.034 434.244 981.674 L 434.236 981.752 L 434.233 981.787 L 434.227 981.835 C 434.192 982.125 434.186 982.345 434.192 982.505 C 434.264 984.201 432.96 985.638 431.266 985.732 L 431.266 985.732 L 431.265 985.732 L 434.186 982.404 L 434.524 986.905 C 434.529 986.975 434.532 987.045 434.533 987.116 L 434.533 987.116 L 434.534 987.235 C 434.534 987.307 434.532 987.378 434.528 987.45 L 434.528 987.45 C 434.499 987.901 434.441 988.374 434.327 988.838 L 434.327 988.838 C 434.25 989.154 434.139 989.501 433.974 989.851 C 433.306 991.262 431.692 991.956 430.208 991.471 C 428.724 990.986 427.833 989.472 428.127 987.939 L 428.127 987.939 L 428.127 987.939 L 433.974 989.85 C 433.732 990.362 433.383 990.865 432.898 991.295 L 432.898 991.295 C 432.156 991.953 431.228 992.284 430.308 992.294 L 430.308 992.294 C 429.204 992.306 428.089 991.855 427.293 990.957 L 427.293 990.957 C 425.99 989.487 425.976 987.325 427.165 985.841 C 427.747 985.114 428.626 984.688 429.558 984.68 L 429.558 984.68 L 429.571 984.68 L 426.795 986.453 C 426.596 986.875 426.575 987.205 426.591 987.086 L 426.591 987.087 C 426.591 987.086 426.593 987.064 426.597 987.024 L 426.594 987.054 L 426.594 987.053 C 426.723 985.422 428.053 984.182 429.659 984.168 L 429.659 984.168 L 429.668 984.168 L 426.605 987.5 L 426.267 982.999 L 426.264 982.961 L 426.263 982.936 L 426.26 982.889 C 426.23 982.244 426.26 981.586 426.338 980.924 C 426.515 979.428 427.742 978.276 429.246 978.193 L 429.246 978.193 L 429.247 978.193 L 426.327 981.041 C 426.482 979.102 427.104 977.258 428.113 975.528 C 428.638 974.628 429.58 974.052 430.62 973.995 L 430.62 973.995 L 430.62 973.995 L 428.084 975.579 C 428.44 974.941 428.903 974.385 429.454 973.92 L 429.454 973.919 C 430.157 973.325 430.958 972.916 431.782 972.643 C 432.085 972.542 432.402 972.489 432.721 972.486 L 432.721 972.486 L 432.738 972.485 L 431.516 972.752 C 431.664 972.686 431.8 972.634 431.933 972.588 L 431.932 972.588 C 433.131 972.17 435.133 971.927 437.491 971.74 C 437.561 971.735 437.632 971.732 437.703 971.731 L 437.703 971.731 L 437.726 971.731 L 436.878 971.858 C 436.899 971.852 436.922 971.844 436.918 971.846 L 436.92 971.845 C 437.095 971.784 436.583 971.911 436.09 972.43 C 436.67 971.82 437.473 971.472 438.314 971.465 L 438.314 971.465 L 438.323 971.465 L 435.411 973.572 C 435.473 973.387 435.55 973.207 435.636 973.039 C 436.159 972.013 437.209 971.362 438.36 971.349 L 438.36 971.349 L 438.366 971.349 L 435.451 973.501 C 435.354 973.801 435.348 974.009 435.353 973.942 L 435.353 973.942 C 435.356 973.91 435.362 973.764 435.355 973.457 C 435.338 972.631 435.651 971.832 436.226 971.238 C 436.8 970.644 437.587 970.303 438.413 970.292 L 438.413 970.292 L 438.415 970.292 L 435.366 973.637 L 434.904 967.812 L 434.904 967.812 C 434.731 965.626 436.362 963.713 438.549 963.54 L 438.54 963.541 C 438.637 963.533 438.729 963.529 438.817 963.528 C 440.503 963.508 441.896 964.839 441.952 966.524 C 442.008 968.209 440.708 969.63 439.024 969.723 L 439.024 969.723 L 439.024 969.723 L 439.024 969.723 L 439.024 969.723 L 439.024 969.723 Z  M 426.955 932.344 L 426.955 932.344 L 426.955 932.344 L 426.955 932.344 L 426.955 932.344 L 427.159 938.539 C 426.272 938.549 425.465 938.757 424.694 939.171 L 424.694 939.171 C 422.949 940.108 421.107 942.244 419.472 946.32 C 419.005 947.484 417.883 948.252 416.629 948.266 L 416.629 948.266 L 416.606 948.266 L 418.99 947.105 C 410.343 957.893 415.771 998.309 439.023 1072.075 L 439.023 1072.075 C 438.72 1071.111 437.826 1070.506 436.872 1070.517 L 436.874 1070.517 C 436.654 1070.519 436.435 1070.554 436.229 1070.619 L 436.227 1070.619 C 435.053 1070.99 434.401 1072.242 434.771 1073.416 L 434.771 1073.416 C 412.23 1001.908 404.549 957.495 415.662 944.132 L 415.662 944.131 C 415.512 944.311 415.392 944.514 415.305 944.733 L 415.305 944.731 C 417.019 940.434 419.334 936.988 422.584 935.243 L 422.585 935.242 C 424.062 934.449 425.662 934.043 427.341 934.024 L 427.341 934.024 C 440.1 933.884 457.378 957.229 479.127 997.741 L 479.126 997.74 C 478.718 996.981 477.934 996.557 477.138 996.566 L 477.002 996.571 L 477.003 996.571 L 477.139 996.566 C 476.787 996.57 476.43 996.658 476.107 996.831 L 476.107 996.831 C 475.024 997.413 474.615 998.764 475.198 999.85 L 475.198 999.85 C 452.109 956.841 436.093 938.441 427.159 938.539 C 425.474 938.557 424.083 937.226 424.027 935.541 C 423.971 933.857 425.272 932.436 426.955 932.344 L 426.955 932.344 L 426.955 932.344 L 426.955 932.344 L 426.955 932.344 L 426.955 932.344 L 426.955 932.344 Z  M 427.296 938.534 L 427.296 938.534 L 427.296 938.534 L 427.296 938.534 L 427.296 938.534 L 427.091 932.339 C 440.708 932.19 458.562 955.752 480.661 996.917 L 480.661 996.917 C 481.698 998.85 480.972 1001.256 479.041 1002.293 L 479.041 1002.293 C 478.462 1002.605 477.832 1002.759 477.207 1002.766 L 477.344 1002.761 L 477.343 1002.761 L 477.208 1002.766 C 475.784 1002.782 474.39 1002.025 473.664 1000.674 L 473.664 1000.673 C 450.851 958.179 435.449 940.136 427.409 940.224 L 427.409 940.224 C 426.717 940.231 426.102 940.391 425.517 940.705 L 425.517 940.705 C 424.165 941.431 422.568 943.256 421.064 947.028 L 421.065 947.026 C 420.91 947.415 420.695 947.776 420.428 948.096 L 420.429 948.096 C 412.058 958.162 417.498 997.996 440.684 1071.552 L 440.684 1071.552 C 441.344 1073.644 440.183 1075.873 438.091 1076.532 L 438.089 1076.533 C 437.714 1076.651 437.328 1076.712 436.939 1076.716 L 436.941 1076.716 C 435.24 1076.735 433.65 1075.652 433.11 1073.94 L 433.11 1073.939 C 410.462 1002.089 402.892 957.277 414.152 943.227 C 414.733 942.503 415.608 942.077 416.536 942.066 L 416.536 942.066 L 416.56 942.066 L 413.718 944.012 C 415.604 939.309 418.184 935.628 421.761 933.708 L 421.761 933.708 C 423.418 932.819 425.209 932.36 427.091 932.339 C 428.777 932.321 430.168 933.652 430.224 935.337 C 430.279 937.021 428.979 938.442 427.296 938.534 L 427.296 938.534 L 427.296 938.534 L 427.296 938.534 L 427.296 938.534 L 427.296 938.534 Z  M 473.678 1023.835 L 473.678 1023.835 L 473.678 1023.835 L 473.678 1023.835 L 473.678 1023.835 L 474.019 1030.025 L 474.019 1030.025 L 473.882 1030.03 C 474.888 1030.019 475.794 1029.328 476.031 1028.302 L 476.031 1028.303 C 474.24 1036.056 475.143 1043.33 478.733 1050.263 C 479.228 1051.219 479.192 1052.363 478.637 1053.286 C 478.083 1054.209 477.089 1054.777 476.013 1054.788 L 476.013 1054.788 L 475.989 1054.789 L 478.966 1050.941 C 480.416 1056.774 489.051 1064.372 507.656 1073.299 L 507.657 1073.299 C 507.344 1073.149 507.004 1073.076 506.666 1073.08 L 506.667 1073.08 C 505.853 1073.089 505.064 1073.549 504.683 1074.343 L 504.683 1074.343 C 504.149 1075.455 504.619 1076.786 505.727 1077.318 L 505.837 1077.369 L 505.837 1077.369 L 505.728 1077.319 C 487.971 1068.799 476.57 1060.436 474.587 1051.799 L 474.587 1051.799 C 474.628 1051.98 474.693 1052.158 474.781 1052.328 L 474.78 1052.326 C 470.693 1044.44 469.665 1036.052 471.687 1027.299 L 471.687 1027.299 C 471.41 1028.499 472.157 1029.696 473.357 1029.973 L 473.47 1029.997 L 473.469 1029.997 L 473.355 1029.973 C 473.531 1030.013 473.708 1030.032 473.882 1030.03 C 472.197 1030.048 470.806 1028.717 470.75 1027.032 C 470.695 1025.348 471.995 1023.927 473.678 1023.835 L 473.678 1023.835 L 473.678 1023.835 L 473.678 1023.835 L 473.678 1023.835 L 473.678 1023.835 L 473.678 1023.835 Z  M 474.019 1030.025 L 474.019 1030.025 L 474.019 1030.025 L 474.019 1030.025 L 474.019 1030.025 L 473.815 1023.83 C 474.124 1023.827 474.44 1023.86 474.753 1023.932 L 474.639 1023.908 L 474.64 1023.908 L 474.752 1023.932 C 476.889 1024.426 478.221 1026.558 477.728 1028.694 L 477.728 1028.694 C 476.032 1036.037 476.887 1042.917 480.285 1049.473 L 480.284 1049.471 C 480.439 1049.771 480.555 1050.086 480.629 1050.411 L 480.629 1050.411 C 481.84 1055.684 490.081 1062.935 508.41 1071.729 L 508.3 1071.679 L 508.301 1071.679 L 508.412 1071.73 C 510.386 1072.678 511.222 1075.049 510.271 1077.028 L 510.271 1077.028 C 509.593 1078.44 508.191 1079.264 506.735 1079.28 L 506.736 1079.28 C 506.139 1079.286 505.536 1079.158 504.974 1078.889 L 504.974 1078.889 C 486.806 1070.171 475.202 1061.498 472.949 1052.437 C 472.72 1051.517 472.925 1050.542 473.505 1049.792 C 474.085 1049.042 474.977 1048.599 475.925 1048.589 L 475.925 1048.589 L 475.948 1048.589 L 473.228 1053.114 C 468.95 1044.853 467.873 1036.072 469.99 1026.907 L 469.99 1026.908 C 470.411 1025.083 472.024 1023.85 473.815 1023.83 L 473.678 1023.835 L 473.678 1023.835 C 475.5 1023.812 476.891 1025.143 476.947 1026.828 C 477.002 1028.512 475.702 1029.933 474.019 1030.025 L 474.019 1030.025 L 474.019 1030.025 L 474.019 1030.025 L 474.019 1030.025 L 474.019 1030.025 Z  M 462.741 980.357 L 462.741 980.357 L 462.741 980.357 L 462.741 980.357 L 462.741 980.357 L 462.944 986.552 C 463.071 986.551 463.199 986.532 463.317 986.498 L 463.315 986.498 C 463.643 986.403 463.798 986.231 463.803 986.225 L 463.802 986.225 C 463.795 986.234 463.708 986.344 463.583 986.634 L 463.583 986.634 C 462.348 989.503 461.503 998.691 461.471 1015.279 C 461.468 1016.976 460.101 1018.355 458.403 1018.373 L 458.403 1018.373 L 458.38 1018.373 L 460.911 1017.017 C 453.781 1027.493 450.868 1032.976 450.716 1034.432 L 450.716 1034.431 C 450.716 1034.429 450.717 1034.422 450.718 1034.393 C 450.68 1036.065 449.323 1037.406 447.651 1037.423 L 447.651 1037.423 L 447.627 1037.424 L 450.576 1035.174 C 448.782 1041.464 449.899 1050.818 454.743 1063.662 L 454.743 1063.662 C 454.678 1063.489 454.59 1063.321 454.48 1063.165 L 454.48 1063.164 C 467.938 1082.263 485.743 1092.122 508.104 1092.987 L 508.098 1092.987 C 508.066 1092.986 508.034 1092.985 507.986 1092.986 L 507.994 1092.986 C 506.811 1092.999 505.837 1093.935 505.79 1095.128 L 505.79 1095.127 C 505.742 1096.36 506.703 1097.394 507.93 1097.442 L 508.222 1097.44 L 508.222 1097.44 L 507.932 1097.443 C 484.194 1096.524 465.131 1085.929 450.952 1065.899 L 453.515 1067.207 L 453.491 1067.208 C 452.189 1067.221 451.018 1066.419 450.558 1065.201 L 450.558 1065.201 C 445.698 1052.303 444.003 1041.659 446.351 1033.736 L 446.351 1033.738 C 446.291 1033.941 446.26 1034.152 446.259 1034.365 L 446.259 1034.365 C 446.26 1034.052 446.293 1033.757 446.337 1033.499 L 446.337 1033.499 C 446.856 1030.422 450.948 1023.715 457.4 1014.252 L 457.4 1014.252 C 457.149 1014.62 457.013 1015.056 457.012 1015.504 L 457.012 1015.505 C 457.035 999.575 457.717 988.986 459.488 984.871 L 459.487 984.872 C 459.598 984.614 459.725 984.346 459.868 984.091 L 459.867 984.092 C 459.96 983.927 460.553 982.77 461.846 982.291 C 462.182 982.166 462.536 982.101 462.894 982.097 L 462.894 982.097 L 462.917 982.097 C 463.211 982.094 463.505 982.133 463.788 982.213 L 463.533 982.153 L 463.534 982.153 L 463.819 982.222 C 463.999 982.275 464.145 982.335 464.209 982.363 L 462.812 982.115 L 462.812 982.115 C 463.29 982.088 463.767 982.173 464.206 982.362 L 464.206 982.362 C 463.917 982.238 463.608 982.178 463.303 982.181 L 463.302 982.181 C 462.454 982.19 461.64 982.689 461.279 983.529 L 461.279 983.529 C 460.793 984.659 461.314 985.971 462.445 986.458 L 462.445 986.458 C 462.544 986.5 462.686 986.541 462.86 986.55 L 462.865 986.551 C 462.88 986.551 462.916 986.553 462.951 986.552 C 461.264 986.574 459.87 985.243 459.813 983.557 C 459.756 981.872 461.057 980.45 462.741 980.357 L 462.741 980.357 L 462.741 980.357 L 462.741 980.357 L 462.741 980.357 L 462.741 980.357 L 462.741 980.357 Z  M 463.082 986.548 L 463.082 986.548 L 463.082 986.548 L 463.082 986.548 L 463.082 986.548 L 462.872 980.352 C 462.983 980.351 463.083 980.354 463.176 980.358 L 463.181 980.359 C 463.791 980.39 464.367 980.535 464.896 980.763 L 464.896 980.763 C 466.912 981.63 467.84 983.966 466.974 985.979 L 466.974 985.979 C 466.332 987.473 464.885 988.364 463.37 988.381 L 463.368 988.381 C 462.827 988.387 462.279 988.282 461.759 988.058 L 463.153 988.305 L 463.153 988.305 C 462.675 988.332 462.196 988.247 461.756 988.057 L 461.756 988.057 C 461.796 988.074 461.914 988.124 462.078 988.172 L 462.363 988.241 L 462.362 988.241 L 462.978 988.297 L 462.955 988.297 L 464.003 988.104 C 465.089 987.701 465.447 986.818 465.274 987.127 L 465.274 987.127 C 465.269 987.135 465.238 987.194 465.183 987.322 L 465.183 987.322 C 464.037 989.984 463.236 999.004 463.212 1015.514 L 463.212 1015.514 C 463.211 1016.311 462.97 1017.088 462.522 1017.745 L 462.522 1017.745 C 455.636 1027.845 452.683 1033.149 452.45 1034.532 L 452.45 1034.532 C 452.449 1034.538 452.459 1034.482 452.46 1034.379 L 452.46 1034.379 C 452.459 1034.757 452.403 1035.134 452.296 1035.497 L 452.296 1035.498 C 450.548 1041.396 451.611 1050.412 456.36 1063.014 L 453.427 1061.008 L 453.45 1061.008 C 454.468 1060.997 455.425 1061.486 456.013 1062.316 L 456.013 1062.316 C 469.128 1080.844 486.444 1090.407 508.171 1091.247 C 508.268 1091.251 507.784 1091.255 507.881 1091.25 L 507.881 1091.25 L 507.881 1091.249 L 508.174 1091.247 C 510.362 1091.333 512.072 1093.176 511.986 1095.37 L 511.986 1095.369 C 511.903 1097.494 510.166 1099.162 508.062 1099.185 L 508.069 1099.185 C 507.998 1099.186 507.925 1099.185 507.87 1099.183 L 507.864 1099.183 C 483.488 1098.24 463.933 1087.343 449.412 1066.736 L 449.411 1066.735 C 449.216 1066.459 449.059 1066.16 448.942 1065.849 L 448.942 1065.85 C 443.971 1052.669 442.257 1041.737 444.614 1033.473 C 444.991 1032.153 446.191 1031.238 447.563 1031.224 L 447.563 1031.224 L 447.587 1031.224 L 444.519 1034.254 C 444.523 1034.095 444.534 1033.935 444.549 1033.787 L 444.549 1033.787 C 444.906 1030.372 449.136 1023.299 455.785 1013.529 C 456.356 1012.69 457.302 1012.184 458.316 1012.173 L 458.316 1012.173 L 458.339 1012.173 L 455.271 1015.267 C 455.302 999.216 456.032 988.495 457.888 984.183 L 457.888 984.183 C 458.182 983.5 458.563 982.818 459.073 982.217 L 459.072 982.217 C 459.687 981.492 460.519 980.853 461.593 980.542 L 461.591 980.542 C 462.009 980.421 462.44 980.357 462.879 980.352 C 464.564 980.335 465.954 981.666 466.01 983.351 C 466.065 985.035 464.765 986.455 463.082 986.548 L 463.082 986.548 L 463.082 986.548 L 463.082 986.548 L 463.082 986.548 L 463.082 986.548 Z  M 420.278 921.515 L 420.278 921.515 L 420.278 921.515 L 420.278 921.515 L 420.278 921.515 L 420.483 927.71 C 417.947 927.738 415.332 927.924 412.641 928.272 L 412.637 928.272 C 412.753 928.257 412.861 928.234 412.962 928.206 L 412.958 928.207 C 402.405 931.172 395.829 949.142 396.919 988.382 C 396.942 989.213 396.631 990.018 396.055 990.616 C 395.479 991.215 394.687 991.558 393.857 991.568 L 393.857 991.568 L 393.833 991.568 L 396.614 989.76 C 394.569 994.222 399.535 1018.711 413.946 1066.143 L 413.946 1066.143 C 413.908 1066.018 413.858 1065.893 413.795 1065.77 L 413.794 1065.769 C 449.991 1135.924 481.161 1168.468 506.924 1168.186 L 506.924 1168.186 C 511.745 1168.133 516.46 1166.935 521.103 1164.539 L 521.103 1164.539 C 526.177 1161.921 531.188 1157.851 536.116 1152.215 L 536.116 1152.215 C 535.307 1153.141 535.399 1154.55 536.327 1155.361 L 536.299 1155.337 L 536.299 1155.337 L 536.328 1155.362 C 536.755 1155.735 537.292 1155.917 537.818 1155.912 L 537.955 1155.907 L 537.955 1155.907 L 537.819 1155.912 C 538.426 1155.905 539.038 1155.647 539.472 1155.151 L 539.473 1155.15 C 534.307 1161.059 528.873 1165.547 523.148 1168.502 L 523.148 1168.502 C 517.951 1171.183 512.538 1172.579 506.939 1172.641 L 506.939 1172.641 C 477.486 1172.964 445.266 1136.454 409.908 1067.96 L 412.692 1069.638 L 412.676 1069.638 C 411.3 1069.651 410.08 1068.756 409.68 1067.439 L 409.68 1067.439 C 395.912 1022.126 389.338 994.551 392.566 987.884 L 392.566 987.884 C 392.625 987.76 392.692 987.634 392.763 987.509 L 392.764 987.509 C 392.558 987.866 392.456 988.273 392.467 988.684 L 392.467 988.684 C 391.429 952.003 396.572 928.277 411.656 923.942 L 412.547 930.021 L 412.524 930.021 C 410.882 930.04 409.51 928.775 409.396 927.137 C 409.282 925.499 410.465 924.056 412.093 923.847 L 412.093 923.847 C 414.9 923.485 417.652 923.289 420.342 923.259 L 420.342 923.259 C 455.816 922.87 478.423 951.237 489.404 1004.297 L 489.404 1004.298 C 489.184 1003.232 488.242 1002.508 487.196 1002.52 L 487.196 1002.52 C 487.053 1002.521 486.907 1002.537 486.766 1002.566 L 486.77 1002.566 C 485.563 1002.815 484.789 1003.995 485.038 1005.201 L 485.038 1005.201 C 473.999 951.861 452.076 927.364 420.483 927.71 C 418.797 927.729 417.406 926.397 417.35 924.713 C 417.295 923.028 418.595 921.608 420.278 921.515 L 420.278 921.515 L 420.278 921.515 L 420.278 921.515 L 420.278 921.515 L 420.278 921.515 L 420.278 921.515 Z  M 420.619 927.706 L 420.619 927.706 L 420.619 927.706 L 420.619 927.706 L 420.619 927.706 L 420.415 921.511 C 456.769 921.112 479.929 949.922 491.109 1003.944 L 491.11 1003.944 C 491.554 1006.092 490.173 1008.193 488.025 1008.637 L 488.029 1008.637 C 487.775 1008.689 487.518 1008.717 487.264 1008.72 L 487.264 1008.72 C 485.401 1008.74 483.724 1007.447 483.333 1005.553 L 483.333 1005.554 C 472.484 953.133 451.096 929.122 420.41 929.459 L 420.41 929.459 C 417.976 929.486 415.466 929.664 412.884 929.996 L 412.454 923.822 L 412.477 923.821 C 414.029 923.804 415.355 924.936 415.58 926.471 C 415.805 928.007 414.86 929.472 413.369 929.901 L 413.369 929.901 C 403.73 932.671 397.576 950.062 398.665 988.509 L 398.665 988.51 C 398.685 989.242 398.503 989.967 398.137 990.603 L 398.137 990.602 C 398.144 990.59 398.146 990.585 398.146 990.586 L 398.146 990.586 C 396.298 994.404 401.25 1018.365 415.612 1065.637 L 412.616 1063.438 L 412.632 1063.438 C 413.803 1063.427 414.88 1064.076 415.417 1065.116 L 415.417 1065.116 C 451.264 1134.556 481.873 1166.715 506.871 1166.441 L 506.871 1166.441 C 511.445 1166.391 515.914 1165.257 520.305 1162.992 L 520.305 1162.992 C 525.18 1160.476 530.021 1156.541 534.805 1151.069 L 534.805 1151.069 C 535.579 1150.184 536.665 1149.724 537.75 1149.712 L 537.614 1149.717 L 537.614 1149.717 L 537.752 1149.712 C 538.69 1149.702 539.644 1150.026 540.407 1150.693 L 540.436 1150.718 L 540.436 1150.718 L 540.408 1150.693 C 542.06 1152.138 542.226 1154.646 540.784 1156.296 L 540.784 1156.296 C 535.47 1162.373 529.866 1166.995 523.946 1170.049 L 523.946 1170.049 C 518.501 1172.859 512.84 1174.321 506.992 1174.385 L 506.992 1174.385 C 476.791 1174.717 444.015 1137.865 408.284 1068.612 L 408.284 1068.611 C 408.172 1068.394 408.083 1068.172 408.014 1067.945 L 408.014 1067.945 C 394.149 1022.311 387.66 994.416 390.978 987.177 C 391.478 986.087 392.561 985.383 393.76 985.369 L 393.76 985.369 L 393.784 985.368 L 390.722 988.554 C 389.676 950.923 395.3 926.728 411.281 922.238 L 411.277 922.239 C 411.459 922.188 411.652 922.147 411.85 922.122 L 411.847 922.122 C 414.764 921.746 417.624 921.541 420.415 921.511 C 422.1 921.492 423.491 922.824 423.547 924.508 C 423.603 926.193 422.302 927.613 420.619 927.706 L 420.619 927.706 L 420.619 927.706 L 420.619 927.706 L 420.619 927.706 L 420.619 927.706 Z " fill="rgb(0,0,0)"/><path d=" M 1278.542 940.789 L 1278.542 940.789 L 1278.542 940.789 L 1278.542 940.789 L 1278.542 940.789 L 1278.619 940.786 C 1278.695 940.783 1278.792 940.783 1278.893 940.787 L 1278.88 940.786 C 1281.072 940.862 1282.787 942.701 1282.711 944.891 L 1282.711 944.892 L 1282.509 950.731 L 1279.24 947.529 L 1279.242 947.529 C 1280.079 947.483 1280.9 947.778 1281.516 948.348 C 1282.132 948.917 1282.491 949.712 1282.511 950.551 L 1282.511 950.551 C 1282.518 950.856 1282.532 951.005 1282.536 951.036 L 1282.535 951.034 C 1282.544 951.103 1282.528 950.895 1282.418 950.599 L 1279.409 948.579 L 1279.414 948.579 C 1280.567 948.541 1281.646 949.146 1282.215 950.149 L 1282.215 950.149 C 1282.31 950.317 1282.391 950.489 1282.461 950.668 L 1279.463 948.693 L 1279.472 948.693 C 1280.312 948.663 1281.128 948.976 1281.732 949.559 L 1281.734 949.56 C 1281.216 949.061 1280.697 948.956 1280.878 949.011 L 1280.88 949.011 C 1280.878 949.011 1280.896 949.016 1280.92 949.022 L 1280.067 948.932 L 1280.09 948.931 C 1280.161 948.929 1280.231 948.929 1280.302 948.931 L 1280.302 948.931 C 1282.666 949.013 1284.677 949.166 1285.893 949.531 L 1285.891 949.531 C 1286.024 949.57 1286.169 949.619 1286.315 949.676 L 1285.081 949.464 L 1285.098 949.464 C 1285.418 949.453 1285.738 949.492 1286.045 949.579 L 1286.045 949.579 C 1286.88 949.815 1287.698 950.188 1288.427 950.75 L 1288.427 950.75 C 1288.999 951.192 1289.486 951.727 1289.87 952.347 L 1287.063 950.883 L 1287.063 950.882 C 1288.175 950.821 1289.235 951.362 1289.839 952.298 L 1289.839 952.298 C 1290.924 953.981 1291.627 955.796 1291.868 957.726 L 1289.007 955.018 L 1289.007 955.018 C 1290.442 955.117 1291.619 956.191 1291.852 957.61 L 1291.852 957.61 C 1291.959 958.269 1292.019 958.922 1292.017 959.569 L 1292.017 959.607 L 1292.017 959.631 L 1292.015 959.679 L 1291.878 964.191 L 1288.67 960.998 L 1288.679 960.998 C 1290.285 960.941 1291.668 962.121 1291.865 963.716 L 1291.865 963.716 C 1291.87 963.755 1291.874 963.778 1291.874 963.779 L 1291.874 963.776 C 1291.894 963.896 1291.86 963.566 1291.64 963.151 L 1288.788 961.505 L 1288.801 961.505 C 1289.733 961.471 1290.63 961.858 1291.245 962.559 L 1291.245 962.559 C 1292.498 963.988 1292.581 966.149 1291.344 967.676 L 1291.344 967.676 C 1290.589 968.608 1289.494 969.108 1288.39 969.145 L 1288.392 969.145 C 1287.472 969.176 1286.531 968.887 1285.76 968.262 L 1285.76 968.262 C 1285.256 967.855 1284.885 967.366 1284.62 966.865 C 1283.83 965.369 1284.386 963.515 1285.869 962.7 C 1287.352 961.885 1289.215 962.411 1290.054 963.88 L 1290.054 963.88 L 1290.054 963.881 L 1284.266 965.588 L 1284.266 965.588 L 1284.622 966.868 C 1284.44 966.525 1284.314 966.183 1284.222 965.87 L 1284.222 965.868 C 1284.088 965.411 1284.009 964.944 1283.961 964.493 C 1283.953 964.422 1283.948 964.351 1283.945 964.279 L 1283.945 964.279 L 1283.941 964.16 C 1283.938 964.09 1283.938 964.019 1283.94 963.949 L 1283.94 963.949 L 1284.078 959.438 L 1286.962 962.625 L 1286.961 962.625 C 1285.339 962.512 1284.079 961.165 1284.076 959.539 L 1284.076 959.539 C 1284.075 959.377 1284.059 959.159 1284.011 958.87 L 1284.003 958.818 L 1283.998 958.782 L 1283.969 958.497 L 1283.968 958.496 L 1283.988 958.71 C 1283.908 958.073 1283.663 957.372 1283.159 956.592 L 1283.147 956.574 L 1283.138 956.56 L 1282.657 955.064 L 1282.657 955.064 L 1283.116 956.524 C 1283.476 957.106 1283.935 957.236 1283.889 957.222 L 1283.891 957.223 C 1283.89 957.222 1283.883 957.22 1283.872 957.217 C 1283.784 957.194 1283.698 957.168 1283.612 957.138 L 1283.612 957.138 L 1283.468 957.086 C 1283.309 957.03 1283.156 956.961 1283.009 956.88 L 1283.009 956.88 L 1283.008 956.88 L 1284.594 957.263 L 1284.587 957.263 C 1284.219 957.274 1283.851 957.219 1283.502 957.101 L 1283.501 957.1 C 1283.559 957.12 1283.595 957.129 1283.589 957.127 L 1283.588 957.127 C 1283.293 957.056 1282.193 956.94 1279.916 956.864 L 1279.916 956.864 C 1279.657 956.856 1279.396 956.821 1279.142 956.762 L 1279.143 956.762 C 1278.635 956.643 1278.119 956.476 1277.622 956.235 L 1277.621 956.234 C 1276.955 955.912 1276.288 955.441 1275.752 954.758 C 1274.953 953.741 1274.87 952.334 1275.543 951.23 C 1276.216 950.125 1277.505 949.555 1278.775 949.799 L 1278.775 949.799 L 1278.775 949.799 L 1275.75 954.755 C 1275.606 954.571 1275.472 954.373 1275.352 954.162 C 1274.817 953.218 1274.814 952.063 1275.344 951.116 C 1275.875 950.17 1276.861 949.569 1277.946 949.534 L 1277.946 949.534 L 1277.963 949.533 L 1275.583 954.49 C 1275.308 954.122 1275.112 953.736 1274.974 953.365 L 1280.975 952.113 L 1280.975 952.114 C 1281.059 953.644 1280.012 955.007 1278.511 955.319 C 1277.01 955.631 1275.506 954.799 1274.973 953.362 L 1274.973 953.363 C 1274.88 953.11 1274.815 952.868 1274.769 952.655 L 1274.768 952.653 C 1274.634 952.034 1274.585 951.347 1274.571 950.678 L 1274.57 950.596 L 1274.57 950.548 L 1274.572 950.457 L 1274.774 944.617 L 1274.774 944.619 C 1274.846 942.515 1276.539 940.855 1278.609 940.786 L 1278.542 940.789 L 1278.542 940.789 L 1278.542 940.789 L 1278.542 940.789 L 1278.542 940.789 L 1278.542 940.789 Z  M 1278.883 946.979 L 1278.883 946.979 L 1278.883 946.979 L 1278.883 946.979 L 1278.883 946.979 L 1278.817 946.982 C 1279.98 946.943 1280.93 946.013 1280.971 944.83 L 1280.971 944.832 L 1280.769 950.671 L 1280.77 950.58 L 1280.77 950.629 L 1280.769 950.547 C 1280.78 951.057 1280.816 951.287 1280.827 951.337 L 1280.827 951.335 C 1280.828 951.344 1280.818 951.292 1280.786 951.206 L 1274.784 952.455 L 1274.784 952.454 C 1274.7 950.924 1275.746 949.562 1277.246 949.249 C 1278.746 948.936 1280.25 949.766 1280.785 951.202 L 1280.785 951.202 C 1280.746 951.097 1280.673 950.943 1280.546 950.773 C 1281.239 951.698 1281.359 952.931 1280.86 953.973 C 1280.36 955.014 1279.322 955.692 1278.167 955.73 L 1278.167 955.73 L 1278.15 955.73 L 1280.744 951.102 C 1280.706 951.035 1280.67 950.982 1280.63 950.931 C 1281.428 951.949 1281.51 953.355 1280.836 954.458 C 1280.162 955.562 1278.875 956.132 1277.605 955.888 L 1277.605 955.888 L 1277.605 955.888 L 1280.628 950.928 C 1280.468 950.725 1280.322 950.654 1280.324 950.655 L 1280.324 950.655 C 1280.329 950.657 1280.395 950.688 1280.555 950.725 L 1280.555 950.725 C 1280.412 950.692 1280.266 950.672 1280.12 950.668 L 1280.121 950.668 C 1282.251 950.738 1284.014 950.853 1285.037 951.099 L 1285.036 951.098 C 1285.172 951.131 1285.328 951.173 1285.493 951.229 L 1284.407 951.066 L 1284.414 951.066 C 1284.967 951.05 1285.515 951.182 1286 951.449 L 1286 951.449 L 1286 951.45 L 1285.542 951.243 L 1285.686 951.295 L 1285.427 951.215 C 1285.541 951.245 1285.653 951.277 1285.768 951.313 L 1285.77 951.314 C 1286.613 951.583 1287.688 952.13 1288.389 953.263 L 1288.848 954.723 L 1288.848 954.723 L 1288.367 953.228 L 1288.376 953.243 L 1288.365 953.225 C 1289.306 954.68 1289.929 956.258 1290.14 957.94 L 1290.159 958.155 L 1290.159 958.156 L 1290.13 957.87 L 1290.135 957.905 L 1290.127 957.852 C 1290.22 958.413 1290.274 958.968 1290.276 959.525 L 1287.39 956.439 L 1287.391 956.44 C 1289.052 956.555 1290.325 957.962 1290.275 959.626 L 1290.275 959.626 L 1290.137 964.138 L 1290.137 963.927 L 1290.141 964.046 L 1290.126 963.833 C 1290.147 964.032 1290.17 964.121 1290.174 964.133 L 1290.173 964.132 C 1290.175 964.137 1290.159 964.075 1290.101 963.967 L 1290.457 965.247 L 1290.457 965.247 C 1290.893 965.463 1290.339 967.318 1288.855 968.134 C 1287.372 968.95 1285.508 968.424 1284.669 966.954 L 1284.669 966.954 L 1284.669 966.954 L 1290.102 963.97 C 1290.026 963.824 1289.887 963.627 1289.662 963.444 L 1289.662 963.444 C 1289.23 963.094 1288.699 962.931 1288.183 962.948 L 1288.184 962.948 C 1287.567 962.969 1286.951 963.25 1286.527 963.773 L 1286.527 963.773 C 1285.831 964.632 1285.879 965.844 1286.584 966.647 L 1289.027 967.701 L 1289.014 967.701 C 1287.826 967.744 1286.719 967.105 1286.162 966.055 L 1286.162 966.055 C 1285.883 965.529 1285.793 965 1285.765 964.838 L 1285.765 964.836 C 1285.744 964.718 1285.726 964.588 1285.712 964.476 L 1288.898 967.194 L 1288.889 967.194 C 1288.032 967.225 1287.2 966.899 1286.593 966.294 C 1285.985 965.689 1285.655 964.859 1285.681 964.002 L 1285.681 964.002 L 1285.818 959.491 L 1285.817 959.539 L 1285.818 959.515 L 1285.817 959.552 C 1285.818 959.296 1285.794 958.985 1285.733 958.611 L 1288.578 961.203 L 1288.577 961.203 C 1287.099 961.1 1285.9 959.965 1285.716 958.495 L 1285.716 958.495 C 1285.602 957.587 1285.266 956.647 1284.628 955.658 L 1287.404 957.073 L 1287.404 957.073 C 1286.271 957.136 1285.194 956.574 1284.597 955.608 L 1284.597 955.608 C 1284.612 955.634 1284.633 955.653 1284.64 955.659 L 1284.64 955.659 C 1284.644 955.662 1284.574 955.606 1284.358 955.545 L 1285.305 955.66 L 1285.288 955.661 C 1284.867 955.675 1284.447 955.603 1284.055 955.449 L 1284.055 955.449 C 1284.092 955.464 1284.115 955.471 1284.113 955.47 L 1284.112 955.47 C 1283.794 955.374 1282.602 955.214 1280.089 955.128 L 1280.301 955.128 L 1280.277 955.129 C 1279.99 955.138 1279.703 955.108 1279.424 955.039 L 1279.424 955.039 C 1279.314 955.011 1279.195 954.979 1279.082 954.945 L 1279.084 954.946 C 1278.866 954.88 1278.079 954.65 1277.428 954.022 L 1279.69 954.889 L 1279.68 954.889 C 1278.363 954.936 1277.16 954.143 1276.683 952.915 L 1276.683 952.915 C 1276.722 953.015 1276.767 953.112 1276.82 953.206 L 1279.621 954.776 L 1279.615 954.776 C 1278.282 954.82 1277.07 954.007 1276.606 952.756 L 1276.606 952.756 C 1276.455 952.349 1276.404 951.967 1276.383 951.8 L 1276.383 951.798 C 1276.341 951.459 1276.322 951.074 1276.313 950.697 L 1279.583 953.719 L 1279.581 953.719 C 1278.712 953.767 1277.863 953.448 1277.241 952.838 C 1276.619 952.229 1276.283 951.387 1276.313 950.517 L 1276.313 950.517 L 1276.515 944.677 L 1276.515 944.678 C 1276.472 945.907 1277.435 946.94 1278.666 946.982 L 1278.653 946.982 C 1278.718 946.984 1278.765 946.984 1278.807 946.983 L 1278.883 946.979 L 1278.883 946.979 L 1278.883 946.979 L 1278.883 946.979 L 1278.883 946.979 Z  M 1288.872 909.11 L 1288.872 909.11 L 1288.872 909.11 L 1288.872 909.11 L 1288.872 909.11 L 1288.938 909.107 C 1290.821 909.043 1292.629 909.422 1294.324 910.237 L 1294.324 910.237 C 1297.983 911.996 1300.724 915.558 1302.818 920.173 L 1299.888 918.356 L 1299.912 918.355 C 1300.841 918.323 1301.736 918.71 1302.349 919.408 L 1302.349 919.408 C 1314.223 932.943 1308.654 978.047 1289.224 1050.834 L 1289.224 1050.834 C 1288.76 1052.57 1287.22 1053.721 1285.52 1053.778 L 1285.524 1053.778 C 1285.132 1053.792 1284.744 1053.747 1284.365 1053.646 L 1284.363 1053.646 C 1282.244 1053.08 1280.985 1050.905 1281.551 1048.786 L 1281.551 1048.786 C 1301.442 974.271 1305.106 934.235 1296.295 924.551 L 1296.296 924.552 C 1296.015 924.244 1295.784 923.891 1295.614 923.514 L 1295.613 923.512 C 1293.943 919.811 1292.268 918.06 1290.883 917.394 L 1290.995 917.445 L 1290.995 917.445 L 1290.883 917.394 C 1290.285 917.107 1289.663 916.974 1288.972 916.998 L 1288.972 916.998 C 1280.936 917.267 1266.352 935.978 1245.451 979.445 L 1245.45 979.446 C 1244.786 980.826 1243.429 981.645 1242.004 981.692 L 1242.005 981.692 C 1241.382 981.713 1240.745 981.588 1240.15 981.301 L 1240.152 981.302 C 1238.176 980.352 1237.344 977.98 1238.294 976.003 L 1238.294 976.003 C 1258.541 933.896 1275.328 909.563 1288.939 909.107 L 1288.872 909.11 L 1288.872 909.11 L 1288.872 909.11 L 1288.872 909.11 L 1288.872 909.11 L 1288.872 909.11 Z  M 1289.213 915.3 L 1289.213 915.3 L 1289.213 915.3 L 1289.213 915.3 L 1289.213 915.3 L 1289.146 915.303 C 1280.217 915.602 1265.035 934.697 1243.882 978.69 L 1243.882 978.69 C 1244.416 977.58 1243.948 976.248 1242.839 975.715 L 1242.841 975.716 C 1242.508 975.555 1242.148 975.484 1241.797 975.496 L 1241.799 975.496 C 1241.002 975.522 1240.237 975.981 1239.864 976.756 L 1239.864 976.758 C 1259.789 935.319 1276.012 911.229 1288.764 910.801 L 1288.764 910.801 C 1290.442 910.745 1292.058 911.08 1293.57 911.807 L 1293.458 911.755 L 1293.458 911.756 L 1293.57 911.807 C 1296.896 913.406 1299.361 916.745 1301.264 920.962 L 1301.264 920.961 C 1301.168 920.749 1301.039 920.552 1300.88 920.378 L 1300.881 920.379 C 1312.577 933.235 1306.879 977.945 1287.541 1050.385 L 1287.541 1050.385 C 1287.858 1049.195 1287.152 1047.974 1285.962 1047.656 L 1285.961 1047.655 C 1285.753 1047.6 1285.532 1047.574 1285.309 1047.582 L 1285.313 1047.582 C 1284.36 1047.614 1283.494 1048.258 1283.233 1049.235 L 1283.233 1049.235 C 1303.182 974.507 1306.806 933.89 1297.689 923.497 L 1300.126 924.551 L 1300.102 924.552 C 1298.848 924.595 1297.691 923.878 1297.172 922.735 L 1297.172 922.735 C 1295.357 918.735 1293.422 916.683 1291.638 915.825 L 1291.638 915.825 C 1290.848 915.445 1290.033 915.273 1289.147 915.303 L 1289.213 915.3 L 1289.213 915.3 L 1289.213 915.3 L 1289.213 915.3 L 1289.213 915.3 Z  M 1246.264 1002.588 L 1246.264 1002.588 L 1246.264 1002.588 L 1246.264 1002.588 L 1246.264 1002.588 L 1246.331 1002.585 C 1248.119 1002.525 1249.786 1003.684 1250.289 1005.489 L 1250.288 1005.489 C 1252.811 1014.55 1252.126 1023.371 1248.22 1031.814 L 1245.309 1027.414 L 1245.332 1027.413 C 1246.278 1027.383 1247.186 1027.787 1247.797 1028.511 C 1248.408 1029.234 1248.656 1030.197 1248.468 1031.125 L 1248.468 1031.125 C 1246.621 1040.278 1235.414 1049.458 1217.651 1058.975 L 1217.651 1058.975 C 1217.101 1059.269 1216.505 1059.423 1215.91 1059.444 L 1215.909 1059.444 C 1214.454 1059.492 1213.017 1058.732 1212.277 1057.352 L 1212.276 1057.351 C 1211.239 1055.416 1211.969 1053.011 1213.899 1051.976 L 1213.827 1052.016 L 1213.828 1052.015 L 1213.9 1051.975 C 1231.82 1042.374 1239.73 1034.764 1240.705 1029.443 L 1240.705 1029.441 C 1240.765 1029.117 1240.866 1028.796 1241.007 1028.49 L 1241.008 1028.49 C 1244.111 1021.789 1244.659 1014.878 1242.638 1007.618 L 1242.638 1007.618 C 1242.05 1005.506 1243.286 1003.316 1245.398 1002.729 L 1245.395 1002.729 C 1245.706 1002.643 1246.019 1002.596 1246.331 1002.585 L 1246.264 1002.588 L 1246.264 1002.588 L 1246.264 1002.588 L 1246.264 1002.588 L 1246.264 1002.588 L 1246.264 1002.588 Z  M 1246.605 1008.779 L 1246.605 1008.779 L 1246.605 1008.779 L 1246.605 1008.779 L 1246.605 1008.779 L 1246.539 1008.781 C 1246.713 1008.776 1246.892 1008.749 1247.064 1008.7 L 1247.061 1008.701 C 1248.247 1008.371 1248.941 1007.142 1248.611 1005.956 L 1248.611 1005.956 C 1251.02 1014.609 1250.366 1023.036 1246.634 1031.095 L 1246.634 1031.095 C 1246.714 1030.922 1246.77 1030.742 1246.803 1030.562 L 1246.804 1030.56 C 1245.206 1039.277 1234.189 1048.139 1216.828 1057.44 L 1216.901 1057.4 L 1216.901 1057.4 L 1216.829 1057.44 C 1217.912 1056.859 1218.323 1055.509 1217.74 1054.421 L 1217.739 1054.42 C 1217.323 1053.645 1216.515 1053.22 1215.702 1053.247 L 1215.701 1053.247 C 1215.365 1053.258 1215.029 1053.346 1214.723 1053.51 L 1214.723 1053.51 C 1232.913 1043.764 1241.201 1035.79 1242.391 1029.898 L 1245.527 1033.61 L 1245.504 1033.61 C 1244.429 1033.644 1243.414 1033.119 1242.821 1032.222 C 1242.228 1031.326 1242.141 1030.186 1242.593 1029.21 L 1242.593 1029.21 C 1245.871 1022.125 1246.45 1014.818 1244.316 1007.152 L 1244.316 1007.151 C 1244.598 1008.167 1245.535 1008.815 1246.539 1008.781 L 1246.605 1008.779 L 1246.605 1008.779 L 1246.605 1008.779 L 1246.605 1008.779 L 1246.605 1008.779 Z  M 1255.257 958.667 L 1255.257 958.667 L 1255.257 958.667 L 1255.257 958.667 L 1255.257 958.667 L 1255.322 958.664 C 1255.76 958.649 1256.194 958.694 1256.616 958.796 L 1256.616 958.796 C 1257.701 959.059 1258.561 959.66 1259.206 960.356 L 1259.206 960.356 C 1259.742 960.934 1260.154 961.598 1260.478 962.269 L 1260.478 962.269 C 1262.524 966.494 1263.731 977.172 1264.475 993.206 L 1261.273 990.251 L 1261.296 990.25 C 1262.31 990.216 1263.276 990.679 1263.884 991.492 L 1263.884 991.492 C 1270.961 1000.957 1275.501 1007.835 1276.01 1011.231 L 1276.01 1011.229 C 1276.033 1011.382 1276.05 1011.536 1276.06 1011.693 L 1272.862 1008.804 L 1272.885 1008.804 C 1274.257 1008.757 1275.496 1009.618 1275.931 1010.92 L 1275.931 1010.92 C 1278.654 1019.069 1277.427 1030.068 1273.048 1043.457 L 1273.048 1043.457 C 1272.945 1043.771 1272.801 1044.076 1272.618 1044.362 L 1272.618 1044.363 C 1259.027 1065.595 1239.977 1077.351 1215.666 1079.377 L 1215.656 1079.378 C 1215.598 1079.383 1215.53 1079.386 1215.471 1079.389 L 1215.469 1079.389 C 1213.366 1079.459 1211.557 1077.87 1211.379 1075.751 L 1211.38 1075.752 C 1211.196 1073.564 1212.822 1071.646 1215.004 1071.463 L 1215.093 1071.457 L 1215.094 1071.457 L 1215.007 1071.463 C 1236.675 1069.657 1253.549 1059.334 1265.827 1040.241 C 1266.377 1039.386 1267.312 1038.854 1268.329 1038.82 L 1268.329 1038.82 L 1268.352 1038.819 L 1265.511 1040.954 C 1269.695 1028.152 1270.356 1019.098 1268.347 1013.284 L 1268.347 1013.285 C 1268.222 1012.922 1268.152 1012.55 1268.134 1012.176 L 1268.134 1012.174 C 1268.139 1012.275 1268.151 1012.331 1268.15 1012.325 L 1268.15 1012.325 C 1267.856 1010.955 1264.67 1005.788 1257.341 996.003 L 1257.341 996.003 C 1256.865 995.367 1256.59 994.603 1256.553 993.807 L 1256.553 993.805 C 1255.794 977.312 1254.594 968.338 1253.331 965.729 L 1253.33 965.728 C 1253.268 965.6 1253.236 965.547 1253.231 965.539 L 1253.231 965.538 C 1253.045 965.239 1253.441 966.103 1254.543 966.457 L 1255.597 966.604 L 1255.574 966.605 L 1256.421 966.457 C 1256.613 966.395 1256.753 966.327 1256.793 966.308 L 1255.264 960.426 L 1255.264 960.426 C 1256.739 960.345 1258.067 961.316 1258.436 962.746 C 1258.806 964.177 1258.114 965.669 1256.784 966.312 L 1256.784 966.312 C 1256.274 966.559 1255.73 966.688 1255.191 966.706 L 1255.188 966.706 C 1253.675 966.757 1252.189 965.931 1251.481 964.467 L 1251.482 964.469 C 1250.526 962.495 1251.351 960.12 1253.323 959.164 L 1254.505 958.859 L 1254.505 958.859 L 1253.325 959.164 C 1253.843 958.913 1254.411 958.742 1255.021 958.684 L 1255.025 958.683 C 1255.113 958.675 1255.226 958.667 1255.33 958.664 L 1255.257 958.667 L 1255.257 958.667 L 1255.257 958.667 L 1255.257 958.667 L 1255.257 958.667 L 1255.257 958.667 Z  M 1255.598 964.857 L 1255.598 964.857 L 1255.598 964.857 L 1255.598 964.857 L 1255.598 964.857 L 1255.525 964.861 C 1255.568 964.859 1255.586 964.858 1255.613 964.855 L 1255.616 964.855 C 1255.79 964.838 1255.931 964.79 1256.027 964.744 C 1255.657 964.923 1255.256 965.027 1254.846 965.049 L 1254.846 965.049 L 1254.846 965.049 L 1256.028 964.743 C 1257.135 964.207 1257.598 962.874 1257.061 961.765 L 1257.062 961.767 C 1256.663 960.942 1255.827 960.482 1254.982 960.51 L 1254.978 960.51 C 1254.675 960.52 1254.369 960.593 1254.085 960.73 L 1255.605 966.617 L 1255.605 966.617 C 1254.132 966.698 1252.806 965.729 1252.434 964.301 C 1252.063 962.873 1252.75 961.381 1254.076 960.735 L 1254.076 960.735 C 1254.144 960.702 1254.305 960.625 1254.517 960.556 C 1254.791 960.468 1255.076 960.418 1255.364 960.408 L 1255.364 960.408 L 1255.387 960.408 C 1255.744 960.396 1256.101 960.445 1256.441 960.555 L 1256.441 960.555 C 1257.752 960.976 1258.397 962.105 1258.496 962.265 L 1258.496 962.264 C 1258.652 962.516 1258.789 962.775 1258.911 963.028 L 1258.911 963.027 C 1260.863 967.06 1262.014 977.608 1262.746 993.52 L 1262.746 993.518 C 1262.725 993.072 1262.571 992.644 1262.304 992.287 L 1262.303 992.286 C 1269.17 1001.454 1273.556 1007.971 1274.212 1011.023 L 1274.212 1011.023 C 1274.267 1011.28 1274.312 1011.57 1274.327 1011.883 L 1274.327 1011.881 C 1274.317 1011.674 1274.278 1011.464 1274.207 1011.26 L 1274.207 1011.26 C 1276.906 1019.07 1275.686 1029.778 1271.404 1042.88 C 1271 1044.118 1269.864 1044.971 1268.563 1045.015 L 1268.563 1045.015 L 1268.54 1045.016 L 1271.042 1043.595 C 1257.768 1064.236 1239.195 1075.669 1215.522 1077.642 L 1215.435 1077.648 L 1215.434 1077.648 L 1215.523 1077.642 C 1216.747 1077.539 1217.661 1076.463 1217.558 1075.233 L 1217.558 1075.234 C 1217.458 1074.044 1216.443 1073.153 1215.261 1073.192 L 1215.259 1073.192 C 1215.221 1073.193 1215.199 1073.195 1215.162 1073.198 L 1215.152 1073.199 C 1237.452 1071.34 1254.8 1060.698 1267.396 1041.02 L 1267.396 1041.02 C 1267.292 1041.183 1267.212 1041.354 1267.155 1041.529 L 1267.155 1041.529 C 1271.423 1028.483 1272.123 1019.088 1270.05 1012.884 L 1273.096 1015 L 1273.073 1015.001 C 1271.402 1015.058 1269.988 1013.78 1269.875 1012.112 L 1269.875 1012.112 C 1269.876 1012.132 1269.878 1012.149 1269.878 1012.15 L 1269.878 1012.148 C 1269.661 1010.701 1266.508 1005.354 1258.919 995.205 L 1261.507 996.447 L 1261.483 996.447 C 1259.787 996.505 1258.36 995.188 1258.281 993.493 L 1258.281 993.493 C 1257.512 976.923 1256.259 967.782 1254.898 964.97 L 1254.898 964.97 C 1254.76 964.686 1254.669 964.581 1254.661 964.572 L 1254.66 964.572 C 1254.666 964.578 1254.827 964.742 1255.159 964.823 L 1255.158 964.822 C 1255.277 964.851 1255.405 964.865 1255.533 964.86 L 1255.598 964.857 L 1255.598 964.857 L 1255.598 964.857 L 1255.598 964.857 L 1255.598 964.857 Z  M 1295.06 897.995 L 1295.06 897.995 L 1295.06 897.995 L 1295.06 897.995 L 1295.06 897.995 L 1295.127 897.992 C 1297.921 897.898 1300.779 897.976 1303.713 898.222 L 1303.713 898.222 C 1303.909 898.238 1304.1 898.269 1304.283 898.312 L 1304.284 898.312 C 1320.448 902.087 1327.143 926.007 1327.773 963.648 L 1324.582 960.601 L 1324.605 960.601 C 1325.8 960.565 1326.909 961.22 1327.455 962.283 L 1327.455 962.283 C 1331.092 969.368 1325.85 997.523 1314.028 1043.73 L 1314.029 1043.728 C 1313.969 1043.963 1313.888 1044.189 1313.79 1044.403 L 1313.788 1044.408 C 1281.172 1115.181 1250.068 1153.454 1219.883 1154.466 L 1219.883 1154.466 C 1214.038 1154.662 1208.317 1153.453 1202.752 1150.888 L 1202.752 1150.888 C 1196.703 1148.101 1190.898 1143.733 1185.32 1137.898 L 1185.32 1137.898 C 1183.805 1136.314 1183.86 1133.801 1185.446 1132.285 L 1187.588 1134.525 L 1187.588 1134.525 L 1185.447 1132.284 C 1186.179 1131.584 1187.118 1131.218 1188.056 1131.186 L 1188.057 1131.186 C 1189.141 1131.15 1190.248 1131.561 1191.06 1132.411 L 1191.06 1132.411 C 1196.082 1137.664 1201.094 1141.381 1206.076 1143.676 L 1206.076 1143.676 C 1210.564 1145.744 1215.078 1146.678 1219.65 1146.525 L 1219.65 1146.525 C 1244.636 1145.687 1273.784 1112.198 1306.507 1041.232 C 1306.997 1040.171 1308.042 1039.475 1309.21 1039.433 L 1309.21 1039.433 L 1309.226 1039.432 L 1306.335 1041.762 C 1318.581 993.898 1322.462 969.739 1320.446 966.008 L 1320.446 966.008 C 1320.444 966.004 1320.451 966.016 1320.457 966.026 L 1320.455 966.024 C 1320.063 965.407 1319.847 964.691 1319.835 963.954 L 1319.835 963.956 C 1319.213 925.499 1312.291 908.399 1302.539 906.06 C 1301.029 905.698 1300.02 904.275 1300.178 902.731 C 1300.335 901.186 1301.611 899.997 1303.163 899.947 L 1303.163 899.947 L 1303.187 899.946 L 1303.027 906.134 C 1300.432 905.917 1297.919 905.85 1295.485 905.932 L 1295.485 905.932 C 1264.815 906.96 1244.516 931.899 1236.009 984.75 L 1236.009 984.749 C 1235.702 986.659 1234.086 988.025 1232.223 988.087 L 1232.225 988.087 C 1231.969 988.096 1231.711 988.08 1231.455 988.039 L 1231.458 988.039 C 1229.294 987.691 1227.82 985.653 1228.169 983.488 L 1228.169 983.488 C 1236.935 929.022 1258.791 899.21 1295.127 897.992 L 1295.06 897.995 L 1295.06 897.995 L 1295.06 897.995 L 1295.06 897.995 L 1295.06 897.995 L 1295.06 897.995 Z  M 1295.401 904.185 L 1295.401 904.185 L 1295.401 904.185 L 1295.401 904.185 L 1295.401 904.185 L 1295.335 904.188 C 1263.758 905.247 1242.946 930.696 1234.29 984.473 L 1234.29 984.473 C 1234.485 983.257 1233.659 982.113 1232.442 981.918 L 1232.446 981.918 C 1232.303 981.895 1232.158 981.886 1232.013 981.891 L 1232.015 981.891 C 1230.969 981.926 1230.06 982.692 1229.888 983.765 L 1229.888 983.765 C 1238.499 930.268 1259.822 900.924 1295.278 899.735 L 1295.278 899.735 C 1297.968 899.645 1300.721 899.719 1303.544 899.955 C 1305.181 900.092 1306.427 901.482 1306.385 903.124 C 1306.342 904.766 1305.027 906.09 1303.385 906.143 L 1303.385 906.143 L 1303.361 906.144 L 1303.985 900.031 C 1319.247 903.691 1325.44 927.165 1326.034 963.856 L 1326.034 963.858 C 1326.028 963.443 1325.906 963.041 1325.686 962.696 L 1325.685 962.693 C 1325.765 962.819 1325.834 962.938 1325.9 963.06 L 1325.901 963.061 C 1329.422 969.577 1324.08 997.417 1312.342 1043.298 C 1312.001 1044.63 1310.824 1045.578 1309.45 1045.628 L 1309.45 1045.628 L 1309.434 1045.629 L 1312.137 1043.829 C 1279.86 1113.827 1249.296 1151.734 1219.857 1152.721 L 1219.857 1152.721 C 1214.261 1152.908 1208.792 1151.754 1203.481 1149.307 L 1203.481 1149.307 C 1197.63 1146.611 1192.002 1142.368 1186.579 1136.695 L 1186.578 1136.695 C 1187.034 1137.172 1187.657 1137.403 1188.265 1137.382 L 1188.265 1137.382 C 1188.791 1137.365 1189.319 1137.158 1189.73 1136.767 L 1187.588 1134.525 L 1187.588 1134.525 L 1189.731 1136.766 C 1190.621 1135.914 1190.652 1134.503 1189.801 1133.614 L 1189.801 1133.614 C 1194.974 1139.024 1200.163 1142.868 1205.347 1145.258 L 1205.347 1145.258 C 1210.092 1147.444 1214.857 1148.432 1219.675 1148.27 L 1219.675 1148.27 C 1245.425 1147.407 1275.117 1113.507 1308.157 1041.813 L 1308.155 1041.817 C 1308.1 1041.937 1308.056 1042.061 1308.022 1042.195 L 1308.022 1042.193 C 1320.309 994.167 1324.181 969.482 1321.939 965.115 L 1324.789 966.798 L 1324.765 966.799 C 1323.936 966.823 1323.132 966.515 1322.532 965.942 C 1321.933 965.37 1321.587 964.581 1321.574 963.752 L 1321.574 963.752 C 1320.917 924.502 1313.549 906.843 1302.874 904.35 L 1302.874 904.35 C 1302.975 904.373 1303.083 904.391 1303.193 904.4 L 1303.194 904.4 C 1300.488 904.173 1297.871 904.103 1295.335 904.188 L 1295.401 904.185 L 1295.401 904.185 L 1295.401 904.185 L 1295.401 904.185 L 1295.401 904.185 Z " fill="rgb(0,0,0)"/></g></g><g id="face color"><g id="Group"><path d=" M 806.237 389.971 Q 818.2 389.312 830.531 389.154 Q 1057.132 390.725 1158.212 499.04 Q 1203.091 539 1238.04 656.086 Q 1268.652 750.721 1260.571 826.791 L 1260.558 826.792 Q 1221.444 1021.929 1200.676 1082.371 Q 1174.522 1169.086 1144.863 1215.239 Q 1098.483 1271.134 981.328 1360.093 Q 907.105 1406.043 879.229 1407.58 Q 876.555 1407.727 874.308 1407.466 Q 812.472 1401.989 733.183 1349.073 Q 619.707 1274.409 581.202 1221.254 Q 544.458 1160.981 504.005 1045.401 Q 482.652 983.656 459.383 852.498 L 459.377 852.498 Q 452.759 806.622 456.668 760.389 Q 460.694 704.034 473.232 651.947 Q 491.495 573.386 538.694 512.175 Q 634.507 399.435 806.237 389.971 Z " fill="rgb(252,235,224)"/></g></g><g id="rear hair"><g id="rear hair color"><path d=" M 572.758 1240.729 L 572.811 1240.816 Q 572.594 1240.916 572.39 1241.067 L 572.39 1241.067 L 572.758 1240.729 L 572.758 1240.729 Z  M 542.935 1264.646 L 543.518 1264.949 L 544.01 1265.3 L 544.411 1265.699 L 544.719 1266.147 L 544.936 1266.644 L 545.061 1267.189 L 545.094 1267.783 L 545.036 1268.425 L 544.883 1269.116 L 544.964 1268.69 L 544.999 1268.263 L 544.988 1267.839 L 544.932 1267.421 L 544.834 1267.014 L 544.694 1266.619 L 544.513 1266.241 L 544.294 1265.882 L 544.036 1265.548 L 543.742 1265.239 L 543.413 1264.961 L 543.05 1264.716 Q 542.99 1264.68 542.929 1264.646 L 542.935 1264.646 L 542.935 1264.646 Z  M 540.106 1157.666 L 539.939 1157.679 Q 537.393 1158.046 535.952 1160.097 Q 535.893 1160.1 535.835 1160.103 Q 534.047 1160.201 533.209 1160.829 Q 532.348 1161.155 530.929 1163.367 Q 529.993 1164.843 529.283 1169.767 Q 528.707 1173.065 528.621 1176.493 Q 528.617 1181.639 530.146 1185.398 L 533.051 1217.134 L 534.752 1229.104 Q 532.533 1231.743 530.399 1242.28 Q 528.867 1251.057 529.564 1258.334 Q 529.91 1262.478 530.902 1265.55 Q 531.895 1268.622 533.532 1270.621 Q 533.576 1271.869 533.968 1272.521 Q 534.899 1274.547 537.759 1274.705 Q 537.865 1274.805 538.074 1274.793 Q 539.279 1274.727 543.914 1270.954 Q 543.917 1270.961 543.923 1270.96 Q 544.117 1270.95 548.194 1264.988 Q 556.64 1256.405 559.038 1253.314 L 571.921 1241.497 L 571.927 1241.497 Q 571.42 1242.072 571.015 1243.025 L 570.441 1247.331 Q 570.441 1247.878 570.818 1249.007 Q 572.906 1252.872 573.361 1254.831 Q 572.004 1256.68 572.382 1260.38 Q 572.737 1263.853 574.496 1269.655 Q 573.519 1273.613 576.091 1286.218 Q 578.562 1296.693 582.574 1304.78 Q 586.826 1312.312 588.67 1312.754 L 594.285 1322.382 Q 596.432 1323.88 598.097 1323.788 Q 599.643 1323.703 600.775 1322.25 Q 602.866 1319.682 601.469 1313.111 Q 604.68 1312.925 605.747 1310.181 Q 606.75 1308.404 606.16 1303.318 Q 607.438 1301.67 607.41 1299.771 Q 609.197 1299.64 610.336 1298.241 Q 611.283 1298.715 612.284 1298.66 Q 613.18 1298.61 614.12 1298.138 Q 615.929 1296.874 616.09 1295.336 Q 616.421 1295.549 616.781 1295.693 L 616.654 1300.961 Q 616.779 1302.073 617.333 1303.214 Q 618.605 1305.952 622.869 1308.613 Q 624.786 1309.67 626.463 1309.578 Q 628.229 1309.481 629.73 1308.109 L 630.904 1308.884 L 631.915 1309.289 L 631.909 1309.289 Q 631.434 1311.667 631.229 1314.086 L 631.406 1328.921 L 633.451 1345.881 Q 633.837 1348.066 634.989 1349.377 Q 636.914 1351.407 639.16 1351.283 Q 640.588 1351.205 642.146 1350.255 Q 643.137 1349.69 644.352 1348.555 Q 647.164 1344.192 650.838 1340.692 Q 663.245 1331.327 668.823 1324.897 L 670.421 1324.866 Q 672.51 1325.352 674.208 1325.899 Q 674.763 1326.025 675.217 1326.473 L 676.603 1330.826 Q 678.968 1336.042 681.934 1344.339 Q 685.2 1352.199 686.15 1353.437 L 697.669 1370.027 Q 698.699 1371.399 700.969 1371.463 Q 704.377 1370.897 704.742 1367.783 Q 704.78 1367.317 704.706 1366.842 Q 703.938 1364.285 703.367 1358.959 Q 704.526 1351.079 704.427 1344.525 Q 704.282 1341.623 703.071 1340.211 Q 694.504 1330.532 678.04 1318.808 Q 676.921 1318.316 674.806 1317.728 L 674.799 1317.728 L 661.356 1306.002 Q 660.052 1305.109 658.731 1305.182 Q 658.398 1305.2 658.065 1305.28 L 653.656 1302.103 Q 653.088 1301.702 652.151 1301.512 L 644.554 1294.777 Q 597.021 1251.219 597.484 1251.067 L 597.49 1251.067 Q 597.497 1251.068 597.507 1251.072 L 595.62 1249.195 L 583.763 1235.852 L 581.392 1232.026 Q 580.566 1231.136 579.402 1230.844 L 577.732 1228.924 L 577.726 1228.924 Q 576.771 1226.407 574.671 1222.596 L 570.742 1216.453 L 568.737 1213.005 L 567.093 1209.563 Q 566.496 1208.452 565.422 1207.102 L 560.433 1198.048 L 554.52 1188.843 Q 549.951 1180.062 546.418 1174.604 Q 547.045 1171.697 546.391 1167.835 Q 545.497 1163.97 544.194 1162.699 Q 544.569 1161.258 543.904 1159.872 Q 542.672 1157.642 540.106 1157.666 Z  M 1190.306 1138.696 L 1189.898 1138.745 Q 1188.538 1139.159 1188.084 1139.793 L 1183.647 1145.819 L 1175.012 1176.956 L 1170.695 1188.228 Q 1159.843 1203.731 1154.265 1215.863 Q 1142.844 1224.141 1117.876 1256.697 Q 1104.751 1268.11 1087.939 1285.608 Q 1082.35 1288.465 1068.472 1299.955 Q 1060.792 1306.445 1051.467 1316.689 L 1031.851 1333.786 Q 1029.307 1336.606 1027.926 1361.399 Q 1028.773 1365.367 1032.283 1365.174 Q 1032.368 1365.169 1032.454 1365.162 Q 1034.04 1364.939 1035.081 1363.661 Q 1051.116 1338.532 1059.438 1328.662 Q 1060.115 1328.844 1060.773 1328.808 Q 1061.317 1328.778 1061.848 1328.598 L 1067.36 1326.19 Q 1074.054 1334.17 1082.426 1339.212 Q 1087.949 1342.408 1094.061 1343.858 Q 1094.691 1343.977 1095.263 1343.945 Q 1096.531 1343.876 1097.516 1343.066 Q 1098.369 1342.464 1098.862 1340.972 Q 1100.873 1322.558 1105.089 1312.172 Q 1105.405 1310.641 1104.651 1309.328 L 1105.919 1307.205 L 1118.441 1293.678 L 1118.452 1293.677 Q 1118.148 1298.69 1123.084 1298.601 Q 1122.414 1307.456 1126.125 1307.706 Q 1125.722 1308.907 1125.477 1309.931 L 1125.465 1309.932 C 1125.432 1309.996 1125.401 1310.06 1125.372 1310.125 Q 1124.692 1311.633 1124.48 1313.035 C 1124.148 1315.223 1125.653 1317.265 1127.841 1317.597 C 1128.119 1317.639 1128.395 1317.652 1128.666 1317.637 C 1129.83 1317.573 1130.891 1317.002 1131.591 1316.114 L 1131.579 1316.114 Q 1132.905 1315.438 1134.388 1314.081 Q 1137.269 1309.875 1144.687 1292.942 L 1145.611 1291.876 L 1149.449 1284.668 Q 1152.05 1279.125 1151.006 1277.322 L 1155.494 1266.467 L 1165.18 1247.645 Q 1173.257 1254.311 1184.657 1259.348 Q 1185.662 1259.669 1186.531 1259.621 Q 1188.336 1259.521 1189.556 1257.833 Q 1190.11 1256.98 1190.193 1255.946 L 1190.003 1238.99 Q 1190.13 1237.473 1190.347 1235.974 Q 1191.393 1229.644 1193.172 1224.975 L 1202.077 1166.508 Q 1202.453 1162.941 1198.275 1161.93 L 1202.28 1153.229 Q 1203.33 1148.762 1203.175 1148.693 L 1203.162 1148.694 Q 1203.154 1148.698 1203.143 1148.709 Q 1203.234 1147.377 1201.712 1145.802 Q 1200.516 1144.798 1198.888 1144.887 Q 1198.636 1144.901 1198.373 1144.941 Q 1197.954 1143.452 1197.255 1142.88 Q 1196.206 1141.874 1194.77 1141.746 Q 1194.529 1140.689 1193.638 1139.934 Q 1192.119 1138.713 1190.306 1138.696 Z " fill="rgb(163,127,102)"/></g><g id="rear hair border"><path d=" M 612.874 1299.726 L 612.874 1299.726 C 612.978 1299.743 613.083 1299.756 613.188 1299.764 L 613.182 1299.764 L 613.184 1299.775 C 613.079 1299.764 612.974 1299.748 612.867 1299.726 L 612.874 1299.726 L 612.874 1299.726 Z  M 622.539 1306.21 C 622.587 1306.275 622.634 1306.341 622.681 1306.411 L 622.675 1306.411 C 622.633 1306.352 622.589 1306.293 622.544 1306.236 L 622.537 1306.236 L 622.532 1306.21 L 622.539 1306.21 L 622.539 1306.21 Z  M 622.888 1306.748 L 622.888 1306.748 L 622.888 1306.748 L 622.888 1306.748 Z  M 525.453 1161.378 C 523.243 1161.503 521.554 1163.395 521.679 1165.604 L 522.304 1176.654 C 522.315 1176.851 522.341 1177.047 522.381 1177.24 L 523.435 1182.33 L 527.304 1220.128 L 527.298 1220.128 C 527.749 1239.523 527.331 1252.106 526.044 1257.877 C 525.962 1258.246 525.932 1258.625 525.956 1259.002 L 527.163 1278.066 C 527.244 1279.347 527.935 1280.512 529.02 1281.199 C 529.733 1281.65 530.561 1281.858 531.383 1281.813 C 531.811 1281.789 532.238 1281.697 532.646 1281.534 C 537.57 1279.57 541.846 1277.137 545.473 1274.235 C 545.55 1274.173 545.626 1274.108 545.698 1274.04 L 569.328 1252.064 L 569.241 1273.08 C 569.24 1273.252 569.25 1273.425 569.272 1273.597 L 570.899 1286.53 C 570.928 1286.759 570.977 1286.986 571.045 1287.208 C 574.502 1298.444 577.368 1305.757 579.645 1309.148 L 579.639 1309.148 C 586.544 1320.695 592.368 1328.45 597.111 1332.413 C 597.892 1333.065 598.89 1333.394 599.9 1333.338 C 599.98 1333.338 600.06 1333.327 600.14 1333.318 C 601.23 1333.192 602.222 1332.624 602.882 1331.746 C 603.187 1331.34 603.452 1330.879 603.675 1330.363 C 604.55 1328.339 604.915 1324.691 604.77 1319.42 L 604.763 1319.421 C 606.342 1315.033 607.351 1311.869 607.79 1309.927 L 607.783 1309.927 C 610.239 1306.157 612.142 1303.338 613.492 1301.47 L 613.499 1301.47 L 614.716 1308.01 C 614.73 1308.082 614.745 1308.154 614.828 1308.461 L 614.823 1308.461 C 614.899 1308.745 614.983 1309.012 615.074 1309.262 L 615.074 1309.263 C 615.418 1310.201 615.899 1310.959 616.517 1311.538 L 616.511 1311.538 C 617.473 1312.627 618.855 1313.131 620.658 1313.049 L 620.658 1313.049 C 620.677 1313.048 620.697 1313.049 620.717 1313.049 C 622.07 1312.974 624.117 1312.435 626.856 1311.431 L 626.863 1311.431 C 626.589 1313.365 626.366 1315.619 626.193 1318.193 C 626.185 1318.319 626.182 1318.446 626.186 1318.572 C 626.505 1330.152 627.905 1341.735 630.385 1353.322 C 630.672 1354.662 631.625 1355.763 632.91 1356.239 C 633.417 1356.427 633.95 1356.56 634.507 1356.636 C 635 1356.703 635.518 1356.722 636.063 1356.692 C 639.188 1356.52 643.162 1354.746 647.986 1351.371 C 648.076 1351.308 648.164 1351.241 648.248 1351.171 C 655.783 1344.917 661.825 1340.227 666.374 1337.103 C 666.608 1336.943 666.824 1336.758 667.019 1336.551 L 671.835 1331.452 L 671.842 1331.451 C 672.139 1331.875 672.403 1332.365 672.635 1332.923 L 672.628 1332.924 C 676.075 1343.44 678.191 1349.463 678.977 1350.993 C 679.221 1351.467 679.488 1351.875 679.779 1352.217 L 679.772 1352.217 C 690.021 1369.033 697.279 1378.366 701.546 1380.215 C 701.665 1380.266 701.784 1380.315 701.904 1380.36 C 702.441 1380.561 702.993 1380.64 703.531 1380.611 C 705.069 1380.526 706.487 1379.552 707.063 1378.017 C 707.839 1375.95 706.796 1373.645 704.733 1372.863 L 704.732 1372.863 C 701.968 1371.665 695.793 1363.169 686.206 1347.375 C 686.133 1347.255 686.055 1347.14 685.971 1347.03 L 685.964 1347.03 C 685.231 1345.368 683.298 1339.758 680.167 1330.198 C 680.137 1330.105 680.103 1330.013 680.066 1329.923 C 678.805 1326.855 676.909 1324.581 674.377 1323.102 C 674.156 1322.973 673.924 1322.866 673.682 1322.781 C 672.942 1322.521 672.212 1322.411 671.493 1322.451 C 670.344 1322.514 669.222 1322.96 668.127 1323.788 C 667.95 1323.922 667.784 1324.071 667.631 1324.232 L 661.471 1330.755 L 661.464 1330.756 C 656.783 1333.998 650.703 1338.721 643.226 1344.925 L 643.219 1344.926 C 640.812 1346.6 638.917 1347.719 637.533 1348.283 C 635.6 1338.385 634.49 1328.495 634.203 1318.611 L 634.196 1318.612 C 634.585 1312.861 635.099 1309.379 635.738 1308.166 L 635.731 1308.166 C 636.67 1306.879 636.757 1305.157 635.951 1303.781 C 634.874 1301.94 633.424 1301.07 631.601 1301.171 C 631.222 1301.192 630.827 1301.254 630.416 1301.359 C 630.201 1301.414 629.991 1301.487 629.788 1301.576 C 626.428 1303.059 623.909 1304.067 622.232 1304.601 L 620.984 1297.898 C 620.959 1297.76 620.926 1297.623 620.886 1297.488 C 620.173 1295.092 618.944 1292.963 617.201 1291.1 C 616.357 1290.199 615.196 1289.774 614.053 1289.837 C 613.147 1289.887 612.252 1290.244 611.538 1290.913 C 610.978 1291.437 610.602 1292.084 610.412 1292.773 L 610.406 1292.773 C 610.315 1292.849 610.223 1292.928 610.132 1293.012 L 610.132 1293.012 C 608.629 1294.384 605.47 1298.778 600.653 1306.196 C 600.345 1306.671 600.14 1307.206 600.054 1307.766 C 599.849 1309.098 598.822 1312.309 596.974 1317.4 C 596.798 1317.884 596.718 1318.397 596.736 1318.912 C 596.755 1319.426 596.769 1319.918 596.78 1320.388 C 593.759 1316.556 590.303 1311.381 586.412 1304.864 C 586.375 1304.803 586.337 1304.742 586.298 1304.684 C 584.482 1301.979 581.988 1295.491 578.817 1285.221 L 578.811 1285.222 L 577.255 1272.856 L 577.35 1250.008 L 577.344 1250.009 C 578.456 1247.495 579.163 1244.414 579.465 1240.765 L 579.459 1240.765 C 580.061 1239.475 580.538 1238.606 580.889 1238.158 L 580.883 1238.159 C 582.292 1237.346 583.096 1235.733 582.838 1234.074 C 582.539 1232.153 580.905 1230.723 578.962 1230.683 C 578.855 1230.683 578.749 1230.683 578.644 1230.693 C 577.787 1230.74 576.969 1231.053 576.191 1231.631 L 576.185 1231.631 C 575.862 1231.863 575.55 1232.136 575.249 1232.449 C 575.086 1232.619 574.92 1232.809 574.753 1233.018 L 574.747 1233.018 C 573.062 1234.889 570.198 1238.577 566.156 1244.083 L 566.15 1244.084 L 540.322 1268.104 L 540.316 1268.105 C 538.652 1269.421 536.81 1270.625 534.79 1271.718 L 534.79 1271.718 L 533.989 1259.072 L 533.983 1259.072 C 535.325 1252.448 535.765 1239.328 535.304 1219.714 C 535.301 1219.609 535.295 1219.505 535.284 1219.4 L 531.385 1181.317 C 531.372 1181.182 531.351 1181.047 531.323 1180.913 L 530.287 1175.912 L 529.679 1165.159 C 529.554 1162.951 527.665 1161.263 525.459 1161.384 L 525.453 1161.378 L 525.453 1161.378 Z  M 1201.305 1146.581 C 1199.334 1146.69 1197.698 1148.242 1197.537 1150.265 C 1197.447 1151.396 1197.467 1152.427 1197.598 1153.358 L 1197.598 1153.359 C 1197.647 1153.708 1197.711 1154.046 1197.792 1154.373 C 1197.808 1154.434 1197.824 1154.495 1197.825 1154.495 L 1197.825 1154.495 L 1197.825 1154.495 L 1197.849 1154.577 C 1198.183 1155.676 1198.456 1156.682 1198.67 1157.594 L 1198.669 1157.594 C 1198.71 1157.798 1198.739 1157.991 1198.755 1158.174 L 1198.743 1158.175 C 1198.667 1158.475 1198.626 1158.788 1198.622 1159.111 L 1198.603 1160.752 L 1197.058 1180.164 C 1197.048 1180.286 1197.045 1180.406 1197.046 1180.526 L 1197.033 1180.526 L 1187.638 1227.528 C 1187.628 1227.582 1187.618 1227.637 1187.609 1227.691 C 1186.673 1233.644 1186.205 1243.869 1186.203 1258.367 C 1182.785 1256.498 1177.442 1251.983 1170.173 1244.821 C 1169.756 1244.41 1169.253 1244.095 1168.702 1243.899 C 1166.788 1243.219 1165.162 1242.892 1163.823 1242.918 L 1163.823 1242.918 C 1163.728 1242.918 1163.634 1242.928 1163.541 1242.929 C 1162.359 1242.994 1161.327 1243.324 1160.447 1243.922 C 1160.287 1244.031 1160.135 1244.15 1159.993 1244.28 C 1158.487 1245.655 1157.441 1247.008 1156.855 1248.338 L 1156.855 1248.338 C 1156.649 1248.803 1156.495 1249.27 1156.394 1249.74 L 1156.375 1249.832 C 1153.919 1262.64 1150.553 1274.208 1146.277 1284.537 L 1146.265 1284.538 L 1127.897 1313.838 L 1127.535 1314.054 C 1127.535 1304.266 1125.68 1296.617 1121.98 1291.105 L 1121.97 1291.105 C 1120.959 1289.385 1119.689 1288.568 1118.161 1288.653 C 1117.331 1288.698 1116.424 1289.009 1115.442 1289.587 C 1115.226 1289.714 1115.009 1289.859 1114.793 1290.021 L 1114.792 1290.021 C 1112.834 1291.484 1109.782 1295.631 1105.637 1302.463 L 1105.626 1302.464 C 1105.518 1302.561 1105.411 1302.661 1105.307 1302.767 C 1101.692 1306.397 1098.32 1319.761 1095.19 1342.86 C 1094.988 1342.799 1094.784 1342.726 1094.578 1342.644 L 1094.567 1342.644 C 1077.182 1329.063 1066.058 1321.755 1061.195 1320.72 C 1060.847 1320.646 1060.493 1320.619 1060.14 1320.639 C 1059.881 1320.653 1059.623 1320.692 1059.37 1320.757 C 1058.746 1320.916 1058.147 1321.154 1057.571 1321.471 C 1056.189 1322.229 1054.985 1323.418 1053.957 1325.038 C 1053.904 1325.121 1053.854 1325.206 1053.808 1325.293 C 1042.464 1346.465 1034.039 1359.928 1028.535 1365.684 C 1027.005 1367.283 1027.061 1369.819 1028.66 1371.349 C 1029.494 1372.146 1030.583 1372.513 1031.651 1372.454 C 1032.631 1372.4 1033.593 1371.988 1034.325 1371.223 C 1040.312 1364.964 1049.118 1350.996 1060.742 1329.318 L 1060.731 1329.318 C 1060.8 1329.209 1060.866 1329.111 1060.929 1329.023 L 1060.94 1329.023 C 1065.476 1330.897 1075.17 1337.643 1090.02 1349.261 C 1090.265 1349.453 1090.533 1349.616 1090.817 1349.747 C 1093.109 1350.799 1095.375 1351.263 1097.615 1351.14 C 1098.24 1351.105 1098.863 1351.025 1099.485 1350.899 C 1101.165 1350.558 1102.442 1349.185 1102.662 1347.485 C 1105.667 1324.173 1108.42 1311.174 1110.92 1308.488 L 1110.909 1308.489 C 1111.404 1308.16 1111.821 1307.725 1112.128 1307.215 C 1114.228 1303.727 1115.927 1301.07 1117.226 1299.243 L 1117.238 1299.243 C 1119.328 1304.488 1119.988 1311.729 1119.218 1320.967 C 1119.093 1322.463 1119.816 1323.904 1121.089 1324.699 C 1121.803 1325.144 1122.622 1325.345 1123.432 1325.3 C 1124.067 1325.265 1124.697 1325.079 1125.264 1324.741 L 1132.832 1320.225 C 1133.377 1319.9 1133.836 1319.45 1134.173 1318.913 L 1153.267 1288.456 C 1153.384 1288.268 1153.486 1288.071 1153.571 1287.867 C 1158.083 1277.027 1161.627 1264.925 1164.203 1251.561 L 1164.191 1251.562 C 1164.258 1251.415 1164.387 1251.232 1164.579 1251.014 L 1164.591 1251.013 C 1164.777 1251.056 1164.992 1251.114 1165.235 1251.188 L 1165.223 1251.189 C 1176.542 1262.24 1184.708 1267.628 1189.722 1267.352 C 1189.753 1267.352 1189.784 1267.352 1189.815 1267.342 L 1189.816 1267.342 C 1190.326 1267.306 1190.818 1267.222 1191.292 1267.092 L 1191.293 1267.092 C 1193.039 1266.61 1194.244 1265.016 1194.232 1263.204 C 1194.125 1246.674 1194.548 1235.304 1195.501 1229.095 L 1195.501 1229.095 L 1206.396 1174.588 C 1206.445 1174.344 1206.471 1174.096 1206.474 1173.848 L 1206.618 1161.111 L 1206.755 1159.389 L 1206.755 1159.389 C 1206.778 1159.097 1206.79 1158.801 1206.79 1158.502 L 1206.79 1158.502 C 1206.79 1157.64 1206.689 1156.753 1206.493 1155.841 L 1206.477 1155.772 C 1206.229 1154.712 1205.919 1153.565 1205.546 1152.331 L 1205.545 1152.331 L 1205.544 1152.331 L 1205.554 1152.33 C 1205.554 1152.305 1205.544 1152.278 1205.541 1152.25 L 1205.541 1152.25 C 1205.492 1151.899 1205.49 1151.45 1205.531 1150.903 C 1205.706 1148.697 1204.06 1146.767 1201.854 1146.592 C 1201.671 1146.577 1201.49 1146.575 1201.311 1146.582 L 1201.305 1146.581 L 1201.305 1146.581 Z " fill="rgb(0,0,0)"/></g></g><g id="face lines"><g id="Group"><path d=" M 806.237 389.971 Q 818.2 389.312 830.531 389.154 Q 1057.132 390.725 1158.212 499.04 Q 1203.091 539 1238.04 656.086 Q 1268.652 750.721 1260.571 826.791 L 1260.558 826.792 Q 1221.444 1021.929 1200.676 1082.371 Q 1174.522 1169.086 1144.863 1215.239 Q 1098.483 1271.134 981.328 1360.093 Q 907.105 1406.043 879.229 1407.58 Q 876.555 1407.727 874.308 1407.466 Q 812.472 1401.989 733.183 1349.073 Q 619.707 1274.409 581.202 1221.254 Q 544.458 1160.981 504.005 1045.401 Q 482.652 983.656 459.383 852.498 L 459.377 852.498 Q 452.759 806.622 456.668 760.389 Q 460.694 704.034 473.232 651.947 Q 491.495 573.386 538.694 512.175 Q 634.507 399.435 806.237 389.971 Z  M 811.173 379.852 Q 810.485 379.89 809.796 379.93 L 787.303 381.617 Q 696.278 389.506 620.436 430.4 Q 568.681 454.904 515.243 527.393 Q 472.396 594.288 457.615 676.362 Q 438.083 788.983 449.516 844.199 L 449.511 844.199 Q 449.084 845.335 448.992 846.904 L 461.34 922.153 Q 474.424 980.184 495.401 1049.529 Q 545.372 1188.924 574.647 1230.705 Q 637.068 1301.458 736.988 1363.042 Q 823.749 1419.611 876.174 1416.721 Q 876.457 1416.706 876.74 1416.688 Q 895.671 1414.773 916.087 1406.928 Q 948.099 1394.758 986.74 1368.474 Q 1067.7 1313.382 1156.086 1216.196 Q 1180.319 1181.738 1225.058 1032.667 Q 1248.202 947.577 1267.18 838.249 L 1267.166 838.25 Q 1270.154 833.266 1270.621 828.772 L 1271.619 770.556 Q 1266.467 723.139 1254.475 678.349 Q 1229.428 588.019 1209.242 553.235 Q 1179.696 502.633 1165.387 492.072 Q 1107.62 434.081 1029.003 407.956 Q 922.252 373.731 811.173 379.852 Z " fill="rgb(0,0,0)"/></g></g></g></g></g></svg>