<?xml version="1.0" standalone="no"?><!-- Generator: Gravit.io --><svg xmlns="http://www.w3.org/2000/svg" xmlns:xlink="http://www.w3.org/1999/xlink" style="isolation:isolate" viewBox="0 0 1736.678 1736.678" width="1736.678" height="1736.678"><defs><clipPath id="_clipPath_6DP8J8E4qMbk477LdzrwpK5rLsdZhWMX"><rect width="1736.678" height="1736.678"/></clipPath></defs><g clip-path="url(#_clipPath_6DP8J8E4qMbk477LdzrwpK5rLsdZhWMX)"><clipPath id="_clipPath_1EIP7j0sgSAk8a0WYjQojDrOhl7pIhi2"><path d=" M 6 868.339 C 6 392.401 392.401 6 868.339 6 C 1344.277 6 1730.678 392.401 1730.678 868.339 C 1730.678 1344.277 1344.277 1730.678 868.339 1730.678 C 392.401 1730.678 6 1344.277 6 868.339 Z " fill="rgb(255,255,255)"/></clipPath><g clip-path="url(#_clipPath_1EIP7j0sgSAk8a0WYjQojDrOhl7pIhi2)"><g id="Group"><g id="avatars"><g id="neck color"><g id="Group"><path d=" M 706.041 1340.418 L 698.687 1468.942 Q 634.953 1489.006 599.54 1522.458 Q 631.465 1547.257 726.403 1582.225 L 869.244 1602.426 Q 945.326 1600.313 988.258 1583.679 Q 1034.93 1567.023 1085.543 1544.229 Q 1108.079 1533.685 1130.877 1515.374 Q 1092.037 1486.283 1036.838 1466.066 Q 1026.854 1390.851 1026.549 1332.684 L 984.425 1363.903 L 944.486 1388.136 L 911.165 1405.061 L 868.881 1412.629 L 823.147 1402.911 Q 790.544 1387.39 706.041 1340.418 Z " fill="rgb(242,211,196)"/></g></g><g id="face color"><g id="Group"><path d=" M 806.237 389.971 Q 818.2 389.312 830.531 389.154 Q 1057.132 390.725 1158.212 499.04 Q 1203.091 539 1238.04 656.086 Q 1268.652 750.721 1260.571 826.791 L 1260.558 826.792 Q 1221.444 1021.929 1200.676 1082.371 Q 1174.522 1169.086 1144.863 1215.239 Q 1098.483 1271.134 981.328 1360.093 Q 907.105 1406.043 879.229 1407.58 Q 876.555 1407.727 874.308 1407.466 Q 812.472 1401.989 733.183 1349.073 Q 619.707 1274.409 581.202 1221.254 Q 544.458 1160.981 504.005 1045.401 Q 482.652 983.656 459.383 852.498 L 459.377 852.498 Q 452.759 806.622 456.668 760.389 Q 460.694 704.034 473.232 651.947 Q 491.495 573.386 538.694 512.175 Q 634.507 399.435 806.237 389.971 Z " fill="rgb(252,235,224)"/></g></g><g id="face lines"><g id="Group"><path d=" M 806.237 389.971 Q 818.2 389.312 830.531 389.154 Q 1057.132 390.725 1158.212 499.04 Q 1203.091 539 1238.04 656.086 Q 1268.652 750.721 1260.571 826.791 L 1260.558 826.792 Q 1221.444 1021.929 1200.676 1082.371 Q 1174.522 1169.086 1144.863 1215.239 Q 1098.483 1271.134 981.328 1360.093 Q 907.105 1406.043 879.229 1407.58 Q 876.555 1407.727 874.308 1407.466 Q 812.472 1401.989 733.183 1349.073 Q 619.707 1274.409 581.202 1221.254 Q 544.458 1160.981 504.005 1045.401 Q 482.652 983.656 459.383 852.498 L 459.377 852.498 Q 452.759 806.622 456.668 760.389 Q 460.694 704.034 473.232 651.947 Q 491.495 573.386 538.694 512.175 Q 634.507 399.435 806.237 389.971 Z  M 811.173 379.852 Q 810.485 379.89 809.796 379.93 L 787.303 381.617 Q 696.278 389.506 620.436 430.4 Q 568.681 454.904 515.243 527.393 Q 472.396 594.288 457.615 676.362 Q 438.083 788.983 449.516 844.199 L 449.511 844.199 Q 449.084 845.335 448.992 846.904 L 461.34 922.153 Q 474.424 980.184 495.401 1049.529 Q 545.372 1188.924 574.647 1230.705 Q 637.068 1301.458 736.988 1363.042 Q 823.749 1419.611 876.174 1416.721 Q 876.457 1416.706 876.74 1416.688 Q 895.671 1414.773 916.087 1406.928 Q 948.099 1394.758 986.74 1368.474 Q 1067.7 1313.382 1156.086 1216.196 Q 1180.319 1181.738 1225.058 1032.667 Q 1248.202 947.577 1267.18 838.249 L 1267.166 838.25 Q 1270.154 833.266 1270.621 828.772 L 1271.619 770.556 Q 1266.467 723.139 1254.475 678.349 Q 1229.428 588.019 1209.242 553.235 Q 1179.696 502.633 1165.387 492.072 Q 1107.62 434.081 1029.003 407.956 Q 922.252 373.731 811.173 379.852 Z " fill="rgb(0,0,0)"/></g></g><g id="neck lines"><g id="Group"><path d=" M 595.805 1528.072 Q 596.101 1522.366 597.369 1517.499 Q 612.14 1505.376 625.685 1496.702 Q 640.622 1486.281 693.968 1466.522 Q 699.808 1417.274 700.543 1394.995 Q 701.442 1371.892 698.476 1332.995 Q 699.715 1328.971 701.978 1328.406 L 702.559 1328.319 L 702.559 1328.319 Q 708.028 1328.95 708.354 1332.124 Q 710.95 1366.099 710.861 1385.758 Q 710.967 1410.467 702.869 1472.744 Q 702.208 1473.925 700.383 1474.799 Q 657.971 1490.394 641.393 1499.209 Q 626.269 1507.062 605.475 1523.751 Q 601.406 1521.574 597.04 1519.212 L 596.335 1522.636 L 595.805 1528.072 Z  M 1125.683 1516.195 L 1107.84 1503.577 Q 1103.739 1500.826 1092.506 1494.661 Q 1076.036 1486.173 1033.4 1471.078 Q 1031.564 1470.227 1030.888 1469.054 Q 1022.796 1413.633 1022.053 1386.819 Q 1021.371 1360.696 1023.633 1328.636 Q 1023.682 1326.33 1027.657 1324.725 L 1028.272 1324.652 L 1028.272 1324.652 Q 1032.717 1324.839 1033.539 1329.261 Q 1031.059 1368.192 1032.246 1391.282 Q 1033.258 1413.55 1039.712 1462.724 Q 1092.848 1481.707 1109.624 1492.576 Q 1119.78 1499.219 1134.257 1510.407 L 1134.435 1522.384 L 1134.392 1522.354 Q 1134.41 1522.343 1134.428 1522.332 L 1134.221 1510.782 Q 1130.016 1513.516 1125.683 1516.195 Z " fill-rule="evenodd" fill="rgb(0,0,0)"/></g></g></g></g></g></g></svg>