<?xml version="1.0" standalone="no"?><!-- Generator: Gravit.io --><svg xmlns="http://www.w3.org/2000/svg" xmlns:xlink="http://www.w3.org/1999/xlink" style="isolation:isolate" viewBox="0 0 1736.678 1736.678" width="1736.678" height="1736.678"><defs><clipPath id="_clipPath_zekZM5maN3PMki7yBnHLVDJnbFjeNeEL"><rect width="1736.678" height="1736.678"/></clipPath></defs><g clip-path="url(#_clipPath_zekZM5maN3PMki7yBnHLVDJnbFjeNeEL)"><path d=" M 1436.279 280.115 C 1404.596 266.931 1111.742 117.846 1111.742 117.846 Q 1111.742 117.846 876 280.115 Q 624.936 117.846 624.936 117.846 C 624.936 117.846 332.081 266.931 300.398 280.115 C 214.274 319.141 56.996 564.085 56.996 564.085 L 300.398 766.921 L 381.533 685.787 L 381.533 1618.831 L 1355.145 1618.831 L 1355.145 685.787 L 1436.279 766.921 L 1679.682 564.085 C 1679.682 564.085 1522.403 319.141 1436.279 280.115 Z " fill="rgb(94,192,143)"/><path d=" M 602.954 117.846 Q 602.954 117.846 624.936 117.846 C 717.323 162.687 798.468 177.44 868.339 162.077 C 953.405 179.358 1034.549 164.624 1111.742 117.846 Q 1133.723 117.846 1133.723 117.846 C 1133.723 117.846 1112.183 339 868.339 339 C 624.495 339 602.954 117.846 602.954 117.846 Z " fill="rgb(255,255,255)"/><path d=" M 624.936 117.846 C 624.936 117.846 868.339 158.413 868.339 158.413 C 1002.616 158.413 1111.742 117.846 1111.742 117.846 C 1111.742 117.846 1091.986 320.682 868.339 320.682 C 644.692 320.682 624.936 117.846 624.936 117.846 Z " fill="rgb(57,142,95)"/></g></svg>